<svg xmlns="http://www.w3.org/2000/svg" width="52" height="19" viewBox="0 0 52 19"><g transform="translate(151 -2887)"><rect width="52" height="19" rx="9.5" transform="translate(-151 2887)" fill="#e8ecee"/><path d="M-10.5-3.58a1.517,1.517,0,0,0,1.34-1.6c0-1.13-.86-1.82-2.25-1.82h-2.88V0h2.99c1.39,0,2.24-.74,2.24-1.94A1.55,1.55,0,0,0-10.5-3.58Zm-1.27-2.25c.63,0,.99.32.99.85s-.37.85-.99.85h-.9v-1.7Zm.11,4.6h-1.01V-3.01h1.01a.868.868,0,0,1,.97.86A.871.871,0,0,1-11.665-1.23ZM-7.255,0h4.22V-1.44h-2.6V-7h-1.62ZM1.8.2a3.58,3.58,0,0,0,3.74-3.7A3.58,3.58,0,0,0,1.8-7.2a3.58,3.58,0,0,0-3.74,3.7A3.58,3.58,0,0,0,1.8.2Zm0-1.45A2.038,2.038,0,0,1-.255-3.5,2.038,2.038,0,0,1,1.8-5.75,2.05,2.05,0,0,1,3.845-3.5,2.05,2.05,0,0,1,1.8-1.25Zm13.03-2.43h-3.58v1.22h1.25a1.693,1.693,0,0,1-1.83,1.25A2.07,2.07,0,0,1,8.615-3.5a2.06,2.06,0,0,1,2.11-2.34,1.424,1.424,0,0,1,1.53,1.01h1.77c-.12-1.36-1.43-2.37-3.31-2.37a3.578,3.578,0,0,0-3.79,3.73A3.514,3.514,0,0,0,10.625.2a3.285,3.285,0,0,0,3.54-2.66h.66Z" transform="translate(-124 2900)"/></g></svg>