<svg xmlns="http://www.w3.org/2000/svg" width="464.721" height="21.476" viewBox="0 0 464.721 21.476"><path d="M320.934.583Q322.1.474,323.92.474a8.887,8.887,0,0,1,2.435-.2q1.218.068,2.435.068,0,.135-.2.271a.456.456,0,0,0-.2.406q6.088.135,12.176-.068T352.33.61l-.406-.135a30.456,30.456,0,0,0,8.117,0,34.109,34.109,0,0,1,11.364,0Q374.246.2,376.681.068a14.961,14.961,0,0,1,4.87.542,42.265,42.265,0,0,1,8.32-.542Q394.133.2,399.409.2q-1.218.135-1.623.2l-1.218.2a9.836,9.836,0,0,0,4.058,0,13.388,13.388,0,0,1,3.247-.542q1.218.135,2.232.271a25.043,25.043,0,0,0,3.044.135,43.044,43.044,0,0,1,6.088-.406q3.247,0,6.9.271,5.682.135,11.567.068T445.27.068q0,.135.406.135h.812a52.239,52.239,0,0,0,5.073,1.355,28.918,28.918,0,0,1,5.479,1.761,8.514,8.514,0,0,1,2.029.948,7.174,7.174,0,0,1,3.247,1.558,7.5,7.5,0,0,1,1.218,1.693q.812.813-2.029,1.49-2.029.677-1.217,1.49a2.616,2.616,0,0,1,.406,1.355q0,.677,1.623,1.355,1.218,1.219-.406,1.9l-2.435.813q-2.841-.135-5.276-.2a42.9,42.9,0,0,1-4.464-.339,7.934,7.934,0,0,0-1.826-.068,7.933,7.933,0,0,1-1.826-.068q-4.464-.271-8.726-.406t-8.726-.406q-3.247-.135-5.682-.135a44.008,44.008,0,0,1-4.87-.271q-7.711,0-15.219-.135t-15.219-.406l-24.554-.271q-12.379-.135-25.366-.135h-3.856q-1.826,0-3.856.135H325.95q-2.029,0-4.059-.135-5.276-.135-10.349-.2t-10.349.068H290.438q-5.073,0-10.755.135-8.929.135-17.249.271t-16.843.135q-5.682.135-11.567.135t-11.567.135q-2.841.135-5.682.2t-6.088.068q-9.335.271-19.278.474t-19.278.474q-4.464.135-8.523.135t-8.523.271q-8.523.406-17.452.745t-18.263.745q-2.435.135-5.276.2t-5.276.339q-5.276.271-10.755.474t-11.161.61q-4.87.406-9.335.474t-9.335.068q-2.029-.135-3.856-.2a24.246,24.246,0,0,1-3.856-.474q-1.218-.271-2.841-.474t-3.653-.474q-5.682.542-12.581,1.016T28.055,19.712q-1.623.271-5.682.542Q10.6,21.067,3.7,18.9.457,18.222.051,17.138t2.435-2.032q0-.406,1.623-.406a32.685,32.685,0,0,0,5.682-.677,42.847,42.847,0,0,1,5.682-.813q6.088-.406,12.176-1.219,3.247-.271,6.494-.474t6.9-.474Q49.159,10.5,56.87,9.958T72.7,9.009Q91.367,7.79,109.631,6.977q5.276-.271,10.146-.542t9.335-.542q4.87-.271,9.943-.542T149.4,4.945h2.638a12.137,12.137,0,0,0,2.638-.271q4.464-.271,8.523-.339t8.523-.2a18.419,18.419,0,0,1,4.464,0A8.754,8.754,0,0,0,178.22,4a15.122,15.122,0,0,1,4.667-.406,37.462,37.462,0,0,0,5.479-.135q3.247,0,4.87.135a3.212,3.212,0,0,1,.364.018,2.946,2.946,0,0,1,.65-.153,8.864,8.864,0,0,0,1.015-.135,11.1,11.1,0,0,1,5.682.406q.812-.135,2.029-.271l2.435-.271q.812,0,2.029.068a14.632,14.632,0,0,0,2.435-.068q5.682-.135,11.364-.068T232.6,2.777a23.93,23.93,0,0,1,2.638-.135h2.638a10.67,10.67,0,0,1,1.623-.406l1.623-.271q1.218.135,3.653.677a6.712,6.712,0,0,1,2.029-.813,10.164,10.164,0,0,1,2.841-.271,15.54,15.54,0,0,1,3.247.271,12.691,12.691,0,0,0,4.464.406q3.653-.135,7.508-.2t7.1-.2q2.029,0,4.261-.068t4.667-.068q-.406-.135.812-.813H287.8q.812,0,.609.406t1.826,0a14.852,14.852,0,0,1,2.841,0,80.933,80.933,0,0,0,10.552.135,54.479,54.479,0,0,1,13.393.271,12.289,12.289,0,0,0,2.029-.61q.812-.339,1.623-.61a1.564,1.564,0,0,1,.261.109Z" transform="translate(0.506 0.5)" fill="none" stroke="#707070" stroke-width="1"/></svg>