<svg xmlns="http://www.w3.org/2000/svg" width="53.873" height="52.613" viewBox="0 0 53.873 52.613"><path d="M2.822.068a6.224,6.224,0,0,0,3.417-1.36A3.155,3.155,0,0,0,7.395-3.383a3.62,3.62,0,0,0,.034-.374A3.7,3.7,0,0,0,6.953-5.44,2.71,2.71,0,0,0,5.8-6.6l-.221-.136.1-.119a.484.484,0,0,1,.085-.1,2.66,2.66,0,0,0,.6-1.632,2.918,2.918,0,0,0-.187-.969,2.907,2.907,0,0,0-1.938-1.87,5.463,5.463,0,0,0-1.564-.238,2.268,2.268,0,0,0-1.6.493,1.064,1.064,0,0,0-.391.8q.034.374.034.578l.1,8.687a.807.807,0,0,0,.017.187.842.842,0,0,0,.3.6A1.009,1.009,0,0,0,1.8-.1a1.054,1.054,0,0,1,.255.034A1.31,1.31,0,0,0,2.822.068ZM2.652-7q0-.969-.034-2.941a.619.619,0,0,0,.1-.009.3.3,0,0,1,.119.009q.544.1.816.17a.88.88,0,0,1,.561.442l.1.221a1.147,1.147,0,0,1,.136.51,1.18,1.18,0,0,1-.459.884A3.256,3.256,0,0,1,2.652-7ZM3.2-5.321q.153,0,.391-.008t.561.008a1.24,1.24,0,0,1,1.173.8,1.99,1.99,0,0,1,.187.8,1.368,1.368,0,0,1-.187.7,1.361,1.361,0,0,1-.255.357,4.049,4.049,0,0,1-2.227,1h-.1L2.686-5.321ZM10.982-.1a3.726,3.726,0,0,0,.731.068A2.954,2.954,0,0,0,13.6-.68a.194.194,0,0,1,.1-.068q.136.153.187.2a1.031,1.031,0,0,0,.782.374A.862.862,0,0,0,15.122-.3a.892.892,0,0,0,.332-.348.838.838,0,0,0,.1-.408.65.65,0,0,0-.238-.544.672.672,0,0,1-.2-.493l-.017-.17a2.931,2.931,0,0,0-.017-.374l-.017-.374a1.541,1.541,0,0,1,.017-.272,10.665,10.665,0,0,0,.17-2.057q0-.8-.085-1.785a2.021,2.021,0,0,0-.2-.68,1.054,1.054,0,0,0-.34-.348.819.819,0,0,0-.442-.127.869.869,0,0,0-.587.212.807.807,0,0,0-.28.552,5.676,5.676,0,0,0-.034.731q0,.442.034,1.326L13.328-3.4a1.463,1.463,0,0,1-.034.272,2.284,2.284,0,0,1-.85,1.156,1.176,1.176,0,0,1-.544.221,1.991,1.991,0,0,1-.952-.136,1.139,1.139,0,0,1-.782-.867,4.459,4.459,0,0,1-.1-.561A7.624,7.624,0,0,1,10-4.386q0-.425.034-1.241.017-.425.085-1.19a1.7,1.7,0,0,1,.026-.23.955.955,0,0,0,.009-.28.743.743,0,0,0-.255-.536.837.837,0,0,0-.578-.212.822.822,0,0,0-.536.187.863.863,0,0,0-.3.51q-.068.34-.1.663L8.347-6.1q-.017.306-.034.765T8.3-4.284a13.626,13.626,0,0,0,.136,1.615,2.858,2.858,0,0,0,.85,1.717A3.117,3.117,0,0,0,10.982-.1Zm6.426-8.925a.982.982,0,0,0,.408-.1l.255-.119a.921.921,0,0,0,.4-.348.923.923,0,0,0,.145-.5.936.936,0,0,0-.3-.7.959.959,0,0,0-.688-.289,1.252,1.252,0,0,0-.842.315.982.982,0,0,0-.365.773.944.944,0,0,0,.281.68A.942.942,0,0,0,17.408-9.027Zm.1,8.874a.77.77,0,0,0,.272.051A.812.812,0,0,0,18.165-.2a.829.829,0,0,0,.3-.264.746.746,0,0,0,.153-.459.724.724,0,0,0-.187-.476.746.746,0,0,1-.187-.459V-4.522h-.034V-5q0-.748-.034-2.21a.6.6,0,0,0-.017-.17.712.712,0,0,0-.247-.459.713.713,0,0,0-.484-.187.76.76,0,0,0-.535.2.707.707,0,0,0-.23.5q-.017.238-.017.748v.765q0,.221.034.663l.017.646v2.363a4.467,4.467,0,0,0,.051.663,1.92,1.92,0,0,0,.323.935A1.109,1.109,0,0,0,17.51-.153Zm3.264.017a.824.824,0,0,0,.552-.2.73.73,0,0,0,.264-.484V-.952a1.871,1.871,0,0,0-.017-.289q0-.51-.034-1.6-.034-3.026-.068-4.505L21.4-11.1a3.592,3.592,0,0,1,.034-.391l.017-.136a.773.773,0,0,0-.247-.578.857.857,0,0,0-.621-.238.94.94,0,0,0-.467.119.833.833,0,0,0-.332.34,2.177,2.177,0,0,0-.119.391q-.017.272-.017.85,0,1,.068,2.975,0,.476.034,1.428h.034v4.08q0,.34.034,1.02a1.653,1.653,0,0,0,.136.646.934.934,0,0,0,.357.34A.956.956,0,0,0,20.774-.136Zm7.565.442a.779.779,0,0,0,.544-.731,11.823,11.823,0,0,0,.085-1.36q.017-.391.017-1.19,0-.782-.017-1.173,0-.782-.034-2.38-.051-1.445-.119-4.216a1.871,1.871,0,0,0-.017-.289.807.807,0,0,0-.272-.535.815.815,0,0,0-.561-.213.8.8,0,0,0-.561.221.839.839,0,0,0-.272.544,1.408,1.408,0,0,0-.017.255l.051,2.329v.289l-.221-.068a2.568,2.568,0,0,0-.986-.1,3.811,3.811,0,0,0-3.247,2.278,7.974,7.974,0,0,0-.442,1.258,4.631,4.631,0,0,0-.153,1.19,4.445,4.445,0,0,0,.272,1.53,2.608,2.608,0,0,0,1.53,1.615A4.168,4.168,0,0,0,24.65-.2a3.287,3.287,0,0,0,.8.1A3.183,3.183,0,0,0,27.03-.544L27.166-.6a.684.684,0,0,0,.017.187.773.773,0,0,0,.306.578.836.836,0,0,0,.527.2A1.093,1.093,0,0,0,28.339.306ZM25.449-1.8a2.2,2.2,0,0,1-1.071-.289,1.053,1.053,0,0,1-.408-.561,2.888,2.888,0,0,1-.153-.918,2.287,2.287,0,0,1,.034-.459,4.284,4.284,0,0,1,.374-1.241A2.155,2.155,0,0,1,26.01-6.613L26.2-6.63a.71.71,0,0,1,.595.289.724.724,0,0,0,.323.255.214.214,0,0,1,.119.221q.034.952.034,1.445h.017v1.36a.293.293,0,0,1-.119.255q-.612.51-.918.748A1.249,1.249,0,0,1,25.449-1.8ZM2.822,20.068a6.224,6.224,0,0,0,3.417-1.36,3.155,3.155,0,0,0,1.156-2.091,3.62,3.62,0,0,0,.034-.374,3.7,3.7,0,0,0-.476-1.683A2.71,2.71,0,0,0,5.8,13.4l-.221-.136.1-.119a.484.484,0,0,1,.085-.1,2.66,2.66,0,0,0,.6-1.632A3.084,3.084,0,0,0,4.233,8.576a5.463,5.463,0,0,0-1.564-.238,2.268,2.268,0,0,0-1.6.493,1.064,1.064,0,0,0-.391.8q.034.374.034.578l.1,8.687a.807.807,0,0,0,.017.187.842.842,0,0,0,.3.595A1.009,1.009,0,0,0,1.8,19.9a1.054,1.054,0,0,1,.255.034A1.31,1.31,0,0,0,2.822,20.068ZM2.652,13q0-.969-.034-2.941a.619.619,0,0,0,.1-.009.3.3,0,0,1,.119.009q.544.1.816.17a.88.88,0,0,1,.561.442l.1.221a1.147,1.147,0,0,1,.136.51,1.18,1.18,0,0,1-.459.884A3.256,3.256,0,0,1,2.652,13ZM3.2,14.679q.153,0,.391-.009t.561.009a1.24,1.24,0,0,1,1.173.8,1.99,1.99,0,0,1,.187.8,1.63,1.63,0,0,1-.442,1.054,4.049,4.049,0,0,1-2.227,1h-.1l-.051-3.655Zm9.061,5.3a3.052,3.052,0,0,0,1.81-.5,3.621,3.621,0,0,0,1.148-1.42l.034-.1a.763.763,0,0,0-.221-.714.864.864,0,0,0-.612-.221.876.876,0,0,0-.731.391l-.34.527a.98.98,0,0,1-.68.425,2.435,2.435,0,0,1-.476.051,2.23,2.23,0,0,1-1.411-.527,1.748,1.748,0,0,1-.51-.705,3.58,3.58,0,0,1-.2-.944q.238,0,.714.034.578.034.85.034a6.437,6.437,0,0,0,1-.068,4.9,4.9,0,0,0,1.683-.527,1.725,1.725,0,0,0,.952-1.581,1.884,1.884,0,0,0-.578-1.309,4.152,4.152,0,0,0-1.564-1.054,3.368,3.368,0,0,0-1.139-.221,3.607,3.607,0,0,0-.408.034,5.1,5.1,0,0,0-1.139.289,3,3,0,0,0-1.9,1.989A5.753,5.753,0,0,0,8.3,15.546a6.3,6.3,0,0,0,.323,2.006A3.366,3.366,0,0,0,10,19.32,4.009,4.009,0,0,0,12.257,19.983Zm-.663-5.236q-.85-.034-1.292-.068l-.221-.017a2.652,2.652,0,0,1,.272-.782.4.4,0,0,1,.068-.1.266.266,0,0,0,.051-.068,1.636,1.636,0,0,1,.663-.425,2.364,2.364,0,0,1,.85-.17,1.13,1.13,0,0,1,.357.051,2.349,2.349,0,0,1,1.088.714.427.427,0,0,1,.1.17.377.377,0,0,1,.017.119.287.287,0,0,1-.17.238,2.505,2.505,0,0,1-1.02.289A5.912,5.912,0,0,1,11.594,14.747Zm11.186,5.3a.766.766,0,0,0,.51-.187.867.867,0,0,0,.289-.476,2.747,2.747,0,0,0,.017-.357l-.017-1.207q-.034-1.6-.034-2.431l.017-1.853a2.16,2.16,0,0,0-.017-.246.766.766,0,0,1,0-.23.918.918,0,0,0-.34-.765,2.507,2.507,0,0,0-.748-.442,4.513,4.513,0,0,0-1.173-.255,4.083,4.083,0,0,0-.425-.017A4.42,4.42,0,0,0,17.7,12.894a4.919,4.919,0,0,0-1.564,3.672,5.789,5.789,0,0,0,.051.748,2.791,2.791,0,0,0,.935,1.8,2.69,2.69,0,0,0,1.819.7,2.793,2.793,0,0,0,1.462-.408,6.223,6.223,0,0,0,1.037-.8,2.182,2.182,0,0,1,.212-.187,2.182,2.182,0,0,0,.212-.187l.034.782q0,.068.008.17a1.521,1.521,0,0,0,.043.238.805.805,0,0,0,.3.45A.847.847,0,0,0,22.78,20.051ZM18.938,18.1a1.068,1.068,0,0,1-.629-.2.919.919,0,0,1-.374-.544,3.024,3.024,0,0,1-.1-.765,3.652,3.652,0,0,1,.034-.425,3.492,3.492,0,0,1,.646-1.632,3.085,3.085,0,0,1,2.108-1.241,1.283,1.283,0,0,1,.238-.017,3.813,3.813,0,0,1,.918.153l-.136.816A9.771,9.771,0,0,1,21.2,15.92,3.975,3.975,0,0,1,19.89,17.7a3.014,3.014,0,0,1-.467.289A1.106,1.106,0,0,1,18.938,18.1Zm9.35,1.683a1.039,1.039,0,0,0,.816-.425.635.635,0,0,0,.17-.442.6.6,0,0,0-.051-.238.717.717,0,0,0-.3-.391.85.85,0,0,0-.468-.136,1.442,1.442,0,0,0-.357.068.4.4,0,0,1-.17.051q-.068,0-.17-.119a.529.529,0,0,1-.136-.187,5.333,5.333,0,0,1-.187-.51,7.847,7.847,0,0,1-.2-1.6L27.2,12.486l.017-.153.221-.017.867-.136a.96.96,0,0,0,.527-.221.72.72,0,0,0,.1-1.029.845.845,0,0,0-.459-.264.516.516,0,0,0-.153-.017,1.463,1.463,0,0,0-.272.034l-.382.051q-.247.034-.434.051v-.17l.068-1.1.017-.442a.732.732,0,0,0-.238-.561.8.8,0,0,0-.561-.221.826.826,0,0,0-.833.68q-.051.34-.085,1.088,0,.068-.051.884h-.408a2.239,2.239,0,0,1-.306.017,2.24,2.24,0,0,0-.306.017.771.771,0,0,0-.535.238.734.734,0,0,0-.212.527.666.666,0,0,0,.2.476.791.791,0,0,0,.5.238,2.517,2.517,0,0,0,.357.017h.7V14.1a22.414,22.414,0,0,0,.153,2.941,4.818,4.818,0,0,0,.391,1.445,2.534,2.534,0,0,0,.561.8,1.871,1.871,0,0,0,1.292.527A2.771,2.771,0,0,0,28.288,19.779Zm2.159-8.806a.982.982,0,0,0,.408-.1l.255-.119a.931.931,0,0,0,.544-.85.936.936,0,0,0-.3-.7.959.959,0,0,0-.689-.289,1.252,1.252,0,0,0-.841.315.982.982,0,0,0-.365.773.972.972,0,0,0,.986.969Zm.1,8.874a.77.77,0,0,0,.272.051A.812.812,0,0,0,31.2,19.8a.829.829,0,0,0,.3-.264.746.746,0,0,0,.153-.459.724.724,0,0,0-.187-.476.746.746,0,0,1-.187-.459V15.478h-.034V15q0-.748-.034-2.21a.6.6,0,0,0-.017-.17.749.749,0,0,0-.731-.646.76.76,0,0,0-.535.2.707.707,0,0,0-.23.5q-.017.238-.017.748v.765q0,.221.034.663l.017.646v2.363a4.467,4.467,0,0,0,.051.663,1.92,1.92,0,0,0,.323.935A1.109,1.109,0,0,0,30.549,19.847Zm4.148.238a.787.787,0,0,0,.612-.263,1.031,1.031,0,0,0,.255-.672q0-1.411-.017-2.108-.034-.816-.17-2.533l-.017-.357a1.408,1.408,0,0,1,.153-.034q.119-.017.34-.043a3.732,3.732,0,0,0,.374-.059,1.929,1.929,0,0,0,.544-.17.859.859,0,0,0,.314-.306.788.788,0,0,0,.111-.408,1.433,1.433,0,0,0-.034-.238.845.845,0,0,0-.3-.433.805.805,0,0,0-.5-.161,1.513,1.513,0,0,0-.289.034q-.2.017-.731.085a2.946,2.946,0,0,1,.1-.816,2.372,2.372,0,0,1,.85-1.462,1.02,1.02,0,0,1,.6-.2,1.256,1.256,0,0,1,.323.051,1.885,1.885,0,0,0,.612.136.609.609,0,0,0,.408-.145,1.107,1.107,0,0,0,.289-.484,1.433,1.433,0,0,0,.034-.238.788.788,0,0,0-.145-.45.865.865,0,0,0-.382-.314,1.57,1.57,0,0,0-.425-.153,2.963,2.963,0,0,0-.748-.1,2.526,2.526,0,0,0-1.309.374,3.512,3.512,0,0,0-1.377,1.53,4.919,4.919,0,0,0-.459,1.428q-.068.68-.119,1.02l-.391.034a1.581,1.581,0,0,0-.391.034.805.805,0,0,0-.451.3.823.823,0,0,0-.179.519.847.847,0,0,0,.187.552.727.727,0,0,0,.51.264,2.4,2.4,0,0,0,.323.017h.459l.017.187.068.884.051,1.037q.068,1.156.068,1.734l-.017,1.071a.835.835,0,0,0,.255.612A.815.815,0,0,0,34.7,20.085Zm5.712-.187a3.726,3.726,0,0,0,.731.068,2.954,2.954,0,0,0,1.887-.646.194.194,0,0,1,.1-.068q.136.153.187.2a1.031,1.031,0,0,0,.782.374.862.862,0,0,0,.451-.128.892.892,0,0,0,.332-.348.838.838,0,0,0,.1-.408.65.65,0,0,0-.238-.544.672.672,0,0,1-.2-.493l-.017-.17a2.931,2.931,0,0,0-.017-.374l-.017-.374a1.541,1.541,0,0,1,.017-.272,10.665,10.665,0,0,0,.17-2.057q0-.8-.085-1.785a2.021,2.021,0,0,0-.2-.68,1.054,1.054,0,0,0-.34-.349.819.819,0,0,0-.442-.127.869.869,0,0,0-.586.212.807.807,0,0,0-.281.552,5.676,5.676,0,0,0-.034.731q0,.442.034,1.326l.017,2.057a1.463,1.463,0,0,1-.034.272,2.284,2.284,0,0,1-.85,1.156,1.176,1.176,0,0,1-.544.221,1.991,1.991,0,0,1-.952-.136,1.139,1.139,0,0,1-.782-.867,4.458,4.458,0,0,1-.1-.561,7.624,7.624,0,0,1-.068-1.071q0-.425.034-1.241.017-.425.085-1.19a1.7,1.7,0,0,1,.026-.23.955.955,0,0,0,.008-.28.743.743,0,0,0-.255-.536.837.837,0,0,0-.578-.212.822.822,0,0,0-.535.187.863.863,0,0,0-.3.51q-.068.34-.1.663l-.034.612q-.017.306-.034.765t-.017,1.054a13.626,13.626,0,0,0,.136,1.615,2.858,2.858,0,0,0,.85,1.717A3.117,3.117,0,0,0,40.409,19.9Zm6.562-.034a.824.824,0,0,0,.552-.2.73.73,0,0,0,.264-.485v-.136a1.871,1.871,0,0,0-.017-.289q0-.51-.034-1.6-.034-3.026-.068-4.5L47.6,8.9a3.592,3.592,0,0,1,.034-.391l.017-.136a.773.773,0,0,0-.246-.578.857.857,0,0,0-.62-.238.941.941,0,0,0-.468.119.833.833,0,0,0-.331.34,2.177,2.177,0,0,0-.119.391q-.017.272-.017.85,0,1,.068,2.975,0,.476.034,1.428h.034v4.08q0,.34.034,1.02a1.653,1.653,0,0,0,.136.646.934.934,0,0,0,.357.34A.956.956,0,0,0,46.971,19.864ZM8.092,40.17A.886.886,0,0,0,8.619,40a.838.838,0,0,0,.323-.459,2.892,2.892,0,0,0,.068-.357L9.452,36.7q.663-3.247.935-5.542,0-.068.051-.485a2.825,2.825,0,0,1,.2-.773.93.93,0,0,0,.034-.2.807.807,0,0,0-.629-.85.725.725,0,0,0-.255-.034.806.806,0,0,0-.663.323,1.572,1.572,0,0,0-.238.459,3.018,3.018,0,0,0-.179.765q-.042.408-.059.493-.2,1.717-.663,4.165l-.2,1.071H7.735l-.051-.085L7.5,35.529,7.174,34.7a18.758,18.758,0,0,0-1.207-2.805,2.649,2.649,0,0,0-.306-.459A.862.862,0,0,0,4.488,31.3a.928.928,0,0,0-.34.459,1.135,1.135,0,0,0-.085.306L3.2,35.733l-.068.255-.068-.17q-.1-.527-.289-1.292-.544-2.193-.918-4.352a2.892,2.892,0,0,1-.068-.357l-.051-.34a.846.846,0,0,0-.3-.459.8.8,0,0,0-.518-.187.9.9,0,0,0-.8.476A1,1,0,0,0,0,29.749a2.446,2.446,0,0,0,.068.561q.068.289.085.391Q.408,31.976.8,33.88q.323,1.462.85,3.655.2.833.459,1.683a1.311,1.311,0,0,0,.187.408.906.906,0,0,0,.765.391.955.955,0,0,0,.782-.425,2.057,2.057,0,0,0,.17-.374l.153-.51.238-.8q.6-1.972.833-3.06l.051-.153.085.2q.646,1.734,1.6,3.978l.17.289a.82.82,0,0,1,.119.289.833.833,0,0,0,.289.51A.812.812,0,0,0,8.092,40.17Zm7.412-.187a3.052,3.052,0,0,0,1.81-.5,3.621,3.621,0,0,0,1.148-1.419l.034-.1a.763.763,0,0,0-.221-.714.864.864,0,0,0-.612-.221.876.876,0,0,0-.731.391l-.34.527a.98.98,0,0,1-.68.425,2.435,2.435,0,0,1-.476.051,2.23,2.23,0,0,1-1.411-.527,1.748,1.748,0,0,1-.51-.705,3.58,3.58,0,0,1-.2-.944q.238,0,.714.034.578.034.85.034a6.437,6.437,0,0,0,1-.068,4.9,4.9,0,0,0,1.683-.527,1.725,1.725,0,0,0,.952-1.581,1.884,1.884,0,0,0-.578-1.309,4.152,4.152,0,0,0-1.564-1.054,3.368,3.368,0,0,0-1.139-.221,3.607,3.607,0,0,0-.408.034,5.1,5.1,0,0,0-1.139.289,3,3,0,0,0-1.9,1.989,5.753,5.753,0,0,0-.238,1.683,6.3,6.3,0,0,0,.323,2.006,3.366,3.366,0,0,0,1.377,1.768A4.009,4.009,0,0,0,15.5,39.983Zm-.663-5.236q-.85-.034-1.292-.068l-.221-.017a2.652,2.652,0,0,1,.272-.782.4.4,0,0,1,.068-.1.266.266,0,0,0,.051-.068,1.636,1.636,0,0,1,.663-.425,2.364,2.364,0,0,1,.85-.17,1.13,1.13,0,0,1,.357.051,2.348,2.348,0,0,1,1.088.714.427.427,0,0,1,.1.17.377.377,0,0,1,.017.119.287.287,0,0,1-.17.238,2.505,2.505,0,0,1-1.02.289A5.912,5.912,0,0,1,14.841,34.747Zm7.871,5.219a3.526,3.526,0,0,0,1.071-.161,8.538,8.538,0,0,0,1.139-.467,2.908,2.908,0,0,0,1.309-1.326,4.673,4.673,0,0,0,.527-2.142,5,5,0,0,0-.17-1.309A4.193,4.193,0,0,0,25.3,32.5a3.032,3.032,0,0,0-1.122-.629,4.762,4.762,0,0,0-2.074-.153q-.391.068-.544.085l-.034-.068q-.034-.9-.136-2.839a.825.825,0,0,0-.281-.595.918.918,0,0,0-.638-.238.9.9,0,0,0-.578.2.806.806,0,0,0-.306.51,2.75,2.75,0,0,0-.034.451v.332l.187,3.162q.034.85.068,1.275l.034.68q.034.493.068,1.445.017.918.017,2.771a1.917,1.917,0,0,0,.034.425.818.818,0,0,0,.323.51.953.953,0,0,0,.578.187A.925.925,0,0,0,21.3,39.9a.476.476,0,0,1,.34-.051A5.909,5.909,0,0,0,22.712,39.966Zm.493-1.785a1.727,1.727,0,0,1-.578.085,3.056,3.056,0,0,1-.867-.136v-.221l.017-.714q0-1.071-.136-3.247v-.085a.377.377,0,0,1,.059-.221.407.407,0,0,1,.212-.136,3.084,3.084,0,0,1,.612-.119,2.022,2.022,0,0,1,.306-.017,2.4,2.4,0,0,1,.85.153,1.924,1.924,0,0,1,.425.272,2.282,2.282,0,0,1,.714,1.275,3.562,3.562,0,0,1,.1.833,3.015,3.015,0,0,1-.34,1.394,1.186,1.186,0,0,1-.595.561A6.9,6.9,0,0,1,23.2,38.181Zm6.936,1.853a2.366,2.366,0,0,0,1.428-.408,2.115,2.115,0,0,0,.969-1.785,2.022,2.022,0,0,0-.017-.306A3.075,3.075,0,0,0,30.6,34.866q-.9-.357-1.037-.408a.92.92,0,0,1-.578-.629.955.955,0,0,1-.034-.221.526.526,0,0,1,.229-.442.989.989,0,0,1,.6-.17,2.163,2.163,0,0,1,.578.085.428.428,0,0,1,.255.136.8.8,0,0,0,.527.221.64.64,0,0,0,.255-.051.69.69,0,0,0,.527-.6.516.516,0,0,0,.017-.153.83.83,0,0,0-.153-.442,1.192,1.192,0,0,0-.629-.459,3.861,3.861,0,0,0-1.377-.272,3.226,3.226,0,0,0-.561.051,2.376,2.376,0,0,0-1.326.74,1.937,1.937,0,0,0-.51,1.334,2.174,2.174,0,0,0,.068.561,2.458,2.458,0,0,0,1.479,1.7L30,36.277a1.308,1.308,0,0,1,.705.612,1.773,1.773,0,0,1,.247.867.77.77,0,0,1-.162.493.63.63,0,0,1-.434.238,1.871,1.871,0,0,1-.289.017,2.1,2.1,0,0,1-.544-.068.9.9,0,0,1-.467-.315.8.8,0,0,1-.179-.5.86.86,0,0,0-.212-.595.706.706,0,0,0-.552-.238.758.758,0,0,0-.382.1.881.881,0,0,0-.451.8,2.446,2.446,0,0,0,.7,1.547,2.055,2.055,0,0,0,.918.6A3.518,3.518,0,0,0,30.141,40.034Zm3.91-9.061a.982.982,0,0,0,.408-.1l.255-.119a.931.931,0,0,0,.544-.85.936.936,0,0,0-.3-.7.959.959,0,0,0-.688-.289,1.252,1.252,0,0,0-.841.314.982.982,0,0,0-.366.774.972.972,0,0,0,.986.969Zm.1,8.874a.77.77,0,0,0,.272.051.812.812,0,0,0,.382-.093.829.829,0,0,0,.3-.264.746.746,0,0,0,.153-.459.724.724,0,0,0-.187-.476.746.746,0,0,1-.187-.459V35.478H34.85V35q0-.748-.034-2.21a.6.6,0,0,0-.017-.17.749.749,0,0,0-.731-.646.76.76,0,0,0-.535.2.707.707,0,0,0-.229.5q-.017.238-.017.748v.765q0,.221.034.663l.017.646v2.363a4.467,4.467,0,0,0,.051.663,1.92,1.92,0,0,0,.323.935A1.109,1.109,0,0,0,34.153,39.847Zm5.8-.068a1.039,1.039,0,0,0,.816-.425.635.635,0,0,0,.17-.442.6.6,0,0,0-.051-.238.717.717,0,0,0-.3-.391.85.85,0,0,0-.468-.136,1.442,1.442,0,0,0-.357.068.4.4,0,0,1-.17.051q-.068,0-.17-.119a.529.529,0,0,1-.136-.187,5.334,5.334,0,0,1-.187-.51,7.847,7.847,0,0,1-.2-1.6l-.034-3.366.017-.153.221-.017.867-.136a.96.96,0,0,0,.527-.221.72.72,0,0,0,.1-1.028.845.845,0,0,0-.459-.264.516.516,0,0,0-.153-.017,1.463,1.463,0,0,0-.272.034l-.382.051q-.247.034-.433.051v-.17l.068-1.1.017-.442a.732.732,0,0,0-.238-.561.8.8,0,0,0-.561-.221.826.826,0,0,0-.833.68q-.051.34-.085,1.088,0,.068-.051.884h-.408a2.239,2.239,0,0,1-.306.017,2.24,2.24,0,0,0-.306.017.771.771,0,0,0-.535.238.734.734,0,0,0-.213.527.666.666,0,0,0,.2.476.791.791,0,0,0,.5.238,2.517,2.517,0,0,0,.357.017h.7V34.1a22.414,22.414,0,0,0,.153,2.941,4.818,4.818,0,0,0,.391,1.445,2.534,2.534,0,0,0,.561.8,1.871,1.871,0,0,0,1.292.527A2.771,2.771,0,0,0,39.95,39.779Zm4.794.2a3.052,3.052,0,0,0,1.811-.5A3.621,3.621,0,0,0,47.7,38.062l.034-.1a.763.763,0,0,0-.221-.714.864.864,0,0,0-.612-.221.876.876,0,0,0-.731.391l-.34.527a.98.98,0,0,1-.68.425,2.435,2.435,0,0,1-.476.051,2.23,2.23,0,0,1-1.411-.527,1.748,1.748,0,0,1-.51-.705,3.58,3.58,0,0,1-.2-.944q.238,0,.714.034.578.034.85.034a6.437,6.437,0,0,0,1-.068,4.9,4.9,0,0,0,1.683-.527,1.725,1.725,0,0,0,.952-1.581,1.884,1.884,0,0,0-.578-1.309,4.152,4.152,0,0,0-1.564-1.054,3.368,3.368,0,0,0-1.139-.221,3.607,3.607,0,0,0-.408.034,5.1,5.1,0,0,0-1.139.289,3,3,0,0,0-1.9,1.989,5.753,5.753,0,0,0-.238,1.683,6.3,6.3,0,0,0,.323,2.006,3.366,3.366,0,0,0,1.377,1.768A4.009,4.009,0,0,0,44.744,39.983Zm-.663-5.236q-.85-.034-1.292-.068l-.221-.017a2.652,2.652,0,0,1,.272-.782.4.4,0,0,1,.068-.1.266.266,0,0,0,.051-.068,1.636,1.636,0,0,1,.663-.425,2.364,2.364,0,0,1,.85-.17,1.13,1.13,0,0,1,.357.051,2.348,2.348,0,0,1,1.088.714.427.427,0,0,1,.1.17.377.377,0,0,1,.017.119.287.287,0,0,1-.17.238,2.505,2.505,0,0,1-1.02.289A5.912,5.912,0,0,1,44.081,34.747Zm7.395,5.287a2.366,2.366,0,0,0,1.428-.408,2.115,2.115,0,0,0,.969-1.785,2.022,2.022,0,0,0-.017-.306,3.075,3.075,0,0,0-1.921-2.669q-.9-.357-1.037-.408a.92.92,0,0,1-.578-.629.955.955,0,0,1-.034-.221.526.526,0,0,1,.229-.442.989.989,0,0,1,.6-.17,2.163,2.163,0,0,1,.578.085.428.428,0,0,1,.255.136.8.8,0,0,0,.527.221.64.64,0,0,0,.255-.051.69.69,0,0,0,.527-.6.516.516,0,0,0,.017-.153.83.83,0,0,0-.153-.442,1.192,1.192,0,0,0-.629-.459,3.861,3.861,0,0,0-1.377-.272,3.226,3.226,0,0,0-.561.051,2.376,2.376,0,0,0-1.326.74,1.937,1.937,0,0,0-.51,1.334,2.175,2.175,0,0,0,.068.561,2.458,2.458,0,0,0,1.479,1.7l1.071.425a1.308,1.308,0,0,1,.705.612,1.773,1.773,0,0,1,.247.867.77.77,0,0,1-.161.493.63.63,0,0,1-.434.238,1.871,1.871,0,0,1-.289.017,2.1,2.1,0,0,1-.544-.068.9.9,0,0,1-.467-.315.8.8,0,0,1-.179-.5.86.86,0,0,0-.213-.595.706.706,0,0,0-.552-.238.758.758,0,0,0-.382.1.881.881,0,0,0-.451.8,2.446,2.446,0,0,0,.7,1.547,2.055,2.055,0,0,0,.918.6A3.518,3.518,0,0,0,51.476,40.034Z" transform="translate(0 12.443)" fill="#002e8c"/></svg>