<svg xmlns="http://www.w3.org/2000/svg" width="408.752" height="60.983" viewBox="0 0 408.752 60.983"><g transform="translate(-490.871 -3374.801)"><path d="M3.3-.032A3.319,3.319,0,0,0,4.3-.184a8.035,8.035,0,0,0,1.072-.44A2.737,2.737,0,0,0,6.608-1.872a4.4,4.4,0,0,0,.5-2.016,4.7,4.7,0,0,0-.16-1.232A3.947,3.947,0,0,0,5.728-7.056a2.854,2.854,0,0,0-1.056-.592,4.6,4.6,0,0,0-1.3-.192,4.636,4.636,0,0,0-.656.048q-.368.064-.512.08l-.032-.064q-.032-.848-.128-2.672a.776.776,0,0,0-.264-.56.864.864,0,0,0-.6-.224.848.848,0,0,0-.544.192.759.759,0,0,0-.288.48,2.588,2.588,0,0,0-.032.424v.312L.5-6.848q.032.8.064,1.2l.032.64q.032.464.064,1.36.016.864.016,2.608A1.8,1.8,0,0,0,.7-.64a.77.77,0,0,0,.3.48.9.9,0,0,0,.544.176A.871.871,0,0,0,1.968-.1a.448.448,0,0,1,.32-.048A5.562,5.562,0,0,0,3.3-.032Zm.464-1.68a1.626,1.626,0,0,1-.544.08A2.876,2.876,0,0,1,2.4-1.76v-.208l.016-.672q0-1.008-.128-3.056v-.08a.355.355,0,0,1,.056-.208.383.383,0,0,1,.2-.128,2.9,2.9,0,0,1,.576-.112,1.9,1.9,0,0,1,.288-.016,2.26,2.26,0,0,1,.8.144,1.81,1.81,0,0,1,.4.256,2.147,2.147,0,0,1,.672,1.2,3.352,3.352,0,0,1,.1.784,2.837,2.837,0,0,1-.32,1.312,1.116,1.116,0,0,1-.56.528A6.49,6.49,0,0,1,3.76-1.712ZM10.592-.1a3.507,3.507,0,0,0,.688.064A2.78,2.78,0,0,0,13.056-.64a.182.182,0,0,1,.1-.064q.128.144.176.192a.971.971,0,0,0,.736.352.811.811,0,0,0,.424-.12A.839.839,0,0,0,14.8-.608a.789.789,0,0,0,.1-.384.612.612,0,0,0-.224-.512.632.632,0,0,1-.192-.464l-.016-.16a2.758,2.758,0,0,0-.016-.352l-.016-.352a1.45,1.45,0,0,1,.016-.256,10.038,10.038,0,0,0,.16-1.936q0-.752-.08-1.68a1.9,1.9,0,0,0-.192-.64.992.992,0,0,0-.32-.328.77.77,0,0,0-.416-.12.818.818,0,0,0-.552.2.76.76,0,0,0-.264.52,5.342,5.342,0,0,0-.032.688q0,.416.032,1.248L12.8-3.2a1.377,1.377,0,0,1-.032.256,2.149,2.149,0,0,1-.8,1.088,1.107,1.107,0,0,1-.512.208,1.874,1.874,0,0,1-.9-.128,1.072,1.072,0,0,1-.736-.816,4.2,4.2,0,0,1-.1-.528,7.176,7.176,0,0,1-.064-1.008q0-.4.032-1.168.016-.4.08-1.12A1.6,1.6,0,0,1,9.8-6.632.9.9,0,0,0,9.808-6.9a.7.7,0,0,0-.24-.5.788.788,0,0,0-.544-.2.774.774,0,0,0-.5.176.812.812,0,0,0-.28.48q-.064.32-.1.624l-.032.576q-.016.288-.032.72t-.016.992a12.825,12.825,0,0,0,.128,1.52A2.69,2.69,0,0,0,8.992-.9,2.934,2.934,0,0,0,10.592-.1ZM17.1-8.5a.924.924,0,0,0,.384-.1l.24-.112a.867.867,0,0,0,.376-.328A.869.869,0,0,0,18.24-9.5a.881.881,0,0,0-.28-.656.9.9,0,0,0-.648-.272,1.179,1.179,0,0,0-.792.3.924.924,0,0,0-.344.728.889.889,0,0,0,.264.64A.887.887,0,0,0,17.1-8.5Zm.1,8.352a.725.725,0,0,0,.256.048.765.765,0,0,0,.36-.088.78.78,0,0,0,.28-.248.7.7,0,0,0,.144-.432.681.681,0,0,0-.176-.448.7.7,0,0,1-.176-.432V-4.256h-.032V-4.7q0-.7-.032-2.08a.561.561,0,0,0-.016-.16.67.67,0,0,0-.232-.432.671.671,0,0,0-.456-.176.716.716,0,0,0-.5.184A.666.666,0,0,0,16.4-6.9q-.016.224-.016.7v.72q0,.208.032.624l.016.608v2.224a4.2,4.2,0,0,0,.048.624,1.807,1.807,0,0,0,.3.88A1.043,1.043,0,0,0,17.2-.144Zm3.536.016a.775.775,0,0,0,.52-.184A.687.687,0,0,0,21.5-.768V-.9a1.761,1.761,0,0,0-.016-.272q0-.48-.032-1.5-.032-2.848-.064-4.24l-.064-3.536a3.381,3.381,0,0,1,.032-.368l.016-.128a.728.728,0,0,0-.232-.544.807.807,0,0,0-.584-.224.885.885,0,0,0-.44.112.784.784,0,0,0-.312.32,2.049,2.049,0,0,0-.112.368q-.016.256-.016.8,0,.944.064,2.8,0,.448.032,1.344h.032v3.84q0,.32.032.96a1.556,1.556,0,0,0,.128.608.879.879,0,0,0,.336.32A.9.9,0,0,0,20.736-.128ZM28.32.288A.733.733,0,0,0,28.832-.4a11.127,11.127,0,0,0,.08-1.28q.016-.368.016-1.12,0-.736-.016-1.1,0-.736-.032-2.24-.048-1.36-.112-3.968a1.761,1.761,0,0,0-.016-.272.759.759,0,0,0-.256-.5.767.767,0,0,0-.528-.2.75.75,0,0,0-.528.208.79.79,0,0,0-.256.512,1.325,1.325,0,0,0-.016.24l.048,2.192v.272l-.208-.064a2.417,2.417,0,0,0-.928-.1A3.586,3.586,0,0,0,23.024-5.68,7.5,7.5,0,0,0,22.608-4.5a4.358,4.358,0,0,0-.144,1.12,4.183,4.183,0,0,0,.256,1.44,2.454,2.454,0,0,0,1.44,1.52,3.923,3.923,0,0,0,.688.224,3.094,3.094,0,0,0,.752.1,3,3,0,0,0,1.488-.416l.128-.048a.644.644,0,0,0,.016.176A.728.728,0,0,0,27.52.16a.786.786,0,0,0,.5.192A1.029,1.029,0,0,0,28.32.288ZM25.6-1.7a2.075,2.075,0,0,1-1.008-.272.991.991,0,0,1-.384-.528,2.718,2.718,0,0,1-.144-.864,2.152,2.152,0,0,1,.032-.432,4.032,4.032,0,0,1,.352-1.168,2.028,2.028,0,0,1,1.68-1.264L26.3-6.24a.668.668,0,0,1,.56.272.681.681,0,0,0,.3.24.2.2,0,0,1,.112.208q.032.9.032,1.36h.016v1.28a.276.276,0,0,1-.112.24q-.576.48-.864.7A1.176,1.176,0,0,1,25.6-1.7ZM42.064.048a.721.721,0,0,0,.48-.176.816.816,0,0,0,.272-.448,2.585,2.585,0,0,0,.016-.336l-.016-1.136q-.032-1.5-.032-2.288L42.8-6.08a2.033,2.033,0,0,0-.016-.232.721.721,0,0,1,0-.216.864.864,0,0,0-.32-.72,2.36,2.36,0,0,0-.7-.416,4.248,4.248,0,0,0-1.1-.24,3.843,3.843,0,0,0-.4-.016A4.16,4.16,0,0,0,37.28-6.688a4.629,4.629,0,0,0-1.472,3.456,5.448,5.448,0,0,0,.048.7,2.627,2.627,0,0,0,.88,1.7,2.532,2.532,0,0,0,1.712.656A2.628,2.628,0,0,0,39.824-.56a5.857,5.857,0,0,0,.976-.752,2.054,2.054,0,0,1,.2-.176,2.054,2.054,0,0,0,.2-.176l.032.736q0,.064.008.16a1.432,1.432,0,0,0,.04.224.758.758,0,0,0,.28.424A.8.8,0,0,0,42.064.048Zm-3.616-1.84a1,1,0,0,1-.592-.192A.865.865,0,0,1,37.5-2.5a2.846,2.846,0,0,1-.1-.72,3.437,3.437,0,0,1,.032-.4,3.286,3.286,0,0,1,.608-1.536A2.9,2.9,0,0,1,40.032-6.32a1.208,1.208,0,0,1,.224-.016,3.589,3.589,0,0,1,.864.144l-.128.768a9.2,9.2,0,0,1-.416,1.584,3.741,3.741,0,0,1-1.232,1.68,2.836,2.836,0,0,1-.44.272A1.041,1.041,0,0,1,38.448-1.792Zm11.68,1.6a.689.689,0,0,0,.528-.224.77.77,0,0,0,.208-.544,3.183,3.183,0,0,0-.016-.368l-.016-.352V-3.328a16.107,16.107,0,0,0-.16-2.064,3.451,3.451,0,0,0-.5-1.376,1.891,1.891,0,0,0-1.04-.848,2.485,2.485,0,0,0-.816-.144,2.153,2.153,0,0,0-1.264.432,3.732,3.732,0,0,0-.64.592,9.684,9.684,0,0,0-.608.8q-.048.08-.128.192l-.032-.128L45.6-6.528a2.586,2.586,0,0,0-.016-.336.815.815,0,0,0-.256-.44.659.659,0,0,0-.448-.168.765.765,0,0,0-.5.168.653.653,0,0,0-.24.456,2.517,2.517,0,0,0-.016.64l.048.5a6.844,6.844,0,0,1,.1.928q.16,1.792.224,2.688l.08,1.136a.858.858,0,0,0,.24.52.665.665,0,0,0,.5.216.709.709,0,0,0,.52-.216.786.786,0,0,0,.232-.536,2.418,2.418,0,0,0,.016-.32q0-.112.008-.28t.04-.392q.192-1.12.32-1.664A4.636,4.636,0,0,1,47.52-5.76a2.1,2.1,0,0,1,.5-.416.71.71,0,0,1,.352-.112A.644.644,0,0,1,48.7-6.2a.691.691,0,0,1,.248.248,1.428,1.428,0,0,1,.192.464,8.607,8.607,0,0,1,.144,1.072q.048.912.048,1.808.016.208.016.608,0,.32.032.992a.955.955,0,0,0,.048.3.728.728,0,0,0,.272.376A.73.73,0,0,0,50.128-.192Zm4.128,3.3a4.1,4.1,0,0,0,.64.048,4.469,4.469,0,0,0,1.216-.176A3.125,3.125,0,0,0,58.3,1.024a6.012,6.012,0,0,0,.384-1.712q.048-.56.048-1.1,0-.5-.032-1.488l-.032-2.576q0-.128-.016-.432t-.048-.528a.823.823,0,0,0-.264-.512.735.735,0,0,0-.5-.192.787.787,0,0,0-.568.224.82.82,0,0,0-.248.576q-.016.16-.016.528l.016.624a5.431,5.431,0,0,1-.08,1.008,4.953,4.953,0,0,1-.352,1.152,2.361,2.361,0,0,1-.64.832,1.24,1.24,0,0,1-.832.272,1.431,1.431,0,0,1-.712-.184,1.3,1.3,0,0,1-.52-.552A3.635,3.635,0,0,1,53.552-4.3Q53.5-4.816,53.5-5.328q0-.592.048-1.184,0-.1.008-.288a2.239,2.239,0,0,0-.008-.336.719.719,0,0,0-.256-.528.829.829,0,0,0-.56-.208.721.721,0,0,0-.448.16A.821.821,0,0,0,52-7.3a1.377,1.377,0,0,0-.032.256q-.08.96-.08,1.712a13.807,13.807,0,0,0,.08,1.424,4.422,4.422,0,0,0,.464,1.584,2.862,2.862,0,0,0,1.3,1.392,3.316,3.316,0,0,0,1.408.336,2.928,2.928,0,0,0,1.792-.64L57.1-1.36A4.526,4.526,0,0,1,56.8.4a1.55,1.55,0,0,1-.912.864,2.522,2.522,0,0,1-.96.176,4.421,4.421,0,0,1-1.008-.128.437.437,0,0,1-.3-.176A1.478,1.478,0,0,1,53.44.768a.485.485,0,0,1-.016-.144.932.932,0,0,0-.3-.472.733.733,0,0,0-.488-.184A.761.761,0,0,0,52.208.1a.772.772,0,0,0-.288.368.884.884,0,0,0-.1.4.955.955,0,0,0,.048.3,2.475,2.475,0,0,0,.432.944,1.914,1.914,0,0,0,1.1.816A7.894,7.894,0,0,0,54.256,3.1ZM66.528-.032a.713.713,0,0,0,.488-.176.842.842,0,0,0,.264-.464.656.656,0,0,0,0-.288l-.1-1.984v-.24l.128.1a6.527,6.527,0,0,0,1.488.96q.864.448,1.3.656l.416.24a.852.852,0,0,0,.384.1.853.853,0,0,0,.192-.016.71.71,0,0,0,.56-.752.677.677,0,0,0-.32-.576,2.915,2.915,0,0,0-.512-.288l-1.488-.768a6.059,6.059,0,0,1-1.056-.7,1.305,1.305,0,0,1-.4-.48.377.377,0,0,1-.048-.16.29.29,0,0,1,.1-.208,6.72,6.72,0,0,1,1.232-1.1l1.184-.816a1.661,1.661,0,0,0,.4-.368.688.688,0,0,0,.128-.416.7.7,0,0,0-.24-.56.706.706,0,0,0-.5-.192.786.786,0,0,0-.5.192l-.208.144q-.864.576-1.328.912a6.737,6.737,0,0,0-.9.784l-.048.032-.016-.1L67.12-9.648a1.536,1.536,0,0,1,.1-.544.9.9,0,0,0,.032-.208.75.75,0,0,0-.24-.544.786.786,0,0,0-.576-.24.7.7,0,0,0-.408.128.82.82,0,0,0-.28.336,1.49,1.49,0,0,0-.08.368l-.016.336q-.032.448-.032.656v3.52q0,1.472.128,4.352a7.656,7.656,0,0,0,.064.816.729.729,0,0,0,.248.456A.786.786,0,0,0,66.528-.032ZM73.056-8.5a.924.924,0,0,0,.384-.1l.24-.112a.867.867,0,0,0,.376-.328.869.869,0,0,0,.136-.472.881.881,0,0,0-.28-.656.9.9,0,0,0-.648-.272,1.179,1.179,0,0,0-.792.3.924.924,0,0,0-.344.728.889.889,0,0,0,.264.64A.887.887,0,0,0,73.056-8.5Zm.1,8.352a.725.725,0,0,0,.256.048.765.765,0,0,0,.36-.088.78.78,0,0,0,.28-.248.7.7,0,0,0,.144-.432.681.681,0,0,0-.176-.448.7.7,0,0,1-.176-.432V-4.256h-.032V-4.7q0-.7-.032-2.08a.561.561,0,0,0-.016-.16.67.67,0,0,0-.232-.432.671.671,0,0,0-.456-.176.716.716,0,0,0-.5.184.666.666,0,0,0-.216.472q-.016.224-.016.7v.72q0,.208.032.624l.016.608v2.224a4.2,4.2,0,0,0,.048.624,1.807,1.807,0,0,0,.3.88A1.043,1.043,0,0,0,73.152-.144Zm8.336-.048a.689.689,0,0,0,.528-.224.77.77,0,0,0,.208-.544,3.183,3.183,0,0,0-.016-.368l-.016-.352V-3.328a16.106,16.106,0,0,0-.16-2.064,3.451,3.451,0,0,0-.5-1.376,1.891,1.891,0,0,0-1.04-.848,2.485,2.485,0,0,0-.816-.144,2.153,2.153,0,0,0-1.264.432,3.732,3.732,0,0,0-.64.592,9.684,9.684,0,0,0-.608.8q-.048.08-.128.192l-.032-.128-.048-.656a2.586,2.586,0,0,0-.016-.336.815.815,0,0,0-.256-.44.659.659,0,0,0-.448-.168.765.765,0,0,0-.5.168.654.654,0,0,0-.24.456,2.517,2.517,0,0,0-.016.64l.048.5a6.846,6.846,0,0,1,.1.928q.16,1.792.224,2.688l.08,1.136a.858.858,0,0,0,.24.52.665.665,0,0,0,.5.216.709.709,0,0,0,.52-.216.787.787,0,0,0,.232-.536,2.419,2.419,0,0,0,.016-.32q0-.112.008-.28t.04-.392q.192-1.12.32-1.664A4.636,4.636,0,0,1,78.88-5.76a2.1,2.1,0,0,1,.5-.416.71.71,0,0,1,.352-.112.644.644,0,0,1,.328.088.691.691,0,0,1,.248.248,1.428,1.428,0,0,1,.192.464,8.607,8.607,0,0,1,.144,1.072q.048.912.048,1.808Q80.7-2.4,80.7-2q0,.32.032.992a.955.955,0,0,0,.048.3.729.729,0,0,0,.272.376A.73.73,0,0,0,81.488-.192Zm7.552.48A.733.733,0,0,0,89.552-.4a11.128,11.128,0,0,0,.08-1.28q.016-.368.016-1.12,0-.736-.016-1.1,0-.736-.032-2.24-.048-1.36-.112-3.968a1.761,1.761,0,0,0-.016-.272.759.759,0,0,0-.256-.5.767.767,0,0,0-.528-.2.75.75,0,0,0-.528.208.79.79,0,0,0-.256.512,1.325,1.325,0,0,0-.016.24l.048,2.192v.272l-.208-.064a2.417,2.417,0,0,0-.928-.1A3.586,3.586,0,0,0,83.744-5.68,7.5,7.5,0,0,0,83.328-4.5a4.358,4.358,0,0,0-.144,1.12,4.183,4.183,0,0,0,.256,1.44,2.454,2.454,0,0,0,1.44,1.52,3.923,3.923,0,0,0,.688.224,3.094,3.094,0,0,0,.752.1,3,3,0,0,0,1.488-.416l.128-.048a.644.644,0,0,0,.016.176A.728.728,0,0,0,88.24.16a.786.786,0,0,0,.5.192A1.029,1.029,0,0,0,89.04.288ZM86.32-1.7a2.075,2.075,0,0,1-1.008-.272.991.991,0,0,1-.384-.528,2.718,2.718,0,0,1-.144-.864,2.151,2.151,0,0,1,.032-.432,4.031,4.031,0,0,1,.352-1.168,2.028,2.028,0,0,1,1.68-1.264l.176-.016a.668.668,0,0,1,.56.272.681.681,0,0,0,.3.24A.2.2,0,0,1,88-5.52q.032.9.032,1.36h.016v1.28a.276.276,0,0,1-.112.24q-.576.48-.864.7A1.176,1.176,0,0,1,86.32-1.7ZM99.744-.048a4.059,4.059,0,0,0,1.856-.48A3.379,3.379,0,0,0,103.344-3.2a4.105,4.105,0,0,0,.048-.608,3.677,3.677,0,0,0-1.28-2.784A.271.271,0,0,1,102-6.7a.789.789,0,0,0-.192-.312q-.144-.152-.192-.2a2.215,2.215,0,0,0-1.632-.656,2.978,2.978,0,0,0-2.416,1.1,5.394,5.394,0,0,0-1.056,2.256,6.329,6.329,0,0,0-.144,1.2,2.774,2.774,0,0,0,.032.5,2.861,2.861,0,0,0,.944,1.824,3.926,3.926,0,0,0,1.28.752A3.435,3.435,0,0,0,99.744-.048Zm.016-1.536a2.126,2.126,0,0,1-1.408-.544A1.229,1.229,0,0,1,97.9-3.1a3.918,3.918,0,0,1,.88-2.736,1.638,1.638,0,0,1,1.024-.528h.112a.178.178,0,0,0,.08.016l.048.112a.776.776,0,0,0,.528.464.585.585,0,0,1,.224.08,2.348,2.348,0,0,1,1.072,2.048,1.971,1.971,0,0,1-.608,1.472A2.072,2.072,0,0,1,99.76-1.584ZM106.56.08a.741.741,0,0,0,.576-.248.97.97,0,0,0,.24-.632q0-1.328-.016-1.984-.032-.768-.16-2.384l-.016-.336a1.325,1.325,0,0,1,.144-.032q.112-.016.32-.04A3.513,3.513,0,0,0,108-5.632a1.816,1.816,0,0,0,.512-.16.808.808,0,0,0,.3-.288.741.741,0,0,0,.1-.384,1.348,1.348,0,0,0-.032-.224.8.8,0,0,0-.28-.408.758.758,0,0,0-.472-.152,1.424,1.424,0,0,0-.272.032q-.192.016-.688.08a2.773,2.773,0,0,1,.1-.768,2.233,2.233,0,0,1,.8-1.376.96.96,0,0,1,.56-.192,1.182,1.182,0,0,1,.3.048,1.774,1.774,0,0,0,.576.128.573.573,0,0,0,.384-.136,1.041,1.041,0,0,0,.272-.456,1.348,1.348,0,0,0,.032-.224.741.741,0,0,0-.136-.424.814.814,0,0,0-.36-.3,1.477,1.477,0,0,0-.4-.144,2.789,2.789,0,0,0-.7-.1,2.377,2.377,0,0,0-1.232.352,3.306,3.306,0,0,0-1.3,1.44,4.63,4.63,0,0,0-.432,1.344q-.064.64-.112.96l-.368.032a1.488,1.488,0,0,0-.368.032.758.758,0,0,0-.424.28.774.774,0,0,0-.168.488.8.8,0,0,0,.176.52.684.684,0,0,0,.48.248,2.26,2.26,0,0,0,.3.016h.432l.016.176.064.832.048.976q.064,1.088.064,1.632L105.76-.736A.786.786,0,0,0,106-.16.768.768,0,0,0,106.56.08ZM116.8,3.136a.726.726,0,0,0,.448-.144.687.687,0,0,0,.256-.384,2.656,2.656,0,0,0,.048-.592L117.5-.432v-.24l.912.128a3.806,3.806,0,0,0,.576.032,4.252,4.252,0,0,0,1.248-.176,3.213,3.213,0,0,0,1.68-1.184,3.2,3.2,0,0,0,.64-1.952,5.47,5.47,0,0,0-.336-1.76,3.221,3.221,0,0,0-1.888-1.968,3.318,3.318,0,0,0-1.312-.288,3,3,0,0,0-1.728.56q0,.016-.008.016h-.056l-.048-.064a.7.7,0,0,0-.544-.256.8.8,0,0,0-.552.192.774.774,0,0,0-.248.528,5.205,5.205,0,0,0-.048.7l.1,2.72.048,1.168q.016.4.048.984t.048,1.352l.016.544q.032.8.032,1.184l-.016.672a.623.623,0,0,0,.216.472A.738.738,0,0,0,116.8,3.136Zm2.32-5.1a5.964,5.964,0,0,1-1.2-.144l-.32-.048a.235.235,0,0,1-.088-.016q-.04-.016-.072-.032l-.064-1.008q-.032-.48-.064-1.44v-.816a1.686,1.686,0,0,1,.7-.656,2.082,2.082,0,0,1,.992-.256,1.761,1.761,0,0,1,.272.016,1.786,1.786,0,0,1,1.408.976,3.154,3.154,0,0,1,.384,1.5,3.373,3.373,0,0,1-.016.384,1.516,1.516,0,0,1-.416.9A2.043,2.043,0,0,1,119.12-1.968ZM129.776.048a.721.721,0,0,0,.48-.176.816.816,0,0,0,.272-.448,2.586,2.586,0,0,0,.016-.336l-.016-1.136q-.032-1.5-.032-2.288l.016-1.744a2.033,2.033,0,0,0-.016-.232.721.721,0,0,1,0-.216.864.864,0,0,0-.32-.72,2.36,2.36,0,0,0-.7-.416,4.248,4.248,0,0,0-1.1-.24,3.842,3.842,0,0,0-.4-.016,4.16,4.16,0,0,0-2.976,1.232,4.629,4.629,0,0,0-1.472,3.456,5.449,5.449,0,0,0,.048.7,2.627,2.627,0,0,0,.88,1.7,2.532,2.532,0,0,0,1.712.656,2.628,2.628,0,0,0,1.376-.384,5.857,5.857,0,0,0,.976-.752,2.056,2.056,0,0,1,.2-.176,2.055,2.055,0,0,0,.2-.176l.032.736q0,.064.008.16a1.429,1.429,0,0,0,.04.224.758.758,0,0,0,.28.424A.8.8,0,0,0,129.776.048Zm-3.616-1.84a1,1,0,0,1-.592-.192.865.865,0,0,1-.352-.512,2.846,2.846,0,0,1-.1-.72,3.436,3.436,0,0,1,.032-.4,3.286,3.286,0,0,1,.608-1.536,2.9,2.9,0,0,1,1.984-1.168,1.208,1.208,0,0,1,.224-.016,3.589,3.589,0,0,1,.864.144l-.128.768a9.2,9.2,0,0,1-.416,1.584,3.741,3.741,0,0,1-1.232,1.68,2.837,2.837,0,0,1-.44.272A1.041,1.041,0,0,1,126.16-1.792Zm7.424,4.912a1.98,1.98,0,0,0,.512.064,2.307,2.307,0,0,0,.56-.064,4.722,4.722,0,0,0,1.744-.672,2.715,2.715,0,0,0,1.072-1.36,5.662,5.662,0,0,0,.336-1.84q.016-.176.016-.5v-1.12h-.016q0-.8-.032-2.368L137.76-5.92q0-.224-.032-.7l-.016-.368a.757.757,0,0,0-.264-.576.81.81,0,0,0-.616-.176H136.8a.38.38,0,0,1-.1-.016l-.1-.032a2.008,2.008,0,0,0-.56-.192,3.587,3.587,0,0,0-.688-.08,3.184,3.184,0,0,0-2.048.784,4.71,4.71,0,0,0-1.68,2.608,4,4,0,0,0-.112.864,3.851,3.851,0,0,0,.064.576,2.685,2.685,0,0,0,1.584,2.016,3.447,3.447,0,0,0,1.3.272,3.405,3.405,0,0,0,1.472-.368l.336-.176a2.776,2.776,0,0,0,.032.384l.016.416a4.522,4.522,0,0,1-.192,1.12,1.293,1.293,0,0,1-.656.816,3.251,3.251,0,0,1-1.3.416.838.838,0,0,1-.672-.2A.991.991,0,0,1,133.072.9q0-.064-.1-.608a.761.761,0,0,0-.48-.64,1.348,1.348,0,0,0-.224-.032.728.728,0,0,0-.536.216.8.8,0,0,0-.232.552,3.14,3.14,0,0,0,.1.672A2.5,2.5,0,0,0,133.584,3.12Zm1.184-5.68a1.578,1.578,0,0,1-.384.048,1.579,1.579,0,0,1-.736-.192,1.037,1.037,0,0,1-.384-.416,1.7,1.7,0,0,1-.192-.768,1.766,1.766,0,0,1,.1-.56,3.511,3.511,0,0,1,.976-1.5,1.2,1.2,0,0,1,.56-.384,1.936,1.936,0,0,1,.7-.16,1.2,1.2,0,0,1,.8.32q0,1.408.048,2.752l-.168.136q-.088.072-.2.152-.112.064-.328.216a2.825,2.825,0,0,1-.4.24A1.4,1.4,0,0,1,134.768-2.56Zm7.744,2.544a2.873,2.873,0,0,0,1.7-.472,3.408,3.408,0,0,0,1.08-1.336l.032-.1a.673.673,0,0,0,.016-.16.671.671,0,0,0-.224-.512.813.813,0,0,0-.576-.208.824.824,0,0,0-.688.368l-.32.5a.923.923,0,0,1-.64.4,2.292,2.292,0,0,1-.448.048,2.1,2.1,0,0,1-1.328-.5,1.645,1.645,0,0,1-.48-.664,3.37,3.37,0,0,1-.192-.888q.224,0,.672.032.544.032.8.032a6.059,6.059,0,0,0,.944-.064,4.608,4.608,0,0,0,1.584-.5,1.624,1.624,0,0,0,.9-1.488,1.773,1.773,0,0,0-.544-1.232,3.908,3.908,0,0,0-1.472-.992,3.17,3.17,0,0,0-1.072-.208,3.4,3.4,0,0,0-.384.032,4.8,4.8,0,0,0-1.072.272,2.826,2.826,0,0,0-1.792,1.872,5.415,5.415,0,0,0-.224,1.584,5.932,5.932,0,0,0,.3,1.888,3.168,3.168,0,0,0,1.3,1.664A3.773,3.773,0,0,0,142.512-.016Zm-.624-4.928q-.8-.032-1.216-.064l-.208-.016a2.5,2.5,0,0,1,.256-.736.372.372,0,0,1,.064-.1.251.251,0,0,0,.048-.064,1.54,1.54,0,0,1,.624-.4,2.225,2.225,0,0,1,.8-.16,1.064,1.064,0,0,1,.336.048,2.21,2.21,0,0,1,1.024.672.4.4,0,0,1,.1.16.355.355,0,0,1,.016.112.27.27,0,0,1-.16.224,2.358,2.358,0,0,1-.96.272A5.564,5.564,0,0,1,141.888-4.944ZM153.152-8.5a.924.924,0,0,0,.384-.1l.24-.112a.867.867,0,0,0,.376-.328.869.869,0,0,0,.136-.472.881.881,0,0,0-.28-.656.9.9,0,0,0-.648-.272,1.179,1.179,0,0,0-.792.3.924.924,0,0,0-.344.728.889.889,0,0,0,.264.64A.887.887,0,0,0,153.152-8.5Zm.1,8.352A.725.725,0,0,0,153.5-.1a.765.765,0,0,0,.36-.088.78.78,0,0,0,.28-.248.7.7,0,0,0,.144-.432.681.681,0,0,0-.176-.448.7.7,0,0,1-.176-.432V-4.256H153.9V-4.7q0-.7-.032-2.08a.561.561,0,0,0-.016-.16.67.67,0,0,0-.232-.432.671.671,0,0,0-.456-.176.716.716,0,0,0-.5.184.666.666,0,0,0-.216.472q-.016.224-.016.7v.72q0,.208.032.624l.016.608v2.224a4.2,4.2,0,0,0,.048.624,1.807,1.807,0,0,0,.3.88A1.044,1.044,0,0,0,153.248-.144Zm8.336-.048a.689.689,0,0,0,.528-.224.77.77,0,0,0,.208-.544,3.182,3.182,0,0,0-.016-.368l-.016-.352V-3.328a16.107,16.107,0,0,0-.16-2.064,3.451,3.451,0,0,0-.5-1.376,1.891,1.891,0,0,0-1.04-.848,2.485,2.485,0,0,0-.816-.144,2.153,2.153,0,0,0-1.264.432,3.732,3.732,0,0,0-.64.592,9.684,9.684,0,0,0-.608.8q-.048.08-.128.192l-.032-.128-.048-.656a2.586,2.586,0,0,0-.016-.336.815.815,0,0,0-.256-.44.659.659,0,0,0-.448-.168.765.765,0,0,0-.5.168.654.654,0,0,0-.24.456,2.517,2.517,0,0,0-.016.64l.048.5a6.845,6.845,0,0,1,.1.928q.16,1.792.224,2.688l.08,1.136a.858.858,0,0,0,.24.52.665.665,0,0,0,.5.216.709.709,0,0,0,.52-.216.787.787,0,0,0,.232-.536,2.42,2.42,0,0,0,.016-.32q0-.112.008-.28t.04-.392q.192-1.12.32-1.664a4.636,4.636,0,0,1,1.072-2.128,2.1,2.1,0,0,1,.5-.416.71.71,0,0,1,.352-.112.644.644,0,0,1,.328.088.691.691,0,0,1,.248.248,1.427,1.427,0,0,1,.192.464,8.606,8.606,0,0,1,.144,1.072q.048.912.048,1.808.016.208.016.608,0,.32.032.992a.955.955,0,0,0,.048.3.728.728,0,0,0,.272.376A.729.729,0,0,0,161.584-.192Zm5.056.08a2.438,2.438,0,0,0,2.4-1.376.871.871,0,0,0,.08-.32.711.711,0,0,0-.128-.4.892.892,0,0,0-.352-.3.985.985,0,0,0-.416-.1.968.968,0,0,0-.424.1.858.858,0,0,0-.328.272,1.107,1.107,0,0,0-.1.152,1.109,1.109,0,0,1-.1.152.529.529,0,0,1-.256.176,1.333,1.333,0,0,1-.352.048,1.024,1.024,0,0,1-.352-.064,1.46,1.46,0,0,1-1.04-.976,4.873,4.873,0,0,1-.176-1.264,4.234,4.234,0,0,1,.064-.784,5.164,5.164,0,0,1,.48-1.44.727.727,0,0,1,.64-.384,1.921,1.921,0,0,1,.272.032,2.548,2.548,0,0,1,.528.176.867.867,0,0,1,.592.56,1.182,1.182,0,0,0,.128.208.933.933,0,0,0,.672.3,1,1,0,0,0,.528-.136.753.753,0,0,0,.32-.392.54.54,0,0,0,.064-.272.645.645,0,0,0-.048-.256,1.887,1.887,0,0,0-.672-.992,3.888,3.888,0,0,0-2.352-.816,2.422,2.422,0,0,0-2.176,1.1l-.256.464a6.36,6.36,0,0,0-.592,2.56,7.15,7.15,0,0,0,.3,1.9,2.5,2.5,0,0,0,.656,1.032,3.691,3.691,0,0,0,1.12.752A3.171,3.171,0,0,0,166.64-.112Zm5.392-.016a.775.775,0,0,0,.52-.184.687.687,0,0,0,.248-.456V-.9a1.761,1.761,0,0,0-.016-.272q0-.48-.032-1.5-.032-2.848-.064-4.24l-.064-3.536a3.381,3.381,0,0,1,.032-.368l.016-.128a.728.728,0,0,0-.232-.544.807.807,0,0,0-.584-.224.885.885,0,0,0-.44.112.784.784,0,0,0-.312.32,2.049,2.049,0,0,0-.112.368q-.016.256-.016.8,0,.944.064,2.8,0,.448.032,1.344h.032v3.84q0,.32.032.96a1.556,1.556,0,0,0,.128.608.879.879,0,0,0,.336.32A.9.9,0,0,0,172.032-.128Zm4.736.032a3.507,3.507,0,0,0,.688.064,2.78,2.78,0,0,0,1.776-.608.182.182,0,0,1,.1-.064q.128.144.176.192a.971.971,0,0,0,.736.352.811.811,0,0,0,.424-.12.839.839,0,0,0,.312-.328.789.789,0,0,0,.1-.384.612.612,0,0,0-.224-.512.632.632,0,0,1-.192-.464l-.016-.16a2.758,2.758,0,0,0-.016-.352l-.016-.352a1.45,1.45,0,0,1,.016-.256,10.037,10.037,0,0,0,.16-1.936q0-.752-.08-1.68a1.9,1.9,0,0,0-.192-.64.992.992,0,0,0-.32-.328.77.77,0,0,0-.416-.12.818.818,0,0,0-.552.2.76.76,0,0,0-.264.52,5.343,5.343,0,0,0-.032.688q0,.416.032,1.248l.016,1.936a1.377,1.377,0,0,1-.032.256,2.15,2.15,0,0,1-.8,1.088,1.107,1.107,0,0,1-.512.208,1.874,1.874,0,0,1-.9-.128A1.072,1.072,0,0,1,176-2.592a4.2,4.2,0,0,1-.1-.528,7.176,7.176,0,0,1-.064-1.008q0-.4.032-1.168.016-.4.08-1.12a1.6,1.6,0,0,1,.024-.216.9.9,0,0,0,.008-.264.7.7,0,0,0-.24-.5.788.788,0,0,0-.544-.2.774.774,0,0,0-.5.176.812.812,0,0,0-.28.48q-.064.32-.1.624l-.032.576q-.016.288-.032.72t-.016.992a12.826,12.826,0,0,0,.128,1.52,2.69,2.69,0,0,0,.8,1.616A2.934,2.934,0,0,0,176.768-.1Zm11.12.384A.733.733,0,0,0,188.4-.4a11.128,11.128,0,0,0,.08-1.28q.016-.368.016-1.12,0-.736-.016-1.1,0-.736-.032-2.24-.048-1.36-.112-3.968a1.761,1.761,0,0,0-.016-.272.759.759,0,0,0-.256-.5.767.767,0,0,0-.528-.2.75.75,0,0,0-.528.208.79.79,0,0,0-.256.512,1.326,1.326,0,0,0-.016.24l.048,2.192v.272l-.208-.064a2.417,2.417,0,0,0-.928-.1,3.586,3.586,0,0,0-3.056,2.144,7.5,7.5,0,0,0-.416,1.184,4.359,4.359,0,0,0-.144,1.12,4.183,4.183,0,0,0,.256,1.44,2.454,2.454,0,0,0,1.44,1.52,3.922,3.922,0,0,0,.688.224,3.094,3.094,0,0,0,.752.1,3,3,0,0,0,1.488-.416l.128-.048a.644.644,0,0,0,.016.176.728.728,0,0,0,.288.544.786.786,0,0,0,.5.192A1.029,1.029,0,0,0,187.888.288ZM185.168-1.7a2.075,2.075,0,0,1-1.008-.272.991.991,0,0,1-.384-.528,2.718,2.718,0,0,1-.144-.864,2.152,2.152,0,0,1,.032-.432,4.032,4.032,0,0,1,.352-1.168,2.028,2.028,0,0,1,1.68-1.264l.176-.016a.668.668,0,0,1,.56.272.681.681,0,0,0,.3.24.2.2,0,0,1,.112.208q.032.9.032,1.36h.016v1.28a.276.276,0,0,1-.112.24q-.576.48-.864.7A1.176,1.176,0,0,1,185.168-1.7Zm5.856-6.8a.924.924,0,0,0,.384-.1l.24-.112a.867.867,0,0,0,.376-.328.869.869,0,0,0,.136-.472.881.881,0,0,0-.28-.656.9.9,0,0,0-.648-.272,1.179,1.179,0,0,0-.792.3.924.924,0,0,0-.344.728.889.889,0,0,0,.264.64A.887.887,0,0,0,191.024-8.5Zm.1,8.352a.725.725,0,0,0,.256.048.765.765,0,0,0,.36-.088.78.78,0,0,0,.28-.248.7.7,0,0,0,.144-.432.681.681,0,0,0-.176-.448.7.7,0,0,1-.176-.432V-4.256h-.032V-4.7q0-.7-.032-2.08a.561.561,0,0,0-.016-.16.67.67,0,0,0-.232-.432.671.671,0,0,0-.456-.176.716.716,0,0,0-.5.184.666.666,0,0,0-.216.472q-.016.224-.016.7v.72q0,.208.032.624l.016.608v2.224a4.2,4.2,0,0,0,.048.624,1.807,1.807,0,0,0,.3.88A1.044,1.044,0,0,0,191.12-.144Zm8.336-.048a.689.689,0,0,0,.528-.224.77.77,0,0,0,.208-.544,3.182,3.182,0,0,0-.016-.368l-.016-.352V-3.328A16.107,16.107,0,0,0,200-5.392a3.451,3.451,0,0,0-.5-1.376,1.891,1.891,0,0,0-1.04-.848,2.485,2.485,0,0,0-.816-.144,2.153,2.153,0,0,0-1.264.432,3.732,3.732,0,0,0-.64.592,9.684,9.684,0,0,0-.608.8q-.048.08-.128.192l-.032-.128-.048-.656a2.586,2.586,0,0,0-.016-.336.815.815,0,0,0-.256-.44.659.659,0,0,0-.448-.168.765.765,0,0,0-.5.168.654.654,0,0,0-.24.456,2.517,2.517,0,0,0-.016.64l.048.5a6.845,6.845,0,0,1,.1.928q.16,1.792.224,2.688L193.9-.96a.858.858,0,0,0,.24.52.665.665,0,0,0,.5.216.709.709,0,0,0,.52-.216.787.787,0,0,0,.232-.536,2.42,2.42,0,0,0,.016-.32q0-.112.008-.28t.04-.392q.192-1.12.32-1.664a4.636,4.636,0,0,1,1.072-2.128,2.1,2.1,0,0,1,.5-.416.71.71,0,0,1,.352-.112.644.644,0,0,1,.328.088.691.691,0,0,1,.248.248,1.427,1.427,0,0,1,.192.464,8.606,8.606,0,0,1,.144,1.072q.048.912.048,1.808.016.208.016.608,0,.32.032.992a.955.955,0,0,0,.048.3.728.728,0,0,0,.272.376A.729.729,0,0,0,199.456-.192Zm3.776,3.312a1.98,1.98,0,0,0,.512.064,2.307,2.307,0,0,0,.56-.064,4.722,4.722,0,0,0,1.744-.672,2.715,2.715,0,0,0,1.072-1.36,5.662,5.662,0,0,0,.336-1.84q.016-.176.016-.5v-1.12h-.016q0-.8-.032-2.368l-.016-1.184q0-.224-.032-.7l-.016-.368a.757.757,0,0,0-.264-.576.81.81,0,0,0-.616-.176h-.032a.38.38,0,0,1-.1-.016l-.1-.032a2.008,2.008,0,0,0-.56-.192,3.587,3.587,0,0,0-.688-.08,3.184,3.184,0,0,0-2.048.784,4.71,4.71,0,0,0-1.68,2.608,4,4,0,0,0-.112.864,3.851,3.851,0,0,0,.064.576A2.685,2.685,0,0,0,202.8-1.216a3.447,3.447,0,0,0,1.3.272,3.405,3.405,0,0,0,1.472-.368l.336-.176a2.776,2.776,0,0,0,.032.384l.016.416a4.522,4.522,0,0,1-.192,1.12,1.293,1.293,0,0,1-.656.816,3.251,3.251,0,0,1-1.3.416.838.838,0,0,1-.672-.2A.991.991,0,0,1,202.72.9q0-.064-.1-.608a.761.761,0,0,0-.48-.64,1.348,1.348,0,0,0-.224-.032.728.728,0,0,0-.536.216.8.8,0,0,0-.232.552,3.14,3.14,0,0,0,.1.672A2.5,2.5,0,0,0,203.232,3.12Zm1.184-5.68a1.578,1.578,0,0,1-.384.048A1.579,1.579,0,0,1,203.3-2.7a1.037,1.037,0,0,1-.384-.416,1.7,1.7,0,0,1-.192-.768,1.766,1.766,0,0,1,.1-.56,3.511,3.511,0,0,1,.976-1.5,1.2,1.2,0,0,1,.56-.384,1.936,1.936,0,0,1,.7-.16,1.2,1.2,0,0,1,.8.32q0,1.408.048,2.752l-.168.136q-.088.072-.2.152-.112.064-.328.216a2.825,2.825,0,0,1-.4.24A1.4,1.4,0,0,1,204.416-2.56Zm10.944,5.7a.726.726,0,0,0,.448-.144.686.686,0,0,0,.256-.384,2.657,2.657,0,0,0,.048-.592l-.048-2.448v-.24l.912.128a3.806,3.806,0,0,0,.576.032A4.252,4.252,0,0,0,218.8-.688a3.213,3.213,0,0,0,1.68-1.184,3.2,3.2,0,0,0,.64-1.952,5.47,5.47,0,0,0-.336-1.76A3.221,3.221,0,0,0,218.9-7.552a3.318,3.318,0,0,0-1.312-.288,3,3,0,0,0-1.728.56q0,.016-.008.016h-.056l-.048-.064a.7.7,0,0,0-.544-.256.8.8,0,0,0-.552.192.774.774,0,0,0-.248.528,5.205,5.205,0,0,0-.048.7l.1,2.72.048,1.168q.016.4.048.984t.048,1.352l.016.544q.032.8.032,1.184l-.016.672a.623.623,0,0,0,.216.472A.738.738,0,0,0,215.36,3.136Zm2.32-5.1a5.964,5.964,0,0,1-1.2-.144l-.32-.048a.235.235,0,0,1-.088-.016q-.04-.016-.072-.032l-.064-1.008q-.032-.48-.064-1.44v-.816a1.686,1.686,0,0,1,.7-.656,2.082,2.082,0,0,1,.992-.256,1.761,1.761,0,0,1,.272.016,1.786,1.786,0,0,1,1.408.976,3.154,3.154,0,0,1,.384,1.5,3.373,3.373,0,0,1-.016.384,1.516,1.516,0,0,1-.416.9A2.043,2.043,0,0,1,217.68-1.968ZM225.3-.048a4.059,4.059,0,0,0,1.856-.48A3.379,3.379,0,0,0,228.9-3.2a4.105,4.105,0,0,0,.048-.608,3.677,3.677,0,0,0-1.28-2.784.271.271,0,0,1-.112-.112.789.789,0,0,0-.192-.312q-.144-.152-.192-.2a2.215,2.215,0,0,0-1.632-.656,2.978,2.978,0,0,0-2.416,1.1,5.394,5.394,0,0,0-1.056,2.256,6.329,6.329,0,0,0-.144,1.2,2.774,2.774,0,0,0,.032.5A2.861,2.861,0,0,0,222.9-.992a3.926,3.926,0,0,0,1.28.752A3.435,3.435,0,0,0,225.3-.048Zm.016-1.536a2.126,2.126,0,0,1-1.408-.544,1.229,1.229,0,0,1-.448-.976,3.918,3.918,0,0,1,.88-2.736,1.638,1.638,0,0,1,1.024-.528h.112a.178.178,0,0,0,.08.016l.048.112a.776.776,0,0,0,.528.464.584.584,0,0,1,.224.08,2.348,2.348,0,0,1,1.072,2.048,1.971,1.971,0,0,1-.608,1.472A2.072,2.072,0,0,1,225.312-1.584Zm5.92,1.424a.876.876,0,0,0,.672-.256.646.646,0,0,0,.176-.592,2.608,2.608,0,0,1-.032-.336q-.128-2.08-.176-3.1l-.016-.24a.639.639,0,0,1,.128-.384A.065.065,0,0,1,232-5.12a3.121,3.121,0,0,1,.784-1.12.627.627,0,0,1,.464-.176,2.981,2.981,0,0,1,.48.08,1.925,1.925,0,0,0,.288.032.893.893,0,0,0,.576-.192.7.7,0,0,0,.272-.528.875.875,0,0,0-.032-.192.938.938,0,0,0-.768-.576,3.622,3.622,0,0,0-.816-.1,2.714,2.714,0,0,0-1.312.32l-.1.048-.064-.208a.816.816,0,0,0-.32-.368.9.9,0,0,0-.5-.144,1.037,1.037,0,0,0-.544.144.7.7,0,0,0-.32.384,1.925,1.925,0,0,0-.032.288l.032,2.288.032,1.088.144,2.368.048.784a.825.825,0,0,0,.192.416A.9.9,0,0,0,231.232-.16Zm8.512-.048a.978.978,0,0,0,.768-.4.6.6,0,0,0,.16-.416.565.565,0,0,0-.048-.224.675.675,0,0,0-.28-.368.8.8,0,0,0-.44-.128,1.357,1.357,0,0,0-.336.064.377.377,0,0,1-.16.048q-.064,0-.16-.112a.5.5,0,0,1-.128-.176,5.02,5.02,0,0,1-.176-.48,7.385,7.385,0,0,1-.192-1.5l-.032-3.168.016-.144.208-.016.816-.128a.9.9,0,0,0,.5-.208.667.667,0,0,0,.256-.512.67.67,0,0,0-.16-.456.8.8,0,0,0-.432-.248.485.485,0,0,0-.144-.016,1.376,1.376,0,0,0-.256.032l-.36.048q-.232.032-.408.048v-.16l.064-1.04.016-.416a.689.689,0,0,0-.224-.528.75.75,0,0,0-.528-.208.682.682,0,0,0-.24.032.676.676,0,0,0-.544.608q-.048.32-.08,1.024,0,.064-.048.832h-.384a2.108,2.108,0,0,1-.288.016,2.108,2.108,0,0,0-.288.016.726.726,0,0,0-.5.224.691.691,0,0,0-.2.5.627.627,0,0,0,.184.448.745.745,0,0,0,.472.224,2.369,2.369,0,0,0,.336.016h.656v1.536a21.094,21.094,0,0,0,.144,2.768,4.534,4.534,0,0,0,.368,1.36,2.385,2.385,0,0,0,.528.752,1.761,1.761,0,0,0,1.216.5A2.608,2.608,0,0,0,239.744-.208ZM243.68.08a.741.741,0,0,0,.576-.248A.97.97,0,0,0,244.5-.8q0-1.328-.016-1.984-.032-.768-.16-2.384L244.3-5.5a1.326,1.326,0,0,1,.144-.032q.112-.016.32-.04a3.514,3.514,0,0,0,.352-.056,1.815,1.815,0,0,0,.512-.16.808.808,0,0,0,.3-.288.741.741,0,0,0,.1-.384A1.348,1.348,0,0,0,246-6.688a.8.8,0,0,0-.28-.408.758.758,0,0,0-.472-.152,1.424,1.424,0,0,0-.272.032q-.192.016-.688.08a2.773,2.773,0,0,1,.1-.768,2.233,2.233,0,0,1,.8-1.376.96.96,0,0,1,.56-.192,1.182,1.182,0,0,1,.3.048,1.774,1.774,0,0,0,.576.128.573.573,0,0,0,.384-.136,1.041,1.041,0,0,0,.272-.456,1.347,1.347,0,0,0,.032-.224.741.741,0,0,0-.136-.424.814.814,0,0,0-.36-.3,1.477,1.477,0,0,0-.4-.144,2.789,2.789,0,0,0-.7-.1,2.377,2.377,0,0,0-1.232.352,3.306,3.306,0,0,0-1.3,1.44,4.63,4.63,0,0,0-.432,1.344q-.064.64-.112.96l-.368.032a1.488,1.488,0,0,0-.368.032.758.758,0,0,0-.424.28.774.774,0,0,0-.168.488.8.8,0,0,0,.176.52.684.684,0,0,0,.48.248,2.26,2.26,0,0,0,.3.016h.432l.016.176.064.832.048.976q.064,1.088.064,1.632L242.88-.736a.786.786,0,0,0,.24.576A.767.767,0,0,0,243.68.08Zm6.208-.128a4.059,4.059,0,0,0,1.856-.48A3.379,3.379,0,0,0,253.488-3.2a4.105,4.105,0,0,0,.048-.608,3.677,3.677,0,0,0-1.28-2.784.271.271,0,0,1-.112-.112.789.789,0,0,0-.192-.312q-.144-.152-.192-.2a2.215,2.215,0,0,0-1.632-.656,2.978,2.978,0,0,0-2.416,1.1,5.394,5.394,0,0,0-1.056,2.256,6.329,6.329,0,0,0-.144,1.2,2.774,2.774,0,0,0,.032.5,2.861,2.861,0,0,0,.944,1.824,3.926,3.926,0,0,0,1.28.752A3.435,3.435,0,0,0,249.888-.048Zm.016-1.536a2.126,2.126,0,0,1-1.408-.544,1.229,1.229,0,0,1-.448-.976,3.918,3.918,0,0,1,.88-2.736,1.638,1.638,0,0,1,1.024-.528h.112a.178.178,0,0,0,.08.016l.048.112a.776.776,0,0,0,.528.464.584.584,0,0,1,.224.08,2.348,2.348,0,0,1,1.072,2.048,1.971,1.971,0,0,1-.608,1.472A2.072,2.072,0,0,1,249.9-1.584Zm5.488,1.456a.775.775,0,0,0,.52-.184.687.687,0,0,0,.248-.456V-.9a1.763,1.763,0,0,0-.016-.272q0-.48-.032-1.5-.032-2.848-.064-4.24l-.064-3.536a3.384,3.384,0,0,1,.032-.368l.016-.128a.728.728,0,0,0-.232-.544.807.807,0,0,0-.584-.224.885.885,0,0,0-.44.112.784.784,0,0,0-.312.32,2.049,2.049,0,0,0-.112.368q-.016.256-.016.8,0,.944.064,2.8,0,.448.032,1.344h.032v3.84q0,.32.032.96a1.556,1.556,0,0,0,.128.608.879.879,0,0,0,.336.32A.9.9,0,0,0,255.392-.128ZM258.528-8.5a.924.924,0,0,0,.384-.1l.24-.112a.866.866,0,0,0,.376-.328.869.869,0,0,0,.136-.472.881.881,0,0,0-.28-.656.9.9,0,0,0-.648-.272,1.179,1.179,0,0,0-.792.3.924.924,0,0,0-.344.728.889.889,0,0,0,.264.64A.887.887,0,0,0,258.528-8.5Zm.1,8.352a.725.725,0,0,0,.256.048.764.764,0,0,0,.36-.088.78.78,0,0,0,.28-.248.7.7,0,0,0,.144-.432.681.681,0,0,0-.176-.448.7.7,0,0,1-.176-.432V-4.256h-.032V-4.7q0-.7-.032-2.08a.562.562,0,0,0-.016-.16A.67.67,0,0,0,259-7.376a.671.671,0,0,0-.456-.176.716.716,0,0,0-.5.184.666.666,0,0,0-.216.472q-.016.224-.016.7v.72q0,.208.032.624l.016.608v2.224a4.2,4.2,0,0,0,.048.624,1.807,1.807,0,0,0,.3.88A1.043,1.043,0,0,0,258.624-.144Zm5.536.1a4.059,4.059,0,0,0,1.856-.48A3.379,3.379,0,0,0,267.76-3.2a4.1,4.1,0,0,0,.048-.608,3.677,3.677,0,0,0-1.28-2.784.271.271,0,0,1-.112-.112.789.789,0,0,0-.192-.312q-.144-.152-.192-.2a2.215,2.215,0,0,0-1.632-.656,2.978,2.978,0,0,0-2.416,1.1,5.394,5.394,0,0,0-1.056,2.256,6.33,6.33,0,0,0-.144,1.2,2.774,2.774,0,0,0,.032.5,2.861,2.861,0,0,0,.944,1.824,3.926,3.926,0,0,0,1.28.752A3.435,3.435,0,0,0,264.16-.048Zm.016-1.536a2.126,2.126,0,0,1-1.408-.544,1.229,1.229,0,0,1-.448-.976,3.918,3.918,0,0,1,.88-2.736,1.638,1.638,0,0,1,1.024-.528h.112a.178.178,0,0,0,.08.016l.048.112a.776.776,0,0,0,.528.464.585.585,0,0,1,.224.08,2.348,2.348,0,0,1,1.072,2.048,1.971,1.971,0,0,1-.608,1.472A2.072,2.072,0,0,1,264.176-1.584ZM271.3.032a2.227,2.227,0,0,0,1.344-.384,1.991,1.991,0,0,0,.912-1.68,1.9,1.9,0,0,0-.016-.288,2.894,2.894,0,0,0-1.808-2.512q-.848-.336-.976-.384a.865.865,0,0,1-.544-.592.9.9,0,0,1-.032-.208.5.5,0,0,1,.216-.416.931.931,0,0,1,.568-.16,2.035,2.035,0,0,1,.544.08.4.4,0,0,1,.24.128.753.753,0,0,0,.5.208.6.6,0,0,0,.24-.048.649.649,0,0,0,.5-.56.485.485,0,0,0,.016-.144.781.781,0,0,0-.144-.416,1.122,1.122,0,0,0-.592-.432,3.633,3.633,0,0,0-1.3-.256,3.036,3.036,0,0,0-.528.048,2.236,2.236,0,0,0-1.248.7,1.823,1.823,0,0,0-.48,1.256,2.045,2.045,0,0,0,.064.528,2.313,2.313,0,0,0,1.392,1.6l1.008.4a1.231,1.231,0,0,1,.664.576,1.669,1.669,0,0,1,.232.816.724.724,0,0,1-.152.464.593.593,0,0,1-.408.224,1.761,1.761,0,0,1-.272.016,1.98,1.98,0,0,1-.512-.064.844.844,0,0,1-.44-.3.752.752,0,0,1-.168-.472.81.81,0,0,0-.2-.56.664.664,0,0,0-.52-.224.714.714,0,0,0-.36.1.857.857,0,0,0-.28.256.85.85,0,0,0-.144.5,2.3,2.3,0,0,0,.656,1.456,1.934,1.934,0,0,0,.864.56A3.311,3.311,0,0,0,271.3.032ZM275.168,1.1a.842.842,0,0,0,.8-.512,2.39,2.39,0,0,0,.288-1.056.925.925,0,0,0-.248-.672.823.823,0,0,0-.616-.256.764.764,0,0,0-.512.192.956.956,0,0,0-.3.5.883.883,0,0,0-.032.176.315.315,0,0,0,.1.256,1.118,1.118,0,0,0,.256.152q.16.072.16.12,0,.08-.416.3a.365.365,0,0,0-.128.288.462.462,0,0,0,.176.36A.71.71,0,0,0,275.168,1.1ZM286.112-.032a3.319,3.319,0,0,0,1.008-.152,8.036,8.036,0,0,0,1.072-.44,2.738,2.738,0,0,0,1.232-1.248,4.4,4.4,0,0,0,.5-2.016,4.7,4.7,0,0,0-.16-1.232,3.947,3.947,0,0,0-1.216-1.936,2.854,2.854,0,0,0-1.056-.592,4.6,4.6,0,0,0-1.3-.192,4.636,4.636,0,0,0-.656.048q-.368.064-.512.08l-.032-.064q-.032-.848-.128-2.672a.776.776,0,0,0-.264-.56.863.863,0,0,0-.6-.224.848.848,0,0,0-.544.192.759.759,0,0,0-.288.48,2.588,2.588,0,0,0-.032.424v.312l.176,2.976q.032.8.064,1.2l.032.64q.032.464.064,1.36.016.864.016,2.608a1.8,1.8,0,0,0,.032.4.77.77,0,0,0,.3.48.9.9,0,0,0,.544.176.87.87,0,0,0,.416-.112.448.448,0,0,1,.32-.048A5.562,5.562,0,0,0,286.112-.032Zm.464-1.68a1.626,1.626,0,0,1-.544.08,2.876,2.876,0,0,1-.816-.128v-.208l.016-.672q0-1.008-.128-3.056v-.08a.355.355,0,0,1,.056-.208.383.383,0,0,1,.2-.128,2.9,2.9,0,0,1,.576-.112,1.9,1.9,0,0,1,.288-.016,2.26,2.26,0,0,1,.8.144,1.811,1.811,0,0,1,.4.256,2.148,2.148,0,0,1,.672,1.2,3.353,3.353,0,0,1,.1.784,2.837,2.837,0,0,1-.32,1.312,1.116,1.116,0,0,1-.56.528A6.491,6.491,0,0,1,286.576-1.712Zm5.36,1.584a.775.775,0,0,0,.52-.184.687.687,0,0,0,.248-.456V-.9a1.758,1.758,0,0,0-.016-.272q0-.48-.032-1.5-.032-2.848-.064-4.24l-.064-3.536a3.382,3.382,0,0,1,.032-.368l.016-.128a.728.728,0,0,0-.232-.544.807.807,0,0,0-.584-.224.885.885,0,0,0-.44.112.784.784,0,0,0-.312.32,2.048,2.048,0,0,0-.112.368q-.016.256-.016.8,0,.944.064,2.8,0,.448.032,1.344h.032v3.84q0,.32.032.96a1.556,1.556,0,0,0,.128.608.879.879,0,0,0,.336.32A.9.9,0,0,0,291.936-.128Zm5.264.08a4.059,4.059,0,0,0,1.856-.48A3.379,3.379,0,0,0,300.8-3.2a4.1,4.1,0,0,0,.048-.608,3.677,3.677,0,0,0-1.28-2.784.271.271,0,0,1-.112-.112.789.789,0,0,0-.192-.312q-.144-.152-.192-.2a2.215,2.215,0,0,0-1.632-.656,2.978,2.978,0,0,0-2.416,1.1,5.394,5.394,0,0,0-1.056,2.256,6.33,6.33,0,0,0-.144,1.2,2.774,2.774,0,0,0,.032.5A2.861,2.861,0,0,0,294.8-.992a3.926,3.926,0,0,0,1.28.752A3.435,3.435,0,0,0,297.2-.048Zm.016-1.536a2.126,2.126,0,0,1-1.408-.544,1.229,1.229,0,0,1-.448-.976,3.918,3.918,0,0,1,.88-2.736,1.638,1.638,0,0,1,1.024-.528h.112a.178.178,0,0,0,.08.016l.048.112a.776.776,0,0,0,.528.464.585.585,0,0,1,.224.08,2.348,2.348,0,0,1,1.072,2.048,1.971,1.971,0,0,1-.608,1.472A2.072,2.072,0,0,1,297.216-1.584Zm6.512,4.7a1.98,1.98,0,0,0,.512.064,2.307,2.307,0,0,0,.56-.064,4.722,4.722,0,0,0,1.744-.672,2.715,2.715,0,0,0,1.072-1.36,5.662,5.662,0,0,0,.336-1.84q.016-.176.016-.5v-1.12h-.016q0-.8-.032-2.368L307.9-5.92q0-.224-.032-.7l-.016-.368a.757.757,0,0,0-.264-.576.81.81,0,0,0-.616-.176h-.032a.38.38,0,0,1-.1-.016l-.1-.032a2.008,2.008,0,0,0-.56-.192,3.587,3.587,0,0,0-.688-.08,3.184,3.184,0,0,0-2.048.784,4.71,4.71,0,0,0-1.68,2.608,4,4,0,0,0-.112.864,3.851,3.851,0,0,0,.064.576A2.685,2.685,0,0,0,303.3-1.216a3.448,3.448,0,0,0,1.3.272,3.405,3.405,0,0,0,1.472-.368l.336-.176a2.777,2.777,0,0,0,.032.384l.016.416a4.522,4.522,0,0,1-.192,1.12,1.293,1.293,0,0,1-.656.816,3.251,3.251,0,0,1-1.3.416.838.838,0,0,1-.672-.2A.992.992,0,0,1,303.216.9q0-.064-.1-.608a.761.761,0,0,0-.48-.64,1.348,1.348,0,0,0-.224-.032.728.728,0,0,0-.536.216.8.8,0,0,0-.232.552,3.14,3.14,0,0,0,.1.672A2.5,2.5,0,0,0,303.728,3.12Zm1.184-5.68a1.578,1.578,0,0,1-.384.048,1.579,1.579,0,0,1-.736-.192,1.037,1.037,0,0,1-.384-.416,1.7,1.7,0,0,1-.192-.768,1.766,1.766,0,0,1,.1-.56,3.511,3.511,0,0,1,.976-1.5,1.2,1.2,0,0,1,.56-.384,1.936,1.936,0,0,1,.7-.16,1.2,1.2,0,0,1,.8.32q0,1.408.048,2.752l-.168.136q-.088.072-.2.152-.112.064-.328.216a2.827,2.827,0,0,1-.4.24A1.4,1.4,0,0,1,304.912-2.56Zm6.7,2.592a2.227,2.227,0,0,0,1.344-.384,1.991,1.991,0,0,0,.912-1.68,1.9,1.9,0,0,0-.016-.288,2.894,2.894,0,0,0-1.808-2.512q-.848-.336-.976-.384a.865.865,0,0,1-.544-.592.9.9,0,0,1-.032-.208.5.5,0,0,1,.216-.416.931.931,0,0,1,.568-.16,2.035,2.035,0,0,1,.544.08.4.4,0,0,1,.24.128.753.753,0,0,0,.5.208.6.6,0,0,0,.24-.048.649.649,0,0,0,.5-.56.485.485,0,0,0,.016-.144.781.781,0,0,0-.144-.416,1.122,1.122,0,0,0-.592-.432,3.633,3.633,0,0,0-1.3-.256,3.036,3.036,0,0,0-.528.048,2.236,2.236,0,0,0-1.248.7,1.823,1.823,0,0,0-.48,1.256,2.045,2.045,0,0,0,.064.528,2.313,2.313,0,0,0,1.392,1.6l1.008.4a1.231,1.231,0,0,1,.664.576,1.669,1.669,0,0,1,.232.816.724.724,0,0,1-.152.464.593.593,0,0,1-.408.224,1.761,1.761,0,0,1-.272.016,1.98,1.98,0,0,1-.512-.064.844.844,0,0,1-.44-.3.752.752,0,0,1-.168-.472.81.81,0,0,0-.2-.56.664.664,0,0,0-.52-.224.714.714,0,0,0-.36.1.857.857,0,0,0-.28.256.85.85,0,0,0-.144.5,2.3,2.3,0,0,0,.656,1.456,1.934,1.934,0,0,0,.864.56A3.311,3.311,0,0,0,311.616.032Zm12.352-.08a4.059,4.059,0,0,0,1.856-.48A3.379,3.379,0,0,0,327.568-3.2a4.1,4.1,0,0,0,.048-.608,3.677,3.677,0,0,0-1.28-2.784.271.271,0,0,1-.112-.112.789.789,0,0,0-.192-.312q-.144-.152-.192-.2a2.215,2.215,0,0,0-1.632-.656,2.978,2.978,0,0,0-2.416,1.1,5.394,5.394,0,0,0-1.056,2.256,6.33,6.33,0,0,0-.144,1.2,2.774,2.774,0,0,0,.032.5,2.861,2.861,0,0,0,.944,1.824,3.926,3.926,0,0,0,1.28.752A3.435,3.435,0,0,0,323.968-.048Zm.016-1.536a2.126,2.126,0,0,1-1.408-.544,1.229,1.229,0,0,1-.448-.976,3.918,3.918,0,0,1,.88-2.736,1.638,1.638,0,0,1,1.024-.528h.112a.178.178,0,0,0,.08.016l.048.112a.776.776,0,0,0,.528.464.585.585,0,0,1,.224.08A2.348,2.348,0,0,1,326.1-3.648a1.971,1.971,0,0,1-.608,1.472A2.072,2.072,0,0,1,323.984-1.584ZM329.9-.16a.876.876,0,0,0,.672-.256.646.646,0,0,0,.176-.592,2.609,2.609,0,0,1-.032-.336q-.128-2.08-.176-3.1l-.016-.24a.639.639,0,0,1,.128-.384.065.065,0,0,1,.016-.048,3.121,3.121,0,0,1,.784-1.12.627.627,0,0,1,.464-.176,2.981,2.981,0,0,1,.48.08,1.925,1.925,0,0,0,.288.032.893.893,0,0,0,.576-.192.7.7,0,0,0,.272-.528.875.875,0,0,0-.032-.192.938.938,0,0,0-.768-.576,3.622,3.622,0,0,0-.816-.1,2.714,2.714,0,0,0-1.312.32l-.1.048-.064-.208a.816.816,0,0,0-.32-.368.9.9,0,0,0-.5-.144,1.037,1.037,0,0,0-.544.144.7.7,0,0,0-.32.384,1.925,1.925,0,0,0-.032.288l.032,2.288.032,1.088.144,2.368.048.784a.825.825,0,0,0,.192.416A.9.9,0,0,0,329.9-.16Zm13.44.144a2.873,2.873,0,0,0,1.7-.472,3.408,3.408,0,0,0,1.08-1.336l.032-.1a.674.674,0,0,0,.016-.16.671.671,0,0,0-.224-.512.813.813,0,0,0-.576-.208.824.824,0,0,0-.688.368l-.32.5a.923.923,0,0,1-.64.4,2.292,2.292,0,0,1-.448.048,2.1,2.1,0,0,1-1.328-.5,1.645,1.645,0,0,1-.48-.664,3.371,3.371,0,0,1-.192-.888q.224,0,.672.032.544.032.8.032a6.059,6.059,0,0,0,.944-.064,4.608,4.608,0,0,0,1.584-.5,1.624,1.624,0,0,0,.9-1.488,1.773,1.773,0,0,0-.544-1.232,3.908,3.908,0,0,0-1.472-.992,3.17,3.17,0,0,0-1.072-.208,3.4,3.4,0,0,0-.384.032,4.8,4.8,0,0,0-1.072.272,2.826,2.826,0,0,0-1.792,1.872,5.415,5.415,0,0,0-.224,1.584,5.931,5.931,0,0,0,.3,1.888,3.168,3.168,0,0,0,1.3,1.664A3.773,3.773,0,0,0,343.344-.016Zm-.624-4.928q-.8-.032-1.216-.064l-.208-.016a2.5,2.5,0,0,1,.256-.736.372.372,0,0,1,.064-.1.251.251,0,0,0,.048-.064,1.54,1.54,0,0,1,.624-.4,2.225,2.225,0,0,1,.8-.16,1.063,1.063,0,0,1,.336.048,2.21,2.21,0,0,1,1.024.672.4.4,0,0,1,.1.16.354.354,0,0,1,.016.112.27.27,0,0,1-.16.224,2.358,2.358,0,0,1-.96.272A5.565,5.565,0,0,1,342.72-4.944Zm8.768,4.528a1.9,1.9,0,0,0,.208-.272,16.941,16.941,0,0,0,1.44-2.656l.672-1.44.336-.64.48-.928a1.617,1.617,0,0,0,.208-.672.675.675,0,0,0-.24-.52A.853.853,0,0,0,354-7.76a.761.761,0,0,0-.432.128.782.782,0,0,0-.288.352q-.288.608-.448.912-.368.768-1.136,2.3l-.72,1.52a.311.311,0,0,0-.04.056.372.372,0,0,1-.056.072l-.064-.112q-.864-1.76-1.28-2.64l-1.2-2.512a.722.722,0,0,0-.7-.432.9.9,0,0,0-.48.128.664.664,0,0,0-.288.368.906.906,0,0,0-.048.288.861.861,0,0,0,.048.272l.24.528q.464.9.56,1.12.416.928.936,1.992t.68,1.4l.56,1.12a1.8,1.8,0,0,0,.24.4.9.9,0,0,0,.736.368A.921.921,0,0,0,351.488-.416Zm7.712.4a2.873,2.873,0,0,0,1.7-.472,3.408,3.408,0,0,0,1.08-1.336l.032-.1a.674.674,0,0,0,.016-.16.671.671,0,0,0-.224-.512.813.813,0,0,0-.576-.208.824.824,0,0,0-.688.368l-.32.5a.923.923,0,0,1-.64.4,2.292,2.292,0,0,1-.448.048,2.1,2.1,0,0,1-1.328-.5,1.645,1.645,0,0,1-.48-.664,3.371,3.371,0,0,1-.192-.888q.224,0,.672.032.544.032.8.032a6.059,6.059,0,0,0,.944-.064,4.608,4.608,0,0,0,1.584-.5,1.624,1.624,0,0,0,.9-1.488,1.773,1.773,0,0,0-.544-1.232,3.908,3.908,0,0,0-1.472-.992,3.17,3.17,0,0,0-1.072-.208,3.4,3.4,0,0,0-.384.032,4.8,4.8,0,0,0-1.072.272A2.826,2.826,0,0,0,355.7-5.776a5.415,5.415,0,0,0-.224,1.584,5.931,5.931,0,0,0,.3,1.888,3.168,3.168,0,0,0,1.3,1.664A3.773,3.773,0,0,0,359.2-.016Zm-.624-4.928q-.8-.032-1.216-.064l-.208-.016a2.5,2.5,0,0,1,.256-.736.372.372,0,0,1,.064-.1.251.251,0,0,0,.048-.064,1.54,1.54,0,0,1,.624-.4,2.225,2.225,0,0,1,.8-.16,1.063,1.063,0,0,1,.336.048,2.21,2.21,0,0,1,1.024.672.4.4,0,0,1,.1.16.354.354,0,0,1,.016.112.27.27,0,0,1-.16.224,2.358,2.358,0,0,1-.96.272A5.565,5.565,0,0,1,358.576-4.944ZM369.488-.192a.689.689,0,0,0,.528-.224.771.771,0,0,0,.208-.544,3.186,3.186,0,0,0-.016-.368l-.016-.352V-3.328a16.107,16.107,0,0,0-.16-2.064,3.451,3.451,0,0,0-.5-1.376,1.891,1.891,0,0,0-1.04-.848,2.485,2.485,0,0,0-.816-.144,2.153,2.153,0,0,0-1.264.432,3.731,3.731,0,0,0-.64.592,9.691,9.691,0,0,0-.608.8q-.048.08-.128.192l-.032-.128-.048-.656a2.582,2.582,0,0,0-.016-.336.815.815,0,0,0-.256-.44.659.659,0,0,0-.448-.168.765.765,0,0,0-.5.168.653.653,0,0,0-.24.456,2.516,2.516,0,0,0-.016.64l.048.5a6.85,6.85,0,0,1,.1.928q.16,1.792.224,2.688l.08,1.136a.859.859,0,0,0,.24.52.665.665,0,0,0,.5.216.709.709,0,0,0,.52-.216.786.786,0,0,0,.232-.536,2.422,2.422,0,0,0,.016-.32q0-.112.008-.28t.04-.392q.192-1.12.32-1.664A4.636,4.636,0,0,1,366.88-5.76a2.1,2.1,0,0,1,.5-.416.71.71,0,0,1,.352-.112.644.644,0,0,1,.328.088.691.691,0,0,1,.248.248,1.428,1.428,0,0,1,.192.464,8.6,8.6,0,0,1,.144,1.072q.048.912.048,1.808.016.208.016.608,0,.32.032.992a.955.955,0,0,0,.048.3.729.729,0,0,0,.272.376A.73.73,0,0,0,369.488-.192Zm10.3.224a2.227,2.227,0,0,0,1.344-.384,1.991,1.991,0,0,0,.912-1.68,1.9,1.9,0,0,0-.016-.288,2.894,2.894,0,0,0-1.808-2.512q-.848-.336-.976-.384a.865.865,0,0,1-.544-.592.9.9,0,0,1-.032-.208.5.5,0,0,1,.216-.416.931.931,0,0,1,.568-.16,2.035,2.035,0,0,1,.544.08.4.4,0,0,1,.24.128.753.753,0,0,0,.5.208.6.6,0,0,0,.24-.048.649.649,0,0,0,.5-.56.485.485,0,0,0,.016-.144.781.781,0,0,0-.144-.416,1.122,1.122,0,0,0-.592-.432,3.633,3.633,0,0,0-1.3-.256,3.036,3.036,0,0,0-.528.048,2.236,2.236,0,0,0-1.248.7,1.823,1.823,0,0,0-.48,1.256,2.045,2.045,0,0,0,.064.528,2.313,2.313,0,0,0,1.392,1.6l1.008.4a1.231,1.231,0,0,1,.664.576,1.669,1.669,0,0,1,.232.816.724.724,0,0,1-.152.464.593.593,0,0,1-.408.224,1.761,1.761,0,0,1-.272.016,1.98,1.98,0,0,1-.512-.064.844.844,0,0,1-.44-.3.752.752,0,0,1-.168-.472.81.81,0,0,0-.2-.56.664.664,0,0,0-.52-.224.714.714,0,0,0-.36.1.857.857,0,0,0-.28.256.85.85,0,0,0-.144.5A2.3,2.3,0,0,0,377.76-.72a1.934,1.934,0,0,0,.864.56A3.311,3.311,0,0,0,379.792.032Zm4.72-.08a.752.752,0,0,0,.6-.272.743.743,0,0,0,.168-.64l-.032-.144-.1-1.76a.3.3,0,0,1,.016-.1.616.616,0,0,1,.032-.08q.016-.08.048-.184a1.363,1.363,0,0,0,.048-.248l.048-.416q.016-.128.04-.376t.056-.424a2.047,2.047,0,0,1,.848-1.408.683.683,0,0,1,.336-.176,4.636,4.636,0,0,1,.656-.048,1.177,1.177,0,0,1,1.248.88l.048.224a7.231,7.231,0,0,1,.176,1.648q0,.288-.032.832-.064,1.056-.064,1.616a.741.741,0,0,0,.224.544.741.741,0,0,0,.544.224.752.752,0,0,0,.488-.176.8.8,0,0,0,.28-.464,1.312,1.312,0,0,0,.032-.336l.032-.544q.032-.7.064-1.056.016-.208.016-.624a9.072,9.072,0,0,0-.256-2.176,2.733,2.733,0,0,0-2.16-2.112,2.244,2.244,0,0,0-.656-.08,4.636,4.636,0,0,0-.656.048,2.493,2.493,0,0,0-1.344.56l-.192.16a.449.449,0,0,0-.008-.088.171.171,0,0,1,.008-.088l.048-3.168a1.7,1.7,0,0,1,.016-.24,1.7,1.7,0,0,0,.016-.24.835.835,0,0,0-.232-.56.715.715,0,0,0-.536-.224.792.792,0,0,0-.48.152.7.7,0,0,0-.272.408,1.73,1.73,0,0,0-.08.48q-.064,2.176-.064,3.264,0,1.376.064,4.1l.112,2.288a3.708,3.708,0,0,0,.1.5.74.74,0,0,0,.288.384A.8.8,0,0,0,384.512-.048Zm10,0a4.059,4.059,0,0,0,1.856-.48A3.379,3.379,0,0,0,398.112-3.2a4.1,4.1,0,0,0,.048-.608,3.677,3.677,0,0,0-1.28-2.784.271.271,0,0,1-.112-.112.789.789,0,0,0-.192-.312q-.144-.152-.192-.2a2.215,2.215,0,0,0-1.632-.656,2.978,2.978,0,0,0-2.416,1.1,5.394,5.394,0,0,0-1.056,2.256,6.33,6.33,0,0,0-.144,1.2,2.774,2.774,0,0,0,.032.5,2.861,2.861,0,0,0,.944,1.824,3.926,3.926,0,0,0,1.28.752A3.435,3.435,0,0,0,394.512-.048Zm.016-1.536a2.126,2.126,0,0,1-1.408-.544,1.229,1.229,0,0,1-.448-.976,3.918,3.918,0,0,1,.88-2.736,1.638,1.638,0,0,1,1.024-.528h.112a.178.178,0,0,0,.08.016l.048.112a.776.776,0,0,0,.528.464.585.585,0,0,1,.224.08,2.348,2.348,0,0,1,1.072,2.048,1.971,1.971,0,0,1-.608,1.472A2.072,2.072,0,0,1,394.528-1.584Zm5.68,4.72a.726.726,0,0,0,.448-.144.687.687,0,0,0,.256-.384,2.658,2.658,0,0,0,.048-.592l-.048-2.448v-.24l.912.128a3.805,3.805,0,0,0,.576.032,4.252,4.252,0,0,0,1.248-.176,3.213,3.213,0,0,0,1.68-1.184,3.2,3.2,0,0,0,.64-1.952,5.47,5.47,0,0,0-.336-1.76,3.221,3.221,0,0,0-1.888-1.968,3.318,3.318,0,0,0-1.312-.288,3,3,0,0,0-1.728.56q0,.016-.008.016h-.056l-.048-.064a.7.7,0,0,0-.544-.256.8.8,0,0,0-.552.192.774.774,0,0,0-.248.528,5.2,5.2,0,0,0-.048.7l.1,2.72.048,1.168q.016.4.048.984T399.44.064l.016.544q.032.8.032,1.184l-.016.672a.623.623,0,0,0,.216.472A.738.738,0,0,0,400.208,3.136Zm2.32-5.1a5.964,5.964,0,0,1-1.2-.144l-.32-.048a.235.235,0,0,1-.088-.016q-.04-.016-.072-.032l-.064-1.008q-.032-.48-.064-1.44v-.816a1.686,1.686,0,0,1,.7-.656,2.082,2.082,0,0,1,.992-.256,1.761,1.761,0,0,1,.272.016,1.786,1.786,0,0,1,1.408.976,3.154,3.154,0,0,1,.384,1.5,3.377,3.377,0,0,1-.016.384,1.516,1.516,0,0,1-.416.9A2.043,2.043,0,0,1,402.528-1.968Zm5.344-.752a.835.835,0,0,0,.688-.32.813.813,0,0,0,.176-.7,2.522,2.522,0,0,1-.048-.5V-6.672q.032-.992.064-1.488.016-.08.056-.536a4.2,4.2,0,0,1,.168-.872,1.348,1.348,0,0,0,.032-.224.8.8,0,0,0-.128-.44.9.9,0,0,0-.336-.312.884.884,0,0,0-.4-.1.9.9,0,0,0-.36.08.741.741,0,0,0-.3.224.943.943,0,0,0-.24.5l-.064.416q-.016.128-.064.4a4.868,4.868,0,0,0-.064.5L406.928-5.9l.048,2.144a1.879,1.879,0,0,0,.144.56.87.87,0,0,0,.312.352A.8.8,0,0,0,407.872-2.72ZM407.9.56a1.2,1.2,0,0,0,.72-.208,1.072,1.072,0,0,0,.4-.56.861.861,0,0,0,.048-.272,2.71,2.71,0,0,0-.112-.56,1.037,1.037,0,0,0-.36-.528.922.922,0,0,0-.584-.208,1.019,1.019,0,0,0-.616.192,1.042,1.042,0,0,0-.376.512,1.658,1.658,0,0,0-.08.448,1.26,1.26,0,0,0,.192.656,1.224,1.224,0,0,0,.352.384A.727.727,0,0,0,407.9.56Z" transform="translate(490.551 3386.561)" fill="#162c35"/><path d="M44,6.059a21.048,21.048,0,0,0-6.651,1.736,1.131,1.131,0,0,1-1.672-.959,3.843,3.843,0,0,1,.361-2.009A64.4,64.4,0,0,0,.6,9.573c-.452.2-.85-.426-.4-.679A55.181,55.181,0,0,1,36.774,2.961a17.659,17.659,0,0,0,.6-2.375.711.711,0,0,1,1.1-.479,1.157,1.157,0,0,1,.554.122A37.742,37.742,0,0,1,44.8,4.117C45.672,4.788,44.854,5.978,44,6.059Z" transform="matrix(-0.819, 0.574, -0.574, -0.819, 747.068, 3409.873)" fill="#222"/></g></svg>