<svg xmlns="http://www.w3.org/2000/svg" xmlns:xlink="http://www.w3.org/1999/xlink" width="628" height="593" viewBox="0 0 628 593"><defs><filter id="a" x="0" y="317" width="374" height="195" filterUnits="userSpaceOnUse"><feOffset dy="10" input="SourceAlpha"/><feGaussianBlur stdDeviation="25" result="b"/><feFlood flood-color="#2d3240" flood-opacity="0.161"/><feComposite operator="in" in2="b"/><feComposite in="SourceGraphic"/></filter><filter id="c" x="0" y="232" width="374" height="195" filterUnits="userSpaceOnUse"><feOffset dy="10" input="SourceAlpha"/><feGaussianBlur stdDeviation="25" result="d"/><feFlood flood-color="#2d3240" flood-opacity="0.161"/><feComposite operator="in" in2="d"/><feComposite in="SourceGraphic"/></filter><filter id="e" x="0" y="153" width="374" height="195" filterUnits="userSpaceOnUse"><feOffset dy="10" input="SourceAlpha"/><feGaussianBlur stdDeviation="25" result="f"/><feFlood flood-color="#2d3240" flood-opacity="0.161"/><feComposite operator="in" in2="f"/><feComposite in="SourceGraphic"/></filter><filter id="g" x="0" y="398" width="374" height="195" filterUnits="userSpaceOnUse"><feOffset dy="10" input="SourceAlpha"/><feGaussianBlur stdDeviation="25" result="h"/><feFlood flood-color="#2d3240" flood-opacity="0.161"/><feComposite operator="in" in2="h"/><feComposite in="SourceGraphic"/></filter><linearGradient id="i" x1="0.18" y1="0.079" x2="0.948" y2="0.942" gradientUnits="objectBoundingBox"><stop offset="0" stop-color="#db5b5b"/><stop offset="1" stop-color="#539d89"/></linearGradient></defs><g transform="translate(-459 -7476)"><rect width="578" height="549" rx="15" transform="translate(509 7476)" fill="#fff"/><g transform="translate(0 -99)"><g transform="matrix(1, 0, 0, 1, 459, 7575)" filter="url(#a)"><rect width="224" height="45" rx="5" transform="translate(75 382)" fill="#fff"/></g><g transform="translate(721.25 7966.034)"><rect width="21.646" height="21.646" fill="rgba(0,0,0,0)"/><circle cx="10.823" cy="10.823" r="10.823" transform="translate(1.75 2.319)" fill="#3b3b3b" opacity="0.998"/><path d="M-2.288-2.688.784-5.76-2.288-8.816l.944-.944,4,4-4,4Z" transform="translate(6.823 13.646) rotate(90)" fill="#fff"/></g><path d="M.607-2.084C.693-.7,1.848.188,3.566.188,5.4.188,6.553-.741,6.553-2.224c0-1.166-.655-1.81-2.245-2.181l-.854-.209C2.444-4.85,2.036-5.167,2.036-5.72c0-.7.634-1.155,1.584-1.155a1.48,1.48,0,0,1,1.638,1.16H6.429A2.528,2.528,0,0,0,3.636-7.938c-1.692,0-2.82.918-2.82,2.3,0,1.139.639,1.815,2.041,2.143l1,.242c1.026.242,1.477.6,1.477,1.187,0,.688-.709,1.187-1.676,1.187-1.037,0-1.756-.467-1.858-1.2Zm9.9-2.9a1.411,1.411,0,0,1,1.439,1.515H8.994A1.5,1.5,0,0,1,10.508-4.979Zm1.434,3.4a1.4,1.4,0,0,1-1.391.709A1.545,1.545,0,0,1,8.994-2.546V-2.61h4.13v-.4c0-1.837-.983-2.949-2.61-2.949-1.649,0-2.7,1.187-2.7,3.056S8.843.113,10.519.113a2.373,2.373,0,0,0,2.535-1.692ZM14.674,0h1.155V-8.132H14.674Zm5.4-4.979a1.411,1.411,0,0,1,1.439,1.515H18.554A1.5,1.5,0,0,1,20.069-4.979Zm1.434,3.4a1.4,1.4,0,0,1-1.391.709,1.545,1.545,0,0,1-1.558-1.676V-2.61h4.13v-.4c0-1.837-.983-2.949-2.61-2.949-1.649,0-2.7,1.187-2.7,3.056S18.4.113,20.08.113a2.373,2.373,0,0,0,2.535-1.692Zm7.63-2.358a2.307,2.307,0,0,0-2.5-2.025c-1.7,0-2.739,1.144-2.739,3.019,0,1.907,1.042,3.056,2.745,3.056a2.288,2.288,0,0,0,2.5-1.993H28.01a1.27,1.27,0,0,1-1.38.961c-.961,0-1.558-.757-1.558-2.025,0-1.246.591-1.987,1.558-1.987a1.3,1.3,0,0,1,1.38.994ZM31.052-7.3v1.482h-.929v.972h.929v3.3c0,1.128.51,1.579,1.794,1.579a3.73,3.73,0,0,0,.628-.059V-.988a3.8,3.8,0,0,1-.44.027c-.575,0-.827-.269-.827-.881V-4.85h1.268v-.972H32.207V-7.3ZM39.974-.875c-.628,0-1.085-.306-1.085-.833s.365-.79,1.171-.843l1.429-.091v.489A1.379,1.379,0,0,1,39.974-.875Zm-.3.972a1.968,1.968,0,0,0,1.756-.918h.091V0h1.112V-4c0-1.235-.827-1.966-2.293-1.966-1.327,0-2.272.645-2.39,1.649h1.117c.129-.414.575-.65,1.219-.65.79,0,1.2.349,1.2.967v.5L39.9-3.4c-1.391.086-2.175.693-2.175,1.746A1.767,1.767,0,0,0,39.678.1ZM47.643-7.75V0h1.2V-2.61H50.64a2.463,2.463,0,0,0,2.594-2.557A2.446,2.446,0,0,0,50.678-7.75Zm1.2,1.063h1.515c1.058,0,1.644.537,1.644,1.52,0,.961-.607,1.5-1.644,1.5H48.846Zm8.22,6.8c1.708,0,2.755-1.144,2.755-3.04s-1.053-3.035-2.755-3.035-2.761,1.149-2.761,3.035S55.353.113,57.067.113Zm0-1.026c-1,0-1.568-.736-1.568-2.014s.564-2.009,1.568-2.009,1.568.741,1.568,2.009S58.066-.913,57.067-.913ZM61.318,0h1.155V-3.454a1.371,1.371,0,0,1,1.493-1.375,3.175,3.175,0,0,1,.645.07V-5.9a2.439,2.439,0,0,0-.516-.048,1.587,1.587,0,0,0-1.579.994H62.43v-.9H61.318Zm5.218-7.3v1.482h-.929v.972h.929v3.3c0,1.128.51,1.579,1.794,1.579a3.73,3.73,0,0,0,.628-.059V-.988a3.8,3.8,0,0,1-.44.027c-.575,0-.827-.269-.827-.881V-4.85h1.268v-.972H67.691V-7.3ZM70.862,0h1.155V-4.85h1.289v-.972H72v-.559c0-.58.263-.87.908-.87a2.448,2.448,0,0,1,.446.032v-.908a3.685,3.685,0,0,0-.687-.059c-1.214,0-1.8.569-1.8,1.735v.628H69.9v.972h.961Zm6.1.113c1.708,0,2.755-1.144,2.755-3.04s-1.053-3.035-2.755-3.035-2.761,1.149-2.761,3.035S75.253.113,76.966.113Zm0-1.026c-1,0-1.568-.736-1.568-2.014s.564-2.009,1.568-2.009,1.568.741,1.568,2.009S77.965-.913,76.966-.913Zm4.3.913h1.155V-8.132H81.271Zm3.016,0h1.149V-5.849H84.287Zm.575-6.864a.743.743,0,0,0,.73-.752.744.744,0,0,0-.73-.757.744.744,0,0,0-.73.757A.743.743,0,0,0,84.862-6.864ZM89.714.113c1.708,0,2.755-1.144,2.755-3.04s-1.053-3.035-2.755-3.035-2.761,1.149-2.761,3.035S88,.113,89.714.113Zm0-1.026c-1,0-1.568-.736-1.568-2.014s.564-2.009,1.568-2.009,1.568.741,1.568,2.009S90.713-.913,89.714-.913Zm7.138-1.171C96.938-.7,98.093.188,99.812.188c1.837,0,2.986-.929,2.986-2.412,0-1.166-.655-1.81-2.245-2.181L99.7-4.614c-1.01-.236-1.418-.553-1.418-1.106,0-.7.634-1.155,1.584-1.155a1.48,1.48,0,0,1,1.638,1.16h1.171a2.528,2.528,0,0,0-2.793-2.224c-1.692,0-2.82.918-2.82,2.3,0,1.139.639,1.815,2.041,2.143l1,.242c1.026.242,1.477.6,1.477,1.187,0,.688-.709,1.187-1.676,1.187-1.037,0-1.756-.467-1.858-1.2ZM104.761-7.3v1.482h-.929v.972h.929v3.3c0,1.128.51,1.579,1.794,1.579a3.73,3.73,0,0,0,.628-.059V-.988a3.8,3.8,0,0,1-.44.027c-.575,0-.827-.269-.827-.881V-4.85h1.268v-.972h-1.268V-7.3Zm4.471,9.426c1.192,0,1.746-.457,2.245-1.88l2.181-6.091h-1.225L110.973-1.2h-.091l-1.466-4.646h-1.257L110.274.021l-.086.285a1,1,0,0,1-1.058.816,2.78,2.78,0,0,1-.376-.021v.994C108.862,2.111,109.136,2.122,109.232,2.122ZM115,0h1.155V-8.132H115Zm5.4-4.979a1.411,1.411,0,0,1,1.439,1.515h-2.954A1.5,1.5,0,0,1,120.4-4.979Zm1.434,3.4a1.4,1.4,0,0,1-1.391.709,1.545,1.545,0,0,1-1.558-1.676V-2.61h4.13v-.4c0-1.837-.983-2.949-2.61-2.949-1.649,0-2.7,1.187-2.7,3.056s1.026,3.019,2.7,3.019a2.373,2.373,0,0,0,2.535-1.692Z" transform="translate(554.381 7983.5)"/><path d="M.972-7.75V0h2.8C6.08,0,7.417-1.423,7.417-3.9c0-2.438-1.348-3.851-3.647-3.851Zm1.2,1.1H3.636c1.606,0,2.557,1.021,2.557,2.771,0,1.778-.935,2.788-2.557,2.788H2.175Zm9.136,1.676a1.411,1.411,0,0,1,1.439,1.515H9.8A1.5,1.5,0,0,1,11.312-4.979Zm1.434,3.4a1.4,1.4,0,0,1-1.391.709A1.545,1.545,0,0,1,9.8-2.546V-2.61h4.13v-.4c0-1.837-.983-2.949-2.61-2.949-1.649,0-2.7,1.187-2.7,3.056S9.646.113,11.322.113a2.373,2.373,0,0,0,2.535-1.692ZM15.727,0h1.155V-4.85H18.17v-.972H16.865v-.559c0-.58.263-.87.908-.87a2.448,2.448,0,0,1,.446.032v-.908a3.685,3.685,0,0,0-.687-.059c-1.214,0-1.8.569-1.8,1.735v.628h-.961v.972h.961Zm5.489-.875c-.628,0-1.085-.306-1.085-.833S20.5-2.5,21.3-2.551l1.429-.091v.489A1.379,1.379,0,0,1,21.216-.875ZM20.92.1a1.968,1.968,0,0,0,1.756-.918h.091V0H23.88V-4c0-1.235-.827-1.966-2.293-1.966-1.327,0-2.272.645-2.39,1.649h1.117c.129-.414.575-.65,1.219-.65.79,0,1.2.349,1.2.967v.5L21.146-3.4c-1.391.086-2.175.693-2.175,1.746A1.767,1.767,0,0,0,20.92.1Zm9.534-5.946H29.3v3.421A1.328,1.328,0,0,1,27.854-.956c-.849,0-1.23-.451-1.23-1.4v-3.5H25.47v3.8A1.9,1.9,0,0,0,27.484.113,1.755,1.755,0,0,0,29.251-.929h.091V0h1.112ZM32.184,0h1.155V-8.132H32.184Zm3.292-7.3v1.482h-.929v.972h.929v3.3c0,1.128.51,1.579,1.794,1.579A3.73,3.73,0,0,0,37.9-.027V-.988a3.8,3.8,0,0,1-.44.027c-.575,0-.827-.269-.827-.881V-4.85H37.9v-.972H36.631V-7.3ZM42.4-7.75V0h1.2V-2.61H45.4a2.463,2.463,0,0,0,2.594-2.557A2.446,2.446,0,0,0,45.434-7.75Zm1.2,1.063h1.515c1.058,0,1.644.537,1.644,1.52,0,.961-.607,1.5-1.644,1.5H43.6Zm8.11,6.8c1.708,0,2.755-1.144,2.755-3.04s-1.053-3.035-2.755-3.035-2.761,1.149-2.761,3.035S50,.113,51.713.113Zm0-1.026c-1,0-1.568-.736-1.568-2.014s.564-2.009,1.568-2.009,1.568.741,1.568,2.009S52.712-.913,51.713-.913ZM55.854,0h1.155V-3.454A1.371,1.371,0,0,1,58.5-4.829a3.175,3.175,0,0,1,.645.07V-5.9a2.439,2.439,0,0,0-.516-.048,1.587,1.587,0,0,0-1.579.994h-.086v-.9H55.854Zm5.108-7.3v1.482h-.929v.972h.929v3.3c0,1.128.51,1.579,1.794,1.579a3.73,3.73,0,0,0,.628-.059V-.988a3.8,3.8,0,0,1-.44.027c-.575,0-.827-.269-.827-.881V-4.85h1.268v-.972H62.117V-7.3ZM65.178,0h1.155V-4.85h1.289v-.972H66.317v-.559c0-.58.263-.87.908-.87a2.448,2.448,0,0,1,.446.032v-.908a3.685,3.685,0,0,0-.687-.059c-1.214,0-1.8.569-1.8,1.735v.628h-.961v.972h.961Zm5.994.113c1.708,0,2.755-1.144,2.755-3.04s-1.053-3.035-2.755-3.035-2.761,1.149-2.761,3.035S69.459.113,71.172.113Zm0-1.026c-1,0-1.568-.736-1.568-2.014s.564-2.009,1.568-2.009,1.568.741,1.568,2.009S72.171-.913,71.172-.913ZM75.367,0h1.155V-8.132H75.367Zm2.906,0h1.149V-5.849H78.273Zm.575-6.864a.743.743,0,0,0,.73-.752.744.744,0,0,0-.73-.757.744.744,0,0,0-.73.757A.743.743,0,0,0,78.848-6.864ZM83.59.113c1.708,0,2.755-1.144,2.755-3.04S85.293-5.962,83.59-5.962,80.83-4.812,80.83-2.927,81.877.113,83.59.113Zm0-1.026c-1,0-1.568-.736-1.568-2.014s.564-2.009,1.568-2.009,1.568.741,1.568,2.009S84.589-.913,83.59-.913Zm6.918-1.171C90.594-.7,91.749.188,93.468.188c1.837,0,2.986-.929,2.986-2.412,0-1.166-.655-1.81-2.245-2.181l-.854-.209c-1.01-.236-1.418-.553-1.418-1.106,0-.7.634-1.155,1.584-1.155a1.48,1.48,0,0,1,1.638,1.16h1.171a2.528,2.528,0,0,0-2.793-2.224c-1.692,0-2.82.918-2.82,2.3,0,1.139.639,1.815,2.041,2.143l1,.242c1.026.242,1.477.6,1.477,1.187,0,.688-.709,1.187-1.676,1.187-1.037,0-1.756-.467-1.858-1.2Zm7.8-5.221v1.482h-.929v.972h.929v3.3c0,1.128.51,1.579,1.794,1.579a3.73,3.73,0,0,0,.628-.059V-.988a3.8,3.8,0,0,1-.44.027c-.575,0-.827-.269-.827-.881V-4.85h1.268v-.972H99.462V-7.3Zm4.361,9.426c1.192,0,1.746-.457,2.245-1.88l2.181-6.091H105.87L104.409-1.2h-.091l-1.466-4.646h-1.257L103.71.021l-.086.285a1,1,0,0,1-1.058.816,2.78,2.78,0,0,1-.376-.021v.994C102.3,2.111,102.572,2.122,102.668,2.122ZM108.33,0h1.155V-8.132H108.33Zm5.285-4.979a1.411,1.411,0,0,1,1.439,1.515H112.1A1.5,1.5,0,0,1,113.615-4.979Zm1.434,3.4a1.4,1.4,0,0,1-1.391.709A1.545,1.545,0,0,1,112.1-2.546V-2.61h4.13v-.4c0-1.837-.983-2.949-2.61-2.949-1.649,0-2.7,1.187-2.7,3.056s1.026,3.019,2.7,3.019a2.373,2.373,0,0,0,2.535-1.692Z" transform="translate(534 7948)" opacity="0.556"/></g><g transform="translate(0 -184)"><g transform="matrix(1, 0, 0, 1, 459, 7660)" filter="url(#c)"><rect width="224" height="45" rx="5" transform="translate(75 297)" fill="#fff"/></g><path d="M.607-2.084C.693-.7,1.848.188,3.566.188,5.4.188,6.553-.741,6.553-2.224c0-1.166-.655-1.81-2.245-2.181l-.854-.209C2.444-4.85,2.036-5.167,2.036-5.72c0-.7.634-1.155,1.584-1.155a1.48,1.48,0,0,1,1.638,1.16H6.429A2.528,2.528,0,0,0,3.636-7.938c-1.692,0-2.82.918-2.82,2.3,0,1.139.639,1.815,2.041,2.143l1,.242c1.026.242,1.477.6,1.477,1.187,0,.688-.709,1.187-1.676,1.187-1.037,0-1.756-.467-1.858-1.2Zm9.9-2.9a1.411,1.411,0,0,1,1.439,1.515H8.994A1.5,1.5,0,0,1,10.508-4.979Zm1.434,3.4a1.4,1.4,0,0,1-1.391.709A1.545,1.545,0,0,1,8.994-2.546V-2.61h4.13v-.4c0-1.837-.983-2.949-2.61-2.949-1.649,0-2.7,1.187-2.7,3.056S8.843.113,10.519.113a2.373,2.373,0,0,0,2.535-1.692ZM15.028-7.3v1.482H14.1v.972h.929v3.3c0,1.128.51,1.579,1.794,1.579a3.73,3.73,0,0,0,.628-.059V-.988a3.8,3.8,0,0,1-.44.027c-.575,0-.827-.269-.827-.881V-4.85H17.45v-.972H16.183V-7.3ZM26.565-5.688h.075L28.305,0h1.133l2.095-7.75H30.282L28.864-1.815h-.075L27.161-7.75H26.044L24.427-1.815h-.075L22.929-7.75H21.677L23.767,0h1.139ZM32.981,0H34.13V-5.849H32.981Zm.575-6.864a.743.743,0,0,0,.73-.752.744.744,0,0,0-.73-.757.744.744,0,0,0-.73.757A.743.743,0,0,0,33.555-6.864ZM38.075.1A2.031,2.031,0,0,0,39.912-.924H40V0H41.11V-8.132H39.955V-4.92h-.086a1.929,1.929,0,0,0-1.794-1.026c-1.477,0-2.428,1.171-2.428,3.019S36.587.1,38.075.1ZM38.4-4.909c.967,0,1.574.768,1.574,1.987S39.375-.94,38.4-.94,36.84-1.687,36.84-2.927,37.431-4.909,38.4-4.909Zm4.955-2.4v1.482h-.929v.972h.929v3.3c0,1.128.51,1.579,1.794,1.579a3.73,3.73,0,0,0,.628-.059V-.988a3.8,3.8,0,0,1-.44.027c-.575,0-.827-.269-.827-.881V-4.85H45.78v-.972H44.512V-7.3ZM47.3,0h1.155V-3.416A1.366,1.366,0,0,1,49.929-4.9c.816,0,1.251.473,1.251,1.407V0h1.155V-3.776a1.926,1.926,0,0,0-2.014-2.181,1.8,1.8,0,0,0-1.783,1.047h-.091V-8.132H47.3Z" transform="translate(554 7984)"/><g transform="translate(682 7962)" fill="none" stroke="#707070" stroke-width="1" opacity="0.128"><rect width="63" height="35" rx="3" stroke="none"/><rect x="0.5" y="0.5" width="62" height="34" rx="2.5" fill="none"/></g><path d="M-19.875,0h1.422V-9.16h-1.416l-2.412,1.7V-6l2.3-1.625h.108Zm4.005-6.481h1.346A1.6,1.6,0,0,1-12.81-8.15a1.491,1.491,0,0,1,1.619,1.53c0,.724-.3,1.168-1.466,2.361l-3.136,3.231V0h6.17V-1.276h-4.228v-.108l2.019-1.987c1.606-1.587,2.069-2.336,2.069-3.4a2.705,2.705,0,0,0-2.958-2.615A2.9,2.9,0,0,0-15.869-6.481Zm11.4,6.7c2.038,0,3.447-1.092,3.447-2.679a2.313,2.313,0,0,0-1.949-2.33v-.108A2.022,2.022,0,0,0-1.4-6.913c0-1.447-1.276-2.469-3.072-2.469S-7.541-8.36-7.541-6.913A2.035,2.035,0,0,0-5.967-4.894v.108A2.337,2.337,0,0,0-7.909-2.45C-7.909-.87-6.506.222-4.469.222Zm0-1.181c-1.174,0-1.987-.66-1.987-1.612s.813-1.619,1.987-1.619,1.987.66,1.987,1.619S-3.294-.958-4.469-.958Zm0-4.393A1.481,1.481,0,0,1-6.138-6.773,1.484,1.484,0,0,1-4.469-8.214,1.489,1.489,0,0,1-2.793-6.773,1.487,1.487,0,0,1-4.469-5.351ZM4.018.222C6.151.222,7.4-1.536,7.4-4.577S6.132-9.382,4.018-9.382.628-7.617.628-4.589C.628-1.542,1.879.222,4.018.222Zm0-1.244c-1.244,0-1.955-1.238-1.955-3.567,0-2.3.724-3.548,1.955-3.548S5.96-6.9,5.96-4.589C5.96-2.253,5.262-1.022,4.018-1.022Zm8.792-6A2.4,2.4,0,0,0,10.639-5.77h-.1V-6.913H9.223V2.3h1.365V-1.047H10.7A2.254,2.254,0,0,0,12.822.114c1.746,0,2.856-1.377,2.856-3.574S14.568-7.027,12.81-7.027Zm-.387,5.916c-1.143,0-1.86-.9-1.86-2.342S11.28-5.8,12.429-5.8s1.847.882,1.847,2.342S13.584-1.111,12.422-1.111Zm7.128-1.327L21.062.013h1.568l-2.3-3.5L22.6-6.9H21.081L19.608-4.462H19.5L18.015-6.9H16.421l2.311,3.479L16.44.013h1.5l1.511-2.45Z" transform="translate(714 7984)" opacity="0.636"/><path d="M5.806-1.106H2.175V-7.75H.972V0H5.806Zm3.3.231c-.628,0-1.085-.306-1.085-.833s.365-.79,1.171-.843l1.429-.091v.489A1.379,1.379,0,0,1,9.1-.875ZM8.809.1a1.968,1.968,0,0,0,1.756-.918h.091V0h1.112V-4c0-1.235-.827-1.966-2.293-1.966-1.327,0-2.272.645-2.39,1.649H8.2c.129-.414.575-.65,1.219-.65.79,0,1.2.349,1.2.967v.5L9.034-3.4c-1.391.086-2.175.693-2.175,1.746A1.767,1.767,0,0,0,8.809.1ZM13.8,2.122c1.192,0,1.746-.457,2.245-1.88l2.181-6.091H17L15.539-1.2h-.091L13.981-5.849H12.724L14.84.021l-.086.285a1,1,0,0,1-1.058.816A2.78,2.78,0,0,1,13.32,1.1v.994C13.428,2.111,13.7,2.122,13.8,2.122ZM21.651.113c1.708,0,2.755-1.144,2.755-3.04s-1.053-3.035-2.755-3.035S18.89-4.812,18.89-2.927,19.938.113,21.651.113Zm0-1.026c-1,0-1.568-.736-1.568-2.014s.564-2.009,1.568-2.009,1.568.741,1.568,2.009S22.65-.913,21.651-.913Zm9.072-4.936H29.568v3.421A1.328,1.328,0,0,1,28.123-.956c-.849,0-1.23-.451-1.23-1.4v-3.5H25.738v3.8A1.9,1.9,0,0,0,27.752.113,1.755,1.755,0,0,0,29.52-.929h.091V0h1.112ZM32.807-7.3v1.482h-.929v.972h.929v3.3c0,1.128.51,1.579,1.794,1.579a3.73,3.73,0,0,0,.628-.059V-.988a3.8,3.8,0,0,1-.44.027c-.575,0-.827-.269-.827-.881V-4.85h1.268v-.972H33.961V-7.3ZM44.124-5.688H44.2L45.864,0H47l2.095-7.75H47.84L46.422-1.815h-.075L44.72-7.75H43.6L41.986-1.815h-.075L40.487-7.75H39.236L41.325,0h1.139ZM50.429,0h1.149V-5.849H50.429ZM51-6.864a.743.743,0,0,0,.73-.752A.744.744,0,0,0,51-8.374a.744.744,0,0,0-.73.757A.743.743,0,0,0,51-6.864ZM55.414.1A2.031,2.031,0,0,0,57.25-.924h.091V0h1.106V-8.132H57.293V-4.92h-.086a1.929,1.929,0,0,0-1.794-1.026c-1.477,0-2.428,1.171-2.428,3.019S53.926.1,55.414.1Zm.328-5.006c.967,0,1.574.768,1.574,1.987S56.713-.94,55.741-.94s-1.563-.747-1.563-1.987S54.769-4.909,55.741-4.909Zm4.845-2.4v1.482h-.929v.972h.929v3.3c0,1.128.51,1.579,1.794,1.579a3.73,3.73,0,0,0,.628-.059V-.988a3.8,3.8,0,0,1-.44.027c-.575,0-.827-.269-.827-.881V-4.85h1.268v-.972H61.741V-7.3ZM64.421,0h1.155V-3.416A1.366,1.366,0,0,1,67.047-4.9c.816,0,1.251.473,1.251,1.407V0h1.155V-3.776a1.926,1.926,0,0,0-2.014-2.181,1.8,1.8,0,0,0-1.783,1.047h-.091V-8.132H64.421Z" transform="translate(534 7947)" opacity="0.556"/></g><g transform="translate(0 -243)"><g transform="matrix(1, 0, 0, 1, 459, 7719)" filter="url(#e)"><rect width="224" height="45" rx="5" transform="translate(75 218)" fill="#fff"/></g><g transform="translate(527.75 7403.5)"><path d="M5.973-1.2H2.342v-2.17H5.774V-4.5H2.342V-6.553H5.973v-1.2H.956V0H5.973ZM7.662,0H8.994V-3.421a1.264,1.264,0,0,1,1.294-1.413c.811,0,1.187.451,1.187,1.348V0h1.332V-3.8c0-1.4-.714-2.191-2.025-2.191A1.755,1.755,0,0,0,9.037-4.936H8.945v-.94H7.662Zm8.843-.951c-.591,0-1.015-.3-1.015-.79,0-.478.349-.747,1.1-.795l1.327-.086v.467A1.288,1.288,0,0,1,16.505-.951ZM16.113.1a1.938,1.938,0,0,0,1.74-.9h.091V0h1.284V-4.012c0-1.246-.849-1.982-2.358-1.982-1.4,0-2.369.661-2.476,1.7h1.257c.124-.4.542-.612,1.155-.612.72,0,1.106.322,1.106.9v.494L16.4-3.427c-1.429.086-2.229.7-2.229,1.762A1.765,1.765,0,0,0,16.113.1ZM24.2.1c1.482,0,2.412-1.166,2.412-3.035S25.692-5.973,24.2-5.973a1.917,1.917,0,0,0-1.789,1.031h-.091V-8.148H20.993V0h1.284V-.929h.091A1.99,1.99,0,0,0,24.2.1Zm-.419-4.936c.908,0,1.461.72,1.461,1.9s-.548,1.9-1.461,1.9-1.482-.73-1.482-1.9S22.878-4.839,23.786-4.839ZM28.117,0h1.332V-8.148H28.117Zm5.589-4.936a1.329,1.329,0,0,1,1.354,1.429H32.293A1.4,1.4,0,0,1,33.706-4.936ZM35.07-1.617a1.307,1.307,0,0,1-1.311.677,1.458,1.458,0,0,1-1.472-1.59V-2.6h4.1v-.43c0-1.853-1-2.965-2.68-2.965-1.7,0-2.761,1.187-2.761,3.078S31.992.118,33.722.118a2.423,2.423,0,0,0,2.61-1.735Zm5.6-.489c.07,1.407,1.246,2.3,3.024,2.3,1.88,0,3.045-.94,3.045-2.449,0-1.182-.661-1.837-2.234-2.191l-.892-.2c-.961-.22-1.354-.526-1.354-1.047,0-.661.591-1.09,1.482-1.09a1.4,1.4,0,0,1,1.547,1.112h1.327c-.064-1.332-1.241-2.267-2.868-2.267-1.735,0-2.884.935-2.884,2.342,0,1.155.661,1.853,2.068,2.17l1,.231c.994.231,1.418.559,1.418,1.117,0,.65-.661,1.117-1.574,1.117-.983,0-1.67-.446-1.756-1.139ZM48.28,0h1.327V-5.876H48.28Zm.661-6.848a.794.794,0,0,0,.795-.8.8.8,0,0,0-.795-.806.8.8,0,0,0-.795.806A.8.8,0,0,0,48.941-6.848ZM53.492.1A1.979,1.979,0,0,0,55.319-.929h.091V0H56.7V-8.148H55.367v3.207h-.091a1.905,1.905,0,0,0-1.783-1.031c-1.482,0-2.417,1.171-2.417,3.029S52,.1,53.492.1Zm.414-4.936c.913,0,1.477.73,1.477,1.9s-.559,1.9-1.477,1.9-1.466-.714-1.466-1.9S53-4.839,53.906-4.839Zm7.049-.1a1.329,1.329,0,0,1,1.354,1.429H59.543A1.4,1.4,0,0,1,60.955-4.936ZM62.32-1.617a1.307,1.307,0,0,1-1.311.677,1.458,1.458,0,0,1-1.472-1.59V-2.6h4.1v-.43c0-1.853-1-2.965-2.68-2.965-1.7,0-2.761,1.187-2.761,3.078S59.242.118,60.972.118a2.423,2.423,0,0,0,2.61-1.735ZM68.354.1c1.482,0,2.412-1.166,2.412-3.035s-.924-3.035-2.412-3.035a1.917,1.917,0,0,0-1.789,1.031h-.091V-8.148H65.142V0h1.284V-.929h.091A1.99,1.99,0,0,0,68.354.1Zm-.419-4.936c.908,0,1.461.72,1.461,1.9s-.548,1.9-1.461,1.9-1.482-.73-1.482-1.9S67.027-4.839,67.935-4.839ZM74.222-.951c-.591,0-1.015-.3-1.015-.79,0-.478.349-.747,1.1-.795l1.327-.086v.467A1.288,1.288,0,0,1,74.222-.951ZM73.83.1a1.938,1.938,0,0,0,1.74-.9h.091V0h1.284V-4.012c0-1.246-.849-1.982-2.358-1.982-1.4,0-2.369.661-2.476,1.7h1.257c.124-.4.542-.612,1.155-.612.72,0,1.106.322,1.106.9v.494l-1.515.091c-1.429.086-2.229.7-2.229,1.762A1.765,1.765,0,0,0,73.83.1ZM78.656,0h1.332V-3.395a1.342,1.342,0,0,1,1.466-1.359,3.042,3.042,0,0,1,.682.075V-5.914a2.294,2.294,0,0,0-.553-.059,1.555,1.555,0,0,0-1.552,1.01h-.091v-.913H78.656Zm4.482-5.618H84.4a1.1,1.1,0,0,1,1.182-1.074,1.006,1.006,0,0,1,1.128.961c0,.532-.226.816-.892,1.219a1.689,1.689,0,0,0-1,1.724l.005.365h1.246v-.306c0-.532.2-.806.9-1.219a2.034,2.034,0,0,0,1.139-1.832c0-1.187-.983-2.036-2.455-2.036A2.241,2.241,0,0,0,83.138-5.618ZM85.5.14a.817.817,0,0,0,.892-.854.818.818,0,0,0-.892-.859.824.824,0,0,0-.892.859A.822.822,0,0,0,85.5.14Z" transform="translate(26.25 558.5)"/><path d="M4.141,0V-6.655H6.574v-1.1H.5v1.1H2.938V0ZM7.826,0H8.975V-5.849H7.826ZM8.4-6.864a.743.743,0,0,0,.73-.752.744.744,0,0,0-.73-.757.744.744,0,0,0-.73.757A.743.743,0,0,0,8.4-6.864Zm2.68-.44v1.482h-.929v.972h.929v3.3c0,1.128.51,1.579,1.794,1.579A3.73,3.73,0,0,0,13.5-.027V-.988a3.8,3.8,0,0,1-.44.027c-.575,0-.827-.269-.827-.881V-4.85H13.5v-.972H12.235V-7.3ZM14.916,0H16.07V-8.132H14.916ZM20.2-4.979A1.411,1.411,0,0,1,21.64-3.464H18.686A1.5,1.5,0,0,1,20.2-4.979Zm1.434,3.4a1.4,1.4,0,0,1-1.391.709,1.545,1.545,0,0,1-1.558-1.676V-2.61h4.13v-.4c0-1.837-.983-2.949-2.61-2.949-1.649,0-2.7,1.187-2.7,3.056S18.536.113,20.211.113a2.373,2.373,0,0,0,2.535-1.692ZM27.3.1c1.477,0,2.417-1.171,2.417-3.024S28.784-5.946,27.3-5.946A1.941,1.941,0,0,0,25.5-4.92h-.091V-8.132H24.256V0h1.112V-.924h.086A2.026,2.026,0,0,0,27.3.1Zm-.333-5.006c.978,0,1.563.752,1.563,1.982S27.946-.94,26.968-.94,25.395-1.7,25.389-2.922,26-4.909,26.968-4.909ZM33.016-.875c-.628,0-1.085-.306-1.085-.833S32.3-2.5,33.1-2.551l1.429-.091v.489A1.379,1.379,0,0,1,33.016-.875Zm-.3.972a1.968,1.968,0,0,0,1.756-.918h.091V0H35.68V-4c0-1.235-.827-1.966-2.293-1.966-1.327,0-2.272.645-2.39,1.649h1.117c.129-.414.575-.65,1.219-.65.79,0,1.2.349,1.2.967v.5L32.946-3.4c-1.391.086-2.175.693-2.175,1.746A1.767,1.767,0,0,0,32.721.1Zm4.6-.1h1.155V-3.454a1.371,1.371,0,0,1,1.493-1.375,3.175,3.175,0,0,1,.645.07V-5.9a2.439,2.439,0,0,0-.516-.048,1.587,1.587,0,0,0-1.579.994h-.086v-.9H37.324Z" transform="translate(6.25 521.5)" opacity="0.556"/></g><g transform="translate(720.394 7945.311)"><rect width="24.106" height="24.106" fill="rgba(0,0,0,0)"/><circle cx="12.053" cy="12.053" r="12.053" transform="translate(0.606 2.583)" fill="#3b3b3b"/><path d="M0,3.709,2.782,6.027,8.808,0" transform="translate(7.649 11.159)" fill="none" stroke="#fff" stroke-linecap="round" stroke-linejoin="round" stroke-miterlimit="10" stroke-width="2"/></g></g><g transform="matrix(1, 0, 0, 1, 459, 7476)" filter="url(#g)"><rect width="224" height="45" rx="5" transform="translate(75 463)" fill="#fff"/></g><rect width="53" height="26" rx="13" transform="translate(692 7949.5)" fill="url(#i)"/><path d="M.607-2.084C.693-.7,1.848.188,3.566.188,5.4.188,6.553-.741,6.553-2.224c0-1.166-.655-1.81-2.245-2.181l-.854-.209C2.444-4.85,2.036-5.167,2.036-5.72c0-.7.634-1.155,1.584-1.155a1.48,1.48,0,0,1,1.638,1.16H6.429A2.528,2.528,0,0,0,3.636-7.938c-1.692,0-2.82.918-2.82,2.3,0,1.139.639,1.815,2.041,2.143l1,.242c1.026.242,1.477.6,1.477,1.187,0,.688-.709,1.187-1.676,1.187-1.037,0-1.756-.467-1.858-1.2Zm9.9-2.9a1.411,1.411,0,0,1,1.439,1.515H8.994A1.5,1.5,0,0,1,10.508-4.979Zm1.434,3.4a1.4,1.4,0,0,1-1.391.709A1.545,1.545,0,0,1,8.994-2.546V-2.61h4.13v-.4c0-1.837-.983-2.949-2.61-2.949-1.649,0-2.7,1.187-2.7,3.056S8.843.113,10.519.113a2.373,2.373,0,0,0,2.535-1.692ZM14.674,0h1.155V-8.132H14.674Zm5.4-4.979a1.411,1.411,0,0,1,1.439,1.515H18.554A1.5,1.5,0,0,1,20.069-4.979Zm1.434,3.4a1.4,1.4,0,0,1-1.391.709,1.545,1.545,0,0,1-1.558-1.676V-2.61h4.13v-.4c0-1.837-.983-2.949-2.61-2.949-1.649,0-2.7,1.187-2.7,3.056S18.4.113,20.08.113a2.373,2.373,0,0,0,2.535-1.692Zm7.63-2.358a2.307,2.307,0,0,0-2.5-2.025c-1.7,0-2.739,1.144-2.739,3.019,0,1.907,1.042,3.056,2.745,3.056a2.288,2.288,0,0,0,2.5-1.993H28.01a1.27,1.27,0,0,1-1.38.961c-.961,0-1.558-.757-1.558-2.025,0-1.246.591-1.987,1.558-1.987a1.3,1.3,0,0,1,1.38.994ZM31.052-7.3v1.482h-.929v.972h.929v3.3c0,1.128.51,1.579,1.794,1.579a3.73,3.73,0,0,0,.628-.059V-.988a3.8,3.8,0,0,1-.44.027c-.575,0-.827-.269-.827-.881V-4.85h1.268v-.972H32.207V-7.3ZM39.974-.875c-.628,0-1.085-.306-1.085-.833s.365-.79,1.171-.843l1.429-.091v.489A1.379,1.379,0,0,1,39.974-.875Zm-.3.972a1.968,1.968,0,0,0,1.756-.918h.091V0h1.112V-4c0-1.235-.827-1.966-2.293-1.966-1.327,0-2.272.645-2.39,1.649h1.117c.129-.414.575-.65,1.219-.65.79,0,1.2.349,1.2.967v.5L39.9-3.4c-1.391.086-2.175.693-2.175,1.746A1.767,1.767,0,0,0,39.678.1ZM47.643-7.75V0h1.2V-2.61H50.64a2.463,2.463,0,0,0,2.594-2.557A2.446,2.446,0,0,0,50.678-7.75Zm1.2,1.063h1.515c1.058,0,1.644.537,1.644,1.52,0,.961-.607,1.5-1.644,1.5H48.846ZM54.757,0h1.155V-3.454a1.371,1.371,0,0,1,1.493-1.375,3.175,3.175,0,0,1,.645.07V-5.9a2.439,2.439,0,0,0-.516-.048,1.587,1.587,0,0,0-1.579.994h-.086v-.9H54.757Zm4.536,0h1.149V-5.849H59.293Zm.575-6.864a.743.743,0,0,0,.73-.752.744.744,0,0,0-.73-.757.744.744,0,0,0-.73.757A.743.743,0,0,0,59.868-6.864ZM62.25,0H63.4V-3.577A1.258,1.258,0,0,1,64.64-4.9,1.019,1.019,0,0,1,65.768-3.84V0H66.9V-3.679A1.185,1.185,0,0,1,68.136-4.9c.757,0,1.133.387,1.133,1.176V0h1.155V-4.028a1.739,1.739,0,0,0-1.869-1.934,1.9,1.9,0,0,0-1.778,1.053h-.091a1.639,1.639,0,0,0-1.611-1.053,1.651,1.651,0,0,0-1.627,1.053h-.086v-.94H62.25ZM74.069-.875c-.628,0-1.085-.306-1.085-.833s.365-.79,1.171-.843l1.429-.091v.489A1.379,1.379,0,0,1,74.069-.875Zm-.3.972A1.968,1.968,0,0,0,75.53-.822h.091V0h1.112V-4c0-1.235-.827-1.966-2.293-1.966-1.327,0-2.272.645-2.39,1.649h1.117c.129-.414.575-.65,1.219-.65.79,0,1.2.349,1.2.967v.5L74-3.4c-1.391.086-2.175.693-2.175,1.746A1.767,1.767,0,0,0,73.773.1ZM78.486,0h1.155V-3.454a1.371,1.371,0,0,1,1.493-1.375,3.175,3.175,0,0,1,.645.07V-5.9a2.439,2.439,0,0,0-.516-.048,1.587,1.587,0,0,0-1.579.994H79.6v-.9H78.486Zm5.121,2.122c1.192,0,1.746-.457,2.245-1.88l2.181-6.091H86.809L85.348-1.2h-.091L83.79-5.849H82.533L84.65.021l-.086.285a1,1,0,0,1-1.058.816,2.78,2.78,0,0,1-.376-.021v.994C83.237,2.111,83.511,2.122,83.608,2.122ZM95.757.188a3.023,3.023,0,0,0,3.217-2.551h-1.2a1.943,1.943,0,0,1-2.02,1.429c-1.4,0-2.267-1.133-2.267-2.938s.87-2.943,2.261-2.943a1.993,1.993,0,0,1,2.025,1.563h1.2a3.1,3.1,0,0,0-3.223-2.686c-2.154,0-3.491,1.552-3.491,4.066S93.6.188,95.757.188ZM103,.113c1.708,0,2.755-1.144,2.755-3.04S104.7-5.962,103-5.962s-2.761,1.149-2.761,3.035S101.286.113,103,.113Zm0-1.026c-1,0-1.568-.736-1.568-2.014S102-4.936,103-4.936s1.568.741,1.568,2.009S104-.913,103-.913ZM107.3,0h1.155V-8.132H107.3Zm5.465.113c1.708,0,2.755-1.144,2.755-3.04s-1.053-3.035-2.755-3.035-2.761,1.149-2.761,3.035S111.056.113,112.769.113Zm0-1.026c-1,0-1.568-.736-1.568-2.014s.564-2.009,1.568-2.009,1.568.741,1.568,2.009S113.768-.913,112.769-.913ZM117.02,0h1.155V-3.454a1.371,1.371,0,0,1,1.493-1.375,3.175,3.175,0,0,1,.645.07V-5.9a2.439,2.439,0,0,0-.516-.048,1.587,1.587,0,0,0-1.579.994h-.086v-.9H117.02Z" transform="translate(554.381 7965.5)"/><path d="M4.152.188A3.023,3.023,0,0,0,7.369-2.363h-1.2A1.943,1.943,0,0,1,4.152-.935c-1.4,0-2.267-1.133-2.267-2.938s.87-2.943,2.261-2.943A1.993,1.993,0,0,1,6.171-5.253h1.2A3.1,3.1,0,0,0,4.146-7.938C1.993-7.938.655-6.386.655-3.873S2,.188,4.152.188ZM11.285.113c1.708,0,2.755-1.144,2.755-3.04s-1.053-3.035-2.755-3.035S8.524-4.812,8.524-2.927,9.571.113,11.285.113Zm0-1.026c-1,0-1.568-.736-1.568-2.014s.564-2.009,1.568-2.009,1.568.741,1.568,2.009S12.284-.913,11.285-.913ZM15.479,0h1.155V-8.132H15.479Zm5.355.113c1.708,0,2.755-1.144,2.755-3.04s-1.053-3.035-2.755-3.035-2.761,1.149-2.761,3.035S19.121.113,20.834.113Zm0-1.026c-1,0-1.568-.736-1.568-2.014s.564-2.009,1.568-2.009S22.4-4.195,22.4-2.927,21.833-.913,20.834-.913ZM24.976,0H26.13V-3.454a1.371,1.371,0,0,1,1.493-1.375,3.175,3.175,0,0,1,.645.07V-5.9a2.439,2.439,0,0,0-.516-.048,1.587,1.587,0,0,0-1.579.994h-.086v-.9H24.976Zm4.152-4.195c0,.87.516,1.37,1.627,1.633l1.021.236c.585.14.859.365.859.714,0,.467-.51.79-1.23.79a1.188,1.188,0,0,1-1.273-.73H28.977c.1,1.037,1.01,1.665,2.4,1.665S33.8-.623,33.8-1.724c0-.859-.521-1.337-1.633-1.6L31.2-3.545c-.634-.145-.929-.365-.929-.714,0-.457.489-.763,1.133-.763s1.074.274,1.182.7h1.106c-.113-1.031-.972-1.644-2.288-1.644S29.127-5.231,29.127-4.195Z" transform="translate(534 7929)" opacity="0.556"/><path d="M17.6,2A2.21,2.21,0,0,1,22,2a2.21,2.21,0,0,1-4.4,0ZM8.8,2A2.107,2.107,0,0,1,11,0a2.108,2.108,0,0,1,2.2,2A2.108,2.108,0,0,1,11,4,2.107,2.107,0,0,1,8.8,2ZM0,2A2.108,2.108,0,0,1,2.2,0,2.107,2.107,0,0,1,4.4,2,2.107,2.107,0,0,1,2.2,4,2.108,2.108,0,0,1,0,2Z" transform="translate(798 7511)" fill="#606269"/><g transform="translate(244 -42)"><path d="M8.938-19.5a2.342,2.342,0,0,0-1.714.724A2.342,2.342,0,0,0,6.5-17.062V-2.437A2.342,2.342,0,0,0,7.224-.724,2.342,2.342,0,0,0,8.938,0h8.125a2.342,2.342,0,0,0,1.714-.724A2.342,2.342,0,0,0,19.5-2.437V-17.062a2.342,2.342,0,0,0-.724-1.714,2.342,2.342,0,0,0-1.714-.724Zm0,1.625h8.125a.781.781,0,0,1,.571.241.781.781,0,0,1,.241.571V-2.437a.781.781,0,0,1-.241.571.781.781,0,0,1-.571.241H8.938a.781.781,0,0,1-.571-.241.781.781,0,0,1-.241-.571V-17.062a.781.781,0,0,1,.241-.571A.781.781,0,0,1,8.938-17.875ZM13-4.062a.781.781,0,0,0-.571.241.781.781,0,0,0-.241.571.781.781,0,0,0,.241.571A.781.781,0,0,0,13-2.437a.781.781,0,0,0,.571-.241.781.781,0,0,0,.241-.571.781.781,0,0,0-.241-.571A.781.781,0,0,0,13-4.062Z" transform="translate(625 7566)" fill="#707070"/><path d="M-11.375-17.875V-3.25H-.812v1.625H-4.875V0h9.75V-1.625H.813V-3.25H11.375V-17.875ZM-9.75-16.25H9.75V-4.875H-9.75Z" transform="translate(672 7566)" fill="#707070"/></g><rect width="72" height="30" rx="4" transform="translate(949 7498)" fill="#313131"/><path d="M-16.885-7.046V0h1.094V-2.373h1.631A2.239,2.239,0,0,0-11.8-4.7a2.224,2.224,0,0,0-2.324-2.349Zm1.094.967h1.377c.962,0,1.494.488,1.494,1.382,0,.874-.552,1.362-1.494,1.362h-1.377Zm9.756.762h-1.05v3.11A1.207,1.207,0,0,1-8.4-.869c-.771,0-1.118-.41-1.118-1.27V-5.317h-1.05v3.452A1.726,1.726,0,0,0-8.735.1,1.6,1.6,0,0,0-7.129-.845h.083V0h1.011ZM-1.694.088C-.352.088.5-.977.5-2.661s-.85-2.744-2.2-2.744a1.764,1.764,0,0,0-1.636.933h-.083v-2.92h-1.05V0h1.011V-.84h.078A1.842,1.842,0,0,0-1.694.088ZM-2-4.463c.889,0,1.421.684,1.421,1.8S-1.108-.854-2-.854s-1.431-.688-1.436-1.8S-2.876-4.463-2-4.463ZM1.812,0h1.05V-7.393H1.812ZM4.453,0H5.5V-5.317H4.453Zm.522-6.24a.675.675,0,0,0,.664-.684.677.677,0,0,0-.664-.688.677.677,0,0,0-.664.688A.675.675,0,0,0,4.976-6.24ZM6.919-3.813c0,.791.469,1.245,1.479,1.484l.928.215c.532.127.781.332.781.649,0,.425-.464.718-1.118.718a1.08,1.08,0,0,1-1.157-.664H6.782C6.875-.469,7.7.1,8.965.1s2.2-.669,2.2-1.67c0-.781-.474-1.216-1.484-1.45L8.8-3.223c-.576-.132-.845-.332-.845-.649,0-.415.444-.693,1.03-.693s.977.249,1.074.64h1.006c-.1-.937-.884-1.494-2.08-1.494S6.919-4.756,6.919-3.813ZM12.48,0h1.05V-3.105a1.242,1.242,0,0,1,1.338-1.348c.742,0,1.138.43,1.138,1.279V0h1.05V-3.433a1.751,1.751,0,0,0-1.831-1.982,1.637,1.637,0,0,0-1.621.952h-.083v-2.93H12.48Z" transform="translate(986 7517)" fill="#fff"/><circle cx="13" cy="13" r="13" transform="translate(535 7500)" fill="#597ffb"/><circle cx="13" cy="13" r="13" transform="translate(548 7500)" fill="#f85976" opacity="0.316"/><path d="M5.3,0V-3.58L8.512-9.16h-1.8L4.539-5.243H4.431L2.247-9.16H.451L3.663-3.58V0Zm6.443.14c2.076,0,3.339-1.358,3.339-3.612s-1.27-3.612-3.339-3.612S8.4-5.713,8.4-3.472,9.661.14,11.743.14Zm0-1.32c-1.1,0-1.727-.838-1.727-2.292s.628-2.292,1.727-2.292,1.72.844,1.72,2.292S12.841-1.181,11.743-1.181ZM22.712-6.944H21.138V-2.9a1.478,1.478,0,0,1-1.581,1.657c-.939,0-1.377-.521-1.377-1.581v-4.12H16.605v4.513A2.278,2.278,0,0,0,19.011.14,2.045,2.045,0,0,0,21.087-1.1h.108V0h1.517Zm7.77,5.821c-.7,0-1.2-.349-1.2-.933,0-.565.413-.882,1.295-.939l1.568-.1v.552A1.523,1.523,0,0,1,30.481-1.124ZM30.018.114A2.29,2.29,0,0,0,32.075-.952h.108V0H33.7V-4.742c0-1.473-1-2.342-2.787-2.342-1.65,0-2.8.781-2.926,2.006h1.485c.146-.47.641-.724,1.365-.724.851,0,1.308.381,1.308,1.06v.584l-1.79.108c-1.688.1-2.634.825-2.634,2.082A2.085,2.085,0,0,0,30.018.114ZM35.591,0h1.574V-4.012A1.586,1.586,0,0,1,38.9-5.618a3.6,3.6,0,0,1,.806.089v-1.46a2.711,2.711,0,0,0-.654-.07,1.837,1.837,0,0,0-1.834,1.193h-.108V-6.944H35.591Zm8.144-5.833a1.571,1.571,0,0,1,1.6,1.688H42.066A1.659,1.659,0,0,1,43.735-5.833Zm1.612,3.923a1.545,1.545,0,0,1-1.549.8A1.723,1.723,0,0,1,42.06-2.99v-.083h4.85V-3.58c0-2.19-1.187-3.5-3.167-3.5-2.012,0-3.263,1.4-3.263,3.637S41.71.14,43.754.14a2.863,2.863,0,0,0,3.085-2.05Zm12.606-2.7a2.764,2.764,0,0,0-3.028-2.476c-2.088,0-3.313,1.339-3.313,3.593,0,2.285,1.231,3.631,3.32,3.631a2.749,2.749,0,0,0,3.021-2.431h-1.5a1.409,1.409,0,0,1-1.53,1.111c-1.073,0-1.72-.851-1.72-2.311,0-1.441.641-2.272,1.72-2.272a1.442,1.442,0,0,1,1.53,1.155ZM65.5-6.944H63.927V-2.9a1.478,1.478,0,0,1-1.581,1.657c-.939,0-1.377-.521-1.377-1.581v-4.12H59.4v4.513A2.278,2.278,0,0,0,61.8.14,2.045,2.045,0,0,0,63.876-1.1h.108V0H65.5Zm1.771,1.987c0,1.047.628,1.663,1.961,1.968l1.231.286c.66.146.958.394.958.787,0,.514-.552.863-1.346.863s-1.276-.3-1.428-.819H67.095C67.215-.609,68.307.14,70.04.14S73-.749,73-2.082c0-1.022-.616-1.593-1.942-1.892l-1.225-.279c-.7-.159-1.028-.4-1.028-.793,0-.5.54-.844,1.257-.844.736,0,1.2.311,1.314.8h1.479c-.114-1.263-1.149-1.993-2.8-1.993S67.272-6.214,67.272-4.958Zm7.776-3.688V-6.9h-1.1v1.257h1.1v3.79c0,1.346.635,1.885,2.228,1.885A4.458,4.458,0,0,0,78.1-.044V-1.276a4.547,4.547,0,0,1-.533.032c-.66,0-.952-.3-.952-.99V-5.643H78.1V-6.9H76.616V-8.646ZM82.608.14c2.076,0,3.339-1.358,3.339-3.612s-1.27-3.612-3.339-3.612S79.27-5.713,79.27-3.472,80.526.14,82.608.14Zm0-1.32c-1.1,0-1.727-.838-1.727-2.292s.628-2.292,1.727-2.292,1.72.844,1.72,2.292S83.707-1.181,82.608-1.181ZM87.534,0h1.574V-4.221a1.394,1.394,0,0,1,1.358-1.492,1.149,1.149,0,0,1,1.257,1.225V0h1.53V-4.323a1.318,1.318,0,0,1,1.358-1.39c.844,0,1.27.444,1.27,1.339V0h1.568V-4.773a2.091,2.091,0,0,0-2.228-2.311,2.247,2.247,0,0,0-2.107,1.263h-.108a1.913,1.913,0,0,0-1.917-1.263,1.952,1.952,0,0,0-1.93,1.263h-.108V-6.944H87.534Zm11.8,0H100.9V-6.944H99.334Zm.781-8.093a.939.939,0,0,0,.939-.946.944.944,0,0,0-.939-.952.948.948,0,0,0-.939.952A.943.943,0,0,0,100.115-8.093ZM102.692,0h5.624V-1.27H104.7v-.108l3.555-4.494V-6.944h-5.535v1.27h3.656v.108L102.692-.984Zm7.414,0h1.568V-6.944h-1.568Zm.781-8.093a.939.939,0,0,0,.939-.946.944.944,0,0,0-.939-.952.948.948,0,0,0-.939.952A.943.943,0,0,0,110.887-8.093ZM113.623,0H115.2V-4.043a1.494,1.494,0,0,1,1.53-1.669c.958,0,1.4.533,1.4,1.593V0H119.7V-4.494c0-1.657-.844-2.59-2.393-2.59a2.075,2.075,0,0,0-2.063,1.25h-.108V-6.944h-1.517Zm10.931-1.384c-1.1,0-1.72-.838-1.72-2.165s.622-2.171,1.72-2.171,1.758.844,1.758,2.171S125.652-1.384,124.554-1.384Zm0,4.024c2.025,0,3.307-1.009,3.307-2.615v-6.97h-1.517v1.111h-.108a2.357,2.357,0,0,0-2.152-1.225c-1.771,0-2.869,1.384-2.869,3.51,0,2.088,1.092,3.447,2.844,3.447a2.271,2.271,0,0,0,2.12-1.149h.108V.063c0,.87-.628,1.377-1.708,1.377-.863,0-1.422-.3-1.523-.781h-1.581C121.6,1.854,122.77,2.641,124.554,2.641ZM141.146,0V-9.16h-1.631v3.79h-4.456V-9.16h-1.638V0h1.638V-3.955h4.456V0Zm8.138-6.944H147.71V-2.9a1.478,1.478,0,0,1-1.581,1.657c-.939,0-1.377-.521-1.377-1.581v-4.12h-1.574v4.513A2.278,2.278,0,0,0,145.583.14,2.045,2.045,0,0,0,147.659-1.1h.108V0h1.517ZM155.073.114c1.752,0,2.85-1.377,2.85-3.586s-1.092-3.586-2.85-3.586a2.266,2.266,0,0,0-2.114,1.219h-.108v-3.79h-1.574V0h1.517V-1.1h.108A2.352,2.352,0,0,0,155.073.114Zm-.5-5.833c1.073,0,1.727.851,1.727,2.247s-.647,2.247-1.727,2.247-1.752-.863-1.752-2.247S153.505-5.719,154.578-5.719Zm8.3-.717h1.536a1.526,1.526,0,0,1,1.631-1.606,1.413,1.413,0,0,1,1.53,1.447c0,.686-.279,1.124-1.435,2.279l-3.174,3.18V0h6.36V-1.39h-4.139V-1.5l1.968-1.917c1.574-1.523,2.038-2.272,2.038-3.339,0-1.523-1.238-2.634-3.06-2.634A2.983,2.983,0,0,0,162.875-6.437ZM172.2.133a.974.974,0,0,0,1.016-1,.97.97,0,0,0-1.016-1,.974.974,0,0,0-1.016,1A.977.977,0,0,0,172.2.133Zm4.824-4.208h1.149c1.13,0,1.815.559,1.815,1.46,0,.876-.743,1.466-1.8,1.466s-1.777-.54-1.847-1.384h-1.568c.076,1.669,1.441,2.761,3.434,2.761s3.453-1.143,3.453-2.723a2.171,2.171,0,0,0-2.025-2.241v-.108a2.1,2.1,0,0,0,1.669-2.095c.006-1.32-1.092-2.45-3.041-2.45-1.987,0-3.231,1.124-3.313,2.742h1.536a1.493,1.493,0,0,1,1.688-1.409,1.382,1.382,0,0,1,1.549,1.339,1.43,1.43,0,0,1-1.587,1.39h-1.117Z" transform="translate(596 7518)"/><path d="M4.286-13.192l-.854.854L8.646-7.125,3.433-1.911l.854.854L9.5-6.271l5.214,5.214.854-.854L10.354-7.125l5.214-5.214-.854-.854L9.5-7.979Z" transform="translate(1038 7521)" fill="#2f313b"/><g transform="translate(536 7550)" fill="none" stroke="#d8d8d8" stroke-width="1" stroke-dasharray="4 4"><rect width="220" height="105" rx="4" stroke="none"/><rect x="0.5" y="0.5" width="219" height="104" rx="3.5" fill="none"/></g><g transform="translate(-2)"><path d="M-35.56-7.75h-1.2v5.081A2.828,2.828,0,0,0-33.626.188a2.827,2.827,0,0,0,3.142-2.857V-7.75h-1.2v4.974A1.758,1.758,0,0,1-33.626-.94,1.756,1.756,0,0,1-35.56-2.777Zm9.855,1.8a2.033,2.033,0,0,0-1.837,1.063h-.086v-.967H-28.74V1.944h1.155V-.886h.091a1.907,1.907,0,0,0,1.8.983c1.477,0,2.417-1.166,2.417-3.024S-24.217-5.946-25.7-5.946ZM-26.033-.94c-.967,0-1.574-.763-1.574-1.982S-27-4.909-26.027-4.909s1.563.747,1.563,1.982S-25.05-.94-26.033-.94Zm4.14.94h1.155V-8.132h-1.155Zm5.3.113c1.708,0,2.755-1.144,2.755-3.04s-1.053-3.035-2.755-3.035-2.761,1.149-2.761,3.035S-18.306.113-16.593.113Zm0-1.026c-1,0-1.568-.736-1.568-2.014s.564-2.009,1.568-2.009,1.568.741,1.568,2.009S-15.594-.913-16.593-.913Zm6,.038c-.628,0-1.085-.306-1.085-.833s.365-.79,1.171-.843l1.429-.091v.489A1.379,1.379,0,0,1-10.595-.875Zm-.3.972A1.968,1.968,0,0,0-9.134-.822h.091V0h1.112V-4c0-1.235-.827-1.966-2.293-1.966-1.327,0-2.272.645-2.39,1.649H-11.5c.129-.414.575-.65,1.219-.65.79,0,1.2.349,1.2.967v.5l-1.584.091c-1.391.086-2.175.693-2.175,1.746A1.767,1.767,0,0,0-10.89.1ZM-4.2.1A2.031,2.031,0,0,0-2.367-.924h.091V0H-1.17V-8.132H-2.324V-4.92H-2.41A1.929,1.929,0,0,0-4.2-5.946c-1.477,0-2.428,1.171-2.428,3.019S-5.692.1-4.2.1Zm.328-5.006c.967,0,1.574.768,1.574,1.987S-2.9-.94-3.877-.94-5.44-1.687-5.44-2.927-4.849-4.909-3.877-4.909ZM5.37-.875c-.628,0-1.085-.306-1.085-.833s.365-.79,1.171-.843l1.429-.091v.489A1.379,1.379,0,0,1,5.37-.875ZM5.074.1A1.968,1.968,0,0,0,6.831-.822h.091V0H8.034V-4c0-1.235-.827-1.966-2.293-1.966-1.327,0-2.272.645-2.39,1.649H4.467c.129-.414.575-.65,1.219-.65.79,0,1.2.349,1.2.967v.5L5.3-3.4c-1.391.086-2.175.693-2.175,1.746A1.767,1.767,0,0,0,5.074.1Zm12.469-1.2H13.913V-7.75h-1.2V0h4.834ZM21.076.113c1.708,0,2.755-1.144,2.755-3.04s-1.053-3.035-2.755-3.035-2.761,1.149-2.761,3.035S19.363.113,21.076.113Zm0-1.026c-1,0-1.568-.736-1.568-2.014s.564-2.009,1.568-2.009,1.568.741,1.568,2.009S22.075-.913,21.076-.913Zm6.535-.172c-.994,0-1.552-.747-1.552-1.912s.559-1.912,1.552-1.912S29.2-4.163,29.2-3,28.6-1.085,27.612-1.085Zm.016,3.319c1.654,0,2.7-.849,2.7-2.186v-5.9H29.223v.935h-.091a2.026,2.026,0,0,0-1.837-1.031c-1.493,0-2.428,1.171-2.428,2.954,0,1.751.924,2.906,2.417,2.906a1.966,1.966,0,0,0,1.8-.983h.086V.054c0,.773-.569,1.23-1.531,1.23-.779,0-1.268-.274-1.364-.7H25.1C25.222,1.579,26.167,2.234,27.628,2.234ZM34.421.113c1.708,0,2.755-1.144,2.755-3.04s-1.053-3.035-2.755-3.035S31.66-4.812,31.66-2.927,32.708.113,34.421.113Zm0-1.026c-1,0-1.568-.736-1.568-2.014s.564-2.009,1.568-2.009,1.568.741,1.568,2.009S35.42-.913,34.421-.913Z" transform="translate(664 7628)" opacity="0.654"/><circle cx="11" cy="11" r="11" transform="translate(595 7613)" fill="#ebebeb"/><text transform="translate(606 7628)" font-size="16" font-family="SFProText-Light, SF Pro Text" font-weight="300" letter-spacing="-0.005em"><tspan x="-5.16" y="0">+</tspan></text><g transform="translate(632 7579)"><path d="M866.8,539.831c5.782-1.6,9.331.008,11.674,5.233,1.975,4.4,4.83,8.413,7.328,12.651-6.238,1.812-7.554,1.345-10.535-3.643C872.492,549.427,869.736,544.77,866.8,539.831Z" transform="translate(-866.801 -539.159)"/><path d="M901.046,558.007c-5.758,1.546-9.233.062-11.547-5.045-2.044-4.512-4.983-8.619-7.573-12.983,7.325-1.538,7.565-1.431,11.06,4.475C895.6,548.867,898.226,553.268,901.046,558.007Z" transform="translate(-869.264 -539.144)"/><path d="M906.421,554.976c-1.991-3.369-3.76-6.031-5.189-8.865-1.779-3.529-.054-6.356,3.869-6.7.552-.048,1.109-.018,1.664-.018,2.63,0,5.259,0,8.805,0Z" transform="translate(-872.294 -539.183)"/></g></g></g></svg>