<svg xmlns="http://www.w3.org/2000/svg" width="69" height="19" viewBox="0 0 69 19"><rect width="69" height="19" rx="9.5" fill="#262626"/><path d="M-23.2.18a2.368,2.368,0,0,0,2.56-2.65V-7h-1.61v4.63c0,.69-.31,1.16-.95,1.16s-.93-.48-.93-1.2h-1.62A2.374,2.374,0,0,0-23.2.18Zm7.9.02a3.58,3.58,0,0,0,3.74-3.7,3.58,3.58,0,0,0-3.74-3.7,3.58,3.58,0,0,0-3.74,3.7A3.58,3.58,0,0,0-15.305.2Zm0-1.45a2.038,2.038,0,0,1-2.05-2.25,2.038,2.038,0,0,1,2.05-2.25,2.05,2.05,0,0,1,2.05,2.25A2.05,2.05,0,0,1-15.305-1.25ZM-9.815,0H-8.2V-7h-1.62Zm3.79,0h1.55V-4.53L-2.045,0h1.66V-7h-1.55v4.53L-4.365-7h-1.66ZM5.025,0h1.62V-2.78h2.42V0h1.62V-7H9.065v2.83H6.645V-7H5.025Zm10.49.18c1.72,0,2.83-.92,2.83-2.55V-7h-1.62v4.53a1.131,1.131,0,0,1-1.21,1.25,1.136,1.136,0,0,1-1.21-1.25V-7H12.7v4.63C12.7-.74,13.8.18,15.515.18Zm8.63-3.76a1.517,1.517,0,0,0,1.34-1.6c0-1.13-.86-1.82-2.25-1.82h-2.88V0h2.99c1.39,0,2.24-.74,2.24-1.94A1.55,1.55,0,0,0,24.145-3.58Zm-1.27-2.25c.63,0,.99.32.99.85s-.37.85-.99.85h-.9v-1.7Zm.11,4.6h-1.01V-3.01h1.01a.868.868,0,0,1,.97.86A.871.871,0,0,1,22.985-1.23Z" transform="translate(34 13)" fill="#fff"/></svg>