<svg xmlns="http://www.w3.org/2000/svg" xmlns:xlink="http://www.w3.org/1999/xlink" width="149" height="102" viewBox="0 0 149 102"><defs><clipPath id="a"><rect width="52.686" height="44" fill="none"/></clipPath></defs><g transform="translate(-363 -17213)"><g transform="translate(363 17213)" fill="none" stroke="#363636" stroke-width="1"><rect width="149" height="102" stroke="none"/><rect x="0.5" y="0.5" width="148" height="101" fill="none"/></g><g transform="translate(363 17229)" fill="none" stroke="#fff" stroke-width="1" opacity="0.102"><rect width="149" height="1" stroke="none"/><rect x="0.5" y="0.5" width="148" fill="none"/></g><g transform="translate(398.096 17215.256)"><rect width="10" height="4" rx="1" transform="translate(14.904 4.745)" fill="#2e2e2e"/><rect width="10" height="4" rx="1" transform="translate(-0.096 4.745)" fill="#2e2e2e"/><rect width="10" height="4" rx="1" transform="translate(55.904 4.745)" fill="#2e2e2e"/><rect width="10" height="4" rx="1" transform="translate(70.904 4.745)" fill="#2e2e2e"/></g><g transform="translate(411 17250)" opacity="0.188" clip-path="url(#a)"><g transform="translate(-560 -17290)"><g transform="translate(560 17290)" fill="none" stroke="#fff" stroke-miterlimit="10" stroke-width="1"><rect width="17.686" height="44" stroke="none"/><rect x="0.5" y="0.5" width="16.686" height="43" fill="none"/></g></g><g transform="translate(-543 -17290)"><g transform="translate(560 17290)" fill="none" stroke="#fff" stroke-miterlimit="10" stroke-width="1"><rect width="17.686" height="44" stroke="none"/><rect x="0.5" y="0.5" width="16.686" height="43" fill="none"/></g></g><g transform="translate(-526 -17290)"><g transform="translate(560 17290)" fill="none" stroke="#fff" stroke-miterlimit="10" stroke-width="1"><rect width="17.686" height="44" stroke="none"/><rect x="0.5" y="0.5" width="16.686" height="43" fill="none"/></g></g></g></g></svg>