<svg xmlns="http://www.w3.org/2000/svg" xmlns:xlink="http://www.w3.org/1999/xlink" width="149" height="102" viewBox="0 0 149 102"><defs><clipPath id="a"><rect width="26" height="6" fill="none"/></clipPath></defs><g transform="translate(-363 -17213)"><g transform="translate(415.484 17253.35)" opacity="0.332"><g transform="translate(46.516 0.651) rotate(90)" fill="none" stroke="#fff" stroke-miterlimit="10" stroke-width="1" opacity="0.568"><rect width="2" height="30" stroke="none"/><rect x="0.5" y="0.5" width="1" height="29" fill="none"/></g><g transform="translate(27.516 11.651) rotate(90)" fill="none" stroke="#fff" stroke-miterlimit="10" stroke-width="1" opacity="0.568"><rect width="2" height="47" stroke="none"/><rect x="0.5" y="0.5" width="1" height="46" fill="none"/></g><g transform="translate(58.516 11.651) rotate(90)" fill="none" stroke="#fff" stroke-miterlimit="10" stroke-width="1" opacity="0.568"><rect width="2" height="26" stroke="none"/><rect x="0.5" y="0.5" width="1" height="25" fill="none"/></g><g transform="translate(0.516 21.651) rotate(90)" fill="none" stroke="#fff" stroke-miterlimit="10" stroke-width="1" opacity="0.568"><rect width="2" height="20" stroke="none"/><rect x="0.5" y="0.5" width="1" height="19" fill="none"/></g><g transform="translate(36.516 21.651) rotate(90)" fill="none" stroke="#fff" stroke-miterlimit="10" stroke-width="1" opacity="0.568"><rect width="2" height="30" stroke="none"/><rect x="0.5" y="0.5" width="1" height="29" fill="none"/></g><g transform="translate(66.516 31.651) rotate(90)" fill="none" stroke="#fff" stroke-miterlimit="10" stroke-width="1" opacity="0.568"><rect width="2" height="40" stroke="none"/><rect x="0.5" y="0.5" width="1" height="39" fill="none"/></g><g transform="translate(20.516 31.651) rotate(90)" fill="none" stroke="#fff" stroke-miterlimit="10" stroke-width="1" opacity="0.568"><rect width="2" height="40" stroke="none"/><rect x="0.5" y="0.5" width="1" height="39" fill="none"/></g><g transform="translate(10.516 0.651) rotate(90)" fill="none" stroke="#fff" stroke-miterlimit="10" stroke-width="1" opacity="0.568"><rect width="2" height="30" stroke="none"/><rect x="0.5" y="0.5" width="1" height="29" fill="none"/></g></g><g transform="translate(363 17213)" fill="none" stroke="#363636" stroke-width="1"><rect width="149" height="102" stroke="none"/><rect x="0.5" y="0.5" width="148" height="101" fill="none"/></g><g transform="translate(363 17229)" fill="none" stroke="#fff" stroke-width="1" opacity="0.102"><rect width="149" height="1" stroke="none"/><rect x="0.5" y="0.5" width="148" fill="none"/></g><g transform="translate(373 17219)" opacity="0.505" clip-path="url(#a)"><g transform="translate(-804 -16984)"><circle cx="2.5" cy="2.5" r="2.5" transform="translate(804 16984)" fill="#fff" opacity="0.212"/></g><g transform="translate(-795 -16984)"><circle cx="2.5" cy="2.5" r="2.5" transform="translate(804 16984)" fill="#fff" opacity="0.212"/></g><g transform="translate(-786 -16984)"><circle cx="2.5" cy="2.5" r="2.5" transform="translate(804 16984)" fill="#fff" opacity="0.212"/></g></g></g></svg>