<svg xmlns="http://www.w3.org/2000/svg" width="478.086" height="60.659" viewBox="0 0 478.086 60.659"><g transform="translate(-564.42 -3355.125)"><path d="M3.948.042a2.923,2.923,0,0,0,1.764-.5,2.613,2.613,0,0,0,1.2-2.205,2.5,2.5,0,0,0-.021-.378,3.8,3.8,0,0,0-2.373-3.3q-1.113-.441-1.281-.5a1.136,1.136,0,0,1-.714-.777A1.18,1.18,0,0,1,2.478-7.9a.65.65,0,0,1,.284-.546,1.222,1.222,0,0,1,.745-.21,2.672,2.672,0,0,1,.714.105.529.529,0,0,1,.315.168.988.988,0,0,0,.651.273A.791.791,0,0,0,5.5-8.169.852.852,0,0,0,6.153-8.9a.637.637,0,0,0,.021-.189,1.026,1.026,0,0,0-.189-.546,1.473,1.473,0,0,0-.777-.567,4.769,4.769,0,0,0-1.7-.336,3.986,3.986,0,0,0-.693.063,2.935,2.935,0,0,0-1.638.913,2.392,2.392,0,0,0-.63,1.648,2.686,2.686,0,0,0,.084.693,3.036,3.036,0,0,0,1.827,2.1L3.78-4.6a1.616,1.616,0,0,1,.871.756,2.19,2.19,0,0,1,.3,1.071.951.951,0,0,1-.2.609.778.778,0,0,1-.536.294,2.311,2.311,0,0,1-.357.021,2.6,2.6,0,0,1-.672-.084,1.108,1.108,0,0,1-.577-.388.987.987,0,0,1-.22-.62,1.063,1.063,0,0,0-.263-.735.872.872,0,0,0-.683-.294.937.937,0,0,0-.472.126,1.125,1.125,0,0,0-.368.336,1.115,1.115,0,0,0-.189.651A3.022,3.022,0,0,0,1.281-.945,2.538,2.538,0,0,0,2.415-.21,4.346,4.346,0,0,0,3.948.042ZM16.38.063a.947.947,0,0,0,.63-.231,1.071,1.071,0,0,0,.357-.588,3.393,3.393,0,0,0,.021-.441l-.021-1.491q-.042-1.974-.042-3l.021-2.289a2.668,2.668,0,0,0-.021-.3.946.946,0,0,1,0-.283,1.134,1.134,0,0,0-.42-.945,3.1,3.1,0,0,0-.924-.546,5.575,5.575,0,0,0-1.449-.315,5.043,5.043,0,0,0-.525-.021A5.459,5.459,0,0,0,10.1-8.778,6.076,6.076,0,0,0,8.169-4.242a7.151,7.151,0,0,0,.063.924A3.448,3.448,0,0,0,9.387-1.092a3.323,3.323,0,0,0,2.247.861,3.45,3.45,0,0,0,1.806-.5,7.687,7.687,0,0,0,1.281-.987,2.7,2.7,0,0,1,.262-.231,2.7,2.7,0,0,0,.263-.231l.042.966q0,.084.01.21a1.879,1.879,0,0,0,.052.294,1,1,0,0,0,.368.557A1.047,1.047,0,0,0,16.38.063ZM11.634-2.352a1.32,1.32,0,0,1-.777-.252,1.136,1.136,0,0,1-.462-.672,3.735,3.735,0,0,1-.126-.945,4.512,4.512,0,0,1,.042-.525,4.313,4.313,0,0,1,.8-2.016,3.811,3.811,0,0,1,2.6-1.533,1.585,1.585,0,0,1,.294-.021,4.71,4.71,0,0,1,1.134.189l-.168,1.008a12.071,12.071,0,0,1-.546,2.079,4.91,4.91,0,0,1-1.617,2.2,3.723,3.723,0,0,1-.577.357A1.367,1.367,0,0,1,11.634-2.352ZM24.36-.546A2.5,2.5,0,0,0,24.633-.9a22.235,22.235,0,0,0,1.89-3.486l.882-1.89.441-.84.63-1.218a2.121,2.121,0,0,0,.273-.882.886.886,0,0,0-.315-.682,1.119,1.119,0,0,0-.777-.284,1,1,0,0,0-.567.168,1.027,1.027,0,0,0-.378.462q-.378.8-.588,1.2-.483,1.008-1.491,3.024l-.945,2a.406.406,0,0,0-.052.074.488.488,0,0,1-.073.095l-.084-.147q-1.134-2.31-1.68-3.465l-1.575-3.3a.948.948,0,0,0-.924-.567,1.177,1.177,0,0,0-.63.168.872.872,0,0,0-.378.483,1.189,1.189,0,0,0-.063.378,1.13,1.13,0,0,0,.063.357l.315.693q.609,1.176.735,1.47.546,1.218,1.228,2.615t.892,1.837l.735,1.47a2.367,2.367,0,0,0,.315.525,1.175,1.175,0,0,0,.966.483A1.209,1.209,0,0,0,24.36-.546Zm10.122.525a3.771,3.771,0,0,0,2.236-.62,4.473,4.473,0,0,0,1.417-1.754l.042-.126a.883.883,0,0,0,.021-.21A.881.881,0,0,0,37.9-3.4a1.067,1.067,0,0,0-.756-.273,1.082,1.082,0,0,0-.9.483l-.42.651a1.211,1.211,0,0,1-.84.525,3.008,3.008,0,0,1-.588.063A2.755,2.755,0,0,1,32.655-2.6a2.159,2.159,0,0,1-.63-.872,4.422,4.422,0,0,1-.252-1.165q.294,0,.882.042.714.042,1.05.042a7.952,7.952,0,0,0,1.239-.084,6.048,6.048,0,0,0,2.079-.651A2.131,2.131,0,0,0,38.2-7.245a2.327,2.327,0,0,0-.714-1.617,5.129,5.129,0,0,0-1.932-1.3,4.161,4.161,0,0,0-1.407-.273,4.456,4.456,0,0,0-.5.042,6.3,6.3,0,0,0-1.407.357,3.71,3.71,0,0,0-2.352,2.457A7.107,7.107,0,0,0,29.589-5.5a7.785,7.785,0,0,0,.4,2.478,4.158,4.158,0,0,0,1.7,2.184A4.952,4.952,0,0,0,34.482-.021Zm-.819-6.468q-1.05-.042-1.6-.084l-.273-.021a3.276,3.276,0,0,1,.336-.966.489.489,0,0,1,.084-.126.329.329,0,0,0,.063-.084A2.021,2.021,0,0,1,33.1-8.3a2.921,2.921,0,0,1,1.05-.21,1.4,1.4,0,0,1,.441.063,2.9,2.9,0,0,1,1.344.882.527.527,0,0,1,.126.21.465.465,0,0,1,.021.147.354.354,0,0,1-.21.294,3.1,3.1,0,0,1-1.26.357A7.3,7.3,0,0,1,33.663-6.489ZM48.573-.063A.987.987,0,0,0,49.36-.42a.976.976,0,0,0,.221-.84l-.042-.189-.126-2.31a.4.4,0,0,1,.021-.126.815.815,0,0,1,.042-.105q.021-.1.063-.242a1.791,1.791,0,0,0,.063-.325l.063-.546q.021-.168.053-.493t.073-.557A2.687,2.687,0,0,1,50.9-8a.9.9,0,0,1,.441-.231,6.085,6.085,0,0,1,.861-.063A1.544,1.544,0,0,1,53.844-7.14l.063.294a9.491,9.491,0,0,1,.231,2.163q0,.378-.042,1.092Q54.012-2.2,54.012-1.47a.972.972,0,0,0,.294.714.972.972,0,0,0,.714.294.987.987,0,0,0,.641-.231,1.056,1.056,0,0,0,.368-.609,1.722,1.722,0,0,0,.042-.441l.042-.714q.042-.924.084-1.386.021-.273.021-.819a11.908,11.908,0,0,0-.336-2.856,3.587,3.587,0,0,0-2.835-2.772,2.946,2.946,0,0,0-.861-.105,6.085,6.085,0,0,0-.861.063A3.272,3.272,0,0,0,49.56-9.6l-.252.21A.59.59,0,0,0,49.3-9.5a.224.224,0,0,1,.011-.116l.063-4.158a2.23,2.23,0,0,1,.021-.315,2.23,2.23,0,0,0,.021-.315,1.1,1.1,0,0,0-.3-.735.938.938,0,0,0-.7-.294,1.04,1.04,0,0,0-.63.2.918.918,0,0,0-.357.535,2.27,2.27,0,0,0-.1.63q-.084,2.856-.084,4.284,0,1.806.084,5.376l.147,3a4.866,4.866,0,0,0,.126.651.971.971,0,0,0,.378.5A1.046,1.046,0,0,0,48.573-.063ZM61.215-.126a4.6,4.6,0,0,0,.9.084,3.648,3.648,0,0,0,2.331-.8.239.239,0,0,1,.126-.084q.168.189.231.252a1.274,1.274,0,0,0,.966.462,1.064,1.064,0,0,0,.556-.158,1.1,1.1,0,0,0,.41-.43,1.036,1.036,0,0,0,.126-.5.8.8,0,0,0-.294-.672.83.83,0,0,1-.252-.609l-.021-.21a3.621,3.621,0,0,0-.021-.462l-.021-.462a1.9,1.9,0,0,1,.021-.336,13.174,13.174,0,0,0,.21-2.541q0-.987-.1-2.2a2.5,2.5,0,0,0-.252-.84,1.3,1.3,0,0,0-.42-.431,1.011,1.011,0,0,0-.546-.157,1.073,1.073,0,0,0-.725.262,1,1,0,0,0-.346.683,7.012,7.012,0,0,0-.042.9q0,.546.042,1.638L64.113-4.2a1.807,1.807,0,0,1-.042.336,2.821,2.821,0,0,1-1.05,1.428,1.453,1.453,0,0,1-.672.273,2.46,2.46,0,0,1-1.176-.168A1.407,1.407,0,0,1,60.207-3.4a5.508,5.508,0,0,1-.126-.693A9.418,9.418,0,0,1,60-5.418q0-.525.042-1.533.021-.525.1-1.47a2.1,2.1,0,0,1,.032-.284,1.18,1.18,0,0,0,.01-.346.918.918,0,0,0-.315-.662,1.034,1.034,0,0,0-.714-.262,1.016,1.016,0,0,0-.661.231,1.066,1.066,0,0,0-.368.63q-.084.42-.126.819l-.042.756q-.021.378-.042.945t-.021,1.3a16.832,16.832,0,0,0,.168,2,3.53,3.53,0,0,0,1.05,2.121A3.851,3.851,0,0,0,61.215-.126ZM76.65-.252a.9.9,0,0,0,.693-.294,1.011,1.011,0,0,0,.273-.714,4.177,4.177,0,0,0-.021-.483L77.574-2.2V-4.368a21.14,21.14,0,0,0-.21-2.709,4.53,4.53,0,0,0-.651-1.806A2.482,2.482,0,0,0,75.348-10a3.262,3.262,0,0,0-1.071-.189,2.826,2.826,0,0,0-1.659.567,4.9,4.9,0,0,0-.84.777,12.711,12.711,0,0,0-.8,1.05q-.063.105-.168.252l-.042-.168-.063-.861a3.393,3.393,0,0,0-.021-.441,1.07,1.07,0,0,0-.336-.578.865.865,0,0,0-.588-.22,1,1,0,0,0-.651.22.858.858,0,0,0-.315.6,3.3,3.3,0,0,0-.021.84l.063.651a8.983,8.983,0,0,1,.126,1.218q.21,2.352.294,3.528l.1,1.491a1.127,1.127,0,0,0,.315.683.873.873,0,0,0,.651.283.93.93,0,0,0,.682-.283,1.032,1.032,0,0,0,.3-.7,3.175,3.175,0,0,0,.021-.42q0-.147.01-.368t.053-.515q.252-1.47.42-2.184A6.085,6.085,0,0,1,73.227-7.56a2.754,2.754,0,0,1,.651-.546.932.932,0,0,1,.462-.147.845.845,0,0,1,.431.116.906.906,0,0,1,.326.325,1.874,1.874,0,0,1,.252.609A11.3,11.3,0,0,1,75.537-5.8q.063,1.2.063,2.373.021.273.021.8,0,.42.042,1.3a1.253,1.253,0,0,0,.063.4.956.956,0,0,0,.357.494A.958.958,0,0,0,76.65-.252Zm9.912.63a.962.962,0,0,0,.672-.9,14.6,14.6,0,0,0,.105-1.68q.021-.483.021-1.47,0-.966-.021-1.449,0-.966-.042-2.94-.063-1.785-.147-5.208a2.311,2.311,0,0,0-.021-.357,1,1,0,0,0-.336-.661,1.007,1.007,0,0,0-.693-.263.985.985,0,0,0-.693.273,1.037,1.037,0,0,0-.336.672,1.74,1.74,0,0,0-.021.315l.063,2.877v.357l-.273-.084a3.172,3.172,0,0,0-1.218-.126,4.707,4.707,0,0,0-4.011,2.814A9.85,9.85,0,0,0,79.065-5.9a5.72,5.72,0,0,0-.189,1.47,5.491,5.491,0,0,0,.336,1.89A3.221,3.221,0,0,0,81.1-.546a5.148,5.148,0,0,0,.9.294,4.061,4.061,0,0,0,.987.126,3.931,3.931,0,0,0,1.953-.546l.168-.063a.845.845,0,0,0,.021.231.955.955,0,0,0,.378.714,1.032,1.032,0,0,0,.651.252A1.351,1.351,0,0,0,86.562.378Zm-3.57-2.6a2.723,2.723,0,0,1-1.323-.357,1.3,1.3,0,0,1-.5-.693,3.567,3.567,0,0,1-.189-1.134,2.825,2.825,0,0,1,.042-.567A5.292,5.292,0,0,1,81.48-6.51a2.662,2.662,0,0,1,2.2-1.659l.231-.021a.877.877,0,0,1,.735.357.894.894,0,0,0,.4.315.264.264,0,0,1,.147.273q.042,1.176.042,1.785h.021v1.68a.362.362,0,0,1-.147.315q-.756.63-1.134.924A1.543,1.543,0,0,1,82.992-2.226ZM90.783-.21a1.15,1.15,0,0,0,.882-.336.848.848,0,0,0,.231-.777,3.423,3.423,0,0,1-.042-.441q-.168-2.73-.231-4.074L91.6-6.153a.839.839,0,0,1,.168-.5.086.086,0,0,1,.021-.063A4.1,4.1,0,0,1,92.82-8.19a.823.823,0,0,1,.609-.231,3.913,3.913,0,0,1,.63.1,2.527,2.527,0,0,0,.378.042,1.173,1.173,0,0,0,.756-.252.917.917,0,0,0,.357-.693,1.149,1.149,0,0,0-.042-.252,1.231,1.231,0,0,0-1.008-.756,4.754,4.754,0,0,0-1.071-.126,3.562,3.562,0,0,0-1.722.42l-.126.063-.084-.273a1.071,1.071,0,0,0-.42-.483,1.179,1.179,0,0,0-.651-.189,1.361,1.361,0,0,0-.714.189.919.919,0,0,0-.42.5,2.527,2.527,0,0,0-.042.378l.042,3,.042,1.428L89.523-2.2l.063,1.029a1.083,1.083,0,0,0,.252.546A1.179,1.179,0,0,0,90.783-.21Zm9.66.189a3.771,3.771,0,0,0,2.237-.62A4.473,4.473,0,0,0,104.1-2.394l.042-.126a.884.884,0,0,0,.021-.21.881.881,0,0,0-.294-.672,1.067,1.067,0,0,0-.756-.273,1.082,1.082,0,0,0-.9.483l-.42.651a1.211,1.211,0,0,1-.84.525,3.008,3.008,0,0,1-.588.063A2.755,2.755,0,0,1,98.616-2.6a2.159,2.159,0,0,1-.63-.872,4.422,4.422,0,0,1-.252-1.165q.294,0,.882.042.714.042,1.05.042a7.952,7.952,0,0,0,1.239-.084,6.048,6.048,0,0,0,2.079-.651,2.131,2.131,0,0,0,1.176-1.953,2.327,2.327,0,0,0-.714-1.617,5.129,5.129,0,0,0-1.932-1.3,4.161,4.161,0,0,0-1.407-.273,4.456,4.456,0,0,0-.5.042,6.3,6.3,0,0,0-1.407.357,3.71,3.71,0,0,0-2.352,2.457A7.107,7.107,0,0,0,95.55-5.5a7.785,7.785,0,0,0,.4,2.478A4.158,4.158,0,0,0,97.65-.84,4.952,4.952,0,0,0,100.443-.021Zm-.819-6.468q-1.05-.042-1.6-.084l-.273-.021a3.276,3.276,0,0,1,.336-.966.489.489,0,0,1,.084-.126.329.329,0,0,0,.063-.084,2.021,2.021,0,0,1,.819-.525,2.921,2.921,0,0,1,1.05-.21,1.4,1.4,0,0,1,.441.063,2.9,2.9,0,0,1,1.344.882.527.527,0,0,1,.126.21.465.465,0,0,1,.021.147.354.354,0,0,1-.21.294,3.1,3.1,0,0,1-1.26.357A7.3,7.3,0,0,1,99.624-6.489Zm13.9,6.867a.962.962,0,0,0,.672-.9A14.6,14.6,0,0,0,114.3-2.2q.021-.483.021-1.47,0-.966-.021-1.449,0-.966-.042-2.94-.063-1.785-.147-5.208a2.311,2.311,0,0,0-.021-.357,1,1,0,0,0-.336-.661,1.007,1.007,0,0,0-.693-.263.985.985,0,0,0-.693.273,1.037,1.037,0,0,0-.336.672,1.74,1.74,0,0,0-.021.315l.063,2.877v.357l-.273-.084a3.172,3.172,0,0,0-1.218-.126,4.707,4.707,0,0,0-4.011,2.814,9.85,9.85,0,0,0-.546,1.554,5.72,5.72,0,0,0-.189,1.47,5.491,5.491,0,0,0,.336,1.89,3.221,3.221,0,0,0,1.89,1.995,5.148,5.148,0,0,0,.9.294,4.061,4.061,0,0,0,.987.126,3.931,3.931,0,0,0,1.953-.546l.168-.063A.845.845,0,0,0,112.1-.5a.955.955,0,0,0,.378.714,1.032,1.032,0,0,0,.651.252A1.351,1.351,0,0,0,113.526.378Zm-3.57-2.6a2.723,2.723,0,0,1-1.323-.357,1.3,1.3,0,0,1-.5-.693,3.567,3.567,0,0,1-.189-1.134,2.825,2.825,0,0,1,.042-.567,5.292,5.292,0,0,1,.462-1.533,2.662,2.662,0,0,1,2.205-1.659l.231-.021a.877.877,0,0,1,.735.357.894.894,0,0,0,.4.315.264.264,0,0,1,.147.273q.042,1.176.042,1.785h.021v1.68a.362.362,0,0,1-.147.315q-.756.63-1.134.924A1.543,1.543,0,0,1,109.956-2.226ZM119.532.042a2.923,2.923,0,0,0,1.764-.5,2.613,2.613,0,0,0,1.2-2.205,2.5,2.5,0,0,0-.021-.378,3.8,3.8,0,0,0-2.373-3.3q-1.113-.441-1.281-.5a1.136,1.136,0,0,1-.714-.777,1.18,1.18,0,0,1-.042-.273.65.65,0,0,1,.284-.546,1.222,1.222,0,0,1,.746-.21,2.672,2.672,0,0,1,.714.105.529.529,0,0,1,.315.168.988.988,0,0,0,.651.273.791.791,0,0,0,.315-.063.852.852,0,0,0,.651-.735.637.637,0,0,0,.021-.189,1.026,1.026,0,0,0-.189-.546,1.473,1.473,0,0,0-.777-.567,4.769,4.769,0,0,0-1.7-.336,3.986,3.986,0,0,0-.693.063,2.935,2.935,0,0,0-1.638.913,2.392,2.392,0,0,0-.63,1.648,2.686,2.686,0,0,0,.084.693,3.036,3.036,0,0,0,1.827,2.1l1.323.525a1.616,1.616,0,0,1,.871.756,2.19,2.19,0,0,1,.3,1.071.951.951,0,0,1-.2.609.778.778,0,0,1-.535.294,2.311,2.311,0,0,1-.357.021,2.6,2.6,0,0,1-.672-.084,1.108,1.108,0,0,1-.577-.388.987.987,0,0,1-.221-.62,1.063,1.063,0,0,0-.262-.735.872.872,0,0,0-.683-.294.937.937,0,0,0-.472.126,1.125,1.125,0,0,0-.368.336,1.115,1.115,0,0,0-.189.651,3.022,3.022,0,0,0,.861,1.911A2.538,2.538,0,0,0,118-.21,4.346,4.346,0,0,0,119.532.042Zm16.212-.105a5.327,5.327,0,0,0,2.436-.63A4.435,4.435,0,0,0,140.469-4.2a5.387,5.387,0,0,0,.063-.8,4.826,4.826,0,0,0-1.68-3.654.355.355,0,0,1-.147-.147,1.035,1.035,0,0,0-.252-.41q-.189-.2-.252-.262a2.908,2.908,0,0,0-2.142-.861,3.908,3.908,0,0,0-3.171,1.449A7.08,7.08,0,0,0,131.5-5.922a8.307,8.307,0,0,0-.189,1.575,3.641,3.641,0,0,0,.042.651A3.755,3.755,0,0,0,132.594-1.3a5.153,5.153,0,0,0,1.68.987A4.508,4.508,0,0,0,135.744-.063Zm.021-2.016a2.79,2.79,0,0,1-1.848-.714,1.613,1.613,0,0,1-.588-1.281,5.143,5.143,0,0,1,1.155-3.591,2.15,2.15,0,0,1,1.344-.693h.147a.234.234,0,0,0,.105.021l.063.147a1.019,1.019,0,0,0,.693.609.767.767,0,0,1,.294.1,3.081,3.081,0,0,1,1.407,2.688,2.587,2.587,0,0,1-.8,1.932A2.719,2.719,0,0,1,135.765-2.079ZM144.69.1a.973.973,0,0,0,.756-.325,1.274,1.274,0,0,0,.315-.83q0-1.743-.021-2.6-.042-1.008-.21-3.129l-.021-.441a1.74,1.74,0,0,1,.189-.042q.147-.021.42-.053a4.61,4.61,0,0,0,.462-.073,2.383,2.383,0,0,0,.672-.21,1.061,1.061,0,0,0,.389-.378.973.973,0,0,0,.137-.5,1.77,1.77,0,0,0-.042-.294,1.044,1.044,0,0,0-.367-.536,1,1,0,0,0-.62-.2,1.868,1.868,0,0,0-.357.042q-.252.021-.9.1a3.639,3.639,0,0,1,.126-1.008,2.93,2.93,0,0,1,1.05-1.806,1.26,1.26,0,0,1,.735-.252,1.551,1.551,0,0,1,.4.063,2.328,2.328,0,0,0,.756.168.752.752,0,0,0,.5-.179,1.367,1.367,0,0,0,.357-.6,1.769,1.769,0,0,0,.042-.294.973.973,0,0,0-.178-.557,1.069,1.069,0,0,0-.473-.388,1.939,1.939,0,0,0-.525-.189,3.66,3.66,0,0,0-.924-.126,3.12,3.12,0,0,0-1.617.462,4.339,4.339,0,0,0-1.7,1.89,6.076,6.076,0,0,0-.567,1.764q-.084.84-.147,1.26l-.483.042a1.953,1.953,0,0,0-.483.042,1,1,0,0,0-.557.368,1.016,1.016,0,0,0-.221.641,1.046,1.046,0,0,0,.231.682.9.9,0,0,0,.63.326,2.966,2.966,0,0,0,.4.021h.567l.021.231.084,1.092.063,1.281q.084,1.428.084,2.142L143.64-.966a1.031,1.031,0,0,0,.315.756A1.007,1.007,0,0,0,144.69.1Zm19.8.273a.962.962,0,0,0,.672-.9,14.606,14.606,0,0,0,.1-1.68q.021-.483.021-1.47,0-.966-.021-1.449,0-.966-.042-2.94-.063-1.785-.147-5.208a2.312,2.312,0,0,0-.021-.357,1,1,0,0,0-.336-.661,1.007,1.007,0,0,0-.693-.263.985.985,0,0,0-.693.273,1.037,1.037,0,0,0-.336.672,1.739,1.739,0,0,0-.021.315l.063,2.877v.357l-.273-.084a3.172,3.172,0,0,0-1.218-.126,4.707,4.707,0,0,0-4.011,2.814A9.85,9.85,0,0,0,157-5.9a5.721,5.721,0,0,0-.189,1.47,5.491,5.491,0,0,0,.336,1.89,3.221,3.221,0,0,0,1.89,1.995,5.148,5.148,0,0,0,.9.294,4.061,4.061,0,0,0,.987.126,3.931,3.931,0,0,0,1.953-.546l.168-.063a.846.846,0,0,0,.021.231.955.955,0,0,0,.378.714,1.032,1.032,0,0,0,.651.252A1.351,1.351,0,0,0,164.493.378Zm-3.57-2.6a2.723,2.723,0,0,1-1.323-.357,1.3,1.3,0,0,1-.5-.693,3.568,3.568,0,0,1-.189-1.134,2.825,2.825,0,0,1,.042-.567,5.291,5.291,0,0,1,.462-1.533,2.662,2.662,0,0,1,2.205-1.659l.231-.021a.877.877,0,0,1,.735.357.894.894,0,0,0,.4.315.264.264,0,0,1,.147.273q.042,1.176.042,1.785h.021v1.68a.362.362,0,0,1-.147.315q-.756.63-1.134.924A1.543,1.543,0,0,1,160.923-2.226ZM171.192-.063a5.327,5.327,0,0,0,2.436-.63A4.435,4.435,0,0,0,175.917-4.2a5.387,5.387,0,0,0,.063-.8,4.826,4.826,0,0,0-1.68-3.654.355.355,0,0,1-.147-.147,1.035,1.035,0,0,0-.252-.41q-.189-.2-.252-.262a2.908,2.908,0,0,0-2.142-.861,3.908,3.908,0,0,0-3.171,1.449,7.08,7.08,0,0,0-1.386,2.961,8.307,8.307,0,0,0-.189,1.575,3.641,3.641,0,0,0,.042.651A3.755,3.755,0,0,0,168.042-1.3a5.153,5.153,0,0,0,1.68.987A4.508,4.508,0,0,0,171.192-.063Zm.021-2.016a2.79,2.79,0,0,1-1.848-.714,1.613,1.613,0,0,1-.588-1.281,5.143,5.143,0,0,1,1.155-3.591,2.15,2.15,0,0,1,1.344-.693h.147a.234.234,0,0,0,.105.021l.063.147a1.019,1.019,0,0,0,.693.609.767.767,0,0,1,.294.1,3.081,3.081,0,0,1,1.407,2.688,2.587,2.587,0,0,1-.8,1.932A2.719,2.719,0,0,1,171.213-2.079Zm7.2,1.911A1.017,1.017,0,0,0,179.1-.41a.9.9,0,0,0,.326-.6v-.168a2.312,2.312,0,0,0-.021-.357q0-.63-.042-1.974-.042-3.738-.084-5.565l-.084-4.641a4.438,4.438,0,0,1,.042-.483l.021-.168a.955.955,0,0,0-.3-.714,1.059,1.059,0,0,0-.767-.294,1.162,1.162,0,0,0-.577.147,1.029,1.029,0,0,0-.41.42,2.69,2.69,0,0,0-.147.483q-.021.336-.021,1.05,0,1.239.084,3.675,0,.588.042,1.764h.042v5.04q0,.42.042,1.26a2.042,2.042,0,0,0,.168.8,1.154,1.154,0,0,0,.441.42A1.181,1.181,0,0,0,178.416-.168Zm4.284,0a1.017,1.017,0,0,0,.682-.241.9.9,0,0,0,.326-.6v-.168a2.312,2.312,0,0,0-.021-.357q0-.63-.042-1.974-.042-3.738-.084-5.565l-.084-4.641a4.438,4.438,0,0,1,.042-.483l.021-.168a.955.955,0,0,0-.3-.714,1.059,1.059,0,0,0-.767-.294,1.162,1.162,0,0,0-.577.147,1.029,1.029,0,0,0-.41.42,2.69,2.69,0,0,0-.147.483q-.021.336-.021,1.05,0,1.239.084,3.675,0,.588.042,1.764h.042v5.04q0,.42.042,1.26a2.042,2.042,0,0,0,.168.8,1.154,1.154,0,0,0,.441.42A1.181,1.181,0,0,0,182.7-.168Zm10.794.231a.947.947,0,0,0,.63-.231,1.071,1.071,0,0,0,.357-.588A3.392,3.392,0,0,0,194.5-1.2l-.021-1.491q-.042-1.974-.042-3l.021-2.289a2.67,2.67,0,0,0-.021-.3.946.946,0,0,1,0-.283,1.134,1.134,0,0,0-.42-.945,3.1,3.1,0,0,0-.924-.546,5.575,5.575,0,0,0-1.449-.315,5.043,5.043,0,0,0-.525-.021,5.459,5.459,0,0,0-3.906,1.617,6.076,6.076,0,0,0-1.932,4.536,7.15,7.15,0,0,0,.063.924A3.448,3.448,0,0,0,186.5-1.092a3.323,3.323,0,0,0,2.247.861,3.45,3.45,0,0,0,1.806-.5,7.687,7.687,0,0,0,1.281-.987,2.7,2.7,0,0,1,.262-.231,2.7,2.7,0,0,0,.262-.231l.042.966q0,.084.01.21a1.879,1.879,0,0,0,.053.294,1,1,0,0,0,.367.557A1.047,1.047,0,0,0,193.494.063Zm-4.746-2.415a1.32,1.32,0,0,1-.777-.252,1.136,1.136,0,0,1-.462-.672,3.735,3.735,0,0,1-.126-.945,4.512,4.512,0,0,1,.042-.525,4.313,4.313,0,0,1,.8-2.016,3.811,3.811,0,0,1,2.6-1.533,1.585,1.585,0,0,1,.294-.021,4.71,4.71,0,0,1,1.134.189l-.168,1.008a12.069,12.069,0,0,1-.546,2.079,4.91,4.91,0,0,1-1.617,2.2,3.723,3.723,0,0,1-.577.357A1.367,1.367,0,0,1,188.748-2.352ZM197.715-.21a1.15,1.15,0,0,0,.882-.336.848.848,0,0,0,.231-.777,3.422,3.422,0,0,1-.042-.441q-.168-2.73-.231-4.074l-.021-.315a.839.839,0,0,1,.168-.5.086.086,0,0,1,.021-.063,4.1,4.1,0,0,1,1.029-1.47.823.823,0,0,1,.609-.231,3.913,3.913,0,0,1,.63.1,2.527,2.527,0,0,0,.378.042,1.173,1.173,0,0,0,.756-.252.917.917,0,0,0,.357-.693,1.149,1.149,0,0,0-.042-.252,1.231,1.231,0,0,0-1.008-.756,4.754,4.754,0,0,0-1.071-.126,3.562,3.562,0,0,0-1.722.42l-.126.063-.084-.273a1.071,1.071,0,0,0-.42-.483,1.179,1.179,0,0,0-.651-.189,1.361,1.361,0,0,0-.714.189.919.919,0,0,0-.42.5,2.527,2.527,0,0,0-.042.378l.042,3,.042,1.428.189,3.108.063,1.029a1.083,1.083,0,0,0,.252.546A1.179,1.179,0,0,0,197.715-.21Zm9.135.252a2.923,2.923,0,0,0,1.764-.5,2.613,2.613,0,0,0,1.2-2.205,2.5,2.5,0,0,0-.021-.378,3.8,3.8,0,0,0-2.373-3.3q-1.113-.441-1.281-.5a1.136,1.136,0,0,1-.714-.777,1.18,1.18,0,0,1-.042-.273.65.65,0,0,1,.284-.546,1.222,1.222,0,0,1,.745-.21,2.671,2.671,0,0,1,.714.105.529.529,0,0,1,.315.168.988.988,0,0,0,.651.273.791.791,0,0,0,.315-.063.852.852,0,0,0,.651-.735.637.637,0,0,0,.021-.189,1.026,1.026,0,0,0-.189-.546,1.473,1.473,0,0,0-.777-.567,4.769,4.769,0,0,0-1.7-.336,3.986,3.986,0,0,0-.693.063,2.935,2.935,0,0,0-1.638.913,2.392,2.392,0,0,0-.63,1.648,2.686,2.686,0,0,0,.084.693,3.036,3.036,0,0,0,1.827,2.1l1.323.525a1.616,1.616,0,0,1,.872.756,2.19,2.19,0,0,1,.3,1.071.951.951,0,0,1-.2.609.778.778,0,0,1-.536.294,2.311,2.311,0,0,1-.357.021,2.6,2.6,0,0,1-.672-.084,1.108,1.108,0,0,1-.577-.388.987.987,0,0,1-.221-.62,1.063,1.063,0,0,0-.262-.735.872.872,0,0,0-.682-.294.937.937,0,0,0-.473.126,1.125,1.125,0,0,0-.368.336,1.115,1.115,0,0,0-.189.651,3.022,3.022,0,0,0,.861,1.911,2.538,2.538,0,0,0,1.134.735A4.346,4.346,0,0,0,206.85.042ZM223-.273a2.978,2.978,0,0,0,1.155-.714,5.107,5.107,0,0,0,1.092-1.575l.126-.252.126.252A4.964,4.964,0,0,0,226.947-.8a2.267,2.267,0,0,0,1.323.462,3.454,3.454,0,0,0,.4-.042,2.647,2.647,0,0,0,1.428-.777A4.311,4.311,0,0,0,231.378-3.3a10.224,10.224,0,0,0,.42-2.94,10.45,10.45,0,0,0-.063-1.155,14.037,14.037,0,0,0-.168-1.428q-.126-.756-.147-.924a1.481,1.481,0,0,0-.084-.315.928.928,0,0,0-.43-.5.978.978,0,0,0-.661-.1,1.009,1.009,0,0,0-.6.3.929.929,0,0,0-.284.62V-9.3l.126.945a13.737,13.737,0,0,1,.168,2.037,10.231,10.231,0,0,1-.084,1.386,9.9,9.9,0,0,1-.336,1.449q-.126.231-.284.462a1.651,1.651,0,0,1-.346.378.5.5,0,0,1-.315.147A.482.482,0,0,1,228-2.646a2.857,2.857,0,0,1-.777-1.365,20.341,20.341,0,0,1-.473-2.194q-.179-1.124-.325-2.635a2.547,2.547,0,0,0-.042-.525A1.144,1.144,0,0,0,226-9.9a1.079,1.079,0,0,0-.63-.242,1.144,1.144,0,0,0-.63.189.845.845,0,0,0-.378.5q-.021.147-.031.3a1.459,1.459,0,0,1-.053.3,1.662,1.662,0,0,0,.021.273,1.664,1.664,0,0,1,.021.273,20.751,20.751,0,0,1-.483,3.318,6.83,6.83,0,0,1-.651,1.806,1.8,1.8,0,0,1-.672.777.35.35,0,0,1-.231.126.344.344,0,0,1-.21-.126,2.627,2.627,0,0,1-.336-.567,6.107,6.107,0,0,1-.672-2.5l-.126-3.024q0-.42.084-1.218l.021-.21a1.173,1.173,0,0,0-.262-.777.892.892,0,0,0-.725-.315,1.136,1.136,0,0,0-.682.22,1.068,1.068,0,0,0-.41.6,3.671,3.671,0,0,0-.084.693q-.042,1.008-.042,1.533a24.336,24.336,0,0,0,.21,3.3,9.7,9.7,0,0,0,.882,2.856,4.081,4.081,0,0,0,1.134,1.3,2.423,2.423,0,0,0,1.218.336A2.134,2.134,0,0,0,223-.273Zm11.277-10.878a1.213,1.213,0,0,0,.5-.126l.315-.147a1.137,1.137,0,0,0,.493-.43,1.14,1.14,0,0,0,.178-.62,1.157,1.157,0,0,0-.367-.861,1.184,1.184,0,0,0-.851-.357,1.547,1.547,0,0,0-1.039.389,1.213,1.213,0,0,0-.452.955,1.167,1.167,0,0,0,.346.84A1.164,1.164,0,0,0,234.276-11.151ZM234.4-.189a.951.951,0,0,0,.336.063,1,1,0,0,0,.472-.116,1.024,1.024,0,0,0,.368-.326.921.921,0,0,0,.189-.567.894.894,0,0,0-.231-.588.921.921,0,0,1-.231-.567v-3.3h-.042v-.588q0-.924-.042-2.73a.736.736,0,0,0-.021-.21.879.879,0,0,0-.3-.567.881.881,0,0,0-.6-.231.939.939,0,0,0-.661.241.874.874,0,0,0-.283.62q-.021.294-.021.924v.945q0,.273.042.819l.021.8v2.919a5.517,5.517,0,0,0,.063.819,2.372,2.372,0,0,0,.4,1.155A1.37,1.37,0,0,0,234.4-.189Zm7.77-.084A1.283,1.283,0,0,0,243.18-.8a.785.785,0,0,0,.21-.546.741.741,0,0,0-.063-.294.886.886,0,0,0-.368-.483,1.05,1.05,0,0,0-.577-.168,1.781,1.781,0,0,0-.441.084.5.5,0,0,1-.21.063q-.084,0-.21-.147a.654.654,0,0,1-.168-.231,6.586,6.586,0,0,1-.231-.63,9.693,9.693,0,0,1-.252-1.974l-.042-4.158.021-.189.273-.021,1.071-.168a1.186,1.186,0,0,0,.651-.273.875.875,0,0,0,.336-.672.88.88,0,0,0-.21-.6,1.044,1.044,0,0,0-.567-.325.637.637,0,0,0-.189-.021,1.807,1.807,0,0,0-.336.042l-.473.063q-.3.042-.535.063v-.21l.084-1.365.021-.546a.9.9,0,0,0-.294-.693.985.985,0,0,0-.693-.273.9.9,0,0,0-.315.042.887.887,0,0,0-.714.8q-.063.42-.105,1.344,0,.084-.063,1.092h-.5a2.766,2.766,0,0,1-.378.021,2.766,2.766,0,0,0-.378.021.953.953,0,0,0-.661.294.907.907,0,0,0-.262.651.823.823,0,0,0,.242.588.978.978,0,0,0,.619.294,3.109,3.109,0,0,0,.441.021h.861v2.016a27.686,27.686,0,0,0,.189,3.633,5.951,5.951,0,0,0,.483,1.785,3.13,3.13,0,0,0,.693.987,2.312,2.312,0,0,0,1.6.651A3.423,3.423,0,0,0,242.172-.273Zm4.242.21A.987.987,0,0,0,247.2-.42a.976.976,0,0,0,.221-.84l-.042-.189-.126-2.31a.4.4,0,0,1,.021-.126.813.813,0,0,1,.042-.105q.021-.1.063-.242a1.79,1.79,0,0,0,.063-.325l.063-.546q.021-.168.052-.493t.074-.557A2.687,2.687,0,0,1,248.745-8a.9.9,0,0,1,.441-.231,6.085,6.085,0,0,1,.861-.063,1.544,1.544,0,0,1,1.638,1.155l.063.294a9.491,9.491,0,0,1,.231,2.163q0,.378-.042,1.092-.084,1.386-.084,2.121a.972.972,0,0,0,.294.714.972.972,0,0,0,.714.294.987.987,0,0,0,.641-.231,1.056,1.056,0,0,0,.367-.609,1.722,1.722,0,0,0,.042-.441l.042-.714q.042-.924.084-1.386.021-.273.021-.819a11.908,11.908,0,0,0-.336-2.856,3.587,3.587,0,0,0-2.835-2.772,2.946,2.946,0,0,0-.861-.105,6.085,6.085,0,0,0-.861.063A3.272,3.272,0,0,0,247.4-9.6l-.252.21a.59.59,0,0,0-.01-.115.224.224,0,0,1,.01-.116l.063-4.158a2.229,2.229,0,0,1,.021-.315,2.231,2.231,0,0,0,.021-.315,1.1,1.1,0,0,0-.3-.735.938.938,0,0,0-.7-.294,1.04,1.04,0,0,0-.63.2.918.918,0,0,0-.357.535,2.27,2.27,0,0,0-.1.63q-.084,2.856-.084,4.284,0,1.806.084,5.376l.147,3a4.866,4.866,0,0,0,.126.651.971.971,0,0,0,.378.5A1.046,1.046,0,0,0,246.414-.063Zm17.892-11.088a1.213,1.213,0,0,0,.5-.126l.315-.147a1.137,1.137,0,0,0,.493-.43,1.14,1.14,0,0,0,.178-.62,1.157,1.157,0,0,0-.367-.861,1.184,1.184,0,0,0-.85-.357,1.547,1.547,0,0,0-1.04.389,1.213,1.213,0,0,0-.451.955,1.167,1.167,0,0,0,.346.84A1.164,1.164,0,0,0,264.306-11.151Zm.126,10.962a.951.951,0,0,0,.336.063,1,1,0,0,0,.473-.116,1.023,1.023,0,0,0,.367-.326.921.921,0,0,0,.189-.567.894.894,0,0,0-.231-.588.921.921,0,0,1-.231-.567v-3.3h-.042v-.588q0-.924-.042-2.73a.737.737,0,0,0-.021-.21.88.88,0,0,0-.3-.567.881.881,0,0,0-.6-.231.939.939,0,0,0-.661.241.874.874,0,0,0-.284.62q-.021.294-.021.924v.945q0,.273.042.819l.021.8v2.919a5.519,5.519,0,0,0,.063.819,2.372,2.372,0,0,0,.4,1.155A1.37,1.37,0,0,0,264.432-.189Zm10.941-.063a.9.9,0,0,0,.693-.294,1.011,1.011,0,0,0,.273-.714,4.174,4.174,0,0,0-.021-.483L276.3-2.2V-4.368a21.137,21.137,0,0,0-.21-2.709,4.53,4.53,0,0,0-.651-1.806A2.482,2.482,0,0,0,274.071-10,3.262,3.262,0,0,0,273-10.185a2.826,2.826,0,0,0-1.659.567,4.9,4.9,0,0,0-.84.777,12.714,12.714,0,0,0-.8,1.05q-.063.105-.168.252l-.042-.168-.063-.861a3.392,3.392,0,0,0-.021-.441,1.07,1.07,0,0,0-.336-.578.865.865,0,0,0-.588-.22,1,1,0,0,0-.651.22.858.858,0,0,0-.315.6,3.3,3.3,0,0,0-.021.84l.063.651a8.983,8.983,0,0,1,.126,1.218q.21,2.352.294,3.528l.1,1.491a1.127,1.127,0,0,0,.315.683.873.873,0,0,0,.651.283.93.93,0,0,0,.682-.283,1.032,1.032,0,0,0,.3-.7,3.174,3.174,0,0,0,.021-.42q0-.147.01-.368t.053-.515q.252-1.47.42-2.184A6.084,6.084,0,0,1,271.95-7.56a2.754,2.754,0,0,1,.651-.546.932.932,0,0,1,.462-.147.845.845,0,0,1,.43.116.907.907,0,0,1,.326.325,1.875,1.875,0,0,1,.252.609A11.3,11.3,0,0,1,274.26-5.8q.063,1.2.063,2.373.021.273.021.8,0,.42.042,1.3a1.254,1.254,0,0,0,.063.4.956.956,0,0,0,.357.494A.958.958,0,0,0,275.373-.252Zm6.636.105a3.2,3.2,0,0,0,3.15-1.806,1.143,1.143,0,0,0,.1-.42A.933.933,0,0,0,285.1-2.9a1.171,1.171,0,0,0-.462-.4,1.293,1.293,0,0,0-.546-.126,1.27,1.27,0,0,0-.556.126,1.126,1.126,0,0,0-.431.357,1.454,1.454,0,0,0-.137.2,1.454,1.454,0,0,1-.137.2.7.7,0,0,1-.336.231,1.749,1.749,0,0,1-.462.063,1.344,1.344,0,0,1-.462-.084A1.916,1.916,0,0,1,280.2-3.612a6.4,6.4,0,0,1-.231-1.659,5.557,5.557,0,0,1,.084-1.029,6.778,6.778,0,0,1,.63-1.89.954.954,0,0,1,.84-.5,2.521,2.521,0,0,1,.357.042,3.344,3.344,0,0,1,.693.231,1.138,1.138,0,0,1,.777.735,1.552,1.552,0,0,0,.168.273,1.224,1.224,0,0,0,.882.4,1.309,1.309,0,0,0,.693-.179.989.989,0,0,0,.42-.515.709.709,0,0,0,.084-.357.846.846,0,0,0-.063-.336,2.476,2.476,0,0,0-.882-1.3,5.1,5.1,0,0,0-3.087-1.071,3.179,3.179,0,0,0-2.856,1.449l-.336.609a8.348,8.348,0,0,0-.777,3.36,9.385,9.385,0,0,0,.4,2.5,3.276,3.276,0,0,0,.861,1.355,4.845,4.845,0,0,0,1.47.987A4.162,4.162,0,0,0,282.009-.147Zm7.077-.021a1.017,1.017,0,0,0,.682-.241.9.9,0,0,0,.326-.6v-.168a2.31,2.31,0,0,0-.021-.357q0-.63-.042-1.974-.042-3.738-.084-5.565l-.084-4.641a4.441,4.441,0,0,1,.042-.483l.021-.168a.955.955,0,0,0-.3-.714,1.059,1.059,0,0,0-.766-.294,1.162,1.162,0,0,0-.578.147,1.029,1.029,0,0,0-.409.42,2.689,2.689,0,0,0-.147.483q-.021.336-.021,1.05,0,1.239.084,3.675,0,.588.042,1.764h.042v5.04q0,.42.042,1.26a2.042,2.042,0,0,0,.168.8,1.153,1.153,0,0,0,.441.42A1.181,1.181,0,0,0,289.086-.168Zm6.216.042a4.6,4.6,0,0,0,.9.084,3.649,3.649,0,0,0,2.331-.8.24.24,0,0,1,.126-.084q.168.189.231.252a1.274,1.274,0,0,0,.966.462,1.064,1.064,0,0,0,.556-.158,1.1,1.1,0,0,0,.409-.43,1.035,1.035,0,0,0,.126-.5.8.8,0,0,0-.294-.672.83.83,0,0,1-.252-.609l-.021-.21a3.619,3.619,0,0,0-.021-.462l-.021-.462a1.9,1.9,0,0,1,.021-.336,13.176,13.176,0,0,0,.21-2.541q0-.987-.105-2.2a2.5,2.5,0,0,0-.252-.84,1.3,1.3,0,0,0-.42-.431,1.011,1.011,0,0,0-.546-.157,1.073,1.073,0,0,0-.725.262,1,1,0,0,0-.346.683,7.015,7.015,0,0,0-.042.9q0,.546.042,1.638L298.2-4.2a1.808,1.808,0,0,1-.042.336,2.821,2.821,0,0,1-1.05,1.428,1.453,1.453,0,0,1-.672.273,2.46,2.46,0,0,1-1.176-.168,1.407,1.407,0,0,1-.966-1.071,5.505,5.505,0,0,1-.126-.693,9.418,9.418,0,0,1-.084-1.323q0-.525.042-1.533.021-.525.1-1.47a2.1,2.1,0,0,1,.031-.284,1.179,1.179,0,0,0,.011-.346.918.918,0,0,0-.315-.662,1.034,1.034,0,0,0-.714-.262,1.016,1.016,0,0,0-.661.231,1.066,1.066,0,0,0-.367.63q-.084.42-.126.819l-.042.756q-.021.378-.042.945t-.021,1.3a16.833,16.833,0,0,0,.168,2,3.53,3.53,0,0,0,1.05,2.121A3.85,3.85,0,0,0,295.3-.126Zm14.595.5a.962.962,0,0,0,.672-.9,14.6,14.6,0,0,0,.105-1.68q.021-.483.021-1.47,0-.966-.021-1.449,0-.966-.042-2.94-.063-1.785-.147-5.208a2.31,2.31,0,0,0-.021-.357,1,1,0,0,0-.336-.661,1.007,1.007,0,0,0-.693-.263.985.985,0,0,0-.693.273,1.037,1.037,0,0,0-.336.672,1.739,1.739,0,0,0-.021.315l.063,2.877v.357l-.273-.084a3.172,3.172,0,0,0-1.218-.126,4.707,4.707,0,0,0-4.011,2.814A9.848,9.848,0,0,0,302.4-5.9a5.72,5.72,0,0,0-.189,1.47,5.491,5.491,0,0,0,.336,1.89,3.221,3.221,0,0,0,1.89,1.995,5.148,5.148,0,0,0,.9.294,4.061,4.061,0,0,0,.987.126,3.932,3.932,0,0,0,1.953-.546l.168-.063a.845.845,0,0,0,.021.231.955.955,0,0,0,.378.714,1.032,1.032,0,0,0,.651.252A1.351,1.351,0,0,0,309.9.378Zm-3.57-2.6A2.723,2.723,0,0,1,305-2.583a1.3,1.3,0,0,1-.5-.693,3.567,3.567,0,0,1-.189-1.134,2.823,2.823,0,0,1,.042-.567,5.291,5.291,0,0,1,.462-1.533,2.662,2.662,0,0,1,2.205-1.659l.231-.021a.877.877,0,0,1,.735.357.894.894,0,0,0,.4.315.264.264,0,0,1,.147.273q.042,1.176.042,1.785h.021v1.68a.362.362,0,0,1-.147.315q-.756.63-1.134.924A1.543,1.543,0,0,1,306.327-2.226ZM317.268-.021a3.771,3.771,0,0,0,2.237-.62,4.473,4.473,0,0,0,1.418-1.754l.042-.126a.883.883,0,0,0,.021-.21.881.881,0,0,0-.294-.672,1.067,1.067,0,0,0-.756-.273,1.082,1.082,0,0,0-.9.483l-.42.651a1.211,1.211,0,0,1-.84.525,3.008,3.008,0,0,1-.588.063,2.755,2.755,0,0,1-1.743-.651,2.16,2.16,0,0,1-.63-.872,4.422,4.422,0,0,1-.252-1.165q.294,0,.882.042.714.042,1.05.042a7.952,7.952,0,0,0,1.239-.084,6.048,6.048,0,0,0,2.079-.651,2.131,2.131,0,0,0,1.176-1.953,2.327,2.327,0,0,0-.714-1.617,5.129,5.129,0,0,0-1.932-1.3,4.161,4.161,0,0,0-1.407-.273,4.456,4.456,0,0,0-.5.042,6.3,6.3,0,0,0-1.407.357,3.71,3.71,0,0,0-2.352,2.457,7.107,7.107,0,0,0-.294,2.079,7.785,7.785,0,0,0,.4,2.478,4.158,4.158,0,0,0,1.7,2.184A4.952,4.952,0,0,0,317.268-.021Zm-.819-6.468q-1.05-.042-1.6-.084l-.273-.021a3.277,3.277,0,0,1,.336-.966A.488.488,0,0,1,315-7.686a.33.33,0,0,0,.063-.084,2.022,2.022,0,0,1,.819-.525,2.92,2.92,0,0,1,1.05-.21,1.4,1.4,0,0,1,.441.063,2.9,2.9,0,0,1,1.344.882.527.527,0,0,1,.126.21.465.465,0,0,1,.021.147.354.354,0,0,1-.21.294,3.1,3.1,0,0,1-1.26.357A7.3,7.3,0,0,1,316.449-6.489Zm13.9,6.867a.962.962,0,0,0,.672-.9,14.61,14.61,0,0,0,.1-1.68q.021-.483.021-1.47,0-.966-.021-1.449,0-.966-.042-2.94-.063-1.785-.147-5.208a2.31,2.31,0,0,0-.021-.357,1,1,0,0,0-.336-.661,1.007,1.007,0,0,0-.693-.263.985.985,0,0,0-.693.273,1.037,1.037,0,0,0-.336.672,1.739,1.739,0,0,0-.021.315l.063,2.877v.357l-.273-.084a3.172,3.172,0,0,0-1.218-.126A4.707,4.707,0,0,0,323.4-7.455a9.848,9.848,0,0,0-.546,1.554,5.72,5.72,0,0,0-.189,1.47A5.491,5.491,0,0,0,323-2.541a3.221,3.221,0,0,0,1.89,1.995,5.148,5.148,0,0,0,.9.294,4.061,4.061,0,0,0,.987.126,3.932,3.932,0,0,0,1.953-.546l.168-.063a.845.845,0,0,0,.021.231A.955.955,0,0,0,329.3.21a1.032,1.032,0,0,0,.651.252A1.351,1.351,0,0,0,330.351.378Zm-3.57-2.6a2.723,2.723,0,0,1-1.323-.357,1.3,1.3,0,0,1-.5-.693,3.567,3.567,0,0,1-.189-1.134,2.823,2.823,0,0,1,.042-.567,5.291,5.291,0,0,1,.462-1.533,2.662,2.662,0,0,1,2.205-1.659l.231-.021a.877.877,0,0,1,.735.357.894.894,0,0,0,.4.315.264.264,0,0,1,.147.273q.042,1.176.042,1.785h.021v1.68a.362.362,0,0,1-.147.315q-.756.63-1.134.924A1.543,1.543,0,0,1,326.781-2.226ZM341.5,4.116a.953.953,0,0,0,.588-.189.9.9,0,0,0,.336-.5,3.485,3.485,0,0,0,.063-.777l-.063-3.213V-.882l1.2.168a5,5,0,0,0,.756.042A5.581,5.581,0,0,0,346.017-.9a4.217,4.217,0,0,0,2.205-1.554,4.2,4.2,0,0,0,.84-2.562,7.179,7.179,0,0,0-.441-2.31,4.228,4.228,0,0,0-2.478-2.583,4.354,4.354,0,0,0-1.722-.378,3.941,3.941,0,0,0-2.268.735q0,.021-.01.021h-.074l-.063-.084a.915.915,0,0,0-.714-.336,1.05,1.05,0,0,0-.724.252,1.016,1.016,0,0,0-.326.693,6.832,6.832,0,0,0-.063.924l.126,3.57.063,1.533q.021.525.063,1.292t.063,1.775l.021.714q.042,1.05.042,1.554l-.021.882a.818.818,0,0,0,.283.62A.969.969,0,0,0,341.5,4.116Zm3.045-6.7a7.828,7.828,0,0,1-1.575-.189l-.42-.063a.308.308,0,0,1-.116-.021q-.053-.021-.094-.042l-.084-1.323q-.042-.63-.084-1.89V-7.182a2.213,2.213,0,0,1,.924-.861,2.733,2.733,0,0,1,1.3-.336,2.311,2.311,0,0,1,.357.021,2.344,2.344,0,0,1,1.848,1.281,4.14,4.14,0,0,1,.5,1.974,4.425,4.425,0,0,1-.021.5,1.99,1.99,0,0,1-.546,1.176A2.681,2.681,0,0,1,344.547-2.583ZM351.855-.21a1.15,1.15,0,0,0,.882-.336.848.848,0,0,0,.231-.777,3.421,3.421,0,0,1-.042-.441q-.168-2.73-.231-4.074l-.021-.315a.839.839,0,0,1,.168-.5.086.086,0,0,1,.021-.063,4.1,4.1,0,0,1,1.029-1.47.823.823,0,0,1,.609-.231,3.913,3.913,0,0,1,.63.1,2.527,2.527,0,0,0,.378.042,1.173,1.173,0,0,0,.756-.252.917.917,0,0,0,.357-.693,1.15,1.15,0,0,0-.042-.252,1.231,1.231,0,0,0-1.008-.756,4.754,4.754,0,0,0-1.071-.126,3.562,3.562,0,0,0-1.722.42l-.126.063-.084-.273a1.071,1.071,0,0,0-.42-.483,1.179,1.179,0,0,0-.651-.189,1.361,1.361,0,0,0-.714.189.919.919,0,0,0-.42.5,2.529,2.529,0,0,0-.042.378l.042,3,.042,1.428L350.6-2.2l.063,1.029a1.083,1.083,0,0,0,.252.546A1.179,1.179,0,0,0,351.855-.21Zm9.66.189a3.771,3.771,0,0,0,2.237-.62,4.473,4.473,0,0,0,1.418-1.754l.042-.126a.883.883,0,0,0,.021-.21.881.881,0,0,0-.294-.672,1.067,1.067,0,0,0-.756-.273,1.082,1.082,0,0,0-.9.483l-.42.651a1.211,1.211,0,0,1-.84.525,3.008,3.008,0,0,1-.588.063,2.755,2.755,0,0,1-1.743-.651,2.16,2.16,0,0,1-.63-.872,4.422,4.422,0,0,1-.252-1.165q.294,0,.882.042.714.042,1.05.042a7.952,7.952,0,0,0,1.239-.084,6.048,6.048,0,0,0,2.079-.651,2.131,2.131,0,0,0,1.176-1.953,2.327,2.327,0,0,0-.714-1.617,5.129,5.129,0,0,0-1.932-1.3,4.161,4.161,0,0,0-1.407-.273,4.456,4.456,0,0,0-.5.042,6.3,6.3,0,0,0-1.407.357,3.71,3.71,0,0,0-2.352,2.457,7.107,7.107,0,0,0-.294,2.079,7.785,7.785,0,0,0,.4,2.478,4.158,4.158,0,0,0,1.7,2.184A4.952,4.952,0,0,0,361.515-.021ZM360.7-6.489q-1.05-.042-1.6-.084l-.273-.021a3.277,3.277,0,0,1,.336-.966.488.488,0,0,1,.084-.126.33.33,0,0,0,.063-.084,2.022,2.022,0,0,1,.819-.525,2.92,2.92,0,0,1,1.05-.21,1.4,1.4,0,0,1,.441.063,2.9,2.9,0,0,1,1.344.882.527.527,0,0,1,.126.21.465.465,0,0,1,.021.147.354.354,0,0,1-.21.294,3.1,3.1,0,0,1-1.26.357A7.3,7.3,0,0,1,360.7-6.489ZM379.113-.147a.954.954,0,0,0,.672-.252,1.016,1.016,0,0,0,.315-.672l.147-2.058q.042-.8.042-1.2a12.086,12.086,0,0,0-.357-2.982,5,5,0,0,0-1.26-2.331,2.438,2.438,0,0,0-1.218-.63,4.979,4.979,0,0,0-.777-.063A2.945,2.945,0,0,0,374.283-9.2l-.21.252-.084-.126a2.288,2.288,0,0,0-.892-.945,2.41,2.41,0,0,0-1.208-.315,2.278,2.278,0,0,0-1.407.441q-.084.063-.525.441l-.4.336-.168.21-.042-.042q0-.1-.01-.262a2.882,2.882,0,0,0-.053-.368.856.856,0,0,0-.346-.546,1.049,1.049,0,0,0-.641-.21.926.926,0,0,0-.514.158.891.891,0,0,0-.346.409,1.512,1.512,0,0,0-.1.546,7.758,7.758,0,0,0,.021.945l.084.966q.042.357.084.987l.231,3.927q0,.147.021.515t.063.662a.878.878,0,0,0,.315.588.947.947,0,0,0,.63.231,1,1,0,0,0,.651-.22.923.923,0,0,0,.336-.578,1.835,1.835,0,0,0,.042-.462,20.929,20.929,0,0,1,.126-2.646,12.639,12.639,0,0,1,.651-2.793,2.553,2.553,0,0,1,1.071-1.176.559.559,0,0,1,.252-.063.39.39,0,0,1,.357.252,3.19,3.19,0,0,1,.189.588,14.252,14.252,0,0,1,.42,3q.021.8.021,2.415a2.238,2.238,0,0,0,.042.5.942.942,0,0,0,.326.578,1.006,1.006,0,0,0,.6.242,1.049,1.049,0,0,0,.641-.21.954.954,0,0,0,.368-.567,1.87,1.87,0,0,0,.042-.357l-.021-2.247a13.36,13.36,0,0,1,.1-1.806,3.926,3.926,0,0,1,.777-1.953,1.236,1.236,0,0,1,1.008-.462.8.8,0,0,1,.609.273,2.483,2.483,0,0,1,.525.966,8.886,8.886,0,0,1,.378,2.751q0,.4-.042,1.239l-.126,1.743-.021.168a1.059,1.059,0,0,0,.294.766A.955.955,0,0,0,379.113-.147Zm4.074-11a1.213,1.213,0,0,0,.5-.126l.315-.147a1.137,1.137,0,0,0,.493-.43,1.14,1.14,0,0,0,.178-.62,1.157,1.157,0,0,0-.367-.861,1.184,1.184,0,0,0-.85-.357,1.547,1.547,0,0,0-1.04.389,1.213,1.213,0,0,0-.451.955,1.167,1.167,0,0,0,.346.84A1.164,1.164,0,0,0,383.187-11.151Zm.126,10.962a.951.951,0,0,0,.336.063,1,1,0,0,0,.473-.116,1.023,1.023,0,0,0,.367-.326.921.921,0,0,0,.189-.567.894.894,0,0,0-.231-.588.921.921,0,0,1-.231-.567v-3.3h-.042v-.588q0-.924-.042-2.73a.737.737,0,0,0-.021-.21.88.88,0,0,0-.3-.567.881.881,0,0,0-.6-.231.939.939,0,0,0-.661.241.874.874,0,0,0-.284.62q-.021.294-.021.924v.945q0,.273.042.819l.021.8v2.919a5.519,5.519,0,0,0,.063.819,2.372,2.372,0,0,0,.4,1.155A1.37,1.37,0,0,0,383.313-.189Zm6.573.063a4.6,4.6,0,0,0,.9.084,3.649,3.649,0,0,0,2.331-.8.24.24,0,0,1,.126-.084q.168.189.231.252a1.274,1.274,0,0,0,.966.462A1.064,1.064,0,0,0,395-.368a1.1,1.1,0,0,0,.409-.43,1.035,1.035,0,0,0,.126-.5.8.8,0,0,0-.294-.672.83.83,0,0,1-.252-.609l-.021-.21a3.619,3.619,0,0,0-.021-.462l-.021-.462a1.9,1.9,0,0,1,.021-.336,13.176,13.176,0,0,0,.21-2.541q0-.987-.105-2.2a2.5,2.5,0,0,0-.252-.84,1.3,1.3,0,0,0-.42-.431,1.011,1.011,0,0,0-.546-.157,1.073,1.073,0,0,0-.725.262,1,1,0,0,0-.346.683,7.015,7.015,0,0,0-.042.9q0,.546.042,1.638l.021,2.541a1.808,1.808,0,0,1-.042.336,2.821,2.821,0,0,1-1.05,1.428,1.453,1.453,0,0,1-.672.273,2.46,2.46,0,0,1-1.176-.168,1.407,1.407,0,0,1-.966-1.071,5.505,5.505,0,0,1-.126-.693,9.418,9.418,0,0,1-.084-1.323q0-.525.042-1.533.021-.525.1-1.47a2.1,2.1,0,0,1,.031-.284,1.179,1.179,0,0,0,.011-.346.918.918,0,0,0-.315-.662,1.034,1.034,0,0,0-.714-.262,1.016,1.016,0,0,0-.661.231,1.066,1.066,0,0,0-.367.63q-.084.42-.126.819l-.042.756q-.021.378-.042.945t-.021,1.3a16.833,16.833,0,0,0,.168,2,3.53,3.53,0,0,0,1.05,2.121A3.85,3.85,0,0,0,389.886-.126ZM409-.147a.954.954,0,0,0,.672-.252,1.016,1.016,0,0,0,.315-.672l.147-2.058q.042-.8.042-1.2a12.086,12.086,0,0,0-.357-2.982,5,5,0,0,0-1.26-2.331,2.438,2.438,0,0,0-1.218-.63,4.979,4.979,0,0,0-.777-.063A2.945,2.945,0,0,0,404.166-9.2l-.21.252-.084-.126a2.288,2.288,0,0,0-.892-.945,2.41,2.41,0,0,0-1.208-.315,2.278,2.278,0,0,0-1.407.441q-.084.063-.525.441l-.4.336-.168.21-.042-.042q0-.1-.01-.262a2.882,2.882,0,0,0-.053-.368.856.856,0,0,0-.346-.546,1.049,1.049,0,0,0-.641-.21.926.926,0,0,0-.514.158.891.891,0,0,0-.346.409,1.512,1.512,0,0,0-.1.546,7.758,7.758,0,0,0,.021.945l.084.966q.042.357.084.987l.231,3.927q0,.147.021.515t.063.662a.878.878,0,0,0,.315.588.947.947,0,0,0,.63.231,1,1,0,0,0,.651-.22.923.923,0,0,0,.336-.578,1.835,1.835,0,0,0,.042-.462,20.929,20.929,0,0,1,.126-2.646A12.639,12.639,0,0,1,400.47-7.1a2.553,2.553,0,0,1,1.071-1.176.559.559,0,0,1,.252-.063.39.39,0,0,1,.357.252,3.19,3.19,0,0,1,.189.588,14.252,14.252,0,0,1,.42,3q.021.8.021,2.415a2.238,2.238,0,0,0,.042.5.942.942,0,0,0,.326.578,1.006,1.006,0,0,0,.6.242,1.049,1.049,0,0,0,.641-.21.954.954,0,0,0,.368-.567,1.87,1.87,0,0,0,.042-.357l-.021-2.247a13.36,13.36,0,0,1,.1-1.806,3.926,3.926,0,0,1,.777-1.953,1.236,1.236,0,0,1,1.008-.462.8.8,0,0,1,.609.273,2.483,2.483,0,0,1,.525.966,8.886,8.886,0,0,1,.378,2.751q0,.4-.042,1.239l-.126,1.743-.021.168a1.059,1.059,0,0,0,.294.766A.955.955,0,0,0,409-.147Zm11.529,4.263a.953.953,0,0,0,.588-.189.9.9,0,0,0,.336-.5,3.485,3.485,0,0,0,.063-.777l-.063-3.213V-.882l1.2.168a5,5,0,0,0,.756.042A5.581,5.581,0,0,0,425.04-.9a4.217,4.217,0,0,0,2.205-1.554,4.2,4.2,0,0,0,.84-2.562,7.179,7.179,0,0,0-.441-2.31,4.228,4.228,0,0,0-2.478-2.583,4.354,4.354,0,0,0-1.722-.378,3.941,3.941,0,0,0-2.268.735q0,.021-.01.021h-.074l-.063-.084a.915.915,0,0,0-.714-.336,1.05,1.05,0,0,0-.724.252,1.016,1.016,0,0,0-.326.693,6.832,6.832,0,0,0-.063.924l.126,3.57.063,1.533q.021.525.063,1.292t.063,1.775l.021.714q.042,1.05.042,1.554l-.021.882a.818.818,0,0,0,.283.62A.969.969,0,0,0,420.525,4.116Zm3.045-6.7A7.828,7.828,0,0,1,422-2.772l-.42-.063a.308.308,0,0,1-.116-.021q-.053-.021-.094-.042l-.084-1.323q-.042-.63-.084-1.89V-7.182a2.213,2.213,0,0,1,.924-.861,2.733,2.733,0,0,1,1.3-.336,2.311,2.311,0,0,1,.357.021,2.344,2.344,0,0,1,1.848,1.281,4.14,4.14,0,0,1,.5,1.974,4.425,4.425,0,0,1-.021.5,1.99,1.99,0,0,1-.546,1.176A2.681,2.681,0,0,1,423.57-2.583Zm7.161,2.415a1.017,1.017,0,0,0,.682-.241.9.9,0,0,0,.326-.6v-.168a2.31,2.31,0,0,0-.021-.357q0-.63-.042-1.974-.042-3.738-.084-5.565l-.084-4.641a4.441,4.441,0,0,1,.042-.483l.021-.168a.955.955,0,0,0-.3-.714,1.059,1.059,0,0,0-.766-.294,1.162,1.162,0,0,0-.578.147,1.029,1.029,0,0,0-.409.42,2.689,2.689,0,0,0-.147.483q-.021.336-.021,1.05,0,1.239.084,3.675,0,.588.042,1.764h.042v5.04q0,.42.042,1.26a2.042,2.042,0,0,0,.168.8,1.153,1.153,0,0,0,.441.42A1.181,1.181,0,0,0,430.731-.168Zm6.216.042a4.6,4.6,0,0,0,.9.084,3.649,3.649,0,0,0,2.331-.8.24.24,0,0,1,.126-.084q.168.189.231.252a1.274,1.274,0,0,0,.966.462,1.064,1.064,0,0,0,.556-.158,1.1,1.1,0,0,0,.409-.43,1.035,1.035,0,0,0,.126-.5.8.8,0,0,0-.294-.672.83.83,0,0,1-.252-.609l-.021-.21a3.619,3.619,0,0,0-.021-.462l-.021-.462a1.9,1.9,0,0,1,.021-.336,13.176,13.176,0,0,0,.21-2.541q0-.987-.105-2.2a2.5,2.5,0,0,0-.252-.84,1.3,1.3,0,0,0-.42-.431,1.011,1.011,0,0,0-.546-.157,1.073,1.073,0,0,0-.725.262,1,1,0,0,0-.346.683,7.015,7.015,0,0,0-.042.9q0,.546.042,1.638l.021,2.541a1.808,1.808,0,0,1-.042.336,2.821,2.821,0,0,1-1.05,1.428,1.453,1.453,0,0,1-.672.273,2.46,2.46,0,0,1-1.176-.168,1.407,1.407,0,0,1-.966-1.071,5.505,5.505,0,0,1-.126-.693,9.418,9.418,0,0,1-.084-1.323q0-.525.042-1.533.021-.525.1-1.47a2.1,2.1,0,0,1,.031-.284,1.179,1.179,0,0,0,.011-.346.918.918,0,0,0-.315-.662,1.034,1.034,0,0,0-.714-.262,1.016,1.016,0,0,0-.661.231,1.066,1.066,0,0,0-.367.63q-.084.42-.126.819l-.042.756q-.021.378-.042.945t-.021,1.3a16.833,16.833,0,0,0,.168,2,3.53,3.53,0,0,0,1.05,2.121A3.85,3.85,0,0,0,436.947-.126Zm9.639,4.221a2.6,2.6,0,0,0,.672.084,3.027,3.027,0,0,0,.735-.084,6.2,6.2,0,0,0,2.289-.882,3.563,3.563,0,0,0,1.407-1.785,7.432,7.432,0,0,0,.441-2.415q.021-.231.021-.651v-1.47h-.021q0-1.05-.042-3.108l-.021-1.554q0-.294-.042-.924L452-9.177a.993.993,0,0,0-.346-.756,1.063,1.063,0,0,0-.809-.231h-.042a.5.5,0,0,1-.137-.021q-.073-.021-.137-.042a2.636,2.636,0,0,0-.735-.252,4.708,4.708,0,0,0-.9-.105,4.179,4.179,0,0,0-2.688,1.029A6.182,6.182,0,0,0,444-6.132,5.246,5.246,0,0,0,443.856-5a5.053,5.053,0,0,0,.084.756A3.524,3.524,0,0,0,446.019-1.6a4.525,4.525,0,0,0,1.7.357,4.47,4.47,0,0,0,1.932-.483l.441-.231a3.646,3.646,0,0,0,.042.5l.021.546A5.935,5.935,0,0,1,449.9.567a1.7,1.7,0,0,1-.861,1.071,4.267,4.267,0,0,1-1.7.546,1.1,1.1,0,0,1-.882-.263,1.3,1.3,0,0,1-.546-.745q0-.084-.126-.8a1,1,0,0,0-.63-.84,1.769,1.769,0,0,0-.294-.042.955.955,0,0,0-.7.284,1.056,1.056,0,0,0-.3.725,4.122,4.122,0,0,0,.126.882A3.281,3.281,0,0,0,446.586,4.095ZM448.14-3.36a2.071,2.071,0,0,1-.5.063,2.072,2.072,0,0,1-.966-.252,1.362,1.362,0,0,1-.5-.546,2.237,2.237,0,0,1-.252-1.008,2.318,2.318,0,0,1,.126-.735,4.608,4.608,0,0,1,1.281-1.974,1.581,1.581,0,0,1,.735-.5,2.541,2.541,0,0,1,.924-.21,1.569,1.569,0,0,1,1.05.42q0,1.848.063,3.612l-.221.178q-.115.095-.262.2-.147.084-.431.283a3.709,3.709,0,0,1-.525.315A1.831,1.831,0,0,1,448.14-3.36Zm7.119-7.791a1.213,1.213,0,0,0,.5-.126l.315-.147a1.137,1.137,0,0,0,.493-.43,1.14,1.14,0,0,0,.178-.62,1.157,1.157,0,0,0-.367-.861,1.184,1.184,0,0,0-.85-.357,1.547,1.547,0,0,0-1.04.389,1.213,1.213,0,0,0-.451.955,1.167,1.167,0,0,0,.346.84A1.164,1.164,0,0,0,455.259-11.151Zm.126,10.962a.951.951,0,0,0,.336.063,1,1,0,0,0,.473-.116,1.023,1.023,0,0,0,.367-.326.921.921,0,0,0,.189-.567.894.894,0,0,0-.231-.588.921.921,0,0,1-.231-.567v-3.3h-.042v-.588q0-.924-.042-2.73a.737.737,0,0,0-.021-.21.88.88,0,0,0-.3-.567.881.881,0,0,0-.6-.231.939.939,0,0,0-.661.241.874.874,0,0,0-.284.62q-.021.294-.021.924v.945q0,.273.042.819l.021.8v2.919a5.519,5.519,0,0,0,.063.819,2.372,2.372,0,0,0,.4,1.155A1.37,1.37,0,0,0,455.385-.189Zm10.941-.063a.9.9,0,0,0,.693-.294,1.011,1.011,0,0,0,.273-.714,4.174,4.174,0,0,0-.021-.483L467.25-2.2V-4.368a21.137,21.137,0,0,0-.21-2.709,4.53,4.53,0,0,0-.651-1.806A2.482,2.482,0,0,0,465.024-10a3.262,3.262,0,0,0-1.071-.189,2.826,2.826,0,0,0-1.659.567,4.9,4.9,0,0,0-.84.777,12.714,12.714,0,0,0-.8,1.05q-.063.105-.168.252l-.042-.168-.063-.861a3.392,3.392,0,0,0-.021-.441,1.07,1.07,0,0,0-.336-.578.865.865,0,0,0-.588-.22,1,1,0,0,0-.651.22.858.858,0,0,0-.315.6,3.3,3.3,0,0,0-.021.84l.063.651a8.983,8.983,0,0,1,.126,1.218q.21,2.352.294,3.528l.1,1.491a1.127,1.127,0,0,0,.315.683.873.873,0,0,0,.651.283.93.93,0,0,0,.682-.283,1.032,1.032,0,0,0,.3-.7,3.174,3.174,0,0,0,.021-.42q0-.147.01-.368t.053-.515q.252-1.47.42-2.184A6.084,6.084,0,0,1,462.9-7.56a2.754,2.754,0,0,1,.651-.546.932.932,0,0,1,.462-.147.845.845,0,0,1,.43.116.907.907,0,0,1,.326.325,1.875,1.875,0,0,1,.252.609,11.3,11.3,0,0,1,.189,1.407q.063,1.2.063,2.373.021.273.021.8,0,.42.042,1.3a1.254,1.254,0,0,0,.063.4.956.956,0,0,0,.357.494A.958.958,0,0,0,466.326-.252Zm5.754.294a2.923,2.923,0,0,0,1.764-.5,2.613,2.613,0,0,0,1.2-2.205,2.5,2.5,0,0,0-.021-.378,3.8,3.8,0,0,0-2.373-3.3q-1.113-.441-1.281-.5a1.136,1.136,0,0,1-.714-.777,1.181,1.181,0,0,1-.042-.273.65.65,0,0,1,.284-.546,1.222,1.222,0,0,1,.745-.21,2.672,2.672,0,0,1,.714.105.529.529,0,0,1,.315.168.988.988,0,0,0,.651.273.791.791,0,0,0,.315-.063.852.852,0,0,0,.651-.735.637.637,0,0,0,.021-.189,1.026,1.026,0,0,0-.189-.546,1.473,1.473,0,0,0-.777-.567,4.769,4.769,0,0,0-1.7-.336,3.986,3.986,0,0,0-.693.063,2.935,2.935,0,0,0-1.638.913,2.392,2.392,0,0,0-.63,1.648,2.686,2.686,0,0,0,.084.693,3.036,3.036,0,0,0,1.827,2.1l1.323.525a1.616,1.616,0,0,1,.871.756,2.19,2.19,0,0,1,.3,1.071.951.951,0,0,1-.2.609.778.778,0,0,1-.535.294,2.311,2.311,0,0,1-.357.021,2.6,2.6,0,0,1-.672-.084,1.108,1.108,0,0,1-.577-.388.987.987,0,0,1-.22-.62,1.063,1.063,0,0,0-.263-.735.872.872,0,0,0-.682-.294.937.937,0,0,0-.473.126,1.125,1.125,0,0,0-.367.336,1.115,1.115,0,0,0-.189.651,3.022,3.022,0,0,0,.861,1.911,2.538,2.538,0,0,0,1.134.735A4.346,4.346,0,0,0,472.08.042ZM477.414,0a1.066,1.066,0,0,0,.767-.315,1.038,1.038,0,0,0,.326-.777,1.111,1.111,0,0,0-.3-.788,1,1,0,0,0-.767-.325,1.1,1.1,0,0,0-.808.325,1.1,1.1,0,0,0-.326.809,1.015,1.015,0,0,0,.326.756A1.091,1.091,0,0,0,477.414,0Z" transform="translate(564 3370.56)" fill="#162c35"/><path d="M44,6.059a21.048,21.048,0,0,0-6.651,1.736,1.131,1.131,0,0,1-1.672-.959,3.843,3.843,0,0,1,.361-2.009A64.4,64.4,0,0,0,.6,9.573c-.452.2-.85-.426-.4-.679A55.181,55.181,0,0,1,36.774,2.961a17.659,17.659,0,0,0,.6-2.375.711.711,0,0,1,1.1-.479,1.157,1.157,0,0,1,.554.122A37.742,37.742,0,0,1,44.8,4.117C45.672,4.788,44.854,5.978,44,6.059Z" transform="matrix(-0.819, 0.574, -0.574, -0.819, 954.422, 3389.873)" fill="#222"/></g></svg>