<svg xmlns="http://www.w3.org/2000/svg" width="477.876" height="80.624" viewBox="0 0 477.876 80.624"><g transform="translate(-478.75 -2589.203)"><path d="M10,.21A1.1,1.1,0,0,0,10.647,0a1.035,1.035,0,0,0,.4-.567,3.572,3.572,0,0,0,.084-.441l.546-3.066q.819-4.011,1.155-6.846,0-.084.063-.6a3.489,3.489,0,0,1,.252-.955,1.149,1.149,0,0,0,.042-.252,1,1,0,0,0-.777-1.05.9.9,0,0,0-.315-.042,1,1,0,0,0-.819.4,1.942,1.942,0,0,0-.294.567,3.728,3.728,0,0,0-.22.945q-.052.5-.073.609-.252,2.121-.819,5.145L9.618-4.83H9.555l-.063-.105-.231-.588-.4-1.029a23.172,23.172,0,0,0-1.491-3.465,3.273,3.273,0,0,0-.378-.567,1.055,1.055,0,0,0-.819-.378,1.064,1.064,0,0,0-.63.21,1.147,1.147,0,0,0-.42.567,1.4,1.4,0,0,0-.105.378L3.948-5.271l-.084.315-.084-.21q-.126-.651-.357-1.6-.672-2.709-1.134-5.376a3.572,3.572,0,0,1-.084-.441L2.142-13a1.045,1.045,0,0,0-.367-.567.987.987,0,0,0-.64-.231,1.1,1.1,0,0,0-.578.157,1.1,1.1,0,0,0-.41.431A1.231,1.231,0,0,0,0-12.663a3.022,3.022,0,0,0,.084.693q.084.357.1.483Q.5-9.912.987-7.56q.4,1.806,1.05,4.515Q2.289-2.016,2.6-.966a1.62,1.62,0,0,0,.231.5A1.119,1.119,0,0,0,3.78.021a1.149,1.149,0,0,0,.536-.137A1.147,1.147,0,0,0,4.746-.5a2.541,2.541,0,0,0,.21-.462l.189-.63.294-.987q.735-2.436,1.029-3.78l.063-.189.105.252q.8,2.142,1.974,4.914l.21.357a1.012,1.012,0,0,1,.147.357,1.029,1.029,0,0,0,.357.63A1,1,0,0,0,10,.21Zm9.765-.231A3.771,3.771,0,0,0,22-.641a4.473,4.473,0,0,0,1.418-1.754l.042-.126a.883.883,0,0,0,.021-.21.881.881,0,0,0-.294-.672,1.067,1.067,0,0,0-.756-.273,1.082,1.082,0,0,0-.9.483l-.42.651a1.211,1.211,0,0,1-.84.525,3.008,3.008,0,0,1-.588.063A2.755,2.755,0,0,1,17.934-2.6a2.159,2.159,0,0,1-.63-.872,4.422,4.422,0,0,1-.252-1.165q.294,0,.882.042.714.042,1.05.042a7.952,7.952,0,0,0,1.239-.084A6.048,6.048,0,0,0,22.3-5.292a2.131,2.131,0,0,0,1.176-1.953,2.327,2.327,0,0,0-.714-1.617,5.129,5.129,0,0,0-1.932-1.3,4.161,4.161,0,0,0-1.407-.273,4.456,4.456,0,0,0-.5.042,6.3,6.3,0,0,0-1.407.357,3.71,3.71,0,0,0-2.352,2.457A7.107,7.107,0,0,0,14.868-5.5a7.785,7.785,0,0,0,.4,2.478,4.158,4.158,0,0,0,1.7,2.184A4.952,4.952,0,0,0,19.761-.021Zm-.819-6.468q-1.05-.042-1.6-.084l-.273-.021a3.276,3.276,0,0,1,.336-.966.489.489,0,0,1,.084-.126.329.329,0,0,0,.063-.084,2.021,2.021,0,0,1,.819-.525,2.921,2.921,0,0,1,1.05-.21,1.4,1.4,0,0,1,.441.063,2.9,2.9,0,0,1,1.344.882.527.527,0,0,1,.126.21.465.465,0,0,1,.021.147.354.354,0,0,1-.21.294,3.1,3.1,0,0,1-1.26.357A7.3,7.3,0,0,1,18.942-6.489Zm6.573-6.279a.687.687,0,0,0,.546-.284,1.236,1.236,0,0,0,.252-.745q.042-.42.126-.861a1.251,1.251,0,0,0,.021-.273,1.2,1.2,0,0,0-.221-.724.663.663,0,0,0-.556-.3.673.673,0,0,0-.441.179.947.947,0,0,0-.294.493,5.66,5.66,0,0,0-.21.966v.4a1.46,1.46,0,0,0,.22.819A.65.65,0,0,0,25.515-12.768ZM33.432-.546A2.5,2.5,0,0,0,33.7-.9,22.235,22.235,0,0,0,35.6-4.389l.882-1.89.441-.84.63-1.218a2.121,2.121,0,0,0,.273-.882.886.886,0,0,0-.315-.682,1.119,1.119,0,0,0-.777-.284,1,1,0,0,0-.567.168,1.027,1.027,0,0,0-.378.462q-.378.8-.588,1.2Q34.713-7.35,33.7-5.334l-.945,2a.406.406,0,0,0-.052.074.488.488,0,0,1-.074.095l-.084-.147q-1.134-2.31-1.68-3.465L29.3-10.08a.948.948,0,0,0-.924-.567,1.177,1.177,0,0,0-.63.168.872.872,0,0,0-.378.483,1.189,1.189,0,0,0-.063.378,1.13,1.13,0,0,0,.063.357l.315.693q.609,1.176.735,1.47.546,1.218,1.228,2.615t.892,1.837l.735,1.47a2.367,2.367,0,0,0,.315.525,1.175,1.175,0,0,0,.966.483A1.209,1.209,0,0,0,33.432-.546Zm10.122.525a3.771,3.771,0,0,0,2.236-.62,4.473,4.473,0,0,0,1.417-1.754l.042-.126a.883.883,0,0,0,.021-.21.881.881,0,0,0-.294-.672,1.067,1.067,0,0,0-.756-.273,1.082,1.082,0,0,0-.9.483l-.42.651a1.211,1.211,0,0,1-.84.525,3.008,3.008,0,0,1-.588.063A2.755,2.755,0,0,1,41.727-2.6a2.159,2.159,0,0,1-.63-.872,4.422,4.422,0,0,1-.252-1.165q.294,0,.882.042.714.042,1.05.042a7.952,7.952,0,0,0,1.239-.084A6.048,6.048,0,0,0,46.1-5.292a2.131,2.131,0,0,0,1.176-1.953,2.327,2.327,0,0,0-.714-1.617,5.129,5.129,0,0,0-1.932-1.3,4.16,4.16,0,0,0-1.407-.273,4.456,4.456,0,0,0-.5.042,6.3,6.3,0,0,0-1.407.357,3.71,3.71,0,0,0-2.352,2.457A7.107,7.107,0,0,0,38.661-5.5a7.785,7.785,0,0,0,.4,2.478,4.158,4.158,0,0,0,1.7,2.184A4.952,4.952,0,0,0,43.554-.021Zm-.819-6.468q-1.05-.042-1.6-.084l-.273-.021A3.276,3.276,0,0,1,41.2-7.56a.489.489,0,0,1,.084-.126.329.329,0,0,0,.063-.084,2.021,2.021,0,0,1,.819-.525,2.921,2.921,0,0,1,1.05-.21,1.4,1.4,0,0,1,.441.063A2.9,2.9,0,0,1,45-7.56a.527.527,0,0,1,.126.21.465.465,0,0,1,.021.147.354.354,0,0,1-.21.294,3.1,3.1,0,0,1-1.26.357A7.3,7.3,0,0,1,42.735-6.489ZM59.829.042a2.923,2.923,0,0,0,1.764-.5,2.613,2.613,0,0,0,1.2-2.205,2.5,2.5,0,0,0-.021-.378,3.8,3.8,0,0,0-2.373-3.3q-1.113-.441-1.281-.5a1.136,1.136,0,0,1-.714-.777,1.18,1.18,0,0,1-.042-.273.65.65,0,0,1,.284-.546,1.222,1.222,0,0,1,.745-.21,2.672,2.672,0,0,1,.714.105.529.529,0,0,1,.315.168.988.988,0,0,0,.651.273.791.791,0,0,0,.315-.063.852.852,0,0,0,.651-.735.637.637,0,0,0,.021-.189,1.026,1.026,0,0,0-.189-.546,1.473,1.473,0,0,0-.777-.567,4.769,4.769,0,0,0-1.7-.336,3.986,3.986,0,0,0-.693.063,2.935,2.935,0,0,0-1.638.913,2.392,2.392,0,0,0-.63,1.648,2.686,2.686,0,0,0,.084.693,3.036,3.036,0,0,0,1.827,2.1l1.323.525a1.616,1.616,0,0,1,.872.756,2.19,2.19,0,0,1,.3,1.071.951.951,0,0,1-.2.609.778.778,0,0,1-.535.294,2.311,2.311,0,0,1-.357.021,2.6,2.6,0,0,1-.672-.084A1.108,1.108,0,0,1,58.5-2.32a.987.987,0,0,1-.22-.62,1.063,1.063,0,0,0-.263-.735.872.872,0,0,0-.682-.294.937.937,0,0,0-.472.126,1.125,1.125,0,0,0-.368.336,1.115,1.115,0,0,0-.189.651,3.022,3.022,0,0,0,.861,1.911A2.538,2.538,0,0,0,58.3-.21,4.346,4.346,0,0,0,59.829.042Zm5.544,4.074a.953.953,0,0,0,.588-.189.9.9,0,0,0,.336-.5,3.487,3.487,0,0,0,.063-.777L66.3-.567V-.882l1.2.168a5,5,0,0,0,.756.042A5.581,5.581,0,0,0,69.888-.9a4.217,4.217,0,0,0,2.205-1.554,4.2,4.2,0,0,0,.84-2.562,7.179,7.179,0,0,0-.441-2.31,4.228,4.228,0,0,0-2.478-2.583,4.354,4.354,0,0,0-1.722-.378,3.941,3.941,0,0,0-2.268.735q0,.021-.01.021H65.94l-.063-.084a.915.915,0,0,0-.714-.336,1.05,1.05,0,0,0-.725.252,1.016,1.016,0,0,0-.326.693,6.831,6.831,0,0,0-.063.924l.126,3.57.063,1.533q.021.525.063,1.292T64.365.084L64.386.8q.042,1.05.042,1.554l-.021.882a.818.818,0,0,0,.284.62A.969.969,0,0,0,65.373,4.116Zm3.045-6.7a7.828,7.828,0,0,1-1.575-.189l-.42-.063a.308.308,0,0,1-.116-.021q-.052-.021-.095-.042l-.084-1.323q-.042-.63-.084-1.89V-7.182a2.213,2.213,0,0,1,.924-.861,2.733,2.733,0,0,1,1.3-.336,2.311,2.311,0,0,1,.357.021,2.344,2.344,0,0,1,1.848,1.281,4.14,4.14,0,0,1,.5,1.974,4.427,4.427,0,0,1-.021.5,1.99,1.99,0,0,1-.546,1.176A2.681,2.681,0,0,1,68.418-2.583ZM79.086-.021a3.771,3.771,0,0,0,2.237-.62A4.473,4.473,0,0,0,82.74-2.394l.042-.126a.884.884,0,0,0,.021-.21.881.881,0,0,0-.294-.672,1.067,1.067,0,0,0-.756-.273,1.082,1.082,0,0,0-.9.483l-.42.651a1.211,1.211,0,0,1-.84.525A3.008,3.008,0,0,1,79-1.953,2.755,2.755,0,0,1,77.259-2.6a2.159,2.159,0,0,1-.63-.872,4.422,4.422,0,0,1-.252-1.165q.294,0,.882.042.714.042,1.05.042a7.952,7.952,0,0,0,1.239-.084,6.048,6.048,0,0,0,2.079-.651A2.131,2.131,0,0,0,82.8-7.245a2.327,2.327,0,0,0-.714-1.617,5.129,5.129,0,0,0-1.932-1.3,4.161,4.161,0,0,0-1.407-.273,4.456,4.456,0,0,0-.5.042,6.3,6.3,0,0,0-1.407.357,3.71,3.71,0,0,0-2.352,2.457A7.107,7.107,0,0,0,74.193-5.5a7.785,7.785,0,0,0,.4,2.478,4.158,4.158,0,0,0,1.7,2.184A4.952,4.952,0,0,0,79.086-.021Zm-.819-6.468q-1.05-.042-1.6-.084L76.4-6.594a3.276,3.276,0,0,1,.336-.966.489.489,0,0,1,.084-.126.329.329,0,0,0,.063-.084A2.021,2.021,0,0,1,77.7-8.3a2.921,2.921,0,0,1,1.05-.21,1.4,1.4,0,0,1,.441.063,2.9,2.9,0,0,1,1.344.882.527.527,0,0,1,.126.21.465.465,0,0,1,.021.147.354.354,0,0,1-.21.294,3.1,3.1,0,0,1-1.26.357A7.3,7.3,0,0,1,78.267-6.489ZM92.589-.252a.9.9,0,0,0,.693-.294,1.011,1.011,0,0,0,.273-.714,4.177,4.177,0,0,0-.021-.483L93.513-2.2V-4.368a21.14,21.14,0,0,0-.21-2.709,4.53,4.53,0,0,0-.651-1.806A2.482,2.482,0,0,0,91.287-10a3.262,3.262,0,0,0-1.071-.189,2.826,2.826,0,0,0-1.659.567,4.9,4.9,0,0,0-.84.777,12.711,12.711,0,0,0-.8,1.05q-.063.105-.168.252l-.042-.168-.063-.861a3.393,3.393,0,0,0-.021-.441,1.07,1.07,0,0,0-.336-.578.865.865,0,0,0-.588-.22,1,1,0,0,0-.651.22.858.858,0,0,0-.315.6,3.3,3.3,0,0,0-.021.84l.063.651A8.983,8.983,0,0,1,84.9-6.279q.21,2.352.294,3.528l.1,1.491a1.127,1.127,0,0,0,.315.683.873.873,0,0,0,.651.283.93.93,0,0,0,.682-.283,1.032,1.032,0,0,0,.3-.7,3.175,3.175,0,0,0,.021-.42q0-.147.01-.368t.053-.515q.252-1.47.42-2.184A6.085,6.085,0,0,1,89.166-7.56a2.754,2.754,0,0,1,.651-.546.932.932,0,0,1,.462-.147.845.845,0,0,1,.43.116.906.906,0,0,1,.326.325,1.874,1.874,0,0,1,.252.609A11.3,11.3,0,0,1,91.476-5.8q.063,1.2.063,2.373.021.273.021.8,0,.42.042,1.3a1.253,1.253,0,0,0,.063.4.956.956,0,0,0,.357.494A.958.958,0,0,0,92.589-.252ZM99.54-.273A1.283,1.283,0,0,0,100.548-.8a.785.785,0,0,0,.21-.546.741.741,0,0,0-.063-.294.886.886,0,0,0-.368-.483,1.05,1.05,0,0,0-.577-.168,1.781,1.781,0,0,0-.441.084.5.5,0,0,1-.21.063q-.084,0-.21-.147a.654.654,0,0,1-.168-.231,6.588,6.588,0,0,1-.231-.63,9.693,9.693,0,0,1-.252-1.974L98.2-9.282l.021-.189.273-.021,1.071-.168a1.186,1.186,0,0,0,.651-.273.875.875,0,0,0,.336-.672.88.88,0,0,0-.21-.6,1.044,1.044,0,0,0-.567-.325.637.637,0,0,0-.189-.021,1.807,1.807,0,0,0-.336.042l-.473.063q-.3.042-.535.063v-.21l.084-1.365.021-.546a.9.9,0,0,0-.294-.693.985.985,0,0,0-.693-.273.9.9,0,0,0-.315.042.887.887,0,0,0-.714.8q-.063.42-.1,1.344,0,.084-.063,1.092h-.5a2.766,2.766,0,0,1-.378.021,2.766,2.766,0,0,0-.378.021.953.953,0,0,0-.662.294.907.907,0,0,0-.262.651.823.823,0,0,0,.242.588.978.978,0,0,0,.619.294,3.109,3.109,0,0,0,.441.021h.861v2.016a27.688,27.688,0,0,0,.189,3.633,5.952,5.952,0,0,0,.483,1.785,3.13,3.13,0,0,0,.693.987,2.312,2.312,0,0,0,1.6.651A3.423,3.423,0,0,0,99.54-.273Zm14.343,0q.567,0,1.7-.042a1.424,1.424,0,0,0,.945-.378,1.185,1.185,0,0,0,.4-.84,1.844,1.844,0,0,0-.042-.273,1.061,1.061,0,0,0-.8-.819,1.844,1.844,0,0,0-.273-.042,1.189,1.189,0,0,0-.378.063,3.529,3.529,0,0,1-.766.094q-.431.01-.6.01l.294-.4q.084-.126.273-.378a3.989,3.989,0,0,0,.294-.441,15.324,15.324,0,0,0,1.407-2.961,8.3,8.3,0,0,0,.441-2.541,6.837,6.837,0,0,0-.126-1.3,3.841,3.841,0,0,0-.756-1.785,2.454,2.454,0,0,0-2-1.05,2.7,2.7,0,0,0-.567.063,3.907,3.907,0,0,0-2.709,1.932,1.559,1.559,0,0,0-.189.609,1,1,0,0,0-.021.231,1.038,1.038,0,0,0,.326.777,1.117,1.117,0,0,0,.808.315,1.039,1.039,0,0,0,.6-.179,1.169,1.169,0,0,0,.41-.514,1.746,1.746,0,0,1,1.05-.924.691.691,0,0,1,.21-.042.39.39,0,0,1,.357.252,2.143,2.143,0,0,1,.189.462,4.667,4.667,0,0,1,.147,1.176,5.361,5.361,0,0,1-.168,1.3,6.084,6.084,0,0,1-.336,1.008q-.21.483-.43.913t-.284.578A5.413,5.413,0,0,1,111.8-3.528q-.063.042-.777.588l-.5.357a4.1,4.1,0,0,0-.357.252,1.055,1.055,0,0,0-.378.819,1.112,1.112,0,0,0,.252.766,1.178,1.178,0,0,0,.672.368,1.274,1.274,0,0,0,.378.042l.966.021Q113.274-.273,113.883-.273ZM129.57,4.074a5.384,5.384,0,0,0,.84.063,5.866,5.866,0,0,0,1.6-.231,4.1,4.1,0,0,0,2.877-2.562,7.89,7.89,0,0,0,.5-2.247q.063-.735.063-1.449,0-.651-.042-1.953l-.042-3.381q0-.168-.021-.567t-.063-.693a1.08,1.08,0,0,0-.346-.672.965.965,0,0,0-.661-.252,1.033,1.033,0,0,0-.745.294,1.077,1.077,0,0,0-.326.756q-.021.21-.021.693l.021.819a7.129,7.129,0,0,1-.1,1.323,6.5,6.5,0,0,1-.462,1.512,3.1,3.1,0,0,1-.84,1.092,1.628,1.628,0,0,1-1.092.357,1.878,1.878,0,0,1-.934-.241,1.712,1.712,0,0,1-.682-.725,4.771,4.771,0,0,1-.441-1.659q-.063-.672-.063-1.344,0-.777.063-1.554,0-.126.01-.378a2.937,2.937,0,0,0-.01-.441.943.943,0,0,0-.336-.693,1.087,1.087,0,0,0-.735-.273.946.946,0,0,0-.588.21,1.077,1.077,0,0,0-.378.546,1.807,1.807,0,0,0-.042.336q-.1,1.26-.105,2.247a18.122,18.122,0,0,0,.105,1.869,5.8,5.8,0,0,0,.609,2.079,3.756,3.756,0,0,0,1.7,1.827,4.352,4.352,0,0,0,1.848.441,3.842,3.842,0,0,0,2.352-.84l.231-.168a5.94,5.94,0,0,1-.4,2.31,2.035,2.035,0,0,1-1.2,1.134,3.311,3.311,0,0,1-1.26.231,5.8,5.8,0,0,1-1.323-.168.574.574,0,0,1-.389-.231,1.94,1.94,0,0,1-.242-.483.637.637,0,0,1-.021-.189,1.223,1.223,0,0,0-.389-.62.961.961,0,0,0-.64-.241,1,1,0,0,0-.567.168,1.014,1.014,0,0,0-.378.483,1.16,1.16,0,0,0-.126.525,1.253,1.253,0,0,0,.063.4,3.249,3.249,0,0,0,.567,1.239,2.513,2.513,0,0,0,1.449,1.071A10.36,10.36,0,0,0,129.57,4.074ZM141.6-.021a3.771,3.771,0,0,0,2.236-.62,4.473,4.473,0,0,0,1.417-1.754l.042-.126a.884.884,0,0,0,.021-.21.881.881,0,0,0-.294-.672,1.067,1.067,0,0,0-.756-.273,1.082,1.082,0,0,0-.9.483l-.42.651a1.211,1.211,0,0,1-.84.525,3.008,3.008,0,0,1-.588.063,2.755,2.755,0,0,1-1.743-.651,2.159,2.159,0,0,1-.63-.872,4.423,4.423,0,0,1-.252-1.165q.294,0,.882.042.714.042,1.05.042a7.952,7.952,0,0,0,1.239-.084,6.048,6.048,0,0,0,2.079-.651,2.131,2.131,0,0,0,1.176-1.953,2.327,2.327,0,0,0-.714-1.617,5.129,5.129,0,0,0-1.932-1.3,4.16,4.16,0,0,0-1.407-.273,4.456,4.456,0,0,0-.5.042,6.3,6.3,0,0,0-1.407.357A3.71,3.71,0,0,0,137-7.581,7.107,7.107,0,0,0,136.71-5.5a7.784,7.784,0,0,0,.4,2.478,4.158,4.158,0,0,0,1.7,2.184A4.952,4.952,0,0,0,141.6-.021Zm-.819-6.468q-1.05-.042-1.6-.084l-.273-.021a3.276,3.276,0,0,1,.336-.966.489.489,0,0,1,.084-.126.329.329,0,0,0,.063-.084,2.021,2.021,0,0,1,.819-.525,2.921,2.921,0,0,1,1.05-.21,1.4,1.4,0,0,1,.441.063,2.9,2.9,0,0,1,1.344.882.527.527,0,0,1,.126.21.466.466,0,0,1,.021.147.354.354,0,0,1-.21.294,3.1,3.1,0,0,1-1.26.357A7.3,7.3,0,0,1,140.784-6.489ZM155.211.063a.947.947,0,0,0,.63-.231,1.071,1.071,0,0,0,.357-.588,3.4,3.4,0,0,0,.021-.441L156.2-2.688q-.042-1.974-.042-3l.021-2.289a2.67,2.67,0,0,0-.021-.3.947.947,0,0,1,0-.283,1.134,1.134,0,0,0-.42-.945,3.1,3.1,0,0,0-.924-.546,5.575,5.575,0,0,0-1.449-.315,5.043,5.043,0,0,0-.525-.021,5.459,5.459,0,0,0-3.906,1.617A6.076,6.076,0,0,0,147-4.242a7.15,7.15,0,0,0,.063.924,3.448,3.448,0,0,0,1.155,2.226,3.323,3.323,0,0,0,2.247.861,3.45,3.45,0,0,0,1.806-.5,7.687,7.687,0,0,0,1.281-.987,2.7,2.7,0,0,1,.262-.231,2.7,2.7,0,0,0,.262-.231l.042.966q0,.084.01.21a1.879,1.879,0,0,0,.053.294,1,1,0,0,0,.367.557A1.047,1.047,0,0,0,155.211.063Zm-4.746-2.415a1.32,1.32,0,0,1-.777-.252,1.136,1.136,0,0,1-.462-.672,3.735,3.735,0,0,1-.126-.945,4.512,4.512,0,0,1,.042-.525,4.313,4.313,0,0,1,.8-2.016,3.811,3.811,0,0,1,2.6-1.533,1.585,1.585,0,0,1,.294-.021,4.71,4.71,0,0,1,1.134.189L153.8-7.119a12.071,12.071,0,0,1-.546,2.079,4.91,4.91,0,0,1-1.617,2.2,3.723,3.723,0,0,1-.577.357A1.367,1.367,0,0,1,150.465-2.352ZM159.432-.21a1.15,1.15,0,0,0,.882-.336.848.848,0,0,0,.231-.777,3.422,3.422,0,0,1-.042-.441q-.168-2.73-.231-4.074l-.021-.315a.839.839,0,0,1,.168-.5.086.086,0,0,1,.021-.063,4.1,4.1,0,0,1,1.029-1.47.823.823,0,0,1,.609-.231,3.913,3.913,0,0,1,.63.1,2.527,2.527,0,0,0,.378.042,1.173,1.173,0,0,0,.756-.252.917.917,0,0,0,.357-.693,1.149,1.149,0,0,0-.042-.252,1.231,1.231,0,0,0-1.008-.756,4.754,4.754,0,0,0-1.071-.126,3.562,3.562,0,0,0-1.722.42l-.126.063-.084-.273a1.071,1.071,0,0,0-.42-.483,1.179,1.179,0,0,0-.651-.189,1.361,1.361,0,0,0-.714.189.919.919,0,0,0-.42.5,2.527,2.527,0,0,0-.042.378l.042,3,.042,1.428.189,3.108.063,1.029a1.083,1.083,0,0,0,.252.546A1.179,1.179,0,0,0,159.432-.21Zm9.135.252a2.923,2.923,0,0,0,1.764-.5,2.613,2.613,0,0,0,1.2-2.205,2.5,2.5,0,0,0-.021-.378,3.8,3.8,0,0,0-2.373-3.3q-1.113-.441-1.281-.5a1.136,1.136,0,0,1-.714-.777A1.18,1.18,0,0,1,167.1-7.9a.65.65,0,0,1,.284-.546,1.222,1.222,0,0,1,.745-.21,2.671,2.671,0,0,1,.714.105.529.529,0,0,1,.315.168.988.988,0,0,0,.651.273.791.791,0,0,0,.315-.063.852.852,0,0,0,.651-.735.637.637,0,0,0,.021-.189,1.026,1.026,0,0,0-.189-.546,1.473,1.473,0,0,0-.777-.567,4.769,4.769,0,0,0-1.7-.336,3.986,3.986,0,0,0-.693.063,2.935,2.935,0,0,0-1.638.913,2.392,2.392,0,0,0-.63,1.648,2.686,2.686,0,0,0,.084.693,3.036,3.036,0,0,0,1.827,2.1L168.4-4.6a1.616,1.616,0,0,1,.872.756,2.19,2.19,0,0,1,.3,1.071.951.951,0,0,1-.2.609.778.778,0,0,1-.536.294,2.311,2.311,0,0,1-.357.021,2.6,2.6,0,0,1-.672-.084,1.108,1.108,0,0,1-.577-.388.987.987,0,0,1-.221-.62,1.063,1.063,0,0,0-.262-.735.872.872,0,0,0-.682-.294.937.937,0,0,0-.473.126,1.125,1.125,0,0,0-.368.336,1.115,1.115,0,0,0-.189.651A3.022,3.022,0,0,0,165.9-.945a2.538,2.538,0,0,0,1.134.735A4.346,4.346,0,0,0,168.567.042ZM185.7-.273A1.283,1.283,0,0,0,186.711-.8a.785.785,0,0,0,.21-.546.741.741,0,0,0-.063-.294.886.886,0,0,0-.368-.483,1.05,1.05,0,0,0-.577-.168,1.781,1.781,0,0,0-.441.084.5.5,0,0,1-.21.063q-.084,0-.21-.147a.654.654,0,0,1-.168-.231,6.586,6.586,0,0,1-.231-.63,9.693,9.693,0,0,1-.252-1.974l-.042-4.158.021-.189.273-.021,1.071-.168a1.186,1.186,0,0,0,.651-.273.875.875,0,0,0,.336-.672.88.88,0,0,0-.21-.6,1.044,1.044,0,0,0-.567-.325.637.637,0,0,0-.189-.021,1.807,1.807,0,0,0-.336.042l-.473.063q-.3.042-.535.063v-.21l.084-1.365.021-.546a.9.9,0,0,0-.294-.693.985.985,0,0,0-.693-.273.9.9,0,0,0-.315.042.887.887,0,0,0-.714.8q-.063.42-.105,1.344,0,.084-.063,1.092h-.5a2.766,2.766,0,0,1-.378.021,2.766,2.766,0,0,0-.378.021.953.953,0,0,0-.661.294.907.907,0,0,0-.262.651.823.823,0,0,0,.242.588.978.978,0,0,0,.619.294,3.109,3.109,0,0,0,.441.021h.861v2.016a27.686,27.686,0,0,0,.189,3.633,5.951,5.951,0,0,0,.483,1.785,3.13,3.13,0,0,0,.693.987,2.312,2.312,0,0,0,1.6.651A3.423,3.423,0,0,0,185.7-.273Zm6.279.21a5.327,5.327,0,0,0,2.436-.63A4.435,4.435,0,0,0,196.707-4.2a5.387,5.387,0,0,0,.063-.8,4.826,4.826,0,0,0-1.68-3.654.355.355,0,0,1-.147-.147,1.035,1.035,0,0,0-.252-.41q-.189-.2-.252-.262a2.908,2.908,0,0,0-2.142-.861,3.908,3.908,0,0,0-3.171,1.449,7.08,7.08,0,0,0-1.386,2.961,8.307,8.307,0,0,0-.189,1.575,3.641,3.641,0,0,0,.042.651A3.755,3.755,0,0,0,188.832-1.3a5.153,5.153,0,0,0,1.68.987A4.508,4.508,0,0,0,191.982-.063ZM192-2.079a2.79,2.79,0,0,1-1.848-.714,1.613,1.613,0,0,1-.588-1.281,5.143,5.143,0,0,1,1.155-3.591,2.15,2.15,0,0,1,1.344-.693h.147a.234.234,0,0,0,.105.021l.063.147a1.019,1.019,0,0,0,.693.609.767.767,0,0,1,.294.1,3.081,3.081,0,0,1,1.407,2.688,2.587,2.587,0,0,1-.8,1.932A2.719,2.719,0,0,1,192-2.079ZM209.5-.042a4.356,4.356,0,0,0,1.323-.2,10.546,10.546,0,0,0,1.407-.578,3.593,3.593,0,0,0,1.617-1.638,5.773,5.773,0,0,0,.651-2.646,6.171,6.171,0,0,0-.21-1.617,5.18,5.18,0,0,0-1.6-2.541,3.746,3.746,0,0,0-1.386-.777,6.034,6.034,0,0,0-1.7-.252,6.085,6.085,0,0,0-.861.063q-.483.084-.672.1l-.042-.084q-.042-1.113-.168-3.507a1.019,1.019,0,0,0-.346-.735,1.133,1.133,0,0,0-.788-.294,1.112,1.112,0,0,0-.714.252,1,1,0,0,0-.378.63,3.4,3.4,0,0,0-.042.557v.409l.231,3.906q.042,1.05.084,1.575l.042.84q.042.609.084,1.785.021,1.134.021,3.423a2.368,2.368,0,0,0,.042.525,1.011,1.011,0,0,0,.4.63,1.177,1.177,0,0,0,.714.231,1.143,1.143,0,0,0,.546-.147.588.588,0,0,1,.42-.063A7.3,7.3,0,0,0,209.5-.042Zm.609-2.2a2.134,2.134,0,0,1-.714.105,3.775,3.775,0,0,1-1.071-.168v-.273l.021-.882q0-1.323-.168-4.011v-.1a.466.466,0,0,1,.074-.273.5.5,0,0,1,.262-.168,3.81,3.81,0,0,1,.756-.147,2.5,2.5,0,0,1,.378-.021,2.966,2.966,0,0,1,1.05.189,2.376,2.376,0,0,1,.525.336A2.819,2.819,0,0,1,212.1-6.09a4.4,4.4,0,0,1,.126,1.029,3.724,3.724,0,0,1-.42,1.722,1.465,1.465,0,0,1-.735.693A8.518,8.518,0,0,1,210.1-2.247Zm8.967,2.121a4.6,4.6,0,0,0,.9.084,3.648,3.648,0,0,0,2.331-.8.239.239,0,0,1,.126-.084q.168.189.231.252a1.274,1.274,0,0,0,.966.462,1.064,1.064,0,0,0,.557-.158,1.1,1.1,0,0,0,.41-.43,1.035,1.035,0,0,0,.126-.5.8.8,0,0,0-.294-.672.83.83,0,0,1-.252-.609l-.021-.21a3.622,3.622,0,0,0-.021-.462l-.021-.462a1.9,1.9,0,0,1,.021-.336,13.174,13.174,0,0,0,.21-2.541q0-.987-.1-2.2a2.5,2.5,0,0,0-.252-.84,1.3,1.3,0,0,0-.42-.431,1.011,1.011,0,0,0-.546-.157,1.073,1.073,0,0,0-.725.262,1,1,0,0,0-.346.683,7.011,7.011,0,0,0-.042.9q0,.546.042,1.638L221.97-4.2a1.807,1.807,0,0,1-.042.336,2.821,2.821,0,0,1-1.05,1.428,1.453,1.453,0,0,1-.672.273,2.46,2.46,0,0,1-1.176-.168,1.407,1.407,0,0,1-.966-1.071,5.508,5.508,0,0,1-.126-.693,9.418,9.418,0,0,1-.084-1.323q0-.525.042-1.533.021-.525.105-1.47a2.1,2.1,0,0,1,.031-.284,1.18,1.18,0,0,0,.01-.346.918.918,0,0,0-.315-.662,1.034,1.034,0,0,0-.714-.262,1.016,1.016,0,0,0-.661.231,1.066,1.066,0,0,0-.367.63q-.084.42-.126.819l-.042.756q-.021.378-.042.945t-.021,1.3a16.833,16.833,0,0,0,.168,2,3.53,3.53,0,0,0,1.05,2.121A3.851,3.851,0,0,0,219.072-.126Zm8.547-11.025a1.213,1.213,0,0,0,.5-.126l.315-.147a1.137,1.137,0,0,0,.493-.43,1.14,1.14,0,0,0,.178-.62,1.157,1.157,0,0,0-.367-.861,1.184,1.184,0,0,0-.851-.357,1.547,1.547,0,0,0-1.039.389,1.213,1.213,0,0,0-.452.955,1.167,1.167,0,0,0,.346.84A1.164,1.164,0,0,0,227.619-11.151Zm.126,10.962a.951.951,0,0,0,.336.063,1,1,0,0,0,.472-.116,1.024,1.024,0,0,0,.368-.326.921.921,0,0,0,.189-.567.894.894,0,0,0-.231-.588.921.921,0,0,1-.231-.567v-3.3h-.042v-.588q0-.924-.042-2.73a.737.737,0,0,0-.021-.21.879.879,0,0,0-.3-.567.881.881,0,0,0-.6-.231.939.939,0,0,0-.661.241.874.874,0,0,0-.283.62q-.021.294-.021.924v.945q0,.273.042.819l.021.8v2.919a5.517,5.517,0,0,0,.063.819,2.372,2.372,0,0,0,.4,1.155A1.37,1.37,0,0,0,227.745-.189Zm4.641.021a1.017,1.017,0,0,0,.682-.241.9.9,0,0,0,.326-.6v-.168a2.312,2.312,0,0,0-.021-.357q0-.63-.042-1.974-.042-3.738-.084-5.565l-.084-4.641a4.438,4.438,0,0,1,.042-.483l.021-.168a.955.955,0,0,0-.3-.714,1.059,1.059,0,0,0-.767-.294,1.162,1.162,0,0,0-.577.147,1.029,1.029,0,0,0-.41.42,2.69,2.69,0,0,0-.147.483q-.021.336-.021,1.05,0,1.239.084,3.675,0,.588.042,1.764h.042v5.04q0,.42.042,1.26a2.042,2.042,0,0,0,.168.8,1.154,1.154,0,0,0,.441.42A1.181,1.181,0,0,0,232.386-.168Zm9.954.546a.962.962,0,0,0,.672-.9,14.606,14.606,0,0,0,.1-1.68q.021-.483.021-1.47,0-.966-.021-1.449,0-.966-.042-2.94-.063-1.785-.147-5.208a2.312,2.312,0,0,0-.021-.357,1,1,0,0,0-.336-.661,1.007,1.007,0,0,0-.693-.263.985.985,0,0,0-.693.273,1.037,1.037,0,0,0-.336.672,1.739,1.739,0,0,0-.021.315l.063,2.877v.357l-.273-.084a3.172,3.172,0,0,0-1.218-.126,4.707,4.707,0,0,0-4.011,2.814,9.85,9.85,0,0,0-.546,1.554,5.721,5.721,0,0,0-.189,1.47,5.491,5.491,0,0,0,.336,1.89,3.221,3.221,0,0,0,1.89,1.995,5.148,5.148,0,0,0,.9.294,4.061,4.061,0,0,0,.987.126,3.931,3.931,0,0,0,1.953-.546l.168-.063a.846.846,0,0,0,.021.231.955.955,0,0,0,.378.714,1.032,1.032,0,0,0,.651.252A1.351,1.351,0,0,0,242.34.378Zm-3.57-2.6a2.723,2.723,0,0,1-1.323-.357,1.3,1.3,0,0,1-.5-.693,3.568,3.568,0,0,1-.189-1.134,2.825,2.825,0,0,1,.042-.567,5.291,5.291,0,0,1,.462-1.533,2.662,2.662,0,0,1,2.205-1.659l.231-.021a.877.877,0,0,1,.735.357.894.894,0,0,0,.4.315.264.264,0,0,1,.147.273q.042,1.176.042,1.785h.021v1.68a.362.362,0,0,1-.147.315q-.756.63-1.134.924A1.543,1.543,0,0,1,238.77-2.226ZM257.313-.273A1.283,1.283,0,0,0,258.321-.8a.785.785,0,0,0,.21-.546.741.741,0,0,0-.063-.294.886.886,0,0,0-.367-.483,1.05,1.05,0,0,0-.577-.168,1.781,1.781,0,0,0-.441.084.5.5,0,0,1-.21.063q-.084,0-.21-.147a.654.654,0,0,1-.168-.231,6.594,6.594,0,0,1-.231-.63,9.7,9.7,0,0,1-.252-1.974l-.042-4.158.021-.189.273-.021,1.071-.168a1.186,1.186,0,0,0,.651-.273.875.875,0,0,0,.336-.672.88.88,0,0,0-.21-.6,1.044,1.044,0,0,0-.567-.325.637.637,0,0,0-.189-.021,1.806,1.806,0,0,0-.336.042l-.473.063q-.3.042-.536.063v-.21l.084-1.365.021-.546a.9.9,0,0,0-.294-.693.985.985,0,0,0-.693-.273.9.9,0,0,0-.315.042.887.887,0,0,0-.714.8q-.063.42-.105,1.344,0,.084-.063,1.092h-.5a2.766,2.766,0,0,1-.378.021,2.766,2.766,0,0,0-.378.021.953.953,0,0,0-.661.294.907.907,0,0,0-.262.651.823.823,0,0,0,.242.588.978.978,0,0,0,.619.294,3.109,3.109,0,0,0,.441.021h.861v2.016a27.686,27.686,0,0,0,.189,3.633,5.951,5.951,0,0,0,.483,1.785,3.13,3.13,0,0,0,.693.987,2.312,2.312,0,0,0,1.6.651A3.422,3.422,0,0,0,257.313-.273Zm4.242.21a.987.987,0,0,0,.788-.357.976.976,0,0,0,.22-.84l-.042-.189-.126-2.31a.4.4,0,0,1,.021-.126.815.815,0,0,1,.042-.105q.021-.1.063-.242a1.793,1.793,0,0,0,.063-.325l.063-.546q.021-.168.053-.493t.073-.557A2.687,2.687,0,0,1,263.886-8a.9.9,0,0,1,.441-.231,6.085,6.085,0,0,1,.861-.063,1.544,1.544,0,0,1,1.638,1.155l.063.294a9.489,9.489,0,0,1,.231,2.163q0,.378-.042,1.092-.084,1.386-.084,2.121a.972.972,0,0,0,.294.714A.972.972,0,0,0,268-.462a.987.987,0,0,0,.641-.231,1.056,1.056,0,0,0,.367-.609,1.723,1.723,0,0,0,.042-.441l.042-.714q.042-.924.084-1.386.021-.273.021-.819a11.908,11.908,0,0,0-.336-2.856,3.587,3.587,0,0,0-2.835-2.772,2.946,2.946,0,0,0-.861-.105,6.085,6.085,0,0,0-.861.063,3.272,3.272,0,0,0-1.764.735l-.252.21a.591.591,0,0,0-.01-.115.224.224,0,0,1,.01-.116l.063-4.158a2.229,2.229,0,0,1,.021-.315,2.229,2.229,0,0,0,.021-.315,1.1,1.1,0,0,0-.3-.735.938.938,0,0,0-.7-.294,1.04,1.04,0,0,0-.63.2.918.918,0,0,0-.357.535,2.269,2.269,0,0,0-.105.63q-.084,2.856-.084,4.284,0,1.806.084,5.376l.147,3a4.864,4.864,0,0,0,.126.651.971.971,0,0,0,.378.5A1.046,1.046,0,0,0,261.555-.063Zm13.8.042a3.771,3.771,0,0,0,2.237-.62,4.473,4.473,0,0,0,1.418-1.754l.042-.126a.883.883,0,0,0,.021-.21.881.881,0,0,0-.294-.672,1.067,1.067,0,0,0-.756-.273,1.082,1.082,0,0,0-.9.483l-.42.651a1.211,1.211,0,0,1-.84.525,3.008,3.008,0,0,1-.588.063,2.755,2.755,0,0,1-1.743-.651,2.16,2.16,0,0,1-.63-.872,4.422,4.422,0,0,1-.252-1.165q.294,0,.882.042.714.042,1.05.042a7.952,7.952,0,0,0,1.239-.084,6.048,6.048,0,0,0,2.079-.651,2.131,2.131,0,0,0,1.176-1.953,2.327,2.327,0,0,0-.714-1.617,5.129,5.129,0,0,0-1.932-1.3,4.161,4.161,0,0,0-1.407-.273,4.456,4.456,0,0,0-.5.042,6.3,6.3,0,0,0-1.407.357,3.71,3.71,0,0,0-2.352,2.457,7.107,7.107,0,0,0-.294,2.079,7.785,7.785,0,0,0,.4,2.478,4.158,4.158,0,0,0,1.7,2.184A4.952,4.952,0,0,0,275.352-.021Zm-.819-6.468q-1.05-.042-1.6-.084l-.273-.021A3.277,3.277,0,0,1,273-7.56a.488.488,0,0,1,.084-.126.33.33,0,0,0,.063-.084,2.022,2.022,0,0,1,.819-.525,2.92,2.92,0,0,1,1.05-.21,1.4,1.4,0,0,1,.441.063,2.9,2.9,0,0,1,1.344.882.527.527,0,0,1,.126.21.465.465,0,0,1,.021.147.354.354,0,0,1-.21.294,3.1,3.1,0,0,1-1.26.357A7.3,7.3,0,0,1,274.533-6.489ZM292-.042a4.356,4.356,0,0,0,1.323-.2,10.546,10.546,0,0,0,1.407-.578,3.593,3.593,0,0,0,1.617-1.638A5.773,5.773,0,0,0,297-5.1a6.171,6.171,0,0,0-.21-1.617,5.18,5.18,0,0,0-1.6-2.541,3.746,3.746,0,0,0-1.386-.777,6.034,6.034,0,0,0-1.7-.252,6.085,6.085,0,0,0-.861.063q-.483.084-.672.1l-.042-.084q-.042-1.113-.168-3.507a1.019,1.019,0,0,0-.346-.735,1.133,1.133,0,0,0-.788-.294,1.112,1.112,0,0,0-.714.252,1,1,0,0,0-.378.63,3.4,3.4,0,0,0-.042.557v.409l.231,3.906q.042,1.05.084,1.575l.042.84q.042.609.084,1.785.021,1.134.021,3.423a2.367,2.367,0,0,0,.042.525,1.011,1.011,0,0,0,.4.63,1.177,1.177,0,0,0,.714.231,1.143,1.143,0,0,0,.546-.147.588.588,0,0,1,.42-.063A7.3,7.3,0,0,0,292-.042Zm.609-2.2a2.134,2.134,0,0,1-.714.105,3.775,3.775,0,0,1-1.071-.168v-.273l.021-.882q0-1.323-.168-4.011v-.1a.466.466,0,0,1,.074-.273.5.5,0,0,1,.262-.168,3.81,3.81,0,0,1,.756-.147,2.5,2.5,0,0,1,.378-.021A2.966,2.966,0,0,1,293.2-8a2.377,2.377,0,0,1,.525.336,2.819,2.819,0,0,1,.882,1.575,4.4,4.4,0,0,1,.126,1.029,3.724,3.724,0,0,1-.42,1.722,1.465,1.465,0,0,1-.735.693A8.519,8.519,0,0,1,292.614-2.247ZM303.156-.021a3.771,3.771,0,0,0,2.237-.62,4.473,4.473,0,0,0,1.418-1.754l.042-.126a.883.883,0,0,0,.021-.21.881.881,0,0,0-.294-.672,1.067,1.067,0,0,0-.756-.273,1.082,1.082,0,0,0-.9.483l-.42.651a1.211,1.211,0,0,1-.84.525,3.008,3.008,0,0,1-.588.063,2.755,2.755,0,0,1-1.743-.651,2.16,2.16,0,0,1-.63-.872,4.422,4.422,0,0,1-.252-1.165q.294,0,.882.042.714.042,1.05.042a7.952,7.952,0,0,0,1.239-.084,6.048,6.048,0,0,0,2.079-.651,2.131,2.131,0,0,0,1.176-1.953,2.327,2.327,0,0,0-.714-1.617,5.129,5.129,0,0,0-1.932-1.3,4.161,4.161,0,0,0-1.407-.273,4.456,4.456,0,0,0-.5.042,6.3,6.3,0,0,0-1.407.357,3.71,3.71,0,0,0-2.352,2.457,7.107,7.107,0,0,0-.294,2.079,7.785,7.785,0,0,0,.4,2.478,4.158,4.158,0,0,0,1.7,2.184A4.952,4.952,0,0,0,303.156-.021Zm-.819-6.468q-1.05-.042-1.6-.084l-.273-.021a3.277,3.277,0,0,1,.336-.966.488.488,0,0,1,.084-.126.33.33,0,0,0,.063-.084,2.022,2.022,0,0,1,.819-.525,2.92,2.92,0,0,1,1.05-.21,1.4,1.4,0,0,1,.441.063,2.9,2.9,0,0,1,1.344.882.527.527,0,0,1,.126.21.465.465,0,0,1,.021.147.354.354,0,0,1-.21.294,3.1,3.1,0,0,1-1.26.357A7.3,7.3,0,0,1,302.337-6.489ZM312.081.042a2.923,2.923,0,0,0,1.764-.5,2.613,2.613,0,0,0,1.2-2.205,2.5,2.5,0,0,0-.021-.378,3.8,3.8,0,0,0-2.373-3.3q-1.113-.441-1.281-.5a1.136,1.136,0,0,1-.714-.777,1.181,1.181,0,0,1-.042-.273.65.65,0,0,1,.284-.546,1.222,1.222,0,0,1,.745-.21,2.672,2.672,0,0,1,.714.105.529.529,0,0,1,.315.168.988.988,0,0,0,.651.273.791.791,0,0,0,.315-.063.852.852,0,0,0,.651-.735.637.637,0,0,0,.021-.189,1.026,1.026,0,0,0-.189-.546,1.473,1.473,0,0,0-.777-.567,4.769,4.769,0,0,0-1.7-.336,3.986,3.986,0,0,0-.693.063,2.935,2.935,0,0,0-1.638.913,2.392,2.392,0,0,0-.63,1.648,2.686,2.686,0,0,0,.084.693,3.036,3.036,0,0,0,1.827,2.1l1.323.525a1.616,1.616,0,0,1,.871.756,2.19,2.19,0,0,1,.3,1.071.951.951,0,0,1-.2.609.778.778,0,0,1-.535.294,2.311,2.311,0,0,1-.357.021,2.6,2.6,0,0,1-.672-.084,1.108,1.108,0,0,1-.577-.388.987.987,0,0,1-.22-.62,1.063,1.063,0,0,0-.263-.735.872.872,0,0,0-.682-.294.937.937,0,0,0-.473.126,1.125,1.125,0,0,0-.367.336,1.115,1.115,0,0,0-.189.651,3.022,3.022,0,0,0,.861,1.911,2.538,2.538,0,0,0,1.134.735A4.346,4.346,0,0,0,312.081.042Zm8.526-.315A1.283,1.283,0,0,0,321.615-.8a.785.785,0,0,0,.21-.546.741.741,0,0,0-.063-.294.886.886,0,0,0-.367-.483,1.05,1.05,0,0,0-.578-.168,1.781,1.781,0,0,0-.441.084.5.5,0,0,1-.21.063q-.084,0-.21-.147a.654.654,0,0,1-.168-.231,6.578,6.578,0,0,1-.231-.63,9.691,9.691,0,0,1-.252-1.974l-.042-4.158.021-.189.273-.021,1.071-.168a1.186,1.186,0,0,0,.651-.273.875.875,0,0,0,.336-.672.88.88,0,0,0-.21-.6,1.044,1.044,0,0,0-.567-.325.637.637,0,0,0-.189-.021,1.806,1.806,0,0,0-.336.042l-.473.063q-.3.042-.535.063v-.21l.084-1.365.021-.546a.9.9,0,0,0-.294-.693.985.985,0,0,0-.693-.273.9.9,0,0,0-.315.042.887.887,0,0,0-.714.8q-.063.42-.1,1.344,0,.084-.063,1.092h-.5a2.766,2.766,0,0,1-.378.021,2.766,2.766,0,0,0-.378.021.952.952,0,0,0-.661.294.907.907,0,0,0-.263.651.823.823,0,0,0,.241.588.978.978,0,0,0,.62.294,3.11,3.11,0,0,0,.441.021h.861v2.016a27.687,27.687,0,0,0,.189,3.633,5.952,5.952,0,0,0,.483,1.785,3.13,3.13,0,0,0,.693.987,2.312,2.312,0,0,0,1.6.651A3.423,3.423,0,0,0,320.607-.273Zm19.4.483a1.1,1.1,0,0,0,.651-.21,1.035,1.035,0,0,0,.4-.567,3.566,3.566,0,0,0,.084-.441l.546-3.066q.819-4.011,1.155-6.846,0-.084.063-.6a3.489,3.489,0,0,1,.252-.955,1.15,1.15,0,0,0,.042-.252,1,1,0,0,0-.777-1.05.9.9,0,0,0-.315-.042,1,1,0,0,0-.819.4,1.942,1.942,0,0,0-.294.567,3.728,3.728,0,0,0-.22.945q-.053.5-.074.609-.252,2.121-.819,5.145l-.252,1.323h-.063l-.063-.105-.231-.588-.4-1.029a23.172,23.172,0,0,0-1.491-3.465,3.272,3.272,0,0,0-.378-.567,1.055,1.055,0,0,0-.819-.378,1.064,1.064,0,0,0-.63.21,1.147,1.147,0,0,0-.42.567,1.4,1.4,0,0,0-.1.378l-1.071,4.536-.084.315-.084-.21q-.126-.651-.357-1.6-.672-2.709-1.134-5.376a3.578,3.578,0,0,1-.084-.441l-.063-.42a1.045,1.045,0,0,0-.367-.567.987.987,0,0,0-.641-.231,1.1,1.1,0,0,0-.578.157,1.1,1.1,0,0,0-.409.431,1.231,1.231,0,0,0-.147.546,3.022,3.022,0,0,0,.084.693q.084.357.1.483.315,1.575.8,3.927.4,1.806,1.05,4.515.252,1.029.567,2.079a1.619,1.619,0,0,0,.231.5,1.119,1.119,0,0,0,.945.483,1.148,1.148,0,0,0,.535-.137,1.146,1.146,0,0,0,.431-.389,2.542,2.542,0,0,0,.21-.462l.189-.63.294-.987q.735-2.436,1.029-3.78l.063-.189.1.252q.8,2.142,1.974,4.914l.21.357a1.012,1.012,0,0,1,.147.357,1.029,1.029,0,0,0,.357.63A1,1,0,0,0,340.011.21ZM349.1-.063a5.327,5.327,0,0,0,2.436-.63A4.435,4.435,0,0,0,353.829-4.2a5.389,5.389,0,0,0,.063-.8,4.826,4.826,0,0,0-1.68-3.654.355.355,0,0,1-.147-.147,1.035,1.035,0,0,0-.252-.41q-.189-.2-.252-.262a2.908,2.908,0,0,0-2.142-.861,3.908,3.908,0,0,0-3.171,1.449,7.079,7.079,0,0,0-1.386,2.961,8.306,8.306,0,0,0-.189,1.575,3.639,3.639,0,0,0,.042.651A3.755,3.755,0,0,0,345.954-1.3a5.153,5.153,0,0,0,1.68.987A4.508,4.508,0,0,0,349.1-.063Zm.021-2.016a2.79,2.79,0,0,1-1.848-.714,1.613,1.613,0,0,1-.588-1.281,5.142,5.142,0,0,1,1.155-3.591,2.15,2.15,0,0,1,1.344-.693h.147a.234.234,0,0,0,.1.021l.063.147a1.019,1.019,0,0,0,.693.609.767.767,0,0,1,.294.1A3.081,3.081,0,0,1,351.9-4.788a2.587,2.587,0,0,1-.8,1.932A2.719,2.719,0,0,1,349.125-2.079Zm7.77,1.869a1.15,1.15,0,0,0,.882-.336.848.848,0,0,0,.231-.777,3.421,3.421,0,0,1-.042-.441q-.168-2.73-.231-4.074l-.021-.315a.839.839,0,0,1,.168-.5.086.086,0,0,1,.021-.063,4.1,4.1,0,0,1,1.029-1.47.823.823,0,0,1,.609-.231,3.913,3.913,0,0,1,.63.1,2.527,2.527,0,0,0,.378.042,1.173,1.173,0,0,0,.756-.252.917.917,0,0,0,.357-.693,1.15,1.15,0,0,0-.042-.252,1.231,1.231,0,0,0-1.008-.756,4.754,4.754,0,0,0-1.071-.126,3.562,3.562,0,0,0-1.722.42l-.126.063-.084-.273a1.071,1.071,0,0,0-.42-.483,1.179,1.179,0,0,0-.651-.189,1.361,1.361,0,0,0-.714.189.919.919,0,0,0-.42.5,2.529,2.529,0,0,0-.042.378l.042,3,.042,1.428.189,3.108.063,1.029a1.083,1.083,0,0,0,.252.546A1.179,1.179,0,0,0,356.895-.21Zm12.453.588a.962.962,0,0,0,.672-.9,14.61,14.61,0,0,0,.1-1.68q.021-.483.021-1.47,0-.966-.021-1.449,0-.966-.042-2.94-.063-1.785-.147-5.208a2.31,2.31,0,0,0-.021-.357,1,1,0,0,0-.336-.661,1.007,1.007,0,0,0-.693-.263.985.985,0,0,0-.693.273,1.037,1.037,0,0,0-.336.672,1.739,1.739,0,0,0-.021.315l.063,2.877v.357l-.273-.084a3.172,3.172,0,0,0-1.218-.126A4.707,4.707,0,0,0,362.4-7.455a9.848,9.848,0,0,0-.546,1.554,5.72,5.72,0,0,0-.189,1.47A5.491,5.491,0,0,0,362-2.541a3.221,3.221,0,0,0,1.89,1.995,5.148,5.148,0,0,0,.9.294,4.061,4.061,0,0,0,.987.126,3.932,3.932,0,0,0,1.953-.546l.168-.063a.845.845,0,0,0,.021.231A.955.955,0,0,0,368.3.21a1.032,1.032,0,0,0,.651.252A1.351,1.351,0,0,0,369.348.378Zm-3.57-2.6a2.723,2.723,0,0,1-1.323-.357,1.3,1.3,0,0,1-.5-.693,3.567,3.567,0,0,1-.189-1.134,2.823,2.823,0,0,1,.042-.567,5.291,5.291,0,0,1,.462-1.533,2.662,2.662,0,0,1,2.205-1.659l.231-.021a.877.877,0,0,1,.735.357.894.894,0,0,0,.4.315.264.264,0,0,1,.147.273q.042,1.176.042,1.785h.021v1.68a.362.362,0,0,1-.147.315q-.756.63-1.134.924A1.543,1.543,0,0,1,365.778-2.226ZM373.884.126a1.143,1.143,0,0,0,.714-.242,1.046,1.046,0,0,0,.4-.62,3.8,3.8,0,0,0,.042-.672l-.084-1.386a1.968,1.968,0,0,1-.01-.346q.01-.158.01-.284l1.05-.231a5.574,5.574,0,0,0,3.885-2.982.82.82,0,0,1,.084-.147,5.4,5.4,0,0,0,.651-2.541q0-.21-.042-.63a3.981,3.981,0,0,0-1.848-2.982,6.872,6.872,0,0,0-3.7-1.134,5.518,5.518,0,0,0-.819.063,5.909,5.909,0,0,0-1.113.231,1.167,1.167,0,0,0-.588.41,1.049,1.049,0,0,0-.21.641,1.172,1.172,0,0,0,.294.756.476.476,0,0,1,.126.315l-.105,5.922-.021.21a1.2,1.2,0,0,0-.578.441,1.1,1.1,0,0,0-.2.63,1.142,1.142,0,0,0,.21.662,1.5,1.5,0,0,0,.609.493l.126,2.1a1.749,1.749,0,0,0,.063.462,1.256,1.256,0,0,0,.4.609A.977.977,0,0,0,373.884.126ZM375-11.8l.651.063a4.426,4.426,0,0,1,1.911.756,1.688,1.688,0,0,1,.735,1.134,5.632,5.632,0,0,1,.042.567A2.824,2.824,0,0,1,378.042-8q-.273.462-.609.987a3.044,3.044,0,0,1-.714.651,4.757,4.757,0,0,1-1.68.588.048.048,0,0,1-.053.01.233.233,0,0,0-.073-.01ZM383.838-.21a1.15,1.15,0,0,0,.882-.336.848.848,0,0,0,.231-.777,3.421,3.421,0,0,1-.042-.441q-.168-2.73-.231-4.074l-.021-.315a.839.839,0,0,1,.168-.5.086.086,0,0,1,.021-.063,4.1,4.1,0,0,1,1.029-1.47.823.823,0,0,1,.609-.231,3.913,3.913,0,0,1,.63.1,2.527,2.527,0,0,0,.378.042,1.173,1.173,0,0,0,.756-.252.917.917,0,0,0,.357-.693,1.15,1.15,0,0,0-.042-.252,1.231,1.231,0,0,0-1.008-.756,4.754,4.754,0,0,0-1.071-.126,3.562,3.562,0,0,0-1.722.42l-.126.063-.084-.273a1.071,1.071,0,0,0-.42-.483,1.179,1.179,0,0,0-.651-.189,1.361,1.361,0,0,0-.714.189.919.919,0,0,0-.42.5,2.529,2.529,0,0,0-.042.378l.042,3,.042,1.428.189,3.108.063,1.029a1.083,1.083,0,0,0,.252.546A1.179,1.179,0,0,0,383.838-.21Zm9.66.189a3.771,3.771,0,0,0,2.237-.62,4.473,4.473,0,0,0,1.418-1.754l.042-.126a.883.883,0,0,0,.021-.21.881.881,0,0,0-.294-.672,1.067,1.067,0,0,0-.756-.273,1.082,1.082,0,0,0-.9.483l-.42.651a1.211,1.211,0,0,1-.84.525,3.008,3.008,0,0,1-.588.063,2.755,2.755,0,0,1-1.743-.651,2.16,2.16,0,0,1-.63-.872,4.422,4.422,0,0,1-.252-1.165q.294,0,.882.042.714.042,1.05.042a7.952,7.952,0,0,0,1.239-.084,6.048,6.048,0,0,0,2.079-.651,2.131,2.131,0,0,0,1.176-1.953,2.327,2.327,0,0,0-.714-1.617,5.129,5.129,0,0,0-1.932-1.3,4.161,4.161,0,0,0-1.407-.273,4.456,4.456,0,0,0-.5.042,6.3,6.3,0,0,0-1.407.357A3.71,3.71,0,0,0,388.9-7.581a7.107,7.107,0,0,0-.294,2.079,7.785,7.785,0,0,0,.4,2.478A4.158,4.158,0,0,0,390.7-.84,4.952,4.952,0,0,0,393.5-.021Zm-.819-6.468q-1.05-.042-1.6-.084l-.273-.021a3.277,3.277,0,0,1,.336-.966.488.488,0,0,1,.084-.126.33.33,0,0,0,.063-.084,2.022,2.022,0,0,1,.819-.525,2.92,2.92,0,0,1,1.05-.21,1.4,1.4,0,0,1,.441.063,2.9,2.9,0,0,1,1.344.882.527.527,0,0,1,.126.21.465.465,0,0,1,.021.147.354.354,0,0,1-.21.294,3.1,3.1,0,0,1-1.26.357A7.3,7.3,0,0,1,392.679-6.489ZM402.423.042a2.923,2.923,0,0,0,1.764-.5,2.613,2.613,0,0,0,1.2-2.205,2.5,2.5,0,0,0-.021-.378,3.8,3.8,0,0,0-2.373-3.3q-1.113-.441-1.281-.5a1.136,1.136,0,0,1-.714-.777,1.181,1.181,0,0,1-.042-.273.65.65,0,0,1,.284-.546,1.222,1.222,0,0,1,.745-.21,2.672,2.672,0,0,1,.714.105.529.529,0,0,1,.315.168.988.988,0,0,0,.651.273.791.791,0,0,0,.315-.063.852.852,0,0,0,.651-.735.637.637,0,0,0,.021-.189,1.026,1.026,0,0,0-.189-.546,1.473,1.473,0,0,0-.777-.567,4.769,4.769,0,0,0-1.7-.336,3.986,3.986,0,0,0-.693.063,2.935,2.935,0,0,0-1.638.913,2.392,2.392,0,0,0-.63,1.648,2.686,2.686,0,0,0,.084.693,3.036,3.036,0,0,0,1.827,2.1l1.323.525a1.616,1.616,0,0,1,.871.756,2.19,2.19,0,0,1,.3,1.071.951.951,0,0,1-.2.609.778.778,0,0,1-.535.294,2.311,2.311,0,0,1-.357.021,2.6,2.6,0,0,1-.672-.084,1.108,1.108,0,0,1-.577-.388.987.987,0,0,1-.22-.62,1.063,1.063,0,0,0-.263-.735.872.872,0,0,0-.682-.294.937.937,0,0,0-.473.126,1.125,1.125,0,0,0-.367.336,1.115,1.115,0,0,0-.189.651,3.022,3.022,0,0,0,.861,1.911,2.538,2.538,0,0,0,1.134.735A4.346,4.346,0,0,0,402.423.042Zm7.749,0a2.923,2.923,0,0,0,1.764-.5,2.613,2.613,0,0,0,1.2-2.205,2.5,2.5,0,0,0-.021-.378,3.8,3.8,0,0,0-2.373-3.3q-1.113-.441-1.281-.5a1.136,1.136,0,0,1-.714-.777A1.181,1.181,0,0,1,408.7-7.9a.65.65,0,0,1,.284-.546,1.222,1.222,0,0,1,.745-.21,2.672,2.672,0,0,1,.714.105.529.529,0,0,1,.315.168.988.988,0,0,0,.651.273.791.791,0,0,0,.315-.063.852.852,0,0,0,.651-.735.637.637,0,0,0,.021-.189,1.026,1.026,0,0,0-.189-.546,1.473,1.473,0,0,0-.777-.567,4.769,4.769,0,0,0-1.7-.336,3.986,3.986,0,0,0-.693.063,2.935,2.935,0,0,0-1.638.913,2.392,2.392,0,0,0-.63,1.648,2.686,2.686,0,0,0,.084.693,3.036,3.036,0,0,0,1.827,2.1L410-4.6a1.616,1.616,0,0,1,.871.756,2.19,2.19,0,0,1,.3,1.071.951.951,0,0,1-.2.609.778.778,0,0,1-.535.294,2.311,2.311,0,0,1-.357.021,2.6,2.6,0,0,1-.672-.084,1.108,1.108,0,0,1-.577-.388.987.987,0,0,1-.22-.62,1.063,1.063,0,0,0-.263-.735.872.872,0,0,0-.682-.294.937.937,0,0,0-.473.126,1.125,1.125,0,0,0-.367.336,1.115,1.115,0,0,0-.189.651,3.022,3.022,0,0,0,.861,1.911,2.538,2.538,0,0,0,1.134.735A4.346,4.346,0,0,0,410.172.042Zm17.136-.315A1.283,1.283,0,0,0,428.316-.8a.785.785,0,0,0,.21-.546.741.741,0,0,0-.063-.294.886.886,0,0,0-.367-.483,1.05,1.05,0,0,0-.578-.168,1.781,1.781,0,0,0-.441.084.5.5,0,0,1-.21.063q-.084,0-.21-.147a.654.654,0,0,1-.168-.231,6.578,6.578,0,0,1-.231-.63,9.691,9.691,0,0,1-.252-1.974l-.042-4.158.021-.189.273-.021,1.071-.168a1.186,1.186,0,0,0,.651-.273.875.875,0,0,0,.336-.672.88.88,0,0,0-.21-.6,1.044,1.044,0,0,0-.567-.325.637.637,0,0,0-.189-.021,1.806,1.806,0,0,0-.336.042l-.473.063q-.3.042-.535.063v-.21l.084-1.365.021-.546a.9.9,0,0,0-.294-.693.985.985,0,0,0-.693-.273.9.9,0,0,0-.315.042.887.887,0,0,0-.714.8q-.063.42-.1,1.344,0,.084-.063,1.092h-.5a2.766,2.766,0,0,1-.378.021,2.766,2.766,0,0,0-.378.021.952.952,0,0,0-.661.294.907.907,0,0,0-.263.651.823.823,0,0,0,.241.588.978.978,0,0,0,.62.294,3.11,3.11,0,0,0,.441.021h.861v2.016a27.687,27.687,0,0,0,.189,3.633,5.952,5.952,0,0,0,.483,1.785,3.13,3.13,0,0,0,.693.987,2.312,2.312,0,0,0,1.6.651A3.423,3.423,0,0,0,427.308-.273Zm4.242.21a.987.987,0,0,0,.788-.357.976.976,0,0,0,.22-.84l-.042-.189-.126-2.31a.4.4,0,0,1,.021-.126.815.815,0,0,1,.042-.105q.021-.1.063-.242a1.793,1.793,0,0,0,.063-.325l.063-.546q.021-.168.053-.493t.073-.557A2.687,2.687,0,0,1,433.881-8a.9.9,0,0,1,.441-.231,6.085,6.085,0,0,1,.861-.063,1.544,1.544,0,0,1,1.638,1.155l.063.294a9.489,9.489,0,0,1,.231,2.163q0,.378-.042,1.092-.084,1.386-.084,2.121a.972.972,0,0,0,.294.714A.972.972,0,0,0,438-.462a.987.987,0,0,0,.641-.231,1.056,1.056,0,0,0,.367-.609,1.723,1.723,0,0,0,.042-.441l.042-.714q.042-.924.084-1.386.021-.273.021-.819a11.908,11.908,0,0,0-.336-2.856,3.587,3.587,0,0,0-2.835-2.772,2.946,2.946,0,0,0-.861-.105,6.085,6.085,0,0,0-.861.063,3.272,3.272,0,0,0-1.764.735l-.252.21a.591.591,0,0,0-.01-.115.224.224,0,0,1,.01-.116l.063-4.158a2.229,2.229,0,0,1,.021-.315,2.229,2.229,0,0,0,.021-.315,1.1,1.1,0,0,0-.3-.735.938.938,0,0,0-.7-.294,1.04,1.04,0,0,0-.63.2.918.918,0,0,0-.357.535,2.269,2.269,0,0,0-.105.63q-.084,2.856-.084,4.284,0,1.806.084,5.376l.147,3a4.864,4.864,0,0,0,.126.651.971.971,0,0,0,.378.5A1.046,1.046,0,0,0,431.55-.063Zm13.8.042a3.771,3.771,0,0,0,2.237-.62A4.473,4.473,0,0,0,449-2.394l.042-.126a.883.883,0,0,0,.021-.21.881.881,0,0,0-.294-.672,1.067,1.067,0,0,0-.756-.273,1.082,1.082,0,0,0-.9.483l-.42.651a1.211,1.211,0,0,1-.84.525,3.008,3.008,0,0,1-.588.063A2.755,2.755,0,0,1,443.52-2.6a2.16,2.16,0,0,1-.63-.872,4.422,4.422,0,0,1-.252-1.165q.294,0,.882.042.714.042,1.05.042a7.952,7.952,0,0,0,1.239-.084,6.048,6.048,0,0,0,2.079-.651,2.131,2.131,0,0,0,1.176-1.953,2.327,2.327,0,0,0-.714-1.617,5.129,5.129,0,0,0-1.932-1.3,4.161,4.161,0,0,0-1.407-.273,4.456,4.456,0,0,0-.5.042,6.3,6.3,0,0,0-1.407.357,3.71,3.71,0,0,0-2.352,2.457,7.107,7.107,0,0,0-.294,2.079,7.785,7.785,0,0,0,.4,2.478,4.158,4.158,0,0,0,1.7,2.184A4.952,4.952,0,0,0,445.347-.021Zm-.819-6.468q-1.05-.042-1.6-.084l-.273-.021a3.277,3.277,0,0,1,.336-.966.488.488,0,0,1,.084-.126.33.33,0,0,0,.063-.084,2.022,2.022,0,0,1,.819-.525,2.92,2.92,0,0,1,1.05-.21,1.4,1.4,0,0,1,.441.063,2.9,2.9,0,0,1,1.344.882.527.527,0,0,1,.126.21.465.465,0,0,1,.021.147.354.354,0,0,1-.21.294,3.1,3.1,0,0,1-1.26.357A7.3,7.3,0,0,1,444.528-6.489ZM462.945-.147a.954.954,0,0,0,.672-.252,1.016,1.016,0,0,0,.315-.672l.147-2.058q.042-.8.042-1.2a12.086,12.086,0,0,0-.357-2.982,5,5,0,0,0-1.26-2.331,2.438,2.438,0,0,0-1.218-.63,4.979,4.979,0,0,0-.777-.063A2.945,2.945,0,0,0,458.115-9.2l-.21.252-.084-.126a2.288,2.288,0,0,0-.892-.945,2.41,2.41,0,0,0-1.208-.315,2.278,2.278,0,0,0-1.407.441q-.084.063-.525.441l-.4.336-.168.21-.042-.042q0-.1-.01-.262a2.882,2.882,0,0,0-.053-.368.856.856,0,0,0-.346-.546,1.049,1.049,0,0,0-.641-.21.926.926,0,0,0-.514.158.891.891,0,0,0-.346.409,1.512,1.512,0,0,0-.1.546,7.758,7.758,0,0,0,.021.945l.084.966q.042.357.084.987l.231,3.927q0,.147.021.515t.063.662a.878.878,0,0,0,.315.588.947.947,0,0,0,.63.231,1,1,0,0,0,.651-.22A.923.923,0,0,0,453.6-1.2a1.835,1.835,0,0,0,.042-.462,20.929,20.929,0,0,1,.126-2.646,12.639,12.639,0,0,1,.651-2.793,2.553,2.553,0,0,1,1.071-1.176.559.559,0,0,1,.252-.063.39.39,0,0,1,.357.252,3.19,3.19,0,0,1,.189.588,14.252,14.252,0,0,1,.42,3q.021.8.021,2.415a2.238,2.238,0,0,0,.042.5A.942.942,0,0,0,457.1-1a1.006,1.006,0,0,0,.6.242,1.049,1.049,0,0,0,.641-.21.954.954,0,0,0,.368-.567,1.87,1.87,0,0,0,.042-.357l-.021-2.247a13.36,13.36,0,0,1,.1-1.806,3.926,3.926,0,0,1,.777-1.953,1.236,1.236,0,0,1,1.008-.462.8.8,0,0,1,.609.273,2.483,2.483,0,0,1,.525.966,8.886,8.886,0,0,1,.378,2.751q0,.4-.042,1.239l-.126,1.743-.021.168a1.059,1.059,0,0,0,.294.766A.955.955,0,0,0,462.945-.147Zm7.749.126a3.771,3.771,0,0,0,2.237-.62,4.473,4.473,0,0,0,1.418-1.754l.042-.126a.883.883,0,0,0,.021-.21.881.881,0,0,0-.294-.672,1.067,1.067,0,0,0-.756-.273,1.082,1.082,0,0,0-.9.483l-.42.651a1.211,1.211,0,0,1-.84.525,3.008,3.008,0,0,1-.588.063,2.755,2.755,0,0,1-1.743-.651,2.16,2.16,0,0,1-.63-.872,4.422,4.422,0,0,1-.252-1.165q.294,0,.882.042.714.042,1.05.042a7.952,7.952,0,0,0,1.239-.084,6.048,6.048,0,0,0,2.079-.651,2.131,2.131,0,0,0,1.176-1.953,2.327,2.327,0,0,0-.714-1.617,5.129,5.129,0,0,0-1.932-1.3,4.161,4.161,0,0,0-1.407-.273,4.456,4.456,0,0,0-.5.042,6.3,6.3,0,0,0-1.407.357A3.71,3.71,0,0,0,466.1-7.581,7.107,7.107,0,0,0,465.8-5.5a7.785,7.785,0,0,0,.4,2.478A4.158,4.158,0,0,0,467.9-.84,4.952,4.952,0,0,0,470.694-.021Zm-.819-6.468q-1.05-.042-1.6-.084l-.273-.021a3.277,3.277,0,0,1,.336-.966.488.488,0,0,1,.084-.126.33.33,0,0,0,.063-.084,2.022,2.022,0,0,1,.819-.525,2.92,2.92,0,0,1,1.05-.21,1.4,1.4,0,0,1,.441.063,2.9,2.9,0,0,1,1.344.882.527.527,0,0,1,.126.21.465.465,0,0,1,.021.147.354.354,0,0,1-.21.294,3.1,3.1,0,0,1-1.26.357A7.3,7.3,0,0,1,469.875-6.489ZM476.784,0a1.066,1.066,0,0,0,.767-.315,1.038,1.038,0,0,0,.326-.777,1.111,1.111,0,0,0-.3-.788A1,1,0,0,0,476.8-2.2,1.1,1.1,0,0,0,476-1.88a1.1,1.1,0,0,0-.326.809A1.015,1.015,0,0,0,476-.315,1.091,1.091,0,0,0,476.784,0Z" transform="translate(478.75 2605.163)" fill="#162c35"/><path d="M44,6.059a21.048,21.048,0,0,0-6.651,1.736,1.131,1.131,0,0,1-1.672-.959,3.843,3.843,0,0,1,.361-2.009A64.4,64.4,0,0,0,.6,9.573c-.452.2-.85-.426-.4-.679A55.181,55.181,0,0,1,36.774,2.961a17.659,17.659,0,0,0,.6-2.375.711.711,0,0,1,1.1-.479,1.157,1.157,0,0,1,.554.122A37.742,37.742,0,0,1,44.8,4.117C45.672,4.788,44.854,5.978,44,6.059Z" transform="matrix(-0.809, 0.588, -0.588, -0.809, 737.947, 2643.274)" fill="#222"/></g></svg>