<svg xmlns="http://www.w3.org/2000/svg" xmlns:xlink="http://www.w3.org/1999/xlink" width="149" height="102" viewBox="0 0 149 102"><defs><clipPath id="a"><rect width="26" height="6" fill="none"/></clipPath></defs><g transform="translate(-363 -17213)"><g transform="translate(363 17213)" fill="none" stroke="#363636" stroke-width="1"><rect width="149" height="102" stroke="none"/><rect x="0.5" y="0.5" width="148" height="101" fill="none"/></g><g transform="translate(363 17229)" fill="none" stroke="#fff" stroke-width="1" opacity="0.102"><rect width="149" height="1" stroke="none"/><rect x="0.5" y="0.5" width="148" fill="none"/></g><g transform="translate(-2.966)" opacity="0.278"><g transform="translate(409.966 17246.293)" fill="none" stroke="#fff" stroke-miterlimit="10" stroke-width="1"><rect width="17.04" height="25.52" stroke="none"/><rect x="0.5" y="0.5" width="16.04" height="24.52" fill="none"/></g><g transform="translate(433.184 17246.293)" fill="none" stroke="#fff" stroke-miterlimit="10" stroke-width="1"><rect width="38.25" height="25.52" stroke="none"/><rect x="0.5" y="0.5" width="37.25" height="24.52" fill="none"/></g><g transform="translate(453.402 17277.059)" fill="none" stroke="#fff" stroke-miterlimit="10" stroke-width="1"><rect width="18.036" height="16.975" stroke="none"/><rect x="0.5" y="0.5" width="17.036" height="15.975" fill="none"/></g><g transform="translate(409.966 17277.059)" fill="none" stroke="#fff" stroke-miterlimit="10" stroke-width="1"><rect width="37.25" height="16.975" stroke="none"/><rect x="0.5" y="0.5" width="36.25" height="15.975" fill="none"/></g></g><g transform="translate(374 17219)" opacity="0.505" clip-path="url(#a)"><g transform="translate(-804 -16984)"><circle cx="2.5" cy="2.5" r="2.5" transform="translate(804 16984)" fill="#fff" opacity="0.212"/></g><g transform="translate(-795 -16984)"><circle cx="2.5" cy="2.5" r="2.5" transform="translate(804 16984)" fill="#fff" opacity="0.212"/></g><g transform="translate(-786 -16984)"><circle cx="2.5" cy="2.5" r="2.5" transform="translate(804 16984)" fill="#fff" opacity="0.212"/></g></g></g></svg>