<svg xmlns="http://www.w3.org/2000/svg" xmlns:xlink="http://www.w3.org/1999/xlink" width="149" height="102" viewBox="0 0 149 102"><defs><clipPath id="a"><rect width="26" height="6" fill="none"/></clipPath></defs><g transform="translate(-363 -17213)"><g transform="translate(363 17213)" fill="none" stroke="#363636" stroke-width="1"><rect width="149" height="102" stroke="none"/><rect x="0.5" y="0.5" width="148" height="101" fill="none"/></g><g transform="translate(363 17229)" fill="none" stroke="#fff" stroke-width="1" opacity="0.102"><rect width="149" height="1" stroke="none"/><rect x="0.5" y="0.5" width="148" fill="none"/></g><g transform="translate(395 17246.262)" opacity="0.218"><g transform="translate(4)" fill="none" stroke="#fff" stroke-miterlimit="10" stroke-width="1"><rect width="21" height="11.66" stroke="none"/><rect x="0.5" y="0.5" width="20" height="10.66" fill="none"/></g><g transform="translate(31.574)" fill="none" stroke="#fff" stroke-miterlimit="10" stroke-width="1"><rect width="21" height="33.969" stroke="none"/><rect x="0.5" y="0.5" width="20" height="32.969" fill="none"/></g><g transform="translate(59.149)" fill="none" stroke="#fff" stroke-miterlimit="10" stroke-width="1"><rect width="21" height="17.745" stroke="none"/><rect x="0.5" y="0.5" width="20" height="16.745" fill="none"/></g><g transform="translate(59.149 23.66)" fill="none" stroke="#fff" stroke-miterlimit="10" stroke-width="1"><rect width="21" height="23.66" stroke="none"/><rect x="0.5" y="0.5" width="20" height="22.66" fill="none"/></g><g transform="translate(31.574 39.884)" fill="none" stroke="#fff" stroke-miterlimit="10" stroke-width="1"><rect width="21" height="10.89" stroke="none"/><rect x="0.5" y="0.5" width="20" height="9.89" fill="none"/></g><g transform="translate(4 17.575)" fill="none" stroke="#fff" stroke-miterlimit="10" stroke-width="1"><rect width="21" height="27.309" stroke="none"/><rect x="0.5" y="0.5" width="20" height="26.309" fill="none"/></g></g><g transform="translate(371 17219)" opacity="0.505" clip-path="url(#a)"><g transform="translate(-804 -16984)"><circle cx="2.5" cy="2.5" r="2.5" transform="translate(804 16984)" fill="#fff" opacity="0.212"/></g><g transform="translate(-795 -16984)"><circle cx="2.5" cy="2.5" r="2.5" transform="translate(804 16984)" fill="#fff" opacity="0.212"/></g><g transform="translate(-786 -16984)"><circle cx="2.5" cy="2.5" r="2.5" transform="translate(804 16984)" fill="#fff" opacity="0.212"/></g></g></g></svg>