<svg xmlns="http://www.w3.org/2000/svg" width="149" height="102" viewBox="0 0 149 102"><g transform="translate(-363 -17213)"><g transform="translate(405.484 17250.35)" opacity="0.332"><g transform="translate(58.516 -0.349) rotate(90)" fill="none" stroke="#fff" stroke-miterlimit="10" stroke-width="1" opacity="0.568"><rect width="9" height="50" stroke="none"/><rect x="0.5" y="0.5" width="8" height="49" fill="none"/></g><g transform="translate(64.516 7.651) rotate(90)" fill="none" stroke="#fff" stroke-miterlimit="10" stroke-width="1" opacity="0.568"><rect width="38" height="65" stroke="none"/><rect x="0.5" y="0.5" width="37" height="64" fill="none"/></g></g><g transform="translate(363 17213)" fill="none" stroke="#363636" stroke-width="1"><rect width="149" height="102" stroke="none"/><rect x="0.5" y="0.5" width="148" height="101" fill="none"/></g><g transform="translate(363 17229)" fill="none" stroke="#fff" stroke-width="1" opacity="0.102"><rect width="149" height="1" stroke="none"/><rect x="0.5" y="0.5" width="148" fill="none"/></g><g transform="translate(398.096 17215.256)"><rect width="10" height="4" rx="1" transform="translate(14.904 4.745)" fill="#2e2e2e"/><rect width="10" height="4" rx="1" transform="translate(-0.096 4.745)" fill="#2e2e2e"/><rect width="10" height="4" rx="1" transform="translate(55.904 4.745)" fill="#2e2e2e"/><rect width="10" height="4" rx="1" transform="translate(70.904 4.745)" fill="#2e2e2e"/></g></g></svg>