<svg xmlns="http://www.w3.org/2000/svg" width="38.838" height="38.838" viewBox="0 0 38.838 38.838"><path d="M19.419,0A19.419,19.419,0,1,0,38.838,19.419,19.419,19.419,0,0,0,19.419,0Zm0,37.544A18.124,18.124,0,1,1,37.544,19.419,18.125,18.125,0,0,1,19.419,37.544Zm0,0" transform="translate(0 0)" fill="#fff"/><path d="M165.593,119.766h-4.531v-7.12a.647.647,0,0,0-1.186-.359l-7.768,11.651a.647.647,0,0,0,.539,1.007h4.531v7.12a.647.647,0,0,0,1.186.359l7.768-11.651a.647.647,0,0,0-.539-1.007Zm-7.12,10.163V124.3a.647.647,0,0,0-.647-.647h-3.969l5.91-8.868v5.632a.647.647,0,0,0,.647.647h3.969Zm0,0" transform="translate(-139.701 -102.936)" fill="#fff"/></svg>