<svg xmlns="http://www.w3.org/2000/svg" width="52" height="19" viewBox="0 0 52 19"><g transform="translate(151 -2869)"><rect width="52" height="19" rx="9.5" transform="translate(-151 2869)" fill="#fff"/><path d="M-14.46,0h1.944V-2.9h3.192V-4.5h-3.192V-6.768h3.192V-8.4H-14.46ZM-.408-5.364A2.918,2.918,0,0,0-3.42-8.4H-7V0h1.944V-2.328h1.02L-2.712,0H-.5L-1.98-2.664A2.925,2.925,0,0,0-.408-5.364ZM-5.052-6.816H-3.72A1.355,1.355,0,0,1-2.376-5.364,1.355,1.355,0,0,1-3.72-3.912H-5.052ZM1.776,0H6.912V-1.56H3.72V-3.408H6.912V-4.932H3.72V-6.84H6.912V-8.4H1.776ZM9.42,0h5.136V-1.56H11.364V-3.408h3.192V-4.932H11.364V-6.84h3.192V-8.4H9.42Z" transform="translate(-124 2882)"/></g></svg>