<svg xmlns="http://www.w3.org/2000/svg" width="79" height="71.6" viewBox="0 0 79 71.6"><path d="M107.671,96.806h11.618l-5.852-15.662Zm9.466-25.215L133.23,114.62H126l-4.045-10.757H105l-4.045,10.757H93.73l16.179-43.029ZM96.914,89.749l-2.84,7.4-11.1-11.1L64.987,103.862,59.91,98.785,78.24,80.8A67.3,67.3,0,0,1,67.483,64.534h7.229A56.486,56.486,0,0,0,82.973,76.5,53.745,53.745,0,0,0,94.419,57.305H54.23V50.077H79.445V43.02H86.5v7.057h25.215v7.229H101.131A63.142,63.142,0,0,1,87.878,80.627l-.172.172Z" transform="translate(-54.23 -43.02)" fill="#008fff" fill-rule="evenodd"/></svg>