<svg height="175.004" viewBox="0 0 305.573 175.004" width="305.573" xmlns="http://www.w3.org/2000/svg" xmlns:xlink="http://www.w3.org/1999/xlink"><linearGradient id="a" gradientUnits="objectBoundingBox" x1=".5" x2=".5" y1=".387" y2=".948"><stop offset="0" stop-color="#262729"/><stop offset="1" stop-color="#262729" stop-opacity="0"/></linearGradient><linearGradient id="b" xlink:href="#a" y1=".613" y2=".052"/><path d="m7.6 0h94.12v-23.892h-58.1c2.353-8.507 5.973-12.489 16.471-18.281l18.281-9.774c15.928-8.326 24.435-21.539 24.435-37.467 0-22.625-16.833-36.381-45.069-36.381-28.6 0-47.422 17.376-47.422 43.983h29.866c0-13.756 6.335-21.358 17.738-21.358 8.869 0 14.842 5.973 14.842 14.842q0 12.489-13.575 19.548l-19.729 10.317c-22.625 11.763-31.858 28.779-31.858 58.463zm132.494 1.81a17.806 17.806 0 0 0 17.919-17.738 17.692 17.692 0 0 0 -17.919-17.738 17.692 17.692 0 0 0 -17.919 17.738 17.806 17.806 0 0 0 17.919 17.738zm82.536.9c28.96 0 47.784-15.385 47.784-37.648 0-15.385-9.412-26.426-24.8-29.322 15.023-4.163 22.625-13.937 22.625-27.331 0-21-17.738-34.209-44.345-34.209-29.5 0-47.241 15.566-47.241 39.1h28.96c0-10.86 6.7-17.376 17.557-17.376 9.412 0 15.747 5.611 15.747 13.937 0 10.136-5.792 15.023-17.376 15.023h-12.486v22.444h12.308c12.67 0 19.367 5.43 19.367 16.471 0 9.593-6.878 15.928-17.557 15.928-12.489 0-19.729-7.24-19.729-20.272h-29.5c-.003 27.694 17.192 43.26 48.686 43.26z" fill="none" stroke="#fff" stroke-width="2" transform="translate(14.745 158.372)"/><path d="m0 0h154.522v112.097h-154.522z" fill="url(#a)" transform="matrix(0 1 -1 0 305.573 20.482)"/><path d="m0 0h154.523v65.672h-154.523z" fill="url(#b)" transform="matrix(0 1 -1 0 65.672 20.482)"/><g fill="#fff" transform="translate(243.578)"><path d="m30.216 0a30.216 30.216 0 1 0 30.216 30.216 30.216 30.216 0 0 0 -30.216-30.216zm0 58.418a28.2 28.2 0 1 1 28.2-28.2 28.2 28.2 0 0 1 -28.2 28.2zm0 0"/><path d="m173.151 124.085h-7.051v-11.079a1.007 1.007 0 0 0 -1.845-.559l-12.086 18.13a1.007 1.007 0 0 0 .838 1.566h7.05v11.079a1.007 1.007 0 0 0 1.845.559l12.086-18.13a1.007 1.007 0 0 0 -.838-1.566zm-11.079 15.815v-8.763a1.007 1.007 0 0 0 -1.007-1.007h-6.175l9.2-13.8v8.763a1.007 1.007 0 0 0 1.007 1.007h6.175zm0 0" transform="translate(-132.863 -97.898)"/></g><rect fill="#6433ff" height="21" rx="2" width="22" x="115.847" y="8.778"/><rect fill="#6433ff" height="21" rx="2" width="22" x="140.847" y="8.778"/><rect fill="#6433ff" height="21" rx="2" width="22" x="165.847" y="8.778"/><g fill="#fff"><path d="m.884 0h2.016v-5.889l3.158 5.889h2.158v-9.1h-2.016v5.889l-3.158-5.889h-2.158z" transform="translate(122.465 23.405)"/><path d="m.884 0h5.564v-1.69h-3.458v-2h3.458v-1.653h-3.458v-2.067h3.458v-1.69h-5.564z" transform="translate(147.847 23.778)"/><path d="m3.172 0h1.716l1.807-5.72 1.805 5.72h1.716l3.211-9.1h-2.21l-1.9 6.045-1.803-6.045h-1.638l-1.807 6.045-1.898-6.045h-2.21z" transform="translate(170.19 24.184)"/></g></svg>