<svg xmlns="http://www.w3.org/2000/svg" width="72" height="21" viewBox="0 0 72 21"><g transform="translate(-1052 -19577)"><rect width="22" height="21" rx="2" transform="translate(1052 19577)" fill="#4e55ff"/><rect width="22" height="21" rx="2" transform="translate(1077 19577)" fill="#4e55ff"/><rect width="22" height="21" rx="2" transform="translate(1102 19577)" fill="#4e55ff"/><path d="M.884,0H2.9V-5.889L6.058,0H8.216V-9.1H6.2v5.889L3.042-9.1H.884Z" transform="translate(1058.618 19591.627)" fill="#fff"/><path d="M.884,0H6.448V-1.69H2.99v-2H6.448V-5.343H2.99V-7.41H6.448V-9.1H.884Z" transform="translate(1084 19592)" fill="#fff"/><path d="M3.172,0H4.888L6.695-5.72,8.5,0h1.716l3.211-9.1h-2.21l-1.9,6.045L7.514-9.1H5.876L4.069-3.055,2.171-9.1H-.039Z" transform="translate(1106.343 19592.406)" fill="#fff"/></g></svg>