<svg xmlns="http://www.w3.org/2000/svg" xmlns:xlink="http://www.w3.org/1999/xlink" width="312.228" height="101.061" viewBox="0 0 312.228 101.061"><defs><filter id="a" x="0" y="0" width="312.228" height="101.061" filterUnits="userSpaceOnUse"><feOffset dy="5" input="SourceAlpha"/><feGaussianBlur stdDeviation="10" result="b"/><feFlood flood-opacity="0.078"/><feComposite operator="in" in2="b"/><feComposite in="SourceGraphic"/></filter></defs><g transform="translate(30 25)"><g transform="translate(0 0)"><g transform="matrix(1, 0, 0, 1, -30, -25)" filter="url(#a)"><rect width="252.228" height="41.06" rx="20.53" transform="translate(30 25)" fill="#fff"/></g></g><g transform="translate(19.799 11.994)"><path d="M596.3,182.609a8.3,8.3,0,1,0-8.3-8.3A8.3,8.3,0,0,0,596.3,182.609Z" transform="translate(-588 -166)" fill="#242424" fill-rule="evenodd"/><rect width="8.997" height="1.384" rx="0.692" transform="translate(5.977 11.192) rotate(-48)" fill="#fff"/><rect width="5.536" height="1.384" rx="0.692" transform="translate(3.816 7.383) rotate(42)" fill="#fff"/></g><path d="M6.648-.25a4.791,4.791,0,0,1-1.992.4,4.778,4.778,0,0,1-2-.4A3.275,3.275,0,0,1,1.254-1.437a3.183,3.183,0,0,1-.52-1.8,3.056,3.056,0,0,1,.512-1.766,3.161,3.161,0,0,1,1.41-1.133A2.8,2.8,0,0,1,1.648-7.1a2.44,2.44,0,0,1-.367-1.316,2.594,2.594,0,0,1,.953-2.078,3.625,3.625,0,0,1,2.422-.8,3.563,3.563,0,0,1,2.395.809A2.6,2.6,0,0,1,8-8.414,2.48,2.48,0,0,1,7.641-7.1a2.776,2.776,0,0,1-.984.957A3.252,3.252,0,0,1,8.055-5,3.026,3.026,0,0,1,8.57-3.242a3.183,3.183,0,0,1-.52,1.8A3.306,3.306,0,0,1,6.648-.25ZM4.656-6.7a1.683,1.683,0,0,0,1.2-.469,1.519,1.519,0,0,0,.5-1.148,1.479,1.479,0,0,0-.492-1.129,1.7,1.7,0,0,0-1.2-.457,1.713,1.713,0,0,0-1.211.457,1.479,1.479,0,0,0-.492,1.129A1.521,1.521,0,0,0,3.445-7.16,1.7,1.7,0,0,0,4.656-6.7Zm0,5.219a2.155,2.155,0,0,0,1.5-.543,1.838,1.838,0,0,0,.6-1.434,1.793,1.793,0,0,0-.6-1.414,2.184,2.184,0,0,0-1.5-.531,2.206,2.206,0,0,0-1.516.531,1.793,1.793,0,0,0-.6,1.414,1.835,1.835,0,0,0,.6,1.438A2.186,2.186,0,0,0,4.656-1.477Zm14.8-9.664a3.458,3.458,0,0,1,1.813.473,3.151,3.151,0,0,1,1.2,1.27,3.771,3.771,0,0,1,.414,1.766,3.461,3.461,0,0,1-.941,2.492,3.284,3.284,0,0,1-2.488.984H16.9V0H15.031V-11.141Zm-.3,5.391a1.863,1.863,0,0,0,1.414-.516,1.93,1.93,0,0,0,.492-1.391,1.931,1.931,0,0,0-.5-1.379,1.842,1.842,0,0,0-1.41-.527H16.9V-5.75Zm7.352-.789a2.373,2.373,0,0,1,1-1,3.107,3.107,0,0,1,1.535-.406V-6.3a2.769,2.769,0,0,0-1.855.527,2.242,2.242,0,0,0-.605,1.77V0h-1.8V-7.859h1.734ZM37.555-4.062l-.023.453H31.555a2.371,2.371,0,0,0,.688,1.719,2.245,2.245,0,0,0,1.586.594A2.155,2.155,0,0,0,35-1.617a2.019,2.019,0,0,0,.777-.914l1.641.281A3.454,3.454,0,0,1,36.055-.484a3.9,3.9,0,0,1-2.211.633A4.029,4.029,0,0,1,30.9-.937,4,4,0,0,1,29.789-3.93,4.011,4.011,0,0,1,30.9-6.922a3.941,3.941,0,0,1,2.891-1.094,3.742,3.742,0,0,1,2.727,1A3.958,3.958,0,0,1,37.555-4.062ZM33.8-6.68a2.293,2.293,0,0,0-1.418.426,2.073,2.073,0,0,0-.746,1.3H35.75a1.894,1.894,0,0,0-.625-1.289A2,2,0,0,0,33.8-6.68Zm5.641,3.273V-4.914h5.6v1.508ZM53.5-5.852a3.007,3.007,0,0,1,1.586.961,2.759,2.759,0,0,1,.57,1.82,2.946,2.946,0,0,1-.875,2.234A3.408,3.408,0,0,1,52.328,0H47.867V-11.141h3.492a3.76,3.76,0,0,1,2.566.813,2.763,2.763,0,0,1,.926,2.188A2.671,2.671,0,0,1,54.5-6.766,2.3,2.3,0,0,1,53.5-5.852ZM51.367-9.562h-1.7V-6.43h1.883A1.48,1.48,0,0,0,52.7-6.883a1.617,1.617,0,0,0,.418-1.141,1.448,1.448,0,0,0-.461-1.109A1.818,1.818,0,0,0,51.367-9.562Zm.625,7.938A1.871,1.871,0,0,0,53.367-2.1a1.589,1.589,0,0,0,.477-1.176,1.607,1.607,0,0,0-.488-1.207,1.983,1.983,0,0,0-1.434-.473h-2.25v3.328ZM62.727-7.859h1.8V0H62.813l-.047-.984A2.812,2.812,0,0,1,60.344.148a2.909,2.909,0,0,1-2.078-.707,2.631,2.631,0,0,1-.75-2.012V-7.859h1.813v4.9a1.612,1.612,0,0,0,.434,1.238,1.583,1.583,0,0,0,1.121.4,1.823,1.823,0,0,0,1.324-.5,2.064,2.064,0,0,0,.52-1.527Zm5.266-1.5a1.073,1.073,0,0,1-.781-.324,1.054,1.054,0,0,1-.328-.777,1.06,1.06,0,0,1,.324-.777,1.069,1.069,0,0,1,.785-.324,1.064,1.064,0,0,1,.773.324,1.054,1.054,0,0,1,.328.777,1.054,1.054,0,0,1-.328.777A1.064,1.064,0,0,1,67.992-9.359ZM67.07,0V-7.859h1.8V0Zm4.352,0V-12h1.813V0ZM78.5,0a2.222,2.222,0,0,1-1.656-.6,2.31,2.31,0,0,1-.594-1.7V-6.453H74.68V-7.859h.539a1.229,1.229,0,0,0,.926-.3,1.52,1.52,0,0,0,.285-1.051V-10.43H78.07v2.57h1.711v1.406H78.07v3.969a1.127,1.127,0,0,0,.27.816.971.971,0,0,0,.73.277h.711V0ZM89.688.148A5.261,5.261,0,0,1,86.68-.668,3.363,3.363,0,0,1,85.2-2.945l1.922-.445a2.14,2.14,0,0,0,.863,1.465,2.93,2.93,0,0,0,1.77.52,2.55,2.55,0,0,0,1.477-.4,1.373,1.373,0,0,0,.578-1.23,1.277,1.277,0,0,0-.172-.625,1.789,1.789,0,0,0-.367-.457,2.417,2.417,0,0,0-.633-.355q-.43-.18-.7-.266t-.844-.25a.983.983,0,0,0-.109-.031q-.445-.133-.727-.223t-.684-.25a4.417,4.417,0,0,1-.652-.312,4.5,4.5,0,0,1-.535-.391,2.033,2.033,0,0,1-.445-.5,2.753,2.753,0,0,1-.27-.629,2.74,2.74,0,0,1-.109-.793,2.784,2.784,0,0,1,1.082-2.336,4.347,4.347,0,0,1,2.738-.836,6.011,6.011,0,0,1,1.43.164,4.913,4.913,0,0,1,1.254.492,3.1,3.1,0,0,1,.988.883,3.321,3.321,0,0,1,.563,1.281l-1.8.453a1.97,1.97,0,0,0-.8-1.285,2.651,2.651,0,0,0-1.535-.426,2.529,2.529,0,0,0-1.441.391,1.333,1.333,0,0,0-.582,1.188,1.017,1.017,0,0,0,.078.4,1.558,1.558,0,0,0,.18.32,1.162,1.162,0,0,0,.32.273q.219.137.379.219a3.745,3.745,0,0,0,.488.191q.328.109.512.16l.574.16q.367.1.59.168t.582.188q.359.121.582.223t.523.266a2.874,2.874,0,0,1,.492.328,4.337,4.337,0,0,1,.4.395,1.86,1.86,0,0,1,.32.484,3.371,3.371,0,0,1,.191.574,2.9,2.9,0,0,1,.078.688,3.164,3.164,0,0,1-.332,1.477,2.709,2.709,0,0,1-.9,1.023,4.267,4.267,0,0,1-1.285.574A5.917,5.917,0,0,1,89.688.148Zm10.4-8.156a2.7,2.7,0,0,1,2.012.738,2.923,2.923,0,0,1,.73,2.145V0h-1.812V-4.812a1.744,1.744,0,0,0-.434-1.312,1.567,1.567,0,0,0-1.129-.414,1.839,1.839,0,0,0-1.3.488,2.031,2.031,0,0,0-.531,1.535V0h-1.8V-12h1.8v5.125a2.73,2.73,0,0,1,1.039-.836A3.327,3.327,0,0,1,100.086-8.008ZM108.7.148a4.13,4.13,0,0,1-2.977-1.105,3.93,3.93,0,0,1-1.156-2.98A3.91,3.91,0,0,1,105.719-6.9,4.13,4.13,0,0,1,108.7-8.008a4.149,4.149,0,0,1,2.984,1.1,3.907,3.907,0,0,1,1.156,2.969,3.93,3.93,0,0,1-1.156,2.98A4.141,4.141,0,0,1,108.7.148ZM108.68-1.3a2.2,2.2,0,0,0,1.7-.727,2.715,2.715,0,0,0,.664-1.906,2.7,2.7,0,0,0-.664-1.9,2.209,2.209,0,0,0-1.7-.723,2.159,2.159,0,0,0-1.672.723,2.721,2.721,0,0,0-.656,1.9A2.745,2.745,0,0,0,107-2.031,2.15,2.15,0,0,0,108.68-1.3Zm10.438-6.7a3.662,3.662,0,0,1,1.863.484A3.533,3.533,0,0,1,122.328-6.1a4.512,4.512,0,0,1,.508,2.176,4.827,4.827,0,0,1-.293,1.715,3.685,3.685,0,0,1-.8,1.3,3.589,3.589,0,0,1-1.184.8,3.669,3.669,0,0,1-1.441.285,3.221,3.221,0,0,1-1.535-.367A2.534,2.534,0,0,1,116.531-1.2V3.891h-1.8V-7.859h1.719l.047,1.281a2.494,2.494,0,0,1,1.051-1.051A3.234,3.234,0,0,1,119.117-8.008Zm-.391,6.664a2.176,2.176,0,0,0,1.648-.7,2.619,2.619,0,0,0,.664-1.875,2.591,2.591,0,0,0-.664-1.867,2.187,2.187,0,0,0-1.648-.7,2.181,2.181,0,0,0-1.664.723,2.6,2.6,0,0,0-.672,1.84,2.62,2.62,0,0,0,.672,1.852A2.175,2.175,0,0,0,118.727-1.344ZM129.234,0V-11.141h3.813a6.072,6.072,0,0,1,2.281.4A4.242,4.242,0,0,1,136.973-9.6a4.983,4.983,0,0,1,.977,1.758,7.276,7.276,0,0,1,.332,2.262,6.886,6.886,0,0,1-.574,2.914,4.359,4.359,0,0,1-1.766,1.953A5.553,5.553,0,0,1,133.047,0ZM131.1-1.672h1.867a3.065,3.065,0,0,0,2.512-1.02,4.425,4.425,0,0,0,.84-2.887,4.411,4.411,0,0,0-.84-2.879,3.065,3.065,0,0,0-2.512-1.02H131.1Zm16.453-2.391-.023.453h-5.977a2.371,2.371,0,0,0,.688,1.719,2.245,2.245,0,0,0,1.586.594A2.155,2.155,0,0,0,145-1.617a2.019,2.019,0,0,0,.777-.914l1.641.281a3.454,3.454,0,0,1-1.359,1.766,3.9,3.9,0,0,1-2.211.633A4.029,4.029,0,0,1,140.9-.937a4,4,0,0,1-1.109-2.992A4.011,4.011,0,0,1,140.9-6.922a3.941,3.941,0,0,1,2.891-1.094,3.742,3.742,0,0,1,2.727,1A3.958,3.958,0,0,1,147.555-4.062ZM143.8-6.68a2.293,2.293,0,0,0-1.418.426,2.073,2.073,0,0,0-.746,1.3h4.117a1.894,1.894,0,0,0-.625-1.289A2,2,0,0,0,143.8-6.68Zm14.352-1.328a2.762,2.762,0,0,1,1.93.652,2.368,2.368,0,0,1,.719,1.848V0h-1.8V-5.008a1.543,1.543,0,0,0-.391-1.145,1.342,1.342,0,0,0-.984-.387,1.473,1.473,0,0,0-1.129.465,2.043,2.043,0,0,0-.434,1.434V0h-1.828V-4.969a1.6,1.6,0,0,0-.395-1.172,1.353,1.353,0,0,0-1-.4,1.462,1.462,0,0,0-1.133.48,2.171,2.171,0,0,0-.437,1.5V0h-1.789V-7.859h1.789v.969a2.535,2.535,0,0,1,2.219-1.117,2.979,2.979,0,0,1,1.406.316,2.082,2.082,0,0,1,.906.91A2.609,2.609,0,0,1,158.148-8.008ZM166.688.148a4.13,4.13,0,0,1-2.977-1.105,3.93,3.93,0,0,1-1.156-2.98A3.91,3.91,0,0,1,163.711-6.9a4.13,4.13,0,0,1,2.977-1.105,4.149,4.149,0,0,1,2.984,1.1,3.907,3.907,0,0,1,1.156,2.969,3.93,3.93,0,0,1-1.156,2.98A4.141,4.141,0,0,1,166.688.148ZM166.672-1.3a2.2,2.2,0,0,0,1.7-.727,2.715,2.715,0,0,0,.664-1.906,2.7,2.7,0,0,0-.664-1.9,2.209,2.209,0,0,0-1.7-.723A2.159,2.159,0,0,0,165-5.84a2.721,2.721,0,0,0-.656,1.9A2.745,2.745,0,0,0,165-2.031,2.15,2.15,0,0,0,166.672-1.3Zm8.68,1.453a4.046,4.046,0,0,1-2.2-.559,2.332,2.332,0,0,1-1.078-1.621l1.523-.43a1.628,1.628,0,0,0,.617.988,1.9,1.9,0,0,0,1.141.332,1.821,1.821,0,0,0,.953-.234.8.8,0,0,0,.383-.758.733.733,0,0,0-.1-.387,1.063,1.063,0,0,0-.242-.281,1.69,1.69,0,0,0-.4-.223,4.539,4.539,0,0,0-.477-.172l-.582-.172q-.367-.109-.609-.187a5.554,5.554,0,0,1-.75-.289,3.559,3.559,0,0,1-.617-.391,1.529,1.529,0,0,1-.473-.613,2.164,2.164,0,0,1-.16-.863,2.066,2.066,0,0,1,.4-1.289,2.266,2.266,0,0,1,1.047-.762A4.288,4.288,0,0,1,175.2-8a3.668,3.668,0,0,1,1.988.508,2.219,2.219,0,0,1,1,1.555l-1.422.336a1.417,1.417,0,0,0-.566-.875,1.742,1.742,0,0,0-1-.281,1.74,1.74,0,0,0-.91.223.736.736,0,0,0-.371.676.917.917,0,0,0,.027.23.45.45,0,0,0,.105.191l.141.152a.734.734,0,0,0,.2.137q.141.07.227.109a2.46,2.46,0,0,0,.281.1l.289.086q.094.027.324.086l.324.082q.438.117.746.219a4.3,4.3,0,0,1,.68.3,2.369,2.369,0,0,1,.6.441,1.973,1.973,0,0,1,.387.629,2.285,2.285,0,0,1,.156.863,2.331,2.331,0,0,1-.25,1.105,1.9,1.9,0,0,1-.684.742,3.349,3.349,0,0,1-.969.4A4.844,4.844,0,0,1,175.352.148Z" transform="translate(49.272 25.74)" fill="#292929"/></g></svg>