<?xml version="1.0" encoding="utf-8" ?>
<svg xmlns="http://www.w3.org/2000/svg" width="62.631" height="88.698" viewBox="0 0 62.631 88.698"><g transform="translate(-75.235 -0.001)"><g transform="translate(83.544 0.001)"><path d="M258.885,426.252H242.893a2.45,2.45,0,1,1,0-4.9h15.992a2.45,2.45,0,1,1,0,4.9Z" transform="translate(-220.131 -348.358)" fill="#2d527c"/><path d="M130.459,77.9a2.45,2.45,0,0,1-2.426-2.133l-4.372-33.5a39.757,39.757,0,0,1,14-36.861A54.823,54.823,0,0,1,145.028.3a2.45,2.45,0,0,1,2.374.01,56.752,56.752,0,0,1,7.777,5.505,39.794,39.794,0,0,1,13.559,36.529A2.45,2.45,0,1,1,163.9,41.6,34.869,34.869,0,0,0,152.044,9.583,57.124,57.124,0,0,0,146.2,5.309a55.42,55.42,0,0,0-5.449,3.9,34.842,34.842,0,0,0-12.238,32.337c0,.018.005.037.008.055l4.376,33.527a2.45,2.45,0,0,1-2.112,2.747A2.5,2.5,0,0,1,130.459,77.9Z" transform="translate(-123.195 -0.001)" fill="#2d527c"/></g><path d="M102.5,333.548l-2.788-21.362-6.061,6.2a15.021,15.021,0,0,0-4.277,10.5v13.236l13.166-8.575H102.5Z" transform="translate(-11.694 -258.103)" fill="#cee8fa"/><path d="M77.685,332.88a2.45,2.45,0,0,1-2.45-2.45V317.194a17.376,17.376,0,0,1,4.974-12.209l6.061-6.2a2.45,2.45,0,0,1,4.182,1.4l2.731,20.93.016.051a2.45,2.45,0,0,1-1.012,2.751l-13.166,8.575A2.445,2.445,0,0,1,77.685,332.88Zm8.562-27.063-2.532,2.592a12.5,12.5,0,0,0-3.579,8.785v8.716l8.05-5.243Z" transform="translate(0 -246.41)" fill="#2d527c"/><path d="M355.51,318.421l-6.055-6.2-2.786,21.355h-.048l13.166,8.575V328.919A15.02,15.02,0,0,0,355.51,318.421Z" transform="translate(-224.371 -258.134)" fill="#cee8fa"/><path d="M348.1,332.91a2.448,2.448,0,0,1-1.338-.4l-13.166-8.575a2.45,2.45,0,0,1-1.011-2.751q.013-.045.029-.09l2.725-20.885a2.45,2.45,0,0,1,4.182-1.4l6.055,6.2a17.375,17.375,0,0,1,4.975,12.209V330.46a2.45,2.45,0,0,1-2.45,2.45ZM337.6,320.7l8.042,5.238v-8.716a12.5,12.5,0,0,0-3.579-8.785l-2.526-2.586Z" transform="translate(-212.679 -246.439)" fill="#2d527c"/><path d="M223.116,394.741l-6.89-10.8,6.89-10.8,6.89,10.8Z" transform="translate(-116.566 -308.492)" fill="#cee8fa"/><path d="M211.423,385.5a2.45,2.45,0,0,1-2.066-1.133l-6.89-10.8a2.45,2.45,0,0,1,0-2.635l6.89-10.8a2.45,2.45,0,0,1,4.132,0l6.89,10.8a2.451,2.451,0,0,1,0,2.635l-6.89,10.8A2.451,2.451,0,0,1,211.423,385.5Zm-3.984-13.254,3.984,6.247,3.984-6.247L211.423,366Z" transform="translate(-104.873 -296.798)" fill="#2d527c"/><circle cx="8.166" cy="8.166" r="8.166" transform="translate(98.385 33.631)" fill="#cee8fa"/><g transform="translate(86.949 19.746)"><path d="M205.329,201.213A10.617,10.617,0,1,1,215.947,190.6,10.629,10.629,0,0,1,205.329,201.213Zm0-16.334a5.717,5.717,0,1,0,5.717,5.717A5.723,5.723,0,0,0,205.329,184.878Z" transform="translate(-185.728 -168.544)" fill="#2d527c"/><path d="M162.453,118.877H145.3a2.45,2.45,0,1,1,0-4.9h17.151a2.45,2.45,0,1,1,0,4.9Z" transform="translate(-142.852 -113.977)" fill="#2d527c"/><path d="M306.26,118.877h-7.5a2.45,2.45,0,1,1,0-4.9h7.5a2.45,2.45,0,1,1,0,4.9Z" transform="translate(-269.723 -113.977)" fill="#2d527c"/></g></g></svg>