<?xml version="1.0" encoding="utf-8" ?>
<svg xmlns="http://www.w3.org/2000/svg" xmlns:xlink="http://www.w3.org/1999/xlink" width="179" height="179" viewBox="0 0 179 179"><defs><filter id="a" x="0" y="0" width="179" height="179" filterUnits="userSpaceOnUse"><feOffset dx="6" dy="15" input="SourceAlpha"/><feGaussianBlur stdDeviation="15" result="b"/><feFlood flood-color="#8396ff" flood-opacity="0.251"/><feComposite operator="in" in2="b"/><feComposite in="SourceGraphic"/></filter></defs><g transform="translate(-636 -1215)"><g transform="matrix(1, 0, 0, 1, 636, 1215)" filter="url(#a)"><circle cx="44.5" cy="44.5" r="44.5" transform="translate(39 30)" fill="#fff"/></g><g transform="translate(696 1264.569)"><path d="M20.175,18.721V12.907C14.847,12.907,15.327,10,10,10V21.628c5.327,0,4.847,2.907,10.175,2.907s6.3-2.907,11.628-2.907,4.847,2.907,10.175,2.907V18.721c-5.327,0-4.847-2.907-10.175-2.907S25.5,18.721,20.175,18.721Z" transform="translate(-0.273 -0.273)" fill="#cce4ff"/><path d="M41.7,11.907a7.8,7.8,0,0,1-4.713-1.35A9.128,9.128,0,0,0,31.529,9a13.059,13.059,0,0,0-6.119,1.52,11.691,11.691,0,0,1-5.51,1.387,7.8,7.8,0,0,1-4.713-1.35A9.128,9.128,0,0,0,9.727,9,.727.727,0,0,0,9,9.727V41.7a.727.727,0,0,0,.727.727h4.361a.727.727,0,0,0,.727-.727V29.468A8.935,8.935,0,0,0,19.9,30.8a13.059,13.059,0,0,0,6.119-1.52,11.691,11.691,0,0,1,5.51-1.387,7.8,7.8,0,0,1,4.713,1.35A9.128,9.128,0,0,0,41.7,30.8a.727.727,0,0,0,.727-.727V12.634A.727.727,0,0,0,41.7,11.907Zm-31.25,4.385a7.678,7.678,0,0,1,3.986,1.325A9.128,9.128,0,0,0,19.9,19.175a13.059,13.059,0,0,0,6.119-1.52,11.691,11.691,0,0,1,5.51-1.387,7.8,7.8,0,0,1,4.713,1.35,9.017,9.017,0,0,0,4.735,1.531V23.51a7.678,7.678,0,0,1-3.986-1.325,9.134,9.134,0,0,0-5.462-1.557,13.059,13.059,0,0,0-6.119,1.52,11.691,11.691,0,0,1-5.51,1.387,7.8,7.8,0,0,1-4.713-1.35,9.017,9.017,0,0,0-4.735-1.531ZM26.02,11.84a11.691,11.691,0,0,1,5.51-1.387,7.8,7.8,0,0,1,4.713,1.35,8.959,8.959,0,0,0,4.735,1.539V17.7a7.678,7.678,0,0,1-3.986-1.325,9.128,9.128,0,0,0-5.462-1.557,13.059,13.059,0,0,0-6.119,1.52A12,12,0,0,1,20.628,17.7V13.336A13.351,13.351,0,0,0,26.02,11.84ZM14.44,11.8a9.017,9.017,0,0,0,4.735,1.531V17.7a7.678,7.678,0,0,1-3.986-1.325,9.017,9.017,0,0,0-4.735-1.531V10.474A7.64,7.64,0,0,1,14.44,11.8ZM10.454,40.977V27.917a7.123,7.123,0,0,1,2.907.724V40.977ZM36.991,28a9.128,9.128,0,0,0-5.462-1.557,13.059,13.059,0,0,0-6.119,1.52,11.691,11.691,0,0,1-5.51,1.387A7.8,7.8,0,0,1,15.19,28c-.247-.148-.493-.3-.75-.437a8.523,8.523,0,0,0-3.986-1.1V22.106a7.678,7.678,0,0,1,3.986,1.325A9.124,9.124,0,0,0,19.9,24.989a13.059,13.059,0,0,0,6.119-1.52,11.691,11.691,0,0,1,5.51-1.387,7.8,7.8,0,0,1,4.713,1.35,9.017,9.017,0,0,0,4.735,1.531v4.366A7.634,7.634,0,0,1,36.991,28Z" fill="#007aff"/></g></g></svg>