<?xml version="1.0" encoding="utf-8" ?>
<svg xmlns="http://www.w3.org/2000/svg" xmlns:xlink="http://www.w3.org/1999/xlink" width="179" height="179" viewBox="0 0 179 179"><defs><filter id="a" x="0" y="0" width="179" height="179" filterUnits="userSpaceOnUse"><feOffset dx="6" dy="15" input="SourceAlpha"/><feGaussianBlur stdDeviation="15" result="b"/><feFlood flood-color="#8396ff" flood-opacity="0.251"/><feComposite operator="in" in2="b"/><feComposite in="SourceGraphic"/></filter></defs><g transform="translate(-636 -1215)"><g transform="matrix(1, 0, 0, 1, 636, 1215)" filter="url(#a)"><circle cx="44.5" cy="44.5" r="44.5" transform="translate(39 30)" fill="#fff"/></g><g transform="translate(699 1269)"><g transform="translate(0.873 0.873)"><path d="M264.545,192.734a19.066,19.066,0,0,0,2.1-8.734H256.16a38.271,38.271,0,0,1-.961,8.734Zm0,0" transform="translate(-228.211 -164.785)" fill="#cce4ff"/><path d="M120.507,18.481C119.066,12.262,116.123,8,112.734,8s-6.332,4.262-7.773,10.481A38.271,38.271,0,0,0,104,27.215h17.468A38.271,38.271,0,0,0,120.507,18.481Zm0,0" transform="translate(-93.519 -8)" fill="#cce4ff"/><path d="M120.574,274.481c3.389,0,6.332-4.262,7.773-10.481H112.8C114.242,270.219,117.185,274.481,120.574,274.481Zm0,0" transform="translate(-101.359 -236.051)" fill="#cce4ff"/><path d="M19.442,192.734A38.271,38.271,0,0,1,18.481,184H8a19.066,19.066,0,0,0,2.1,8.734Zm0,0" transform="translate(-8 -164.785)" fill="#cce4ff"/></g><path d="M20.088,0a20.016,20.016,0,0,0-17.9,10.955,20.114,20.114,0,0,0,0,18.265,20.094,20.094,0,0,0,35.791,0,20.114,20.114,0,0,0,0-18.265A20.017,20.017,0,0,0,20.088,0ZM36.656,27.949H28.93a39.138,39.138,0,0,0,.743-6.987h8.732A18.037,18.037,0,0,1,36.656,27.949ZM20.088,38.43c-2.652,0-5.207-3.39-6.655-8.734H26.742C25.3,35.039,22.74,38.43,20.088,38.43ZM13.028,27.949a37.062,37.062,0,0,1-.777-6.987H27.926a37.015,37.015,0,0,1-.778,6.987Zm-9.507,0a18.029,18.029,0,0,1-1.749-6.987H10.5a39.2,39.2,0,0,0,.742,6.987Zm0-15.721h7.726a39.138,39.138,0,0,0-.743,6.987H1.771A18.033,18.033,0,0,1,3.52,12.228ZM20.088,1.747c2.652,0,5.207,3.39,6.655,8.734H13.435C14.879,5.138,17.437,1.747,20.088,1.747Zm7.061,10.481a37.063,37.063,0,0,1,.777,6.987H12.25a37.015,37.015,0,0,1,.778-6.987Zm2.524,6.987a39.193,39.193,0,0,0-.742-6.987h7.725A18.013,18.013,0,0,1,38.4,19.215Zm6.037-8.734H28.542a19.354,19.354,0,0,0-3.908-8.158A18.243,18.243,0,0,1,35.71,10.481ZM15.542,2.323a19.324,19.324,0,0,0-3.907,8.158H4.468A18.24,18.24,0,0,1,15.542,2.323ZM4.468,29.7h7.167a19.354,19.354,0,0,0,3.908,8.158A18.243,18.243,0,0,1,4.468,29.7Zm20.167,8.158A19.324,19.324,0,0,0,28.541,29.7h7.168A18.24,18.24,0,0,1,24.635,37.854Zm0,0" fill="#007aff"/></g></g></svg>