<?xml version="1.0" encoding="utf-8" ?>
<svg xmlns="http://www.w3.org/2000/svg" width="56.459" height="56.5" viewBox="0 0 56.459 56.5"><g transform="translate(-0.186 0)"><g transform="translate(0.186 0)"><path d="M21.528,42.68h-.092a21.34,21.34,0,0,1-15-36.43,21.346,21.346,0,0,1,35.678,9.462,21.479,21.479,0,0,1,.166,10.607,1.654,1.654,0,0,1-3.217-.768A18.035,18.035,0,0,0,8.775,8.589,18.033,18.033,0,0,0,34.16,34.207a1.654,1.654,0,1,1,2.318,2.359A21.205,21.205,0,0,1,21.528,42.68Z" transform="translate(-0.186 0)" fill="#2d527c"/><path d="M115.5,68.64a1.648,1.648,0,0,1-1.169-.484,11.324,11.324,0,0,0-15.995,0A1.654,1.654,0,0,1,96,65.817a14.632,14.632,0,0,1,20.672,0A1.654,1.654,0,0,1,115.5,68.64Z" transform="translate(-84.998 -54.751)" fill="#2d527c"/><path d="M106.338,268A14.571,14.571,0,0,1,96,263.724a1.654,1.654,0,0,1,2.339-2.339,11.323,11.323,0,0,0,15.995,0,1.654,1.654,0,0,1,2.339,2.338A14.574,14.574,0,0,1,106.338,268Z" transform="translate(-84.998 -232.11)" fill="#2d527c"/><path d="M312.114,313.922a1.648,1.648,0,0,1-1.169-.484l-5.875-5.876a1.654,1.654,0,1,1,2.339-2.338l5.875,5.876a1.653,1.653,0,0,1-1.169,2.823Z" transform="translate(-270.994 -271.111)" fill="#2d527c"/></g><path d="M332.352,323.8l8.6,8.6a6.157,6.157,0,0,1-8.707,8.707l-8.6-8.6Z" transform="translate(-287.765 -288.067)" fill="#cee8fa"/><path d="M323.274,331.238a7.759,7.759,0,0,1-5.523-2.288l-8.6-8.6a1.654,1.654,0,0,1,0-2.338l8.707-8.707a1.654,1.654,0,0,1,2.339,0l8.6,8.6a7.81,7.81,0,0,1-5.523,13.333Zm-10.619-12.061,7.435,7.435a4.5,4.5,0,1,0,6.369-6.369l-7.435-7.435Z" transform="translate(-274.436 -274.738)" fill="#2d527c"/></g></svg>