<?xml version="1.0" encoding="utf-8" ?>
<svg xmlns="http://www.w3.org/2000/svg" xmlns:xlink="http://www.w3.org/1999/xlink" width="179" height="179" viewBox="0 0 179 179"><defs><filter id="a" x="0" y="0" width="179" height="179" filterUnits="userSpaceOnUse"><feOffset dx="6" dy="15" input="SourceAlpha"/><feGaussianBlur stdDeviation="15" result="b"/><feFlood flood-color="#8396ff" flood-opacity="0.251"/><feComposite operator="in" in2="b"/><feComposite in="SourceGraphic"/></filter></defs><g transform="translate(-636 -1215)"><g transform="matrix(1, 0, 0, 1, 636, 1215)" filter="url(#a)"><circle cx="44.5" cy="44.5" r="44.5" transform="translate(39 30)" fill="#fff"/></g><g transform="translate(701 1271)"><path d="M194.393,7.92,182.98,43.791,175.6,26.711Z" transform="translate(-157.707 -7.115)" fill="#cce4ff"/><g transform="translate(0 0)"><path d="M.524,13.816l16.759,6.44,7.242,16.765a.816.816,0,0,0,.748.492h.041a.816.816,0,0,0,.736-.567L37.463,1.074A.775.775,0,0,0,37.48.961.733.733,0,0,0,37.5.848a.8.8,0,0,0-.03-.232c0-.017,0-.035-.007-.052s0-.006,0-.009A.822.822,0,0,0,37.3.3a.765.765,0,0,0-.073-.064.782.782,0,0,0-.121-.1C37.1.123,37.087.122,37.075.116a.809.809,0,0,0-.107-.042A.812.812,0,0,0,36.8.026a.744.744,0,0,0-.113,0,.8.8,0,0,0-.192.025c-.022.006-.044,0-.066.008L.554,12.284a.815.815,0,0,0-.03,1.533ZM25.157,34.373,18.863,19.8,34.893,3.772ZM33.631,2.729,17.694,18.666,3.209,13.1Z" transform="translate(0 -0.021)" fill="#007aff"/><path d="M.815,252.962a.813.813,0,0,0,.576-.239L12.805,241.31a.815.815,0,1,0-1.153-1.153L.239,251.57a.815.815,0,0,0,.576,1.392Z" transform="translate(0 -215.471)" fill="#007aff"/><path d="M93.946,296.157l-5.707,5.707a.815.815,0,1,0,1.153,1.153L95.1,297.31a.815.815,0,0,0-1.153-1.153Z" transform="translate(-79.032 -265.765)" fill="#007aff"/><path d="M.815,215.255a.813.813,0,0,0,.576-.239L7.1,209.31a.815.815,0,0,0-1.153-1.153L.239,213.864a.815.815,0,0,0,.576,1.392Z" transform="translate(0 -186.732)" fill="#007aff"/></g></g></g></svg>