<?xml version="1.0" encoding="utf-8" ?>
<svg xmlns="http://www.w3.org/2000/svg" width="58.081" height="26.205" viewBox="0 0 58.081 26.205"><path d="M866.8,540.033c7.76-2.145,12.523.011,15.667,7.023,2.651,5.911,6.483,11.292,9.835,16.979-8.373,2.432-10.138,1.805-14.14-4.89C874.439,552.912,870.74,546.662,866.8,540.033Z" transform="translate(-866.801 -539.132)" fill="#fff"/><path d="M907.586,564.461c-7.728,2.075-12.391.083-15.5-6.77-2.744-6.056-6.687-11.568-10.163-17.425,9.831-2.064,10.153-1.92,14.843,6.006C900.272,552.193,903.8,558.1,907.586,564.461Z" transform="translate(-864.933 -539.144)" fill="#fff"/><path d="M908.436,560.309c-2.672-4.521-5.047-8.094-6.965-11.9-2.387-4.737-.072-8.531,5.193-8.988.74-.064,1.489-.024,2.234-.024,3.529,0,7.058,0,11.817,0Z" transform="translate(-862.634 -539.114)" fill="#fff"/></svg>