<svg xmlns="http://www.w3.org/2000/svg" width="53" height="53" viewBox="0 0 53 53">
  <g id="Group_28645" data-name="Group 28645" transform="translate(-37 -102.095)">
    <circle id="Ellipse_2387" data-name="Ellipse 2387" cx="26.5" cy="26.5" r="26.5" transform="translate(37 102.095)" fill="#fff" opacity="0.068"/>
    <path id="Path_31073" data-name="Path 31073" d="M10.928-2.51V0H.977V-2.119L6.592-7.852a3.534,3.534,0,0,0,1.221-2.432,1.72,1.72,0,0,0-.5-1.309,1.98,1.98,0,0,0-1.421-.479,1.976,1.976,0,0,0-1.47.537,2.4,2.4,0,0,0-.532,1.738V-8.75l-2.8-.283v-.7a4.939,4.939,0,0,1,.591-2.5A3.843,3.843,0,0,1,3.34-13.794a5.635,5.635,0,0,1,2.529-.532,5.855,5.855,0,0,1,2.437.483,3.857,3.857,0,0,1,1.675,1.4,3.865,3.865,0,0,1,.605,2.178,4.224,4.224,0,0,1-.444,1.934A8.082,8.082,0,0,1,8.73-6.445L4.912-2.51Z" transform="translate(58.023 135.421)" fill="#fff"/>
  </g>
</svg>
