<svg xmlns="http://www.w3.org/2000/svg" width="53" height="53" viewBox="0 0 53 53"><g transform="translate(-37 -102.095)"><circle cx="26.5" cy="26.5" r="26.5" transform="translate(37 102.095)" fill="#fff" opacity="0.068"/><path d="M5.947.2A5.063,5.063,0,0,1,2.1-1.094,5.59,5.59,0,0,1,.889-5.039L3.77-5.166a6.749,6.749,0,0,0,.161,1.655,1.572,1.572,0,0,0,.63.933,2.452,2.452,0,0,0,1.387.322,2.288,2.288,0,0,0,1.665-.566,1.98,1.98,0,0,0,.581-1.484,2,2,0,0,0-.557-1.528,2.1,2.1,0,0,0-1.494-.522H5.6V-8.545H6.1a1.6,1.6,0,0,0,.835-.225,1.551,1.551,0,0,0,.586-.625,1.926,1.926,0,0,0,.21-.908,1.419,1.419,0,0,0-.508-1.172,2.064,2.064,0,0,0-1.338-.41,1.477,1.477,0,0,0-1.4.62A3.3,3.3,0,0,0,4.131-9.6L1.289-9.736a5.216,5.216,0,0,1,.552-2.5,3.621,3.621,0,0,1,1.577-1.548,5.318,5.318,0,0,1,2.441-.522,5.229,5.229,0,0,1,2.314.5,3.961,3.961,0,0,1,1.6,1.357,3.346,3.346,0,0,1,.576,1.9,3.138,3.138,0,0,1-.269,1.313,3.222,3.222,0,0,1-.674.986,2.963,2.963,0,0,1-.835.591,3.606,3.606,0,0,1,1.216.615A3.168,3.168,0,0,1,10.7-5.894a3.837,3.837,0,0,1,.352,1.7,4.189,4.189,0,0,1-.635,2.31A4.172,4.172,0,0,1,8.633-.347,6.248,6.248,0,0,1,5.947.2Z" transform="translate(57.111 135.401)" fill="#fff"/></g></svg>