<?xml version="1.0" encoding="utf-8"?>
<svg xmlns="http://www.w3.org/2000/svg" width="51.188" height="39.375" viewBox="0 0 51.188 39.375"><path d="M5.906-43.312V-3.937H57.094V-43.312Zm3.938,3.938H53.156v31.5H46.45a1.907,1.907,0,0,1-.123-.431.846.846,0,0,0-.185-.431,3.833,3.833,0,0,0-2.83-1.107,3.833,3.833,0,0,0-2.83,1.107.846.846,0,0,0-.185.431,1.907,1.907,0,0,1-.123.431H22.825a1.907,1.907,0,0,1-.123-.431.846.846,0,0,0-.185-.431,3.833,3.833,0,0,0-2.83-1.107,3.833,3.833,0,0,0-2.83,1.107.846.846,0,0,0-.185.431,1.907,1.907,0,0,1-.123.431H9.844Zm13.781,3.938a7.476,7.476,0,0,0-3.937,1.077A8.3,8.3,0,0,0,16.827-31.5a7.476,7.476,0,0,0-1.077,3.938,7.383,7.383,0,0,0,.646,3.045,8.458,8.458,0,0,0,1.753,2.553,9.661,9.661,0,0,0-3.2,3.538,9.7,9.7,0,0,0-1.169,4.645h3.938a5.7,5.7,0,0,1,1.723-4.184,5.7,5.7,0,0,1,4.184-1.723,5.7,5.7,0,0,1,4.184,1.723,5.7,5.7,0,0,1,1.723,4.184h3.938A9.7,9.7,0,0,0,32.3-18.426a9.661,9.661,0,0,0-3.2-3.538,8.458,8.458,0,0,0,1.753-2.553,7.383,7.383,0,0,0,.646-3.045A7.476,7.476,0,0,0,30.423-31.5a8.3,8.3,0,0,0-2.861-2.861A7.476,7.476,0,0,0,23.625-35.437Zm0,3.938a3.8,3.8,0,0,1,2.8,1.138,3.8,3.8,0,0,1,1.138,2.8,3.8,3.8,0,0,1-1.138,2.8,3.8,3.8,0,0,1-2.8,1.138,3.8,3.8,0,0,1-2.8-1.138,3.8,3.8,0,0,1-1.138-2.8,3.8,3.8,0,0,1,1.138-2.8A3.8,3.8,0,0,1,23.625-31.5Zm13.781,1.969v3.938H49.219v-3.937Zm0,7.875v3.938H49.219v-3.937Z" transform="translate(-5.906 43.313)" fill="#26acd2"/></svg>