<?xml version="1.0" encoding="utf-8" ?>
<svg xmlns="http://www.w3.org/2000/svg" xmlns:xlink="http://www.w3.org/1999/xlink" width="820.113" height="757.59" viewBox="0 0 820.113 757.59"><defs><linearGradient id="a" y1="0.5" x2="1" y2="0.5" gradientUnits="objectBoundingBox"><stop offset="0" stop-color="#f6ce7d"/><stop offset="1" stop-color="#e8a623"/></linearGradient><linearGradient id="b" y1="0.5" x2="1" y2="0.5" gradientUnits="objectBoundingBox"><stop offset="0" stop-color="#f7971e"/><stop offset="1" stop-color="#ffd200"/></linearGradient><linearGradient id="d" y1="0.5" x2="1" y2="0.5" gradientUnits="objectBoundingBox"><stop offset="0" stop-color="#acc6f9"/><stop offset="1" stop-color="#6f96e3"/></linearGradient><clipPath id="e"><path d="M347.73,286.068l-67.11,19.309s-21.662,3.9-11.2,22.38c0,0,38.912,52.948,44.189,67.725,0,0,2.752,6.473,7.878-1.269,0,0,10.388-8.474-26.792-70.229,0,0,3.8-3.481,19.578-2.311,0,0,18.672-.075,30.51-3.731L364.52,298.55l-2.682-15.938Z" transform="translate(-266.565 -282.612)" fill="none"/></clipPath><clipPath id="g"><path d="M359.025,286.916s-21.219,23.623-45.755,54.959c0,0-12.608,14.119-18.885,31.942,0,0-18.266,48.149-25.552,72.253,0,0,10.549,5.378,17.068-3.408,0,0,18.109-28.468,34.078-70.835A75.35,75.35,0,0,1,333.7,355.721l32.8-30.243s15.59-15.348,20.443-26.823C386.946,298.655,372.386,280.431,359.025,286.916Z" transform="translate(-268.833 -285.521)" fill="none"/></clipPath><linearGradient id="h" y1="0.5" x2="1" y2="0.5" gradientUnits="objectBoundingBox"><stop offset="0" stop-color="#3475f6"/><stop offset="1" stop-color="#1b5ee0"/></linearGradient><linearGradient id="i" y1="0.5" x2="1" y2="0.5" gradientUnits="objectBoundingBox"><stop offset="0" stop-color="#ef9881"/><stop offset="1" stop-color="#ff5e36"/></linearGradient><linearGradient id="j" x1="0" y1="0.5" x2="1" y2="0.5" xlink:href="#i"/><linearGradient id="o" x1="132.113" y1="113.589" x2="133.181" y2="113.589" xlink:href="#h"/><linearGradient id="p" x1="116.891" y1="116.897" x2="117.835" y2="116.897" xlink:href="#b"/><linearGradient id="w" x1="22.085" y1="-31.893" x2="23.071" y2="-31.893" xlink:href="#h"/><linearGradient id="x" x1="95.43" y1="-61.927" x2="95.886" y2="-61.927" xlink:href="#d"/><clipPath id="z"><path d="M383.837,214.651,365.1,189.519l11.947-37.692,15.4,16.04Z" transform="translate(-365.098 -151.827)" fill="none"/></clipPath><linearGradient id="aa" x1="130.498" y1="-3.68" x2="131.528" y2="-3.68" xlink:href="#h"/><clipPath id="ab"><path d="M388.4,207.391,371.13,181.23l-39.509-1.564,9.855,19.936Z" transform="translate(-331.621 -179.666)" fill="none"/></clipPath><linearGradient id="ac" x1="64.667" y1="-11.517" x2="65.646" y2="-11.517" xlink:href="#h"/><linearGradient id="ad" x1="113.365" y1="-26.228" x2="114.377" y2="-26.228" xlink:href="#h"/><clipPath id="ae"><path d="M382.71,259.668c27.872,34.835,59.45,30.519,59.45,30.519s14.912-28.261-8.385-66.308c-20.573-33.6-57.436-55.561-57.436-55.561L363.116,177.6l-13.029,9.148S358.1,228.909,382.71,259.668Z" transform="translate(-350.087 -168.319)" fill="none"/></clipPath><linearGradient id="af" x1="0.5" y1="1" x2="0.5" y2="0" xlink:href="#b"/><linearGradient id="ag" x1="48.173" y1="-11.213" x2="49.32" y2="-11.213" xlink:href="#h"/><clipPath id="ah"><path d="M371.956,218.6a15.618,15.618,0,1,1,21.757,3.808A15.617,15.617,0,0,1,371.956,218.6Z" transform="translate(-369.117 -194.003)" fill="none"/></clipPath><clipPath id="ai"><path d="M363.386,194.363a7.781,7.781,0,1,1,10.841,1.9A7.784,7.784,0,0,1,363.386,194.363Z" transform="translate(-361.973 -182.109)" fill="none"/></clipPath><linearGradient id="aj" x1="1309.422" y1="-24.987" x2="1312.258" y2="-24.987" xlink:href="#d"/><linearGradient id="ak" x1="1312.793" y1="-25.607" x2="1315.629" y2="-25.607" xlink:href="#d"/><linearGradient id="al" x1="1316.192" y1="-26.228" x2="1319.028" y2="-26.228" xlink:href="#d"/><linearGradient id="am" x1="1319.563" y1="-26.849" x2="1322.398" y2="-26.849" xlink:href="#d"/><linearGradient id="an" x1="1323.075" y1="-27.47" x2="1325.911" y2="-27.47" xlink:href="#d"/><linearGradient id="ao" x1="35.368" y1="56.933" x2="36.869" y2="56.933" xlink:href="#h"/><linearGradient id="ap" x1="42.85" y1="61.803" x2="44.68" y2="61.803" xlink:href="#b"/><linearGradient id="aq" x1="23.885" y1="-56.701" x2="25.104" y2="-56.701" xlink:href="#h"/><linearGradient id="ar" x1="27.565" y1="-64.676" x2="28.97" y2="-64.676" xlink:href="#b"/><clipPath id="aw"><path d="M136.306,279.844c3.4-1.3,8.933-2.134,9.622,5.784a16.891,16.891,0,0,1-.323,4.842c-1.4,6.829-6.756,30.514-14.359,34.55a1.236,1.236,0,0,1-1.709-.569c-1.339-2.909-3.928-12.954,3.476-40.94A5.406,5.406,0,0,1,136.306,279.844Z" transform="translate(-127.987 -279.006)" fill="none"/></clipPath><clipPath id="ba"><path d="M119.637,268.575s20.035-6.763,8.553,11.255c0,0-27.288,32.538-20.145,11.7C108.045,291.526,116.331,269.812,119.637,268.575Z" transform="translate(-106.853 -267.331)" fill="url(#a)"/></clipPath><clipPath id="bc"><path d="M193.163,231.194s-12.234,4.077-18.192,24.151c0,0-9.1,24.308-46.421,39.6,0,0-2.823,10.974,8.468,21.287,0,0,48.3-13.209,68.377-51.162v37.639l-33.562,13.523s-2.823,8.747,7.841,19.1c0,0,27.6-5.958,41.4-16.623,0,0,13.173-8.128,21.643-73.381l-23.212-17.747Z" transform="translate(-128.236 -227.575)" fill="none"/></clipPath><linearGradient id="bd" x1="-0.263" y1="0.901" x2="1.551" y2="0.217" gradientUnits="objectBoundingBox"><stop offset="0" stop-color="#3270eb"/><stop offset="1" stop-color="#1957cf"/></linearGradient><linearGradient id="bf" x1="1" y1="0.5" x2="0" y2="0.5" xlink:href="#i"/></defs><g transform="translate(0 0)"><g transform="translate(0)"><path d="M883.565,47.977s35.466,104.089-38.945,179.194c-29.951,30.229-60.062,43.51-176.4,52.664-54.032,4.253-127.227,28.553-174.532,128.6,0,0-27.332,54.666-19.4,167.291a149.723,149.723,0,0,1-5.531,53.41c-9.771,32.706-34.082,75.214-94.544,87.81,0,0-73.426,11.158-174.472-43.957,0,0-73.792-33.07-127.837-29.4V13.444Z" transform="translate(-71.899 -13.444)" fill="#fceeea"/></g><g transform="translate(53.954 171.572)"><g transform="translate(304.856 213.079)"><path d="M273.117,376.263a32.559,32.559,0,0,1-9.453,4.4,19.38,19.38,0,0,0-3.959,1.082,3.875,3.875,0,0,0-2.388,3.1,3.566,3.566,0,0,0,1.842,3.023,8.434,8.434,0,0,0,3.547.983,48.611,48.611,0,0,0,11.816-.608c3.586-.519,7.247-1.179,10.355-3.038a29.685,29.685,0,0,0,3.977-3.032,14.143,14.143,0,0,0,3.818-4.3,13.474,13.474,0,0,0,1.03-4.184q.389-2.987.654-5.989a.608.608,0,0,0-.693-.793l-3.561-.321a6.4,6.4,0,0,0-2.518.1c-1.266.4-2.115,1.48-3.193,2.189-1.024.671-2.09,1.165-3.094,1.891Q277.3,373.66,273.117,376.263Z" transform="translate(-257.315 -67.91)" fill="url(#b)"/><path d="M293.358,360.792a17.844,17.844,0,0,1-1.736,6.16c-.853,1.535-2.169,2.965-2.167,4.718a.708.708,0,0,0,.118.453c.18.219.523.178.8.106a13.906,13.906,0,0,0,8.2-5.987,26.613,26.613,0,0,0,1.885-3.837q1.84-4.319,3.6-8.673a58.4,58.4,0,0,0,2.26-6.309c.855-3.094,1.09-6.789-1.091-9.146a11.243,11.243,0,0,0-3.47-2.256,2.953,2.953,0,0,0-2.2-.42,2.649,2.649,0,0,0-1.138.981,18.675,18.675,0,0,0-3.8,10.655A99.468,99.468,0,0,1,293.358,360.792Z" transform="translate(-227.259 -96.911)" fill="url(#b)"/><path d="M347.73,286.068l-67.11,19.309s-21.662,3.9-11.2,22.38c0,0,38.912,52.948,44.189,67.725,0,0,2.752,6.473,7.878-1.269,0,0,10.388-8.474-26.792-70.229,0,0,3.8-3.481,19.578-2.311,0,0,18.672-.075,30.51-3.731L364.52,298.55l-2.682-15.938Z" transform="translate(-248.665 -146.378)" fill="url(#d)"/><g transform="translate(17.899 136.234)"><g clip-path="url(#e)"><path d="M304.321,288.051a9.833,9.833,0,0,1,3.9,1.186c1.924,1.194,2.663,3.6,3.162,5.8s1.006,4.61,2.715,6.1c3.267,2.841,8.672.644,12.47,2.721a9.672,9.672,0,0,1,3.878,4.824,61.324,61.324,0,0,0,2.456,5.8,17.6,17.6,0,0,0,8.548,7.116l13.012-16.679L345.7,290.995l-27.431-6.688-12.093-1.293Z" transform="translate(-231.256 -282.236)" fill="#5c87c4"/><path d="M295.435,316.824a1.689,1.689,0,0,0-.852-.317,1.665,1.665,0,0,0-.971.428,17.008,17.008,0,0,0-2.872,2.976,54.6,54.6,0,0,0-8.408,14.775c-.559,1.478-1.047,3.16-.395,4.6a6.432,6.432,0,0,0,2.276,2.342,3.544,3.544,0,0,0,1.465.747c1.382.225,2.45-1.142,3.176-2.34q4.911-8.084,9.819-16.166a5.2,5.2,0,0,0,.84-1.937C299.8,319.843,296.97,317.767,295.435,316.824Z" transform="translate(-252.48 -250.915)" fill="#5c87c4" opacity="0.5"/></g></g><path d="M359.025,286.916s-21.219,23.623-45.755,54.959c0,0-12.608,14.119-18.885,31.942,0,0-18.266,48.149-25.552,72.253,0,0,10.549,5.378,17.068-3.408,0,0,18.109-28.468,34.078-70.835A75.35,75.35,0,0,1,333.7,355.721l32.8-30.243s15.59-15.348,20.443-26.823C386.946,298.655,372.386,280.431,359.025,286.916Z" transform="translate(-246.544 -143.658)" fill="url(#d)"/><g transform="translate(22.289 141.863)"><g clip-path="url(#g)"><path d="M304.284,288.047a9.831,9.831,0,0,1,3.9,1.186c1.924,1.2,2.663,3.6,3.162,5.806s1.006,4.608,2.715,6.1c3.267,2.841,8.671.644,12.47,2.721a9.68,9.68,0,0,1,3.878,4.824,60.81,60.81,0,0,0,2.456,5.8,17.6,17.6,0,0,0,8.548,7.116l13.012-16.679-8.759-13.927L318.237,284.3l-12.093-1.293Z" transform="translate(-235.68 -287.869)" fill="#729bdd"/></g></g><path d="M311.671,241.068s-11.741-12.42-3.659-23.435A6.589,6.589,0,0,1,311.9,215.1a5.373,5.373,0,0,1,3.942.629,3.841,3.841,0,0,0,3.986.072,27.051,27.051,0,0,1,6.98-3.05,15.19,15.19,0,0,1,13.053,2.413,19.751,19.751,0,0,1,8.07,15.206,44.152,44.152,0,0,1-1.264,6.51,23.2,23.2,0,0,0-1,8.461,18.232,18.232,0,0,0,1.54,6.049s1.922,4.091-.615,5.763c0,0-3.53,1.844-6.44-2.076Z" transform="translate(-212.56 -212.213)" fill="#01033b"/><path d="M319.659,241.266s31.079-10.282,45.991,7.688c0,0,5.4,7.725,4.474,22.847,0,0-5.078,77.633-16.6,77.554,0,0-4.406.221-9.407-9.078,0,0-1.467-5.691-12.679-4.354,0,0-7.971,1.223-12.548-3.418a10.083,10.083,0,0,0-9.813-3.125s-10.349,1.891-2.434-7.41c0,0,6.268-2.558,6.51-17.751l-7.272-7.466a143.493,143.493,0,0,1,1.786-38.09S309.356,243.524,319.659,241.266Z" transform="translate(-213.974 -187.782)" fill="url(#h)"/><path d="M308.721,222.592s-1.734,18.071,3.665,27.085a6,6,0,0,0,4.426,2.874,11.682,11.682,0,0,0,8.393-2.129,16.61,16.61,0,0,0-1.5,10.678s1.391,4.372,5.434,1.064l8.275-6.781s1.724-2.881.948-8.863c0,0-1.059-5.538-1.571-7.361,0,0,8.046.861,6.725-5.533,0,0-1.088-6.367-7.816-1.9,0,0-3.81,2.539-2.667-2.645,0,0,2.351-10.953-4.973-6.429C328.057,222.655,319.558,228.233,308.721,222.592Z" transform="translate(-209.49 -203.472)" fill="url(#i)"/><path d="M366.557,255.63s-6.293,47.431-24.853,56.882c0,0-13.784,4.617-34.227-11.263l17.147-2.593s8.4-.449,12.577-4.652,13.7-21.326,13.7-21.326Z" transform="translate(-210.406 -171.611)" fill="#195dbf"/><path d="M306.947,284.234s7.089-4.892,9.266-35.472c0,0,.166,22.99-3.336,41.759Z" transform="translate(-210.901 -178.034)" fill="#195dbf"/><path d="M294.874,268.72S293.7,282.055,308.2,279.367l-2.313-9.469Z" transform="translate(-222.213 -159.37)" fill="url(#j)"/><path d="M374.559,250.684s-3.9-7.141-10.4-2.868c0,0-3.075,2.479-6.512,14.425,0,0-4.271,20.4-13.569,36.7a6.114,6.114,0,0,1-5.624,3.1c-7.739-.393-26.146-2.206-40.534-10.556,0,0,4.909,16.056,34.6,24.933a21.134,21.134,0,0,0,21.022-5,54.232,54.232,0,0,0,11.857-17.277S380.58,262.574,374.559,250.684Z" transform="translate(-219.344 -180.192)" fill="url(#b)"/><path d="M303.152,263.572s19.309,10.878,26.932,19.274a1.059,1.059,0,0,1-.749,1.765,66.931,66.931,0,0,1-25.459-4.021Z" transform="translate(-214.45 -164.184)" fill="url(#d)"/><path d="M277.13,241.542l8.035,39.688a9.452,9.452,0,0,0,4.5,6.289c5.722,3.352,18.237,9.767,38.583,15.65A1.686,1.686,0,0,0,330.4,301.6c.132-5.442.2-20.124-2.365-31.787a11.422,11.422,0,0,0-4.416-6.738c-5.393-3.963-18.082-12.091-44.054-23.5A1.764,1.764,0,0,0,277.13,241.542Z" transform="translate(-238.819 -186.763)" fill="#0b1d74"/><g transform="translate(64.897 82.788)"><path d="M295.426,258.181c.8,2.14.521,4.221-.617,4.643s-2.705-.97-3.5-3.11-.521-4.223.617-4.644S294.629,256.039,295.426,258.181Z" transform="translate(-290.851 -254.994)" fill="#fff"/></g><g transform="translate(124.003 76.789)"><path d="M322.317,251.894s5.827,1.806,9.91,1.813c0,0-.381,10.6-5.7,11.106C326.524,264.813,318.785,265.814,322.317,251.894Z" transform="translate(-321.394 -251.894)" fill="#fff"/></g></g><g transform="translate(514.329 300.003)"><path d="M384,257.131l-18.443,14.78,36.886,6.346Z" transform="translate(-365.56 -257.131)" fill="url(#h)"/><path d="M365.56,273.612v-8.843l36.886,6.346v8.454Z" transform="translate(-365.56 -249.989)" fill="url(#b)"/></g><g transform="translate(181.686 21.099)"><path d="M214.17,131.394l5.353-15.683L195.31,125.832Z" transform="translate(-192.13 -110.478)" fill="url(#o)"/><path d="M217.733,113.007l3.327,5.232-24.212,10.121-3.18-5Z" transform="translate(-193.666 -113.007)" fill="url(#p)"/></g><g transform="translate(250.086 52.425)"><rect width="135.48" height="89.371" rx="4.604" transform="translate(14.605)" opacity="0.1" fill="url(#h)"/><rect width="135.48" height="89.372" rx="4.604" transform="translate(0 6.735)" fill="url(#d)"/><g transform="translate(66.574 45.954)"><rect width="8.324" height="36.453" transform="translate(12.148)" fill="url(#h)"/><rect width="8.324" height="36.453" transform="translate(33.25)" fill="url(#h)"/><g transform="translate(0 11.892)"><path d="M264.383,171.757a.968.968,0,0,1-.681-1.656c.654-.643,16.081-15.634,27.553-7.466.432.362,9.037,7.5,19.806-3.265a.967.967,0,1,1,1.368,1.368c-12.079,12.077-22.268,3.5-22.369,3.416-10.09-7.174-24.853,7.179-25,7.325A.962.962,0,0,1,264.383,171.757Z" transform="translate(-263.415 -159.087)" fill="url(#b)"/></g></g><g transform="translate(20.589 18.204)"><g transform="translate(0 2.173)" opacity="0.7"><circle cx="18.499" cy="18.499" r="18.499" fill="#fef8f6"/></g><path d="M268.607,152.177a20.66,20.66,0,0,0-19.4-13.575v20.671Z" transform="translate(-230.713 -138.602)" fill="url(#b)"/></g></g><g transform="translate(148.455 510.305)"><path d="M176.494,365.805,187.685,405.4l5.967-19.2Z" transform="translate(-176.494 -365.805)" fill="url(#w)"/><path d="M176.494,365.805l37.1,17.787-19.94,2.6Z" transform="translate(-176.494 -365.805)" fill="url(#x)"/></g><g transform="translate(172.797 367.654)"><path d="M189.073,381.039a22.335,22.335,0,0,0,2.094,2" transform="translate(-189.073 -208.908)" fill="none" stroke="#707070" stroke-miterlimit="10" stroke-width="0.5"/><path d="M192.52,467.066c30.074,22.084,147.74,85.583,239.635-14.061,14.345-15.555,19.795-38.221,17.906-59.3-.606-6.773-3.6-14.97-10.367-15.611-7.789-.735-11.928,10.891-7.164,17.1s13.773,6.34,21.535,5.368c64.164-8.029,71.11-80.952,67.851-105.528" transform="translate(-185.85 -289.339)" fill="none" stroke="#707070" stroke-miterlimit="10" stroke-width="0.5" stroke-dasharray="3.011 3.011"/><path d="M362.842,294.9a22.383,22.383,0,0,0-.724-2.806" transform="translate(-27.248 -292.09)" fill="none" stroke="#707070" stroke-miterlimit="10" stroke-width="0.5"/></g><g transform="translate(448.649 75.823)"><path d="M369.195,202.6l15.027-11.919s5.805-13.07-6.371-25.1c-13.327-13.161-30.715-16.954-45.109-24.3,4.41,15.265,3.774,33.393,13.558,49.366C355.238,205.245,369.195,202.6,369.195,202.6Z" transform="translate(-330.572 -141.286)" fill="url(#i)"/><path d="M362.011,193.749l7.7-6.109,7.477-5.931s-11.452-18.711-35.557-29.1C346.261,178.445,362.011,193.749,362.011,193.749Z" transform="translate(-322.256 -130.695)" fill="#fff" opacity="0.5"/><g transform="translate(0 20.398)"><g transform="translate(64.784)"><g clip-path="url(#z)"><path d="M383.837,214.651,365.1,189.519l11.947-37.692,15.4,16.04Z" transform="translate(-365.098 -151.827)" fill="url(#aa)"/><g transform="translate(10.96 8.017)" opacity="0.15"><path d="M385.249,155.97l-14.487,48.259,8.124,11.571,9.152-18.6,4.052-36.408Z" transform="translate(-370.762 -155.97)"/></g></g></g><g transform="translate(0 53.873)"><g clip-path="url(#ab)"><path d="M388.4,207.391,371.13,181.23l-39.509-1.564,9.855,19.936Z" transform="translate(-331.621 -179.666)" fill="url(#ac)"/><g transform="translate(2.955 15.421)" opacity="0.15"><path d="M333.148,187.635l50.311,2.764,8.124,11.571-20.6,2.29-35.62-8.554Z" transform="translate(-333.148 -187.635)"/></g></g></g></g><rect width="32.069" height="10.166" transform="translate(29.604 62.109) rotate(-35.073)" fill="url(#ad)"/><g transform="translate(35.736 52.313)"><g clip-path="url(#ae)"><path d="M382.7,259.663c27.874,34.835,59.514,30.607,59.514,30.607s14.82-28.391-8.478-66.438c-20.573-33.6-57.529-55.692-57.529-55.692l-13.223,9.285-13.029,9.148S358.094,228.9,382.7,259.663Z" transform="translate(-350.206 -168.487)" fill="url(#af)"/><rect width="72.341" height="40.933" transform="translate(43.344 111.202) rotate(-35.073)" fill="url(#ag)"/><g transform="translate(43.344 69.633)" opacity="0.1"><rect width="72.341" height="3.924" transform="translate(0 41.569) rotate(-35.073)"/></g><g transform="translate(13.865 -1.755)" opacity="0.1"><path d="M434.357,289.047s11.383-64.917-77.1-115.651l8.522-5.984S459.138,228.215,434.357,289.047Z" transform="translate(-357.252 -167.412)"/></g></g></g><g transform="translate(61.862 91.316)" opacity="0.1"><circle cx="20.197" cy="20.197" r="20.197" transform="translate(0 37.415) rotate(-67.853)"/></g><g transform="translate(70.947 100.401)" opacity="0.1"><path d="M371.413,220.308a17.235,17.235,0,1,1,24.01,4.2A17.236,17.236,0,0,1,371.413,220.308Z" transform="translate(-368.282 -193.168)"/></g><g transform="translate(72.563 102.017)"><g clip-path="url(#ah)"><path d="M371.956,218.6a15.618,15.618,0,1,1,21.757,3.808A15.617,15.617,0,0,1,371.956,218.6Z" transform="translate(-369.117 -194.003)" fill="#fceeea"/><g transform="translate(6.318 -4.483)" opacity="0.5"><rect width="38.106" height="6.28" transform="matrix(0.172, -0.985, 0.985, 0.172, 0, 37.535)" fill="#edd7d1"/><rect width="38.106" height="3.14" transform="translate(8.489 39.021) rotate(-80.073)" fill="#edd7d1"/></g></g></g><g transform="translate(56.455 76.717)" opacity="0.1"><path d="M362.621,196.777a10.064,10.064,0,1,1,14.018,2.452A10.064,10.064,0,0,1,362.621,196.777Z" transform="translate(-360.794 -180.93)"/></g><g transform="translate(57.931 78.194)" opacity="0.1"><path d="M363.117,195.214a8.586,8.586,0,1,1,11.961,2.094A8.586,8.586,0,0,1,363.117,195.214Z" transform="translate(-361.556 -181.693)"/></g><g transform="translate(58.736 78.999)"><g clip-path="url(#ai)"><path d="M363.386,194.363a7.781,7.781,0,1,1,10.841,1.9A7.784,7.784,0,0,1,363.386,194.363Z" transform="translate(-361.973 -182.109)" fill="#fceeea"/><g transform="translate(2.921 -3.958)" opacity="0.6"><rect width="21.599" height="3.559" transform="translate(0 21.276) rotate(-80.075)" fill="#edd7d1"/><rect width="21.599" height="1.78" transform="translate(4.811 22.118) rotate(-80.075)" fill="#edd7d1"/></g></g></g><g transform="translate(32.341 45.603)"><rect width="2.76" height="10.166" transform="translate(18.514 1.586) rotate(-35.072)" fill="url(#aj)"/><rect width="2.76" height="10.166" transform="translate(13.885 4.836) rotate(-35.072)" fill="url(#ak)"/><rect width="2.76" height="10.166" transform="translate(9.257 8.086) rotate(-35.075)" fill="url(#al)"/><rect width="2.76" height="10.166" transform="translate(4.628 11.335) rotate(-35.072)" fill="url(#am)"/><rect width="2.76" height="10.166" transform="matrix(0.818, -0.575, 0.575, 0.818, 0, 14.585)" fill="url(#an)"/></g><g transform="translate(34.13 50.128)" opacity="0.1"><rect width="32.069" height="2.289" transform="translate(0 18.428) rotate(-35.073)"/></g><path d="M405.656,235.4s-15.241-2.076-26.458-9.262c0,0,2.789-2.483,7.023.236s5.378,4.062,9.569,4.673C403.569,232.187,405.656,235.4,405.656,235.4Z" transform="translate(-287.128 -62.901)" fill="#fff" opacity="0.5"/></g><g transform="translate(36.445 42.413)"><path d="M156.7,164.7s-14.889-15.623-5.96-26.506a13.39,13.39,0,0,1,7.021-4.387c5.283-1.364,14.819-1.331,22.179,12.59,0,0,5.5-24.873,32.652-22.171a19.934,19.934,0,0,1,13.935,7.466c4.031,5.266,6.719,14.27,1.345,29.231,0,0,22.092-9.113,27.773,4.7a15.2,15.2,0,0,1,.859,3.15c.966,5.428,1.86,19.95-15.561,22.069H137.237s-14.9-.211-18.125-12.226A15.34,15.34,0,0,1,122,165.178C126.651,159.344,136.846,152.863,156.7,164.7Z" transform="translate(-118.613 -124.021)" fill="#fef8f6"/></g><path d="M506.691,168.1C442.26,100.142,286.472,96.4,234.418,106.026c-16.811,3.112-33.391,8.079-48.472,16.135-10.516,5.618-20.675,13.235-25.463,24.155s-2.4,25.643,7.812,31.791c6.282,3.779,42.883,12.277,55.611-.654,2.957-3.005.817-8.584-2.512-11.176a17.342,17.342,0,0,0-12.008-3.149c-96.5,7.986-85.043,175.647-42.078,218.366,19.131,19.019,49.331,25.738,64.24,48.22,15.143,22.837,7.551,56.067-12.977,74.217s-50.655,22.568-77.418,16.689" transform="translate(-66.467 -102.104)" fill="none" stroke="#707070" stroke-miterlimit="10" stroke-width="0.5" stroke-dasharray="3"/><g transform="translate(209.964 310.537)"><path d="M285.885,294.07s11.528-12.095,4.613-20.52a10.359,10.359,0,0,0-5.434-3.4c-4.091-1.055-11.476-1.029-17.173,9.749,0,0-4.257-19.259-25.279-17.167a15.433,15.433,0,0,0-10.789,5.78c-3.121,4.077-5.2,11.05-1.041,22.632,0,0-17.1-7.056-21.5,3.64a11.663,11.663,0,0,0-.666,2.438c-.749,4.2-1.442,15.446,12.046,17.085h80.29s11.537-.162,14.032-9.465a11.876,11.876,0,0,0-2.231-10.405C309.147,289.923,301.256,284.9,285.885,294.07Z" transform="translate(-208.279 -262.575)" fill="#fef8f6"/></g><g transform="translate(28.117 160.272)"><path d="M120.652,185.023l-5.355,3.031c-2.386,1.349-.3,9.546,4.658,18.309s10.91,14.767,13.3,13.418l5.355-3.03Z" transform="translate(-114.31 -184.833)" fill="url(#ao)"/><path d="M136.019,216.842c-2.386,1.351-8.339-4.658-13.3-13.418s-7.042-16.958-4.656-18.309,8.339,4.658,13.3,13.42S138.4,215.493,136.019,216.842Z" transform="translate(-111.722 -184.925)" fill="url(#ap)"/></g><g transform="translate(281.787 300.887)"><path d="M245.663,284.439l4.493,4.2c2,1.871,9.2-2.572,16.075-9.925s10.825-14.833,8.822-16.7l-4.493-4.2Z" transform="translate(-245.143 -257.381)" fill="url(#aq)"/><path d="M270.812,258.016c2,1.871-1.949,9.351-8.824,16.7s-14.071,11.8-16.073,9.924,1.949-9.349,8.824-16.7S268.809,256.144,270.812,258.016Z" transform="translate(-245.394 -257.588)" fill="url(#ar)"/></g><path d="M192.243,310.57l98.384,4.654c6.758-.039,12.964,4.567,15.659,11.621l18.2,47.64c1.724,4.515-.933,9.486-5.242,9.8l-90.827,11.28c-7.011.519-13.668-4.027-16.58-11.327L187,319.888C185.241,315.478,187.989,310.593,192.243,310.57Z" transform="translate(-18.719 92.846)" opacity="0.3" fill="url(#a)"/><path d="M197.861,306.391l98.384,4.654c6.758-.039,12.964,4.567,15.659,11.621l18.2,47.64c1.724,4.515-.933,9.486-5.242,9.805l-90.827,11.278c-7.011.519-13.668-4.027-16.58-11.325L192.62,315.709C190.859,311.3,193.605,306.416,197.861,306.391Z" transform="translate(-13.465 88.938)" fill="url(#b)"/><g transform="translate(246.922 408.434)"><path d="M261.4,316.4h-.037l-33.055-1.3a.97.97,0,0,1-.931-1,.947.947,0,0,1,1.006-.931l33.055,1.3a.968.968,0,0,1-.039,1.935Z" transform="translate(-227.378 -313.163)" fill="#fef8f6"/></g><g transform="translate(233.624 419.344)" opacity="0.7"><path d="M274.095,322.035h-.025l-52.619-1.3a.969.969,0,0,1-.944-.993.933.933,0,0,1,.993-.942l52.619,1.3a.968.968,0,0,1-.023,1.935Z" transform="translate(-220.506 -318.801)" fill="#fef8f6"/></g><path d="M250.967,348.766c-2.411,9.157-13.525,14.169-24.82,11.195s-18.5-12.813-16.085-21.972,13.525-14.171,24.822-11.195S253.38,339.606,250.967,348.766Z" transform="translate(2.915 107.215)" fill="#fef8f6" opacity="0.7"/><g transform="translate(13.687 116.357)"><path d="M165.832,275.641l-2.626-1.941-24.546,8.906,1.713,11.073a234.239,234.239,0,0,1,28.654-8.561Z" transform="translate(-77.108 -57.991)" fill="url(#i)"/><path d="M141,278.577c3.884-1.126,10.365-1.469,8.906,9.554,0,0-8.426,31.069-17.689,35.044a1.244,1.244,0,0,1-1.658-.71c-1.093-3.013-2.835-13.24,6.864-40.515A5.394,5.394,0,0,1,141,278.577Z" transform="translate(-85.499 -53.929)" fill="url(#b)"/><g transform="translate(40.898 225.976)"><g clip-path="url(#aw)"><path d="M141,278.577c3.884-1.126,10.365-1.469,8.906,9.554,0,0-8.426,31.069-17.689,35.044a1.244,1.244,0,0,1-1.658-.71c-1.093-3.013-2.835-13.24,6.864-40.515A5.394,5.394,0,0,1,141,278.577Z" transform="translate(-126.397 -279.906)" fill="#fff"/></g></g><path d="M140.625,262.831l-18.618,8.43-3.865.47-1.053,12.879s18.968-7.259,32.2-9.718Z" transform="translate(-97.28 -68.155)" fill="url(#i)"/><path d="M119.637,268.575s20.035-6.763,8.553,11.255c0,0-27.288,32.538-20.145,11.7C108.045,291.526,116.331,269.812,119.637,268.575Z" transform="translate(-106.853 -63.947)" fill="url(#b)"/><g transform="translate(0 203.384)"><path d="M119.637,268.575s20.035-6.763,8.553,11.255c0,0-27.288,32.538-20.145,11.7C108.045,291.526,116.331,269.812,119.637,268.575Z" transform="translate(-106.853 -267.331)" fill="url(#a)"/><g clip-path="url(#ba)"><path d="M112.736,269.866s18.64-9.985,10.3,9.686c0,0-21.529,36.6-17.931,14.866C105.1,294.417,109.681,271.631,112.736,269.866Z" transform="translate(-108.87 -267.331)" fill="#fff"/></g></g><path d="M193.163,231.194s-12.234,4.077-18.192,24.151c0,0-9.1,24.308-46.421,39.6,0,0-2.823,10.974,8.468,21.287,0,0,48.3-13.209,68.377-51.162v37.639l-33.562,13.523s-2.823,8.747,7.841,19.1c0,0,27.6-5.958,41.4-16.623,0,0,13.173-8.128,21.643-73.381l-23.212-17.747Z" transform="translate(-86.857 -101.126)" fill="url(#h)"/><g transform="translate(41.379 126.449)"><g clip-path="url(#bc)"><path d="M159.075,281.586s9.018-6.442,7.75-27.677c0,0,0-12.143,9.724-19.965,0,0-2.326,9.513,0,17.335a30.69,30.69,0,0,1,.006,10.57l-4.869,18.6Z" transform="translate(-99.396 -221.619)" fill="url(#bd)"/></g></g><path d="M220,177.874a20.791,20.791,0,0,0,10.587,9.569,5.039,5.039,0,0,1-1.424,1.73s8.958,9.875,1.424,11.5a22.191,22.191,0,0,0-5.4,2.545l-10.79,3.969h-8.449s-5.5-11.808-5.192-12.927,4.377-10.79,4.377-10.79Z" transform="translate(-19.05 -147.604)" fill="url(#i)"/><path d="M225.133,216.1s23.073-3.785,47.771-29.583c0,0,.13-14.953,5.275-16.561,0,0,2.359-.644-.857,9.755a57.812,57.812,0,0,0,14.471-17.475s3.752,3.576-2.465,18.779a35.892,35.892,0,0,1,4.5-6.129,35.624,35.624,0,0,1-13.506,20.046s-34.339,35.121-55.686,38.194l-6.3-6.775,2.363-7.642Z" transform="translate(-2.599 -162.232)" fill="url(#bf)"/><path d="M234.421,224.347s-13.844,24.362-19.036,36.211L236.151,276.8s.532-9.852,20.9-35.412Z" transform="translate(-5.358 -104.144)" fill="url(#h)"/><path d="M215.751,214.327S211.636,241.6,231.6,250.745c0,0,9.447-1.827,15.847-.913,0,0-.61,4.724-6.705,4.877l-5.79,11.733s-5.79-3.9-7.466-8.73c0,0-24.534-4.832-31.239-34.09Z" transform="translate(-23.256 -113.515)" fill="url(#i)"/><path d="M171.862,259.562s-22.945,10.361-6.328,7.284c0,0,26.5-2.361,50.169,14.752,0,0,3.2-24.31,19.193-36.625,0,0,17.912,2.88,19.99-17.753,0,0,3.04-14.394,26.071-19.992,0,0-7.516-4.416-.8-17.161,0,0-22.392,3.888-33.428,4.687l-29.146,9.625-23.326,24.94s-10.446,13.432-15.23,25.521A31.138,31.138,0,0,1,171.862,259.562Z" transform="translate(-57.624 -136.203)" fill="url(#b)"/><path d="M148.273,213.549s6.388-7.187,31.145-3.673c0,0,38.125,10.734,47.758-6.071,0,0,15.013-37.215,36.257-30.347,0,0,13.442,5.308,2.808,18.307a49.027,49.027,0,0,1-3.894,4.242s-5.268-1.283-5.807,3.716c0,0-.406,4.66,4.929,4.05,0,0-1.629,12.114-19.741,16.908a25.177,25.177,0,0,0-19.657,14.179s-16.55,29.229-39.017,1.012C183.054,235.871,164.788,208.941,148.273,213.549Z" transform="translate(-68.118 -152.525)" fill="#01033b"/><g transform="translate(227.06 125.97)"><g transform="translate(2.478)"><path d="M233.5,234.076a.729.729,0,0,1-.426-.137l-7.311-5.3a.725.725,0,1,1,.85-1.175l7.313,5.3a.726.726,0,0,1-.426,1.314Z" transform="translate(-225.467 -227.327)" fill="#fff"/></g><g transform="translate(0 4.675)"><path d="M235.913,239.318a.733.733,0,0,1-.432-.141l-11-8.124a.725.725,0,0,1,.861-1.167l11,8.122a.726.726,0,0,1-.432,1.31Z" transform="translate(-224.187 -229.743)" fill="#fff"/></g></g></g><path d="M210.665,334.29c0,4.985-24.822,9.027-55.442,9.027S99.78,339.275,99.78,334.29s24.822-9.026,55.442-9.026S210.665,329.3,210.665,334.29Z" transform="translate(-99.78 106.587)" fill="#ead1cc" opacity="0.6"/></g></g></svg>