<?xml version="1.0" encoding="utf-8"?>
<svg xmlns="http://www.w3.org/2000/svg" width="91" height="87.177" viewBox="0 0 91 87.177"><g transform="translate(0 -0.5)"><g transform="translate(0 0.5)"><path d="M8.412,21.676H.765A.765.765,0,0,1,0,20.912V13.265A.765.765,0,0,1,.765,12.5H8.412a.765.765,0,0,1,.765.765v7.647A.765.765,0,0,1,8.412,21.676ZM1.529,20.147H7.647V14.029H1.529Zm0,0" transform="translate(0 -10.206)" fill="#263238"/><path d="M392.412,21.676h-7.647a.765.765,0,0,1-.765-.765V13.265a.765.765,0,0,1,.765-.765h7.647a.765.765,0,0,1,.765.765v7.647A.765.765,0,0,1,392.412,21.676Zm-6.882-1.529h6.118V14.029h-6.118Zm0,0" transform="translate(-310.588 -10.206)" fill="#263238"/><path d="M8.412,405.676H.765A.765.765,0,0,1,0,404.912v-7.647a.765.765,0,0,1,.765-.765H8.412a.765.765,0,0,1,.765.765v7.647A.765.765,0,0,1,8.412,405.676Zm-6.882-1.529H7.647v-6.118H1.529Zm0,0" transform="translate(0 -320.794)" fill="#263238"/><path d="M392.412,405.676h-7.647a.765.765,0,0,1-.765-.765v-7.647a.765.765,0,0,1,.765-.765h7.647a.765.765,0,0,1,.765.765v7.647A.765.765,0,0,1,392.412,405.676Zm-6.882-1.529h6.118v-6.118h-6.118Zm0,0" transform="translate(-310.588 -320.794)" fill="#263238"/><path d="M90.353,107.441H24.588a.765.765,0,0,1-.765-.765v-3.059H20.765a.765.765,0,0,1-.765-.765V37.088a.765.765,0,0,1,.765-.765h3.059V33.265a.765.765,0,0,1,.765-.765H90.353a.765.765,0,0,1,.765.765v3.059h3.059a.765.765,0,0,1,.765.765v39a.765.765,0,0,1-1.529,0V37.853H90.353a.765.765,0,0,1-.765-.765V34.029H25.353v3.059a.765.765,0,0,1-.765.765H21.529v64.235h3.059a.765.765,0,0,1,.765.765v3.059H89.588v-3.059a.765.765,0,0,1,.765-.765h3.059V94.441a.765.765,0,0,1,1.529,0v8.412a.765.765,0,0,1-.765.765H91.118v3.059A.765.765,0,0,1,90.353,107.441Zm0,0" transform="translate(-16.176 -26.382)" fill="#263238"/><path d="M119.824,450.029h-3.059a.765.765,0,0,1,0-1.529h3.059a.765.765,0,1,1,0,1.529Zm0,0" transform="translate(-93.824 -362.853)" fill="#263238"/><path d="M179.353,450.029H148.765a.765.765,0,1,1,0-1.529h30.588a.765.765,0,0,1,0,1.529Zm0,0" transform="translate(-119.706 -362.853)" fill="#263238"/><path d="M295.824,2.029h-3.059a.765.765,0,1,1,0-1.529h3.059a.765.765,0,1,1,0,1.529Zm0,0" transform="translate(-236.176 -0.5)" fill="#263238"/><path d="M147.353,2.029H116.765a.765.765,0,0,1,0-1.529h30.588a.765.765,0,0,1,0,1.529Zm0,0" transform="translate(-93.824 -0.5)" fill="#263238"/></g><path d="M129.529,106.265A13.765,13.765,0,1,1,115.765,92.5,13.764,13.764,0,0,1,129.529,106.265Zm0,0" transform="translate(-82.5 -74.412)" fill="#ffd740"/><path d="M112.529,117.559a14.529,14.529,0,1,1,14.529-14.529A14.547,14.547,0,0,1,112.529,117.559Zm0-27.529a13,13,0,1,0,13,13A13.015,13.015,0,0,0,112.529,90.029Zm0,0" transform="translate(-79.265 -71.176)" fill="#263238"/><path d="M198.294,117.564a.771.771,0,0,1-.343-.081l-27.529-13.765a.764.764,0,0,1,0-1.367l27.529-13.765a.764.764,0,0,1,1.107.683V116.8a.762.762,0,0,1-.765.765Zm-25.819-14.529,25.055,12.527V90.507Zm0,0" transform="translate(-137.5 -71.182)" fill="#263238"/><path d="M116.059,286.263a.768.768,0,0,1-.285-.055L100.48,280.09a.764.764,0,0,1,0-1.419l15.294-6.118a.765.765,0,0,1,1.049.709V285.5a.767.767,0,0,1-.337.633A.756.756,0,0,1,116.059,286.263Zm-13.235-6.882,12.471,4.989v-9.977Zm0,0" transform="translate(-80.882 -219.998)" fill="#263238"/><path d="M107.664,297.115a.765.765,0,0,1-.765-.765V291.96l-5.85,2.34a.763.763,0,1,1-.568-1.417l6.9-2.761a.766.766,0,0,1,1.049.709v5.52A.765.765,0,0,1,107.664,297.115Zm0,0" transform="translate(-80.883 -234.207)" fill="#263238"/><path d="M235.235,288.735a3.823,3.823,0,0,0,3.824-3.824v-4.588a3.823,3.823,0,0,0-3.824-3.824H184v12.235Zm0,0" transform="translate(-148.824 -223.235)" fill="none"/><path d="M232,286.265H180.765A.765.765,0,0,1,180,285.5V273.265a.765.765,0,0,1,.765-.765H232a4.594,4.594,0,0,1,4.588,4.588v4.588A4.594,4.594,0,0,1,232,286.265Zm-50.471-1.529H232a3.062,3.062,0,0,0,3.059-3.059v-4.588A3.062,3.062,0,0,0,232,274.029H181.529Zm0,0" transform="translate(-145.588 -220)" fill="#263238"/><path d="M393.176,288.731H384V276.5h9.176Zm0,0" transform="translate(-310.588 -223.232)" fill="#ff5252"/><path d="M389.941,286.265h-9.176A.765.765,0,0,1,380,285.5V273.265a.765.765,0,0,1,.765-.765h9.176a.765.765,0,0,1,.765.765V285.5A.765.765,0,0,1,389.941,286.265Zm-8.412-1.529h7.647V274.029h-7.647Zm0,0" transform="translate(-307.353 -220)" fill="#263238"/><path d="M219,306.029H180.765a.765.765,0,1,1,0-1.529H219a.765.765,0,0,1,0,1.529Zm0,0" transform="translate(-145.588 -245.882)" fill="#263238"/></g></svg>