<?xml version="1.0" encoding="utf-8"?>
<svg xmlns="http://www.w3.org/2000/svg" width="80.025" height="80" viewBox="0 0 80.025 80"><g transform="translate(0 -0.001)"><path d="M116.656,423.47a39.928,39.928,0,0,0-63.367,0Zm0,0" transform="translate(-44.96 -344.094)" fill="none"/><path d="M113.285,420.72a.624.624,0,0,1-.5-.244,39.3,39.3,0,0,0-62.375,0,.625.625,0,0,1-.992-.763,40.553,40.553,0,0,1,64.357,0,.626.626,0,0,1-.5,1.007Zm0,0" transform="translate(-41.589 -340.72)" fill="#263238"/><path d="M441.627,89.09h-5a.625.625,0,0,1,0-1.25h5a.625.625,0,1,1,0,1.25Zm0,0" transform="translate(-367.854 -74.11)" fill="#263238"/><path d="M452.625,78.092a.626.626,0,0,1-.625-.625v-5a.625.625,0,0,1,1.25,0v5A.626.626,0,0,1,452.625,78.092Zm0,0" transform="translate(-381.353 -60.611)" fill="#263238"/><path d="M401.627,129.09h-5a.625.625,0,0,1,0-1.25h5a.625.625,0,0,1,0,1.25Zm0,0" transform="translate(-334.106 -107.858)" fill="#263238"/><path d="M412.625,118.092a.626.626,0,0,1-.625-.625v-5a.625.625,0,1,1,1.25,0v5A.626.626,0,0,1,412.625,118.092Zm0,0" transform="translate(-347.605 -94.359)" fill="#263238"/><path d="M315.63,228.222h-15A.626.626,0,0,1,300,227.6V204.465a.625.625,0,0,1,1.059-.451l15.871,15.261a1.886,1.886,0,0,1,.575,1.352v5.72A1.878,1.878,0,0,1,315.63,228.222Zm-14.379-1.25H315.63a.626.626,0,0,0,.625-.625v-5.72a.628.628,0,0,0-.191-.45L301.25,205.932Zm0,0" transform="translate(-253.111 -171.979)" fill="#263238"/><path d="M304,323.84h16.255v3.751a1.251,1.251,0,0,1-1.25,1.25H304Zm0,0" transform="translate(-256.485 -273.223)" fill="#ff5252"/><path d="M315.63,326.092h-15a.626.626,0,0,1-.625-.625v-5a.625.625,0,0,1,.625-.625H316.88a.625.625,0,0,1,.625.625v3.751A1.878,1.878,0,0,1,315.63,326.092Zm-14.379-1.25H315.63a.626.626,0,0,0,.625-.625V321.09h-15Zm0,0" transform="translate(-253.111 -269.849)" fill="#263238"/><path d="M168,131.84h6.252v7.5H168Zm0,0" transform="translate(-141.742 -111.233)" fill="#ff5252"/><path d="M170.877,136.593h-6.252a.626.626,0,0,1-.625-.625v-7.5a.625.625,0,0,1,.625-.625h6.252a.625.625,0,0,1,.625.625v7.5A.626.626,0,0,1,170.877,136.593Zm-5.627-1.25h5V129.09h-5Zm0,0" transform="translate(-138.367 -107.858)" fill="#263238"/><path d="M116.88,228.223h-15A1.878,1.878,0,0,1,100,226.348v-5.72a1.886,1.886,0,0,1,.575-1.352l15.871-15.261a.625.625,0,0,1,1.059.451V227.6A.626.626,0,0,1,116.88,228.223Zm-.625-22.29-14.814,14.243a.623.623,0,0,0-.191.45v5.721a.626.626,0,0,0,.625.625h14.379Zm-15.246,13.793h.012Zm0,0" transform="translate(-84.37 -171.98)" fill="#263238"/><path d="M306.877,371.591h-5A1.878,1.878,0,0,1,300,369.715v-1.25a.625.625,0,0,1,1.25,0v1.25a.626.626,0,0,0,.625.625h5a.626.626,0,0,0,.625-.625v-1.25a.625.625,0,1,1,1.25,0v1.25A1.878,1.878,0,0,1,306.877,371.591Zm0,0" transform="translate(-253.111 -310.346)" fill="#263238"/><path d="M162.877,371.591h-5A1.878,1.878,0,0,1,156,369.715v-1.25a.625.625,0,0,1,1.25,0v1.25a.626.626,0,0,0,.625.625h5a.626.626,0,0,0,.625-.625v-1.25a.625.625,0,0,1,1.25,0v1.25A1.878,1.878,0,0,1,162.877,371.591Zm0,0" transform="translate(-131.617 -310.346)" fill="#263238"/><path d="M310.252,139.342H304v-7.5h6.252Zm0,0" transform="translate(-256.485 -111.233)" fill="#ff5252"/><path d="M306.877,136.593h-6.252a.626.626,0,0,1-.625-.625v-7.5a.625.625,0,0,1,.625-.625h6.252a.625.625,0,0,1,.625.625v7.5A.626.626,0,0,1,306.877,136.593Zm-5.627-1.25h5V129.09h-5Zm0,0" transform="translate(-253.111 -107.858)" fill="#263238"/><path d="M306.877,93.035a.626.626,0,0,1-.625-.625V76.339a5.638,5.638,0,0,0-.6-2.517l-1.905-3.813-1.905,3.813a5.634,5.634,0,0,0-.6,2.517v13.53a.625.625,0,0,1-1.25,0V76.339a6.91,6.91,0,0,1,.727-3.076l2.466-4.931a.652.652,0,0,1,1.119,0l2.465,4.931a6.909,6.909,0,0,1,.727,3.076V92.41A.627.627,0,0,1,306.877,93.035Zm0,0" transform="translate(-253.111 -57.382)" fill="#263238"/><path d="M120.255,323.84H104v3.751a1.251,1.251,0,0,0,1.25,1.25h15Zm0,0" transform="translate(-87.745 -273.223)" fill="#ff5252"/><g transform="translate(15.63 0.001)"><path d="M116.88,326.092h-15A1.878,1.878,0,0,1,100,324.216v-3.751a.625.625,0,0,1,.625-.625H116.88a.625.625,0,0,1,.625.625v5A.626.626,0,0,1,116.88,326.092Zm-15.63-5v3.126a.626.626,0,0,0,.625.625h14.379V321.09Zm0,0" transform="translate(-100 -269.85)" fill="#263238"/><path d="M219.63,58.744h-15a.626.626,0,0,1-.625-.625V20.732a25.689,25.689,0,0,1,3.131-12.274L211.58.3a.65.65,0,0,1,1.1,0l4.449,8.156a25.7,25.7,0,0,1,3.13,12.274V58.119A.626.626,0,0,1,219.63,58.744Zm-14.379-1.25H219V20.732a24.456,24.456,0,0,0-2.977-11.676l-3.9-7.149-3.9,7.149a24.456,24.456,0,0,0-2.977,11.676Zm0,0" transform="translate(-187.745 -0.001)" fill="#263238"/><path d="M164.625,93.035A.626.626,0,0,1,164,92.41V76.339a6.909,6.909,0,0,1,.727-3.076l2.466-4.931a.652.652,0,0,1,1.119,0l2.465,4.931a6.909,6.909,0,0,1,.727,3.076V87.391a.625.625,0,1,1-1.25,0V76.339a5.638,5.638,0,0,0-.6-2.517l-1.907-3.813-1.906,3.813a5.634,5.634,0,0,0-.6,2.517V92.41A.625.625,0,0,1,164.625,93.035Zm0,0" transform="translate(-153.997 -57.383)" fill="#263238"/><path d="M272.625,475.591a.626.626,0,0,1-.625-.625v-2.5a.625.625,0,0,1,1.25,0v2.5A.626.626,0,0,1,272.625,475.591Zm0,0" transform="translate(-245.117 -398.092)" fill="#263238"/><path d="M272.625,396.344a.626.626,0,0,1-.625-.625V384.465a.625.625,0,0,1,1.25,0v11.253A.626.626,0,0,1,272.625,396.344Zm0,0" transform="translate(-245.117 -323.847)" fill="#263238"/><path d="M232.625,475.591a.626.626,0,0,1-.625-.625v-2.5a.625.625,0,0,1,1.25,0v2.5A.626.626,0,0,1,232.625,475.591Zm0,0" transform="translate(-211.369 -398.092)" fill="#263238"/><path d="M232.625,396.344a.626.626,0,0,1-.625-.625V384.465a.625.625,0,0,1,1.25,0v11.253A.626.626,0,0,1,232.625,396.344Zm0,0" transform="translate(-211.369 -323.847)" fill="#263238"/><path d="M238.877,73.09h-6.252a.625.625,0,1,1,0-1.25h6.252a.625.625,0,0,1,0,1.25Zm0,0" transform="translate(-211.369 -60.612)" fill="#263238"/></g><path d="M30,114.841a5,5,0,1,1-5-5A5,5,0,0,1,30,114.841Zm0,0" transform="translate(-16.874 -92.671)" fill="#ffd740"/><path d="M21.627,117.093a5.627,5.627,0,1,1,5.627-5.627A5.634,5.634,0,0,1,21.627,117.093Zm0-10A4.376,4.376,0,1,0,26,111.467,4.381,4.381,0,0,0,21.627,107.09Zm0,0" transform="translate(-13.499 -89.296)" fill="#263238"/><path d="M474.252,236.966a3.126,3.126,0,1,1-3.126-3.126A3.126,3.126,0,0,1,474.252,236.966Zm0,0" transform="translate(-394.852 -197.29)" fill="#ffd740"/><path d="M467.751,237.342a3.751,3.751,0,1,1,3.751-3.751A3.756,3.756,0,0,1,467.751,237.342Zm0-6.252a2.5,2.5,0,1,0,2.5,2.5A2.5,2.5,0,0,0,467.751,231.09Zm0,0" transform="translate(-391.478 -193.915)" fill="#263238"/><path d="M15.63,139.09h-15a.625.625,0,0,1,0-1.25h15a.625.625,0,0,1,0,1.25Zm0,0" transform="translate(0 -116.295)" fill="#263238"/></g></svg>