<?xml version="1.0" encoding="utf-8"?>
<svg xmlns="http://www.w3.org/2000/svg" xmlns:xlink="http://www.w3.org/1999/xlink" width="259" height="259" viewBox="0 0 259 259"><defs><filter id="a" x="0" y="0" width="259" height="259" filterUnits="userSpaceOnUse"><feOffset dy="20" input="SourceAlpha"/><feGaussianBlur stdDeviation="25" result="b"/><feFlood flood-opacity="0.161"/><feComposite operator="in" in2="b"/><feComposite in="SourceGraphic"/></filter></defs><g transform="translate(-107 -4597.759)"><g transform="matrix(1, 0, 0, 1, 107, 4597.76)" filter="url(#a)"><rect width="109" height="109" rx="54.5" transform="translate(75 55)" fill="#ed6a04"/></g><path d="M-11.009-63.38a5.567,5.567,0,0,1-4.406-1.97q-1.71-1.97-1.71-6.012a16.446,16.446,0,0,1,2.747-9.381q2.747-4.095,8.552-5.131l.415,2.7q-6.531,1.762-6.531,6.116a1.964,1.964,0,0,0,1.762,2.177q5.079.829,5.079,5.6a5.585,5.585,0,0,1-1.71,4.354A6.013,6.013,0,0,1-11.009-63.38Zm16.171,0A5.567,5.567,0,0,1,.757-65.35q-1.71-1.97-1.71-6.012a16.446,16.446,0,0,1,2.747-9.381q2.747-4.095,8.552-5.131l.415,2.7q-6.531,1.762-6.531,6.116a1.964,1.964,0,0,0,1.762,2.177q5.079.829,5.079,5.6a5.585,5.585,0,0,1-1.71,4.354A6.013,6.013,0,0,1,5.162-63.38Z" transform="translate(237.321 4782.559)" fill="#fff"/></g></svg>