<?xml version="1.0" encoding="utf-8"?>
<svg xmlns="http://www.w3.org/2000/svg" width="113.838" height="45.321" viewBox="0 0 113.838 45.321"><g transform="translate(-239.162 145)"><path d="M-23.838-20.01V13.15h7.209V-1.027c0-3.6,2.018-6.392,5.431-6.392,2.6,0,3.845,1.538,3.845,4.229V13.15H-.145V-3.718c0-6.152-3.893-9.179-9.083-9.179a9.041,9.041,0,0,0-7.4,3.46V-20.01Zm39.12,33.737c7.4,0,11.63-3.508,11.63-10.044v-16H19.7V3.923a4.114,4.114,0,0,1-4.421,4.421,4.077,4.077,0,0,1-4.373-4.421V-12.321H3.7v16C3.7,10.219,7.929,13.727,15.282,13.727ZM31-20.01V13.15h6.632V9.5c1.682,2.884,4.614,4.229,8.17,4.229,5.863,0,10.669-3.749,10.669-13.312S51.662-12.9,45.8-12.9c-3.028,0-6.055,1.153-7.593,3.412V-20.01ZM43.636,8.345c-3.124,0-5.575-1.922-5.575-7.93s2.451-7.93,5.575-7.93c3.556,0,5.479,2.163,5.479,7.93C49.115,6.23,47.145,8.345,43.636,8.345Z" transform="translate(263 -113.406)" fill="#fff"/><ellipse cx="11.5" cy="12" rx="11.5" ry="12" transform="translate(330 -145)" fill="#fff" opacity="0.304"/></g></svg>