<?xml version="1.0" encoding="utf-8" ?>
<svg xmlns="http://www.w3.org/2000/svg" width="46.226" height="20.86" viewBox="0 0 46.226 20.86"><path d="M866.8,539.871c6.177-1.707,9.969.009,12.472,5.591,2.11,4.705,5.161,8.988,7.829,13.516-6.665,1.936-8.07,1.437-11.256-3.892C872.881,550.124,869.937,545.148,866.8,539.871Z" transform="translate(-866.801 -539.154)" fill="#fff"/><path d="M902.352,559.3c-6.151,1.652-9.864.066-12.336-5.389-2.184-4.821-5.323-9.208-8.09-13.871,7.826-1.643,8.082-1.529,11.815,4.781C896.53,549.531,899.34,554.234,902.352,559.3Z" transform="translate(-868.407 -539.144)" fill="#fff"/><path d="M906.824,556.042c-2.127-3.6-4.018-6.443-5.544-9.47-1.9-3.771-.057-6.791,4.134-7.155.589-.051,1.185-.019,1.778-.019,2.809,0,5.618,0,9.407,0Z" transform="translate(-870.373 -539.169)" fill="#fff"/></svg>