<?xml version="1.0" encoding="utf-8" ?>
<svg xmlns="http://www.w3.org/2000/svg" width="151.767" height="126.39" viewBox="0 0 151.767 126.39"><path d="M500.029,256.08a76.308,76.308,0,0,1-24.112-6.294c-2.98-1.332-5.668.29-6.061,3.477a13.933,13.933,0,0,0,1.307,7.282c-44.22,6.28-87.331.8-128.489-17.206-1.638-.715-3.083,1.545-1.44,2.463,39.324,21.96,88.218,30.1,132.6,21.508a64.038,64.038,0,0,1,2.159,8.612c.393,2.178,2.438,2.527,3.988,1.736a4.2,4.2,0,0,0,2.008-.444c7.485-3.827,14.327-8.965,20.957-14.095C506.089,260.687,503.124,256.37,500.029,256.08Z" transform="matrix(0.799, 0.602, -0.602, 0.799, -104.612, -399.153)" fill="#ffe819"/></svg>