<?xml version="1.0" encoding="utf-8" ?>
<svg xmlns="http://www.w3.org/2000/svg" width="75.81" height="18.536" viewBox="0 0 75.81 18.536"><g transform="translate(0 0)"><circle cx="9.268" cy="9.268" r="9.268" fill="#597ffb"/><circle cx="9.268" cy="9.268" r="9.268" transform="translate(9.268)" fill="#f85976" opacity="0.316"/></g><path d="M-23.838-20.01V-2.62h3.781v-7.435c0-1.89,1.059-3.352,2.848-3.352,1.361,0,2.016.807,2.016,2.218V-2.62h3.781v-8.846a4.421,4.421,0,0,0-4.763-4.814,4.741,4.741,0,0,0-3.881,1.815V-20.01ZM-3.322-2.317c3.881,0,6.1-1.84,6.1-5.268v-8.393H-1v8.519A2.157,2.157,0,0,1-3.322-5.14,2.138,2.138,0,0,1-5.616-7.459v-8.519H-9.4v8.393C-9.4-4.157-7.178-2.317-3.322-2.317ZM4.919-20.01V-2.62H8.4V-4.535a4.657,4.657,0,0,0,4.285,2.218c3.075,0,5.6-1.966,5.6-6.981s-2.52-6.981-5.6-6.981A4.792,4.792,0,0,0,8.7-14.49v-5.52ZM11.548-5.14C9.91-5.14,8.624-6.148,8.624-9.3s1.285-4.159,2.924-4.159c1.865,0,2.873,1.134,2.873,4.159C14.421-6.249,13.388-5.14,11.548-5.14Z" transform="translate(57.533 20.01)" fill="#191922"/></svg>