<svg xmlns="http://www.w3.org/2000/svg" width="88.837" height="24.01" viewBox="0 0 88.837 24.01"><path d="M84.323,11.463l4.752,12.581c-1.4-.2-2.8-.451-4.226-.676l-2.677-6.952-2.751,6.378c-1.35-.226-2.676-.3-4.027-.476l4.827-11L75.844.034H79.9l2.451,6.3,2.627-6.3h4.1ZM72.645.034H68.968V21.843c1.2.075,2.451.125,3.677.275ZM65.791,21.593c-3.351-.225-6.7-.424-10.129-.5V.034h3.751V17.541c2.151.05,4.3.224,6.378.324ZM51.66,8.563v3.751H46.533v8.528h-3.7V.034h10.5V3.785h-6.8V8.563H51.66ZM36.529,3.785V21.043c-1.251,0-2.526,0-3.752.05V3.785H28.9V.034H40.429V3.785Zm-11.68,8.729c-1.65,0-3.6,0-5,.076v5.577c2.2-.15,4.4-.325,6.627-.4v3.6L16.1,22.194V.034H26.473V3.785H19.846V8.838c1.451,0,3.677-.075,5-.075v3.752Zm-20.785-2.1V23.518c-1.349.15-2.551.326-3.826.526V.034H3.815L8.691,13.665V.034h3.752V22.493c-1.325.226-2.676.3-4.1.5Z" transform="translate(-0.238 -0.034)" fill="#fff"/></svg>